G04 #@! TF.GenerationSoftware,KiCad,Pcbnew,5.1.2-f72e74a~84~ubuntu18.04.1*
G04 #@! TF.CreationDate,2019-06-13T20:11:50+02:00*
G04 #@! TF.ProjectId,cpu_luefter_ansteuerung,6370755f-6c75-4656-9674-65725f616e73,rev?*
G04 #@! TF.SameCoordinates,Original*
G04 #@! TF.FileFunction,Copper,L1,Top*
G04 #@! TF.FilePolarity,Positive*
%FSLAX46Y46*%
G04 Gerber Fmt 4.6, Leading zero omitted, Abs format (unit mm)*
G04 Created by KiCad (PCBNEW 5.1.2-f72e74a~84~ubuntu18.04.1) date 2019-06-13 20:11:50*
%MOMM*%
%LPD*%
G04 APERTURE LIST*
%ADD10R,1.600000X1.600000*%
%ADD11C,1.600000*%
%ADD12C,2.000000*%
%ADD13C,5.600000*%
%ADD14R,2.200000X2.200000*%
%ADD15O,2.200000X2.200000*%
%ADD16C,0.100000*%
%ADD17C,1.740000*%
%ADD18O,2.200000X1.740000*%
%ADD19R,1.727200X1.727200*%
%ADD20O,1.727200X1.727200*%
%ADD21R,1.000000X1.000000*%
%ADD22O,1.000000X1.000000*%
%ADD23O,1.050000X1.500000*%
%ADD24R,1.050000X1.500000*%
%ADD25O,1.600000X1.600000*%
%ADD26R,1.905000X2.000000*%
%ADD27O,1.905000X2.000000*%
%ADD28R,1.600000X2.400000*%
%ADD29O,1.600000X2.400000*%
%ADD30C,0.800000*%
%ADD31C,0.250000*%
%ADD32C,0.500000*%
%ADD33C,0.254000*%
G04 APERTURE END LIST*
D10*
X130175000Y-113030000D03*
D11*
X130175000Y-115570000D03*
X130175000Y-118110000D03*
X130175000Y-120650000D03*
X130175000Y-123190000D03*
X125095000Y-123190000D03*
X125095000Y-120650000D03*
X125095000Y-118110000D03*
X125095000Y-115570000D03*
X125095000Y-113030000D03*
D12*
X124460000Y-131390000D03*
X124460000Y-135890000D03*
X130960000Y-131390000D03*
X130960000Y-135890000D03*
D13*
X148590000Y-135890000D03*
X105410000Y-135890000D03*
X148590000Y-76200000D03*
X105410000Y-76200000D03*
D11*
X118110000Y-91440000D03*
X118110000Y-88940000D03*
X139700000Y-101640000D03*
X139700000Y-104140000D03*
X111800000Y-105410000D03*
X114300000Y-105410000D03*
X106045000Y-105410000D03*
X108545000Y-105410000D03*
D14*
X147320000Y-82550000D03*
D15*
X147320000Y-92710000D03*
D16*
G36*
X115174505Y-75331204D02*
G01*
X115198773Y-75334804D01*
X115222572Y-75340765D01*
X115245671Y-75349030D01*
X115267850Y-75359520D01*
X115288893Y-75372132D01*
X115308599Y-75386747D01*
X115326777Y-75403223D01*
X115343253Y-75421401D01*
X115357868Y-75441107D01*
X115370480Y-75462150D01*
X115380970Y-75484329D01*
X115389235Y-75507428D01*
X115395196Y-75531227D01*
X115398796Y-75555495D01*
X115400000Y-75579999D01*
X115400000Y-76820001D01*
X115398796Y-76844505D01*
X115395196Y-76868773D01*
X115389235Y-76892572D01*
X115380970Y-76915671D01*
X115370480Y-76937850D01*
X115357868Y-76958893D01*
X115343253Y-76978599D01*
X115326777Y-76996777D01*
X115308599Y-77013253D01*
X115288893Y-77027868D01*
X115267850Y-77040480D01*
X115245671Y-77050970D01*
X115222572Y-77059235D01*
X115198773Y-77065196D01*
X115174505Y-77068796D01*
X115150001Y-77070000D01*
X113449999Y-77070000D01*
X113425495Y-77068796D01*
X113401227Y-77065196D01*
X113377428Y-77059235D01*
X113354329Y-77050970D01*
X113332150Y-77040480D01*
X113311107Y-77027868D01*
X113291401Y-77013253D01*
X113273223Y-76996777D01*
X113256747Y-76978599D01*
X113242132Y-76958893D01*
X113229520Y-76937850D01*
X113219030Y-76915671D01*
X113210765Y-76892572D01*
X113204804Y-76868773D01*
X113201204Y-76844505D01*
X113200000Y-76820001D01*
X113200000Y-75579999D01*
X113201204Y-75555495D01*
X113204804Y-75531227D01*
X113210765Y-75507428D01*
X113219030Y-75484329D01*
X113229520Y-75462150D01*
X113242132Y-75441107D01*
X113256747Y-75421401D01*
X113273223Y-75403223D01*
X113291401Y-75386747D01*
X113311107Y-75372132D01*
X113332150Y-75359520D01*
X113354329Y-75349030D01*
X113377428Y-75340765D01*
X113401227Y-75334804D01*
X113425495Y-75331204D01*
X113449999Y-75330000D01*
X115150001Y-75330000D01*
X115174505Y-75331204D01*
X115174505Y-75331204D01*
G37*
D17*
X114300000Y-76200000D03*
D18*
X114300000Y-78740000D03*
D19*
X130810000Y-77470000D03*
D20*
X130810000Y-80010000D03*
X128270000Y-77470000D03*
X128270000Y-80010000D03*
X125730000Y-77470000D03*
X125730000Y-80010000D03*
D21*
X140970000Y-76200000D03*
D22*
X140970000Y-77470000D03*
X140970000Y-78740000D03*
X140970000Y-80010000D03*
D23*
X142240000Y-85090000D03*
X140970000Y-85090000D03*
D24*
X143510000Y-85090000D03*
D11*
X147320000Y-105410000D03*
D25*
X147320000Y-95250000D03*
X142875000Y-99695000D03*
D11*
X142875000Y-89535000D03*
D25*
X144145000Y-121920000D03*
D11*
X133985000Y-121920000D03*
X133985000Y-125730000D03*
D25*
X144145000Y-125730000D03*
X111125000Y-121920000D03*
D11*
X121285000Y-121920000D03*
X121285000Y-116840000D03*
D25*
X111125000Y-116840000D03*
D11*
X121285000Y-113030000D03*
D25*
X111125000Y-113030000D03*
X144145000Y-116840000D03*
D11*
X133985000Y-116840000D03*
X133985000Y-113030000D03*
D25*
X144145000Y-113030000D03*
X111125000Y-125730000D03*
D11*
X121285000Y-125730000D03*
D26*
X107315000Y-101600000D03*
D27*
X109855000Y-101600000D03*
X112395000Y-101600000D03*
D10*
X121920000Y-93980000D03*
D25*
X137160000Y-86360000D03*
X124460000Y-93980000D03*
X134620000Y-86360000D03*
X127000000Y-93980000D03*
X132080000Y-86360000D03*
X129540000Y-93980000D03*
X129540000Y-86360000D03*
X132080000Y-93980000D03*
X127000000Y-86360000D03*
X134620000Y-93980000D03*
X124460000Y-86360000D03*
X137160000Y-93980000D03*
X121920000Y-86360000D03*
D28*
X118110000Y-106680000D03*
D29*
X135890000Y-99060000D03*
X120650000Y-106680000D03*
X133350000Y-99060000D03*
X123190000Y-106680000D03*
X130810000Y-99060000D03*
X125730000Y-106680000D03*
X128270000Y-99060000D03*
X128270000Y-106680000D03*
X125730000Y-99060000D03*
X130810000Y-106680000D03*
X123190000Y-99060000D03*
X133350000Y-106680000D03*
X120650000Y-99060000D03*
X135890000Y-106680000D03*
X118110000Y-99060000D03*
D30*
X125730000Y-87630000D03*
X121920000Y-87630000D03*
X128270000Y-82550000D03*
X139700000Y-87630000D03*
X142240000Y-114300000D03*
X131445000Y-114300000D03*
X134620000Y-109220000D03*
X127000000Y-96520000D03*
D31*
X108592510Y-102925010D02*
X114244990Y-102925010D01*
X107315000Y-101600000D02*
X107315000Y-101647500D01*
X107315000Y-101647500D02*
X108592510Y-102925010D01*
X114244990Y-102925010D02*
X118110000Y-99060000D01*
X121920000Y-99781004D02*
X122724006Y-100585010D01*
X121920000Y-93980000D02*
X121920000Y-99781004D01*
X133350000Y-99460000D02*
X133350000Y-99060000D01*
X132224990Y-100585010D02*
X133350000Y-99460000D01*
X122724006Y-100585010D02*
X132224990Y-100585010D01*
X147320000Y-106541370D02*
X147320000Y-105410000D01*
X147320000Y-115330002D02*
X147320000Y-106541370D01*
X144540002Y-118110000D02*
X147320000Y-115330002D01*
X130175000Y-118110000D02*
X144540002Y-118110000D01*
D32*
X109855000Y-92075000D02*
X109855000Y-101600000D01*
X114300000Y-87630000D02*
X109855000Y-92075000D01*
D31*
X115610000Y-88940000D02*
X114300000Y-87630000D01*
X118110000Y-88940000D02*
X115610000Y-88940000D01*
D32*
X115570000Y-83820000D02*
X114300000Y-82550000D01*
X138430000Y-83820000D02*
X115570000Y-83820000D01*
X139700000Y-85090000D02*
X138430000Y-83820000D01*
X140970000Y-85090000D02*
X139700000Y-85090000D01*
X114300000Y-78740000D02*
X114300000Y-82550000D01*
X114300000Y-82550000D02*
X114300000Y-87630000D01*
X124460000Y-78740000D02*
X125730000Y-80010000D01*
X114300000Y-78740000D02*
X124460000Y-78740000D01*
D31*
X125730000Y-87630000D02*
X121920000Y-87630000D01*
D32*
X143510000Y-83840000D02*
X143510000Y-85090000D01*
X143510000Y-77740000D02*
X143510000Y-83840000D01*
X141970000Y-76200000D02*
X143510000Y-77740000D01*
X140970000Y-76200000D02*
X141970000Y-76200000D01*
X143510000Y-85090000D02*
X147320000Y-88900000D01*
X147320000Y-88900000D02*
X147320000Y-92710000D01*
D31*
X126918601Y-81198601D02*
X128270000Y-82550000D01*
X125730000Y-77470000D02*
X126918601Y-78658601D01*
X126918601Y-78658601D02*
X126918601Y-81198601D01*
X132080000Y-93980000D02*
X132080000Y-91440000D01*
X132080000Y-91440000D02*
X134620000Y-88900000D01*
X134620000Y-88900000D02*
X136285002Y-88900000D01*
X136285002Y-88900000D02*
X138430000Y-88900000D01*
X138430000Y-88900000D02*
X139700000Y-87630000D01*
X117049999Y-105154999D02*
X109220000Y-112984998D01*
X119524999Y-105154999D02*
X117049999Y-105154999D01*
X120650000Y-106680000D02*
X120650000Y-106280000D01*
X120650000Y-106280000D02*
X119524999Y-105154999D01*
X109220000Y-120015000D02*
X111125000Y-121920000D01*
X109220000Y-112984998D02*
X109220000Y-120015000D01*
X123190000Y-107080000D02*
X123190000Y-106680000D01*
X113430000Y-116840000D02*
X123190000Y-107080000D01*
X111125000Y-116840000D02*
X113430000Y-116840000D01*
X116291004Y-113030000D02*
X112256370Y-113030000D01*
X121775010Y-107545994D02*
X116291004Y-113030000D01*
X112256370Y-113030000D02*
X111125000Y-113030000D01*
X121775010Y-106103986D02*
X121775010Y-107545994D01*
X122724006Y-105154990D02*
X121775010Y-106103986D01*
X124604990Y-105154990D02*
X122724006Y-105154990D01*
X125730000Y-106280000D02*
X124604990Y-105154990D01*
X125730000Y-106680000D02*
X125730000Y-106280000D01*
X137885001Y-109945001D02*
X142240000Y-114300000D01*
X131135001Y-109945001D02*
X137885001Y-109945001D01*
X128270000Y-106680000D02*
X128270000Y-107080000D01*
X128270000Y-107080000D02*
X131135001Y-109945001D01*
X126365000Y-114300000D02*
X125095000Y-115570000D01*
X131445000Y-114300000D02*
X126365000Y-114300000D01*
X125095000Y-113030000D02*
X127635000Y-110490000D01*
X131445000Y-110490000D02*
X133985000Y-113030000D01*
X127635000Y-110490000D02*
X131445000Y-110490000D01*
X134620000Y-109220000D02*
X142240000Y-109220000D01*
X144145000Y-111125000D02*
X144145000Y-113030000D01*
X142240000Y-109220000D02*
X144145000Y-111125000D01*
X119140002Y-125730000D02*
X111125000Y-125730000D01*
X122410001Y-122460001D02*
X119140002Y-125730000D01*
X122555000Y-113030000D02*
X122410001Y-122460001D01*
X133350000Y-106280000D02*
X132224990Y-105154990D01*
X133350000Y-106680000D02*
X133350000Y-106280000D01*
X132224990Y-105154990D02*
X127804006Y-105154990D01*
X127804006Y-105154990D02*
X126855010Y-106103986D01*
X126855010Y-106103986D02*
X126855010Y-108585000D01*
X126855010Y-108585000D02*
X122555000Y-113030000D01*
X129540000Y-86360000D02*
X129540000Y-91440000D01*
X128270000Y-92710000D02*
X128270000Y-99060000D01*
X129540000Y-91440000D02*
X128270000Y-92710000D01*
X125874999Y-93439999D02*
X125874999Y-95394999D01*
X127000000Y-86360000D02*
X127000000Y-92314998D01*
X127000000Y-92314998D02*
X125874999Y-93439999D01*
X125874999Y-95394999D02*
X127000000Y-96520000D01*
D33*
G36*
X146962918Y-73155943D02*
G01*
X146400315Y-73531862D01*
X145921862Y-74010315D01*
X145545943Y-74572918D01*
X145287006Y-75198048D01*
X145155000Y-75861682D01*
X145155000Y-76538318D01*
X145287006Y-77201952D01*
X145545943Y-77827082D01*
X145921862Y-78389685D01*
X146400315Y-78868138D01*
X146962918Y-79244057D01*
X147588048Y-79502994D01*
X148251682Y-79635000D01*
X148928318Y-79635000D01*
X149591952Y-79502994D01*
X150217082Y-79244057D01*
X150779685Y-78868138D01*
X151258138Y-78389685D01*
X151634057Y-77827082D01*
X151715000Y-77631668D01*
X151715001Y-134458334D01*
X151634057Y-134262918D01*
X151258138Y-133700315D01*
X150779685Y-133221862D01*
X150217082Y-132845943D01*
X149591952Y-132587006D01*
X148928318Y-132455000D01*
X148251682Y-132455000D01*
X147588048Y-132587006D01*
X146962918Y-132845943D01*
X146400315Y-133221862D01*
X145921862Y-133700315D01*
X145545943Y-134262918D01*
X145287006Y-134888048D01*
X145155000Y-135551682D01*
X145155000Y-136228318D01*
X145287006Y-136891952D01*
X145545943Y-137517082D01*
X145921862Y-138079685D01*
X146400315Y-138558138D01*
X146962918Y-138934057D01*
X147158332Y-139015000D01*
X106841668Y-139015000D01*
X107037082Y-138934057D01*
X107599685Y-138558138D01*
X108078138Y-138079685D01*
X108454057Y-137517082D01*
X108712994Y-136891952D01*
X108845000Y-136228318D01*
X108845000Y-135728967D01*
X122825000Y-135728967D01*
X122825000Y-136051033D01*
X122887832Y-136366912D01*
X123011082Y-136664463D01*
X123190013Y-136932252D01*
X123417748Y-137159987D01*
X123685537Y-137338918D01*
X123983088Y-137462168D01*
X124298967Y-137525000D01*
X124621033Y-137525000D01*
X124936912Y-137462168D01*
X125234463Y-137338918D01*
X125502252Y-137159987D01*
X125729987Y-136932252D01*
X125908918Y-136664463D01*
X126032168Y-136366912D01*
X126095000Y-136051033D01*
X126095000Y-135728967D01*
X129325000Y-135728967D01*
X129325000Y-136051033D01*
X129387832Y-136366912D01*
X129511082Y-136664463D01*
X129690013Y-136932252D01*
X129917748Y-137159987D01*
X130185537Y-137338918D01*
X130483088Y-137462168D01*
X130798967Y-137525000D01*
X131121033Y-137525000D01*
X131436912Y-137462168D01*
X131734463Y-137338918D01*
X132002252Y-137159987D01*
X132229987Y-136932252D01*
X132408918Y-136664463D01*
X132532168Y-136366912D01*
X132595000Y-136051033D01*
X132595000Y-135728967D01*
X132532168Y-135413088D01*
X132408918Y-135115537D01*
X132229987Y-134847748D01*
X132002252Y-134620013D01*
X131734463Y-134441082D01*
X131436912Y-134317832D01*
X131121033Y-134255000D01*
X130798967Y-134255000D01*
X130483088Y-134317832D01*
X130185537Y-134441082D01*
X129917748Y-134620013D01*
X129690013Y-134847748D01*
X129511082Y-135115537D01*
X129387832Y-135413088D01*
X129325000Y-135728967D01*
X126095000Y-135728967D01*
X126032168Y-135413088D01*
X125908918Y-135115537D01*
X125729987Y-134847748D01*
X125502252Y-134620013D01*
X125234463Y-134441082D01*
X124936912Y-134317832D01*
X124621033Y-134255000D01*
X124298967Y-134255000D01*
X123983088Y-134317832D01*
X123685537Y-134441082D01*
X123417748Y-134620013D01*
X123190013Y-134847748D01*
X123011082Y-135115537D01*
X122887832Y-135413088D01*
X122825000Y-135728967D01*
X108845000Y-135728967D01*
X108845000Y-135551682D01*
X108712994Y-134888048D01*
X108454057Y-134262918D01*
X108078138Y-133700315D01*
X107599685Y-133221862D01*
X107037082Y-132845943D01*
X106411952Y-132587006D01*
X106102306Y-132525413D01*
X123504192Y-132525413D01*
X123599956Y-132789814D01*
X123889571Y-132930704D01*
X124201108Y-133012384D01*
X124522595Y-133031718D01*
X124841675Y-132987961D01*
X125146088Y-132882795D01*
X125320044Y-132789814D01*
X125415808Y-132525413D01*
X130004192Y-132525413D01*
X130099956Y-132789814D01*
X130389571Y-132930704D01*
X130701108Y-133012384D01*
X131022595Y-133031718D01*
X131341675Y-132987961D01*
X131646088Y-132882795D01*
X131820044Y-132789814D01*
X131915808Y-132525413D01*
X130960000Y-131569605D01*
X130004192Y-132525413D01*
X125415808Y-132525413D01*
X124460000Y-131569605D01*
X123504192Y-132525413D01*
X106102306Y-132525413D01*
X105748318Y-132455000D01*
X105071682Y-132455000D01*
X104408048Y-132587006D01*
X103782918Y-132845943D01*
X103220315Y-133221862D01*
X102741862Y-133700315D01*
X102365943Y-134262918D01*
X102285000Y-134458332D01*
X102285000Y-131452595D01*
X122818282Y-131452595D01*
X122862039Y-131771675D01*
X122967205Y-132076088D01*
X123060186Y-132250044D01*
X123324587Y-132345808D01*
X124280395Y-131390000D01*
X124639605Y-131390000D01*
X125595413Y-132345808D01*
X125859814Y-132250044D01*
X126000704Y-131960429D01*
X126082384Y-131648892D01*
X126094189Y-131452595D01*
X129318282Y-131452595D01*
X129362039Y-131771675D01*
X129467205Y-132076088D01*
X129560186Y-132250044D01*
X129824587Y-132345808D01*
X130780395Y-131390000D01*
X131139605Y-131390000D01*
X132095413Y-132345808D01*
X132359814Y-132250044D01*
X132500704Y-131960429D01*
X132582384Y-131648892D01*
X132601718Y-131327405D01*
X132557961Y-131008325D01*
X132452795Y-130703912D01*
X132359814Y-130529956D01*
X132095413Y-130434192D01*
X131139605Y-131390000D01*
X130780395Y-131390000D01*
X129824587Y-130434192D01*
X129560186Y-130529956D01*
X129419296Y-130819571D01*
X129337616Y-131131108D01*
X129318282Y-131452595D01*
X126094189Y-131452595D01*
X126101718Y-131327405D01*
X126057961Y-131008325D01*
X125952795Y-130703912D01*
X125859814Y-130529956D01*
X125595413Y-130434192D01*
X124639605Y-131390000D01*
X124280395Y-131390000D01*
X123324587Y-130434192D01*
X123060186Y-130529956D01*
X122919296Y-130819571D01*
X122837616Y-131131108D01*
X122818282Y-131452595D01*
X102285000Y-131452595D01*
X102285000Y-130254587D01*
X123504192Y-130254587D01*
X124460000Y-131210395D01*
X125415808Y-130254587D01*
X130004192Y-130254587D01*
X130960000Y-131210395D01*
X131915808Y-130254587D01*
X131820044Y-129990186D01*
X131530429Y-129849296D01*
X131218892Y-129767616D01*
X130897405Y-129748282D01*
X130578325Y-129792039D01*
X130273912Y-129897205D01*
X130099956Y-129990186D01*
X130004192Y-130254587D01*
X125415808Y-130254587D01*
X125320044Y-129990186D01*
X125030429Y-129849296D01*
X124718892Y-129767616D01*
X124397405Y-129748282D01*
X124078325Y-129792039D01*
X123773912Y-129897205D01*
X123599956Y-129990186D01*
X123504192Y-130254587D01*
X102285000Y-130254587D01*
X102285000Y-112984998D01*
X108456324Y-112984998D01*
X108460000Y-113022321D01*
X108460001Y-119977668D01*
X108456324Y-120015000D01*
X108470998Y-120163985D01*
X108514454Y-120307246D01*
X108585026Y-120439276D01*
X108639592Y-120505764D01*
X108680000Y-120555001D01*
X108708998Y-120578799D01*
X109724292Y-121594094D01*
X109710764Y-121638691D01*
X109683057Y-121920000D01*
X109710764Y-122201309D01*
X109792818Y-122471808D01*
X109926068Y-122721101D01*
X110105392Y-122939608D01*
X110323899Y-123118932D01*
X110573192Y-123252182D01*
X110843691Y-123334236D01*
X111054508Y-123355000D01*
X111195492Y-123355000D01*
X111406309Y-123334236D01*
X111676808Y-123252182D01*
X111926101Y-123118932D01*
X112144608Y-122939608D01*
X112323932Y-122721101D01*
X112457182Y-122471808D01*
X112539236Y-122201309D01*
X112566943Y-121920000D01*
X112539236Y-121638691D01*
X112457182Y-121368192D01*
X112323932Y-121118899D01*
X112144608Y-120900392D01*
X111926101Y-120721068D01*
X111676808Y-120587818D01*
X111406309Y-120505764D01*
X111195492Y-120485000D01*
X111054508Y-120485000D01*
X110843691Y-120505764D01*
X110799094Y-120519292D01*
X109980000Y-119700199D01*
X109980000Y-117706817D01*
X110105392Y-117859608D01*
X110323899Y-118038932D01*
X110573192Y-118172182D01*
X110843691Y-118254236D01*
X111054508Y-118275000D01*
X111195492Y-118275000D01*
X111406309Y-118254236D01*
X111676808Y-118172182D01*
X111926101Y-118038932D01*
X112144608Y-117859608D01*
X112323932Y-117641101D01*
X112345901Y-117600000D01*
X113392678Y-117600000D01*
X113430000Y-117603676D01*
X113467322Y-117600000D01*
X113467333Y-117600000D01*
X113578986Y-117589003D01*
X113722247Y-117545546D01*
X113854276Y-117474974D01*
X113970001Y-117380001D01*
X113993804Y-117350997D01*
X122864094Y-108480708D01*
X122908692Y-108494236D01*
X123190000Y-108521943D01*
X123471309Y-108494236D01*
X123741808Y-108412182D01*
X123991101Y-108278932D01*
X124209608Y-108099608D01*
X124388932Y-107881101D01*
X124460000Y-107748142D01*
X124531068Y-107881101D01*
X124710393Y-108099608D01*
X124928900Y-108278932D01*
X125178193Y-108412182D01*
X125448692Y-108494236D01*
X125730000Y-108521943D01*
X125872134Y-108507944D01*
X122390928Y-112106532D01*
X122199759Y-111915363D01*
X121964727Y-111758320D01*
X121703574Y-111650147D01*
X121426335Y-111595000D01*
X121143665Y-111595000D01*
X120866426Y-111650147D01*
X120605273Y-111758320D01*
X120370241Y-111915363D01*
X120170363Y-112115241D01*
X120013320Y-112350273D01*
X119905147Y-112611426D01*
X119850000Y-112888665D01*
X119850000Y-113171335D01*
X119905147Y-113448574D01*
X120013320Y-113709727D01*
X120170363Y-113944759D01*
X120370241Y-114144637D01*
X120605273Y-114301680D01*
X120866426Y-114409853D01*
X121143665Y-114465000D01*
X121426335Y-114465000D01*
X121703574Y-114409853D01*
X121774143Y-114380623D01*
X121757202Y-115482360D01*
X121703574Y-115460147D01*
X121426335Y-115405000D01*
X121143665Y-115405000D01*
X120866426Y-115460147D01*
X120605273Y-115568320D01*
X120370241Y-115725363D01*
X120170363Y-115925241D01*
X120013320Y-116160273D01*
X119905147Y-116421426D01*
X119850000Y-116698665D01*
X119850000Y-116981335D01*
X119905147Y-117258574D01*
X120013320Y-117519727D01*
X120170363Y-117754759D01*
X120370241Y-117954637D01*
X120605273Y-118111680D01*
X120866426Y-118219853D01*
X121143665Y-118275000D01*
X121426335Y-118275000D01*
X121703574Y-118219853D01*
X121715183Y-118215044D01*
X121679505Y-120535359D01*
X121426335Y-120485000D01*
X121143665Y-120485000D01*
X120866426Y-120540147D01*
X120605273Y-120648320D01*
X120370241Y-120805363D01*
X120170363Y-121005241D01*
X120013320Y-121240273D01*
X119905147Y-121501426D01*
X119850000Y-121778665D01*
X119850000Y-122061335D01*
X119905147Y-122338574D01*
X120013320Y-122599727D01*
X120170363Y-122834759D01*
X120370241Y-123034637D01*
X120604222Y-123190978D01*
X118825201Y-124970000D01*
X112345901Y-124970000D01*
X112323932Y-124928899D01*
X112144608Y-124710392D01*
X111926101Y-124531068D01*
X111676808Y-124397818D01*
X111406309Y-124315764D01*
X111195492Y-124295000D01*
X111054508Y-124295000D01*
X110843691Y-124315764D01*
X110573192Y-124397818D01*
X110323899Y-124531068D01*
X110105392Y-124710392D01*
X109926068Y-124928899D01*
X109792818Y-125178192D01*
X109710764Y-125448691D01*
X109683057Y-125730000D01*
X109710764Y-126011309D01*
X109792818Y-126281808D01*
X109926068Y-126531101D01*
X110105392Y-126749608D01*
X110323899Y-126928932D01*
X110573192Y-127062182D01*
X110843691Y-127144236D01*
X111054508Y-127165000D01*
X111195492Y-127165000D01*
X111406309Y-127144236D01*
X111676808Y-127062182D01*
X111926101Y-126928932D01*
X112144608Y-126749608D01*
X112323932Y-126531101D01*
X112345901Y-126490000D01*
X119102680Y-126490000D01*
X119140002Y-126493676D01*
X119177324Y-126490000D01*
X119177335Y-126490000D01*
X119288988Y-126479003D01*
X119432249Y-126435546D01*
X119564278Y-126364974D01*
X119680003Y-126270001D01*
X119703806Y-126240997D01*
X119887076Y-126057727D01*
X119905147Y-126148574D01*
X120013320Y-126409727D01*
X120170363Y-126644759D01*
X120370241Y-126844637D01*
X120605273Y-127001680D01*
X120866426Y-127109853D01*
X121143665Y-127165000D01*
X121426335Y-127165000D01*
X121703574Y-127109853D01*
X121964727Y-127001680D01*
X122199759Y-126844637D01*
X122399637Y-126644759D01*
X122556680Y-126409727D01*
X122664853Y-126148574D01*
X122720000Y-125871335D01*
X122720000Y-125588665D01*
X132550000Y-125588665D01*
X132550000Y-125871335D01*
X132605147Y-126148574D01*
X132713320Y-126409727D01*
X132870363Y-126644759D01*
X133070241Y-126844637D01*
X133305273Y-127001680D01*
X133566426Y-127109853D01*
X133843665Y-127165000D01*
X134126335Y-127165000D01*
X134403574Y-127109853D01*
X134664727Y-127001680D01*
X134899759Y-126844637D01*
X135099637Y-126644759D01*
X135256680Y-126409727D01*
X135364853Y-126148574D01*
X135420000Y-125871335D01*
X135420000Y-125730000D01*
X142703057Y-125730000D01*
X142730764Y-126011309D01*
X142812818Y-126281808D01*
X142946068Y-126531101D01*
X143125392Y-126749608D01*
X143343899Y-126928932D01*
X143593192Y-127062182D01*
X143863691Y-127144236D01*
X144074508Y-127165000D01*
X144215492Y-127165000D01*
X144426309Y-127144236D01*
X144696808Y-127062182D01*
X144946101Y-126928932D01*
X145164608Y-126749608D01*
X145343932Y-126531101D01*
X145477182Y-126281808D01*
X145559236Y-126011309D01*
X145586943Y-125730000D01*
X145559236Y-125448691D01*
X145477182Y-125178192D01*
X145343932Y-124928899D01*
X145164608Y-124710392D01*
X144946101Y-124531068D01*
X144696808Y-124397818D01*
X144426309Y-124315764D01*
X144215492Y-124295000D01*
X144074508Y-124295000D01*
X143863691Y-124315764D01*
X143593192Y-124397818D01*
X143343899Y-124531068D01*
X143125392Y-124710392D01*
X142946068Y-124928899D01*
X142812818Y-125178192D01*
X142730764Y-125448691D01*
X142703057Y-125730000D01*
X135420000Y-125730000D01*
X135420000Y-125588665D01*
X135364853Y-125311426D01*
X135256680Y-125050273D01*
X135099637Y-124815241D01*
X134899759Y-124615363D01*
X134664727Y-124458320D01*
X134403574Y-124350147D01*
X134126335Y-124295000D01*
X133843665Y-124295000D01*
X133566426Y-124350147D01*
X133305273Y-124458320D01*
X133070241Y-124615363D01*
X132870363Y-124815241D01*
X132713320Y-125050273D01*
X132605147Y-125311426D01*
X132550000Y-125588665D01*
X122720000Y-125588665D01*
X122664853Y-125311426D01*
X122556680Y-125050273D01*
X122399637Y-124815241D01*
X122199759Y-124615363D01*
X121964727Y-124458320D01*
X121703574Y-124350147D01*
X121612727Y-124332076D01*
X122916866Y-123027938D01*
X122941635Y-123008240D01*
X122969652Y-122975152D01*
X122973800Y-122971004D01*
X122993827Y-122946601D01*
X123038376Y-122893989D01*
X123041231Y-122888841D01*
X123044975Y-122884278D01*
X123077539Y-122823355D01*
X123110970Y-122763060D01*
X123112766Y-122757450D01*
X123115547Y-122752248D01*
X123135589Y-122686174D01*
X123156624Y-122620484D01*
X123157292Y-122614628D01*
X123159003Y-122608987D01*
X123165764Y-122540346D01*
X123169337Y-122509014D01*
X123169427Y-122503150D01*
X123173677Y-122460001D01*
X123170575Y-122428505D01*
X123310287Y-113342317D01*
X123660000Y-112980812D01*
X123660000Y-113171335D01*
X123715147Y-113448574D01*
X123823320Y-113709727D01*
X123980363Y-113944759D01*
X124180241Y-114144637D01*
X124412759Y-114300000D01*
X124180241Y-114455363D01*
X123980363Y-114655241D01*
X123823320Y-114890273D01*
X123715147Y-115151426D01*
X123660000Y-115428665D01*
X123660000Y-115711335D01*
X123715147Y-115988574D01*
X123823320Y-116249727D01*
X123980363Y-116484759D01*
X124180241Y-116684637D01*
X124412759Y-116840000D01*
X124180241Y-116995363D01*
X123980363Y-117195241D01*
X123823320Y-117430273D01*
X123715147Y-117691426D01*
X123660000Y-117968665D01*
X123660000Y-118251335D01*
X123715147Y-118528574D01*
X123823320Y-118789727D01*
X123980363Y-119024759D01*
X124180241Y-119224637D01*
X124412759Y-119380000D01*
X124180241Y-119535363D01*
X123980363Y-119735241D01*
X123823320Y-119970273D01*
X123715147Y-120231426D01*
X123660000Y-120508665D01*
X123660000Y-120791335D01*
X123715147Y-121068574D01*
X123823320Y-121329727D01*
X123980363Y-121564759D01*
X124180241Y-121764637D01*
X124412759Y-121920000D01*
X124180241Y-122075363D01*
X123980363Y-122275241D01*
X123823320Y-122510273D01*
X123715147Y-122771426D01*
X123660000Y-123048665D01*
X123660000Y-123331335D01*
X123715147Y-123608574D01*
X123823320Y-123869727D01*
X123980363Y-124104759D01*
X124180241Y-124304637D01*
X124415273Y-124461680D01*
X124676426Y-124569853D01*
X124953665Y-124625000D01*
X125236335Y-124625000D01*
X125513574Y-124569853D01*
X125774727Y-124461680D01*
X126009759Y-124304637D01*
X126209637Y-124104759D01*
X126366680Y-123869727D01*
X126474853Y-123608574D01*
X126530000Y-123331335D01*
X126530000Y-123048665D01*
X126474853Y-122771426D01*
X126366680Y-122510273D01*
X126209637Y-122275241D01*
X126009759Y-122075363D01*
X125777241Y-121920000D01*
X126009759Y-121764637D01*
X126209637Y-121564759D01*
X126366680Y-121329727D01*
X126474853Y-121068574D01*
X126530000Y-120791335D01*
X126530000Y-120508665D01*
X126474853Y-120231426D01*
X126366680Y-119970273D01*
X126209637Y-119735241D01*
X126009759Y-119535363D01*
X125777241Y-119380000D01*
X126009759Y-119224637D01*
X126209637Y-119024759D01*
X126366680Y-118789727D01*
X126474853Y-118528574D01*
X126530000Y-118251335D01*
X126530000Y-117968665D01*
X126474853Y-117691426D01*
X126366680Y-117430273D01*
X126209637Y-117195241D01*
X126009759Y-116995363D01*
X125777241Y-116840000D01*
X126009759Y-116684637D01*
X126209637Y-116484759D01*
X126366680Y-116249727D01*
X126474853Y-115988574D01*
X126530000Y-115711335D01*
X126530000Y-115428665D01*
X126493688Y-115246114D01*
X126679802Y-115060000D01*
X128833017Y-115060000D01*
X128795147Y-115151426D01*
X128740000Y-115428665D01*
X128740000Y-115711335D01*
X128795147Y-115988574D01*
X128903320Y-116249727D01*
X129060363Y-116484759D01*
X129260241Y-116684637D01*
X129492759Y-116840000D01*
X129260241Y-116995363D01*
X129060363Y-117195241D01*
X128903320Y-117430273D01*
X128795147Y-117691426D01*
X128740000Y-117968665D01*
X128740000Y-118251335D01*
X128795147Y-118528574D01*
X128903320Y-118789727D01*
X129060363Y-119024759D01*
X129260241Y-119224637D01*
X129492759Y-119380000D01*
X129260241Y-119535363D01*
X129060363Y-119735241D01*
X128903320Y-119970273D01*
X128795147Y-120231426D01*
X128740000Y-120508665D01*
X128740000Y-120791335D01*
X128795147Y-121068574D01*
X128903320Y-121329727D01*
X129060363Y-121564759D01*
X129260241Y-121764637D01*
X129492759Y-121920000D01*
X129260241Y-122075363D01*
X129060363Y-122275241D01*
X128903320Y-122510273D01*
X128795147Y-122771426D01*
X128740000Y-123048665D01*
X128740000Y-123331335D01*
X128795147Y-123608574D01*
X128903320Y-123869727D01*
X129060363Y-124104759D01*
X129260241Y-124304637D01*
X129495273Y-124461680D01*
X129756426Y-124569853D01*
X130033665Y-124625000D01*
X130316335Y-124625000D01*
X130593574Y-124569853D01*
X130854727Y-124461680D01*
X131089759Y-124304637D01*
X131289637Y-124104759D01*
X131446680Y-123869727D01*
X131554853Y-123608574D01*
X131610000Y-123331335D01*
X131610000Y-123048665D01*
X131554853Y-122771426D01*
X131446680Y-122510273D01*
X131289637Y-122275241D01*
X131089759Y-122075363D01*
X130857241Y-121920000D01*
X131068764Y-121778665D01*
X132550000Y-121778665D01*
X132550000Y-122061335D01*
X132605147Y-122338574D01*
X132713320Y-122599727D01*
X132870363Y-122834759D01*
X133070241Y-123034637D01*
X133305273Y-123191680D01*
X133566426Y-123299853D01*
X133843665Y-123355000D01*
X134126335Y-123355000D01*
X134403574Y-123299853D01*
X134664727Y-123191680D01*
X134899759Y-123034637D01*
X135099637Y-122834759D01*
X135256680Y-122599727D01*
X135364853Y-122338574D01*
X135420000Y-122061335D01*
X135420000Y-121920000D01*
X142703057Y-121920000D01*
X142730764Y-122201309D01*
X142812818Y-122471808D01*
X142946068Y-122721101D01*
X143125392Y-122939608D01*
X143343899Y-123118932D01*
X143593192Y-123252182D01*
X143863691Y-123334236D01*
X144074508Y-123355000D01*
X144215492Y-123355000D01*
X144426309Y-123334236D01*
X144696808Y-123252182D01*
X144946101Y-123118932D01*
X145164608Y-122939608D01*
X145343932Y-122721101D01*
X145477182Y-122471808D01*
X145559236Y-122201309D01*
X145586943Y-121920000D01*
X145559236Y-121638691D01*
X145477182Y-121368192D01*
X145343932Y-121118899D01*
X145164608Y-120900392D01*
X144946101Y-120721068D01*
X144696808Y-120587818D01*
X144426309Y-120505764D01*
X144215492Y-120485000D01*
X144074508Y-120485000D01*
X143863691Y-120505764D01*
X143593192Y-120587818D01*
X143343899Y-120721068D01*
X143125392Y-120900392D01*
X142946068Y-121118899D01*
X142812818Y-121368192D01*
X142730764Y-121638691D01*
X142703057Y-121920000D01*
X135420000Y-121920000D01*
X135420000Y-121778665D01*
X135364853Y-121501426D01*
X135256680Y-121240273D01*
X135099637Y-121005241D01*
X134899759Y-120805363D01*
X134664727Y-120648320D01*
X134403574Y-120540147D01*
X134126335Y-120485000D01*
X133843665Y-120485000D01*
X133566426Y-120540147D01*
X133305273Y-120648320D01*
X133070241Y-120805363D01*
X132870363Y-121005241D01*
X132713320Y-121240273D01*
X132605147Y-121501426D01*
X132550000Y-121778665D01*
X131068764Y-121778665D01*
X131089759Y-121764637D01*
X131289637Y-121564759D01*
X131446680Y-121329727D01*
X131554853Y-121068574D01*
X131610000Y-120791335D01*
X131610000Y-120508665D01*
X131554853Y-120231426D01*
X131446680Y-119970273D01*
X131289637Y-119735241D01*
X131089759Y-119535363D01*
X130857241Y-119380000D01*
X131089759Y-119224637D01*
X131289637Y-119024759D01*
X131393043Y-118870000D01*
X144502680Y-118870000D01*
X144540002Y-118873676D01*
X144577324Y-118870000D01*
X144577335Y-118870000D01*
X144688988Y-118859003D01*
X144832249Y-118815546D01*
X144964278Y-118744974D01*
X145080003Y-118650001D01*
X145103806Y-118620997D01*
X147831004Y-115893800D01*
X147860001Y-115870003D01*
X147900716Y-115820392D01*
X147954974Y-115754279D01*
X148025546Y-115622249D01*
X148041905Y-115568320D01*
X148069003Y-115478988D01*
X148080000Y-115367335D01*
X148080000Y-115367325D01*
X148083676Y-115330002D01*
X148080000Y-115292679D01*
X148080000Y-106628043D01*
X148234759Y-106524637D01*
X148434637Y-106324759D01*
X148591680Y-106089727D01*
X148699853Y-105828574D01*
X148755000Y-105551335D01*
X148755000Y-105268665D01*
X148699853Y-104991426D01*
X148591680Y-104730273D01*
X148434637Y-104495241D01*
X148234759Y-104295363D01*
X147999727Y-104138320D01*
X147738574Y-104030147D01*
X147461335Y-103975000D01*
X147178665Y-103975000D01*
X146901426Y-104030147D01*
X146640273Y-104138320D01*
X146405241Y-104295363D01*
X146205363Y-104495241D01*
X146048320Y-104730273D01*
X145940147Y-104991426D01*
X145885000Y-105268665D01*
X145885000Y-105551335D01*
X145940147Y-105828574D01*
X146048320Y-106089727D01*
X146205363Y-106324759D01*
X146405241Y-106524637D01*
X146560001Y-106628044D01*
X146560000Y-115015200D01*
X145410939Y-116164261D01*
X145343932Y-116038899D01*
X145164608Y-115820392D01*
X144946101Y-115641068D01*
X144696808Y-115507818D01*
X144426309Y-115425764D01*
X144215492Y-115405000D01*
X144074508Y-115405000D01*
X143863691Y-115425764D01*
X143593192Y-115507818D01*
X143343899Y-115641068D01*
X143125392Y-115820392D01*
X142946068Y-116038899D01*
X142812818Y-116288192D01*
X142730764Y-116558691D01*
X142703057Y-116840000D01*
X142730764Y-117121309D01*
X142800136Y-117350000D01*
X135326983Y-117350000D01*
X135364853Y-117258574D01*
X135420000Y-116981335D01*
X135420000Y-116698665D01*
X135364853Y-116421426D01*
X135256680Y-116160273D01*
X135099637Y-115925241D01*
X134899759Y-115725363D01*
X134664727Y-115568320D01*
X134403574Y-115460147D01*
X134126335Y-115405000D01*
X133843665Y-115405000D01*
X133566426Y-115460147D01*
X133305273Y-115568320D01*
X133070241Y-115725363D01*
X132870363Y-115925241D01*
X132713320Y-116160273D01*
X132605147Y-116421426D01*
X132550000Y-116698665D01*
X132550000Y-116981335D01*
X132605147Y-117258574D01*
X132643017Y-117350000D01*
X131393043Y-117350000D01*
X131289637Y-117195241D01*
X131089759Y-116995363D01*
X130857241Y-116840000D01*
X131089759Y-116684637D01*
X131289637Y-116484759D01*
X131446680Y-116249727D01*
X131554853Y-115988574D01*
X131610000Y-115711335D01*
X131610000Y-115428665D01*
X131589678Y-115326499D01*
X131746898Y-115295226D01*
X131935256Y-115217205D01*
X132104774Y-115103937D01*
X132248937Y-114959774D01*
X132362205Y-114790256D01*
X132440226Y-114601898D01*
X132480000Y-114401939D01*
X132480000Y-114198061D01*
X132440226Y-113998102D01*
X132362205Y-113809744D01*
X132248937Y-113640226D01*
X132104774Y-113496063D01*
X131935256Y-113382795D01*
X131746898Y-113304774D01*
X131613072Y-113278155D01*
X131613072Y-112230000D01*
X131600812Y-112105518D01*
X131564502Y-111985820D01*
X131505537Y-111875506D01*
X131426185Y-111778815D01*
X131329494Y-111699463D01*
X131219180Y-111640498D01*
X131099482Y-111604188D01*
X130975000Y-111591928D01*
X129375000Y-111591928D01*
X129250518Y-111604188D01*
X129130820Y-111640498D01*
X129020506Y-111699463D01*
X128923815Y-111778815D01*
X128844463Y-111875506D01*
X128785498Y-111985820D01*
X128749188Y-112105518D01*
X128736928Y-112230000D01*
X128736928Y-113540000D01*
X126436983Y-113540000D01*
X126474853Y-113448574D01*
X126530000Y-113171335D01*
X126530000Y-112888665D01*
X126493688Y-112706114D01*
X127949803Y-111250000D01*
X131130199Y-111250000D01*
X132586312Y-112706114D01*
X132550000Y-112888665D01*
X132550000Y-113171335D01*
X132605147Y-113448574D01*
X132713320Y-113709727D01*
X132870363Y-113944759D01*
X133070241Y-114144637D01*
X133305273Y-114301680D01*
X133566426Y-114409853D01*
X133843665Y-114465000D01*
X134126335Y-114465000D01*
X134403574Y-114409853D01*
X134664727Y-114301680D01*
X134899759Y-114144637D01*
X135099637Y-113944759D01*
X135256680Y-113709727D01*
X135364853Y-113448574D01*
X135420000Y-113171335D01*
X135420000Y-112888665D01*
X135364853Y-112611426D01*
X135256680Y-112350273D01*
X135099637Y-112115241D01*
X134899759Y-111915363D01*
X134664727Y-111758320D01*
X134403574Y-111650147D01*
X134126335Y-111595000D01*
X133843665Y-111595000D01*
X133661114Y-111631312D01*
X132734803Y-110705001D01*
X137570200Y-110705001D01*
X141205000Y-114339802D01*
X141205000Y-114401939D01*
X141244774Y-114601898D01*
X141322795Y-114790256D01*
X141436063Y-114959774D01*
X141580226Y-115103937D01*
X141749744Y-115217205D01*
X141938102Y-115295226D01*
X142138061Y-115335000D01*
X142341939Y-115335000D01*
X142541898Y-115295226D01*
X142730256Y-115217205D01*
X142899774Y-115103937D01*
X143043937Y-114959774D01*
X143157205Y-114790256D01*
X143235226Y-114601898D01*
X143275000Y-114401939D01*
X143275000Y-114198061D01*
X143268897Y-114167380D01*
X143343899Y-114228932D01*
X143593192Y-114362182D01*
X143863691Y-114444236D01*
X144074508Y-114465000D01*
X144215492Y-114465000D01*
X144426309Y-114444236D01*
X144696808Y-114362182D01*
X144946101Y-114228932D01*
X145164608Y-114049608D01*
X145343932Y-113831101D01*
X145477182Y-113581808D01*
X145559236Y-113311309D01*
X145586943Y-113030000D01*
X145559236Y-112748691D01*
X145477182Y-112478192D01*
X145343932Y-112228899D01*
X145164608Y-112010392D01*
X144946101Y-111831068D01*
X144905000Y-111809099D01*
X144905000Y-111162323D01*
X144908676Y-111125000D01*
X144905000Y-111087677D01*
X144905000Y-111087667D01*
X144894003Y-110976014D01*
X144850546Y-110832753D01*
X144779974Y-110700724D01*
X144685001Y-110584999D01*
X144656004Y-110561202D01*
X142803804Y-108709003D01*
X142780001Y-108679999D01*
X142664276Y-108585026D01*
X142532247Y-108514454D01*
X142388986Y-108470997D01*
X142277333Y-108460000D01*
X142277322Y-108460000D01*
X142240000Y-108456324D01*
X142202678Y-108460000D01*
X136295229Y-108460000D01*
X136321818Y-108454367D01*
X136581646Y-108343715D01*
X136814895Y-108184500D01*
X137012601Y-107982839D01*
X137167166Y-107746483D01*
X137272650Y-107484514D01*
X137325000Y-107207000D01*
X137325000Y-106807000D01*
X136017000Y-106807000D01*
X136017000Y-106827000D01*
X135763000Y-106827000D01*
X135763000Y-106807000D01*
X135743000Y-106807000D01*
X135743000Y-106553000D01*
X135763000Y-106553000D01*
X135763000Y-105010085D01*
X136017000Y-105010085D01*
X136017000Y-106553000D01*
X137325000Y-106553000D01*
X137325000Y-106153000D01*
X137272650Y-105875486D01*
X137167166Y-105613517D01*
X137012601Y-105377161D01*
X136814895Y-105175500D01*
X136581646Y-105016285D01*
X136321818Y-104905633D01*
X136239039Y-104888096D01*
X136017000Y-105010085D01*
X135763000Y-105010085D01*
X135540961Y-104888096D01*
X135458182Y-104905633D01*
X135198354Y-105016285D01*
X134965105Y-105175500D01*
X134767399Y-105377161D01*
X134617265Y-105606741D01*
X134548932Y-105478899D01*
X134369607Y-105260392D01*
X134151100Y-105081068D01*
X133901807Y-104947818D01*
X133631308Y-104865764D01*
X133350000Y-104838057D01*
X133068691Y-104865764D01*
X133024094Y-104879292D01*
X132788793Y-104643992D01*
X132764991Y-104614989D01*
X132649266Y-104520016D01*
X132517237Y-104449444D01*
X132373976Y-104405987D01*
X132262323Y-104394990D01*
X132262312Y-104394990D01*
X132224990Y-104391314D01*
X132187668Y-104394990D01*
X127841328Y-104394990D01*
X127804005Y-104391314D01*
X127766683Y-104394990D01*
X127766673Y-104394990D01*
X127655020Y-104405987D01*
X127511759Y-104449444D01*
X127379729Y-104520016D01*
X127296089Y-104588658D01*
X127264005Y-104614989D01*
X127240207Y-104643987D01*
X126680509Y-105203685D01*
X126531100Y-105081068D01*
X126281807Y-104947818D01*
X126011308Y-104865764D01*
X125730000Y-104838057D01*
X125448691Y-104865764D01*
X125404094Y-104879292D01*
X125168793Y-104643992D01*
X125144991Y-104614989D01*
X125029266Y-104520016D01*
X124897237Y-104449444D01*
X124753976Y-104405987D01*
X124642323Y-104394990D01*
X124642312Y-104394990D01*
X124604990Y-104391314D01*
X124567668Y-104394990D01*
X122761328Y-104394990D01*
X122724005Y-104391314D01*
X122686683Y-104394990D01*
X122686673Y-104394990D01*
X122575020Y-104405987D01*
X122431759Y-104449444D01*
X122299729Y-104520016D01*
X122216089Y-104588658D01*
X122184005Y-104614989D01*
X122160207Y-104643987D01*
X121600509Y-105203685D01*
X121451100Y-105081068D01*
X121201807Y-104947818D01*
X120931308Y-104865764D01*
X120650000Y-104838057D01*
X120368691Y-104865764D01*
X120324094Y-104879292D01*
X120088803Y-104644001D01*
X120065000Y-104614998D01*
X119949275Y-104520025D01*
X119817246Y-104449453D01*
X119673985Y-104405996D01*
X119562332Y-104394999D01*
X119562321Y-104394999D01*
X119524999Y-104391323D01*
X119487677Y-104394999D01*
X117087324Y-104394999D01*
X117049999Y-104391323D01*
X117012674Y-104394999D01*
X117012666Y-104394999D01*
X116901013Y-104405996D01*
X116757752Y-104449453D01*
X116625723Y-104520025D01*
X116509998Y-104614998D01*
X116486200Y-104643996D01*
X115735000Y-105395196D01*
X115735000Y-105268665D01*
X115679853Y-104991426D01*
X115571680Y-104730273D01*
X115414637Y-104495241D01*
X115214759Y-104295363D01*
X114979727Y-104138320D01*
X114718574Y-104030147D01*
X114560306Y-103998665D01*
X138265000Y-103998665D01*
X138265000Y-104281335D01*
X138320147Y-104558574D01*
X138428320Y-104819727D01*
X138585363Y-105054759D01*
X138785241Y-105254637D01*
X139020273Y-105411680D01*
X139281426Y-105519853D01*
X139558665Y-105575000D01*
X139841335Y-105575000D01*
X140118574Y-105519853D01*
X140379727Y-105411680D01*
X140614759Y-105254637D01*
X140814637Y-105054759D01*
X140971680Y-104819727D01*
X141079853Y-104558574D01*
X141135000Y-104281335D01*
X141135000Y-103998665D01*
X141079853Y-103721426D01*
X140971680Y-103460273D01*
X140814637Y-103225241D01*
X140614759Y-103025363D01*
X140414131Y-102891308D01*
X140441514Y-102876671D01*
X140513097Y-102632702D01*
X139700000Y-101819605D01*
X138886903Y-102632702D01*
X138958486Y-102876671D01*
X138987341Y-102890324D01*
X138785241Y-103025363D01*
X138585363Y-103225241D01*
X138428320Y-103460273D01*
X138320147Y-103721426D01*
X138265000Y-103998665D01*
X114560306Y-103998665D01*
X114441335Y-103975000D01*
X114158665Y-103975000D01*
X113881426Y-104030147D01*
X113620273Y-104138320D01*
X113385241Y-104295363D01*
X113185363Y-104495241D01*
X113051308Y-104695869D01*
X113036671Y-104668486D01*
X112792702Y-104596903D01*
X111979605Y-105410000D01*
X112792702Y-106223097D01*
X113036671Y-106151514D01*
X113050324Y-106122659D01*
X113185363Y-106324759D01*
X113385241Y-106524637D01*
X113620273Y-106681680D01*
X113881426Y-106789853D01*
X114158665Y-106845000D01*
X114285196Y-106845000D01*
X108709003Y-112421194D01*
X108679999Y-112444997D01*
X108624871Y-112512172D01*
X108585026Y-112560722D01*
X108560972Y-112605724D01*
X108514454Y-112692752D01*
X108470997Y-112836013D01*
X108460000Y-112947666D01*
X108460000Y-112947676D01*
X108456324Y-112984998D01*
X102285000Y-112984998D01*
X102285000Y-105268665D01*
X104610000Y-105268665D01*
X104610000Y-105551335D01*
X104665147Y-105828574D01*
X104773320Y-106089727D01*
X104930363Y-106324759D01*
X105130241Y-106524637D01*
X105365273Y-106681680D01*
X105626426Y-106789853D01*
X105903665Y-106845000D01*
X106186335Y-106845000D01*
X106463574Y-106789853D01*
X106724727Y-106681680D01*
X106959759Y-106524637D01*
X107081694Y-106402702D01*
X107731903Y-106402702D01*
X107803486Y-106646671D01*
X108058996Y-106767571D01*
X108333184Y-106836300D01*
X108615512Y-106850217D01*
X108895130Y-106808787D01*
X109161292Y-106713603D01*
X109286514Y-106646671D01*
X109358097Y-106402702D01*
X110986903Y-106402702D01*
X111058486Y-106646671D01*
X111313996Y-106767571D01*
X111588184Y-106836300D01*
X111870512Y-106850217D01*
X112150130Y-106808787D01*
X112416292Y-106713603D01*
X112541514Y-106646671D01*
X112613097Y-106402702D01*
X111800000Y-105589605D01*
X110986903Y-106402702D01*
X109358097Y-106402702D01*
X108545000Y-105589605D01*
X107731903Y-106402702D01*
X107081694Y-106402702D01*
X107159637Y-106324759D01*
X107293692Y-106124131D01*
X107308329Y-106151514D01*
X107552298Y-106223097D01*
X108365395Y-105410000D01*
X108724605Y-105410000D01*
X109537702Y-106223097D01*
X109781671Y-106151514D01*
X109902571Y-105896004D01*
X109971300Y-105621816D01*
X109978265Y-105480512D01*
X110359783Y-105480512D01*
X110401213Y-105760130D01*
X110496397Y-106026292D01*
X110563329Y-106151514D01*
X110807298Y-106223097D01*
X111620395Y-105410000D01*
X110807298Y-104596903D01*
X110563329Y-104668486D01*
X110442429Y-104923996D01*
X110373700Y-105198184D01*
X110359783Y-105480512D01*
X109978265Y-105480512D01*
X109985217Y-105339488D01*
X109943787Y-105059870D01*
X109848603Y-104793708D01*
X109781671Y-104668486D01*
X109537702Y-104596903D01*
X108724605Y-105410000D01*
X108365395Y-105410000D01*
X107552298Y-104596903D01*
X107308329Y-104668486D01*
X107294676Y-104697341D01*
X107159637Y-104495241D01*
X107081694Y-104417298D01*
X107731903Y-104417298D01*
X108545000Y-105230395D01*
X109358097Y-104417298D01*
X110986903Y-104417298D01*
X111800000Y-105230395D01*
X112613097Y-104417298D01*
X112541514Y-104173329D01*
X112286004Y-104052429D01*
X112011816Y-103983700D01*
X111729488Y-103969783D01*
X111449870Y-104011213D01*
X111183708Y-104106397D01*
X111058486Y-104173329D01*
X110986903Y-104417298D01*
X109358097Y-104417298D01*
X109286514Y-104173329D01*
X109031004Y-104052429D01*
X108756816Y-103983700D01*
X108474488Y-103969783D01*
X108194870Y-104011213D01*
X107928708Y-104106397D01*
X107803486Y-104173329D01*
X107731903Y-104417298D01*
X107081694Y-104417298D01*
X106959759Y-104295363D01*
X106724727Y-104138320D01*
X106463574Y-104030147D01*
X106186335Y-103975000D01*
X105903665Y-103975000D01*
X105626426Y-104030147D01*
X105365273Y-104138320D01*
X105130241Y-104295363D01*
X104930363Y-104495241D01*
X104773320Y-104730273D01*
X104665147Y-104991426D01*
X104610000Y-105268665D01*
X102285000Y-105268665D01*
X102285000Y-100600000D01*
X105724428Y-100600000D01*
X105724428Y-102600000D01*
X105736688Y-102724482D01*
X105772998Y-102844180D01*
X105831963Y-102954494D01*
X105911315Y-103051185D01*
X106008006Y-103130537D01*
X106118320Y-103189502D01*
X106238018Y-103225812D01*
X106362500Y-103238072D01*
X107830770Y-103238072D01*
X108028711Y-103436013D01*
X108052509Y-103465011D01*
X108081507Y-103488809D01*
X108168233Y-103559984D01*
X108300263Y-103630556D01*
X108443524Y-103674013D01*
X108555177Y-103685010D01*
X108555187Y-103685010D01*
X108592510Y-103688686D01*
X108629833Y-103685010D01*
X114207668Y-103685010D01*
X114244990Y-103688686D01*
X114282312Y-103685010D01*
X114282323Y-103685010D01*
X114393976Y-103674013D01*
X114537237Y-103630556D01*
X114669266Y-103559984D01*
X114784991Y-103465011D01*
X114808794Y-103436007D01*
X116534289Y-101710512D01*
X138259783Y-101710512D01*
X138301213Y-101990130D01*
X138396397Y-102256292D01*
X138463329Y-102381514D01*
X138707298Y-102453097D01*
X139520395Y-101640000D01*
X139879605Y-101640000D01*
X140692702Y-102453097D01*
X140936671Y-102381514D01*
X141057571Y-102126004D01*
X141126300Y-101851816D01*
X141140217Y-101569488D01*
X141098787Y-101289870D01*
X141003603Y-101023708D01*
X140936671Y-100898486D01*
X140692702Y-100826903D01*
X139879605Y-101640000D01*
X139520395Y-101640000D01*
X138707298Y-100826903D01*
X138463329Y-100898486D01*
X138342429Y-101153996D01*
X138273700Y-101428184D01*
X138259783Y-101710512D01*
X116534289Y-101710512D01*
X117489394Y-100755408D01*
X117558193Y-100792182D01*
X117828692Y-100874236D01*
X118110000Y-100901943D01*
X118391309Y-100874236D01*
X118661808Y-100792182D01*
X118911101Y-100658932D01*
X119129608Y-100479608D01*
X119308932Y-100261101D01*
X119380000Y-100128142D01*
X119451068Y-100261101D01*
X119630393Y-100479608D01*
X119848900Y-100658932D01*
X120098193Y-100792182D01*
X120368692Y-100874236D01*
X120650000Y-100901943D01*
X120931309Y-100874236D01*
X121201808Y-100792182D01*
X121451101Y-100658932D01*
X121600510Y-100536315D01*
X122160207Y-101096012D01*
X122184005Y-101125011D01*
X122299730Y-101219984D01*
X122431759Y-101290556D01*
X122575020Y-101334013D01*
X122686673Y-101345010D01*
X122686682Y-101345010D01*
X122724005Y-101348686D01*
X122761328Y-101345010D01*
X132187668Y-101345010D01*
X132224990Y-101348686D01*
X132262312Y-101345010D01*
X132262323Y-101345010D01*
X132373976Y-101334013D01*
X132517237Y-101290556D01*
X132649266Y-101219984D01*
X132764991Y-101125011D01*
X132788793Y-101096008D01*
X133024094Y-100860708D01*
X133068692Y-100874236D01*
X133350000Y-100901943D01*
X133631309Y-100874236D01*
X133901808Y-100792182D01*
X134151101Y-100658932D01*
X134369608Y-100479608D01*
X134548932Y-100261101D01*
X134620000Y-100128142D01*
X134691068Y-100261101D01*
X134870393Y-100479608D01*
X135088900Y-100658932D01*
X135338193Y-100792182D01*
X135608692Y-100874236D01*
X135890000Y-100901943D01*
X136171309Y-100874236D01*
X136441808Y-100792182D01*
X136691101Y-100658932D01*
X136705277Y-100647298D01*
X138886903Y-100647298D01*
X139700000Y-101460395D01*
X140513097Y-100647298D01*
X140441514Y-100403329D01*
X140186004Y-100282429D01*
X139911816Y-100213700D01*
X139629488Y-100199783D01*
X139349870Y-100241213D01*
X139083708Y-100336397D01*
X138958486Y-100403329D01*
X138886903Y-100647298D01*
X136705277Y-100647298D01*
X136909608Y-100479608D01*
X137088932Y-100261101D01*
X137222182Y-100011808D01*
X137304236Y-99741309D01*
X137308797Y-99695000D01*
X141433057Y-99695000D01*
X141460764Y-99976309D01*
X141542818Y-100246808D01*
X141676068Y-100496101D01*
X141855392Y-100714608D01*
X142073899Y-100893932D01*
X142323192Y-101027182D01*
X142593691Y-101109236D01*
X142804508Y-101130000D01*
X142945492Y-101130000D01*
X143156309Y-101109236D01*
X143426808Y-101027182D01*
X143676101Y-100893932D01*
X143894608Y-100714608D01*
X144073932Y-100496101D01*
X144207182Y-100246808D01*
X144289236Y-99976309D01*
X144316943Y-99695000D01*
X144289236Y-99413691D01*
X144207182Y-99143192D01*
X144073932Y-98893899D01*
X143894608Y-98675392D01*
X143676101Y-98496068D01*
X143426808Y-98362818D01*
X143156309Y-98280764D01*
X142945492Y-98260000D01*
X142804508Y-98260000D01*
X142593691Y-98280764D01*
X142323192Y-98362818D01*
X142073899Y-98496068D01*
X141855392Y-98675392D01*
X141676068Y-98893899D01*
X141542818Y-99143192D01*
X141460764Y-99413691D01*
X141433057Y-99695000D01*
X137308797Y-99695000D01*
X137325000Y-99530491D01*
X137325000Y-98589508D01*
X137304236Y-98378691D01*
X137222182Y-98108192D01*
X137088932Y-97858899D01*
X136909607Y-97640392D01*
X136691100Y-97461068D01*
X136441807Y-97327818D01*
X136171308Y-97245764D01*
X135890000Y-97218057D01*
X135608691Y-97245764D01*
X135338192Y-97327818D01*
X135088899Y-97461068D01*
X134870392Y-97640393D01*
X134691068Y-97858900D01*
X134620000Y-97991858D01*
X134548932Y-97858899D01*
X134369607Y-97640392D01*
X134151100Y-97461068D01*
X133901807Y-97327818D01*
X133631308Y-97245764D01*
X133350000Y-97218057D01*
X133068691Y-97245764D01*
X132798192Y-97327818D01*
X132548899Y-97461068D01*
X132330392Y-97640393D01*
X132151068Y-97858900D01*
X132080000Y-97991858D01*
X132008932Y-97858899D01*
X131829607Y-97640392D01*
X131611100Y-97461068D01*
X131361807Y-97327818D01*
X131091308Y-97245764D01*
X130810000Y-97218057D01*
X130528691Y-97245764D01*
X130258192Y-97327818D01*
X130008899Y-97461068D01*
X129790392Y-97640393D01*
X129611068Y-97858900D01*
X129540000Y-97991858D01*
X129468932Y-97858899D01*
X129289607Y-97640392D01*
X129071100Y-97461068D01*
X129030000Y-97439100D01*
X129030000Y-95324864D01*
X129258691Y-95394236D01*
X129469508Y-95415000D01*
X129610492Y-95415000D01*
X129821309Y-95394236D01*
X130091808Y-95312182D01*
X130341101Y-95178932D01*
X130559608Y-94999608D01*
X130738932Y-94781101D01*
X130810000Y-94648142D01*
X130881068Y-94781101D01*
X131060392Y-94999608D01*
X131278899Y-95178932D01*
X131528192Y-95312182D01*
X131798691Y-95394236D01*
X132009508Y-95415000D01*
X132150492Y-95415000D01*
X132361309Y-95394236D01*
X132631808Y-95312182D01*
X132881101Y-95178932D01*
X133099608Y-94999608D01*
X133278932Y-94781101D01*
X133350000Y-94648142D01*
X133421068Y-94781101D01*
X133600392Y-94999608D01*
X133818899Y-95178932D01*
X134068192Y-95312182D01*
X134338691Y-95394236D01*
X134549508Y-95415000D01*
X134690492Y-95415000D01*
X134901309Y-95394236D01*
X135171808Y-95312182D01*
X135421101Y-95178932D01*
X135639608Y-94999608D01*
X135818932Y-94781101D01*
X135890000Y-94648142D01*
X135961068Y-94781101D01*
X136140392Y-94999608D01*
X136358899Y-95178932D01*
X136608192Y-95312182D01*
X136878691Y-95394236D01*
X137089508Y-95415000D01*
X137230492Y-95415000D01*
X137441309Y-95394236D01*
X137711808Y-95312182D01*
X137961101Y-95178932D01*
X138179608Y-94999608D01*
X138358932Y-94781101D01*
X138492182Y-94531808D01*
X138574236Y-94261309D01*
X138601943Y-93980000D01*
X138574236Y-93698691D01*
X138492182Y-93428192D01*
X138358932Y-93178899D01*
X138179608Y-92960392D01*
X137961101Y-92781068D01*
X137711808Y-92647818D01*
X137441309Y-92565764D01*
X137230492Y-92545000D01*
X137089508Y-92545000D01*
X136878691Y-92565764D01*
X136608192Y-92647818D01*
X136358899Y-92781068D01*
X136140392Y-92960392D01*
X135961068Y-93178899D01*
X135890000Y-93311858D01*
X135818932Y-93178899D01*
X135639608Y-92960392D01*
X135421101Y-92781068D01*
X135171808Y-92647818D01*
X134901309Y-92565764D01*
X134690492Y-92545000D01*
X134549508Y-92545000D01*
X134338691Y-92565764D01*
X134068192Y-92647818D01*
X133818899Y-92781068D01*
X133600392Y-92960392D01*
X133421068Y-93178899D01*
X133350000Y-93311858D01*
X133278932Y-93178899D01*
X133099608Y-92960392D01*
X132881101Y-92781068D01*
X132840000Y-92759099D01*
X132840000Y-91754801D01*
X134934803Y-89660000D01*
X138392678Y-89660000D01*
X138430000Y-89663676D01*
X138467322Y-89660000D01*
X138467333Y-89660000D01*
X138578986Y-89649003D01*
X138722247Y-89605546D01*
X138854276Y-89534974D01*
X138970001Y-89440001D01*
X138993804Y-89410997D01*
X139011136Y-89393665D01*
X141440000Y-89393665D01*
X141440000Y-89676335D01*
X141495147Y-89953574D01*
X141603320Y-90214727D01*
X141760363Y-90449759D01*
X141960241Y-90649637D01*
X142195273Y-90806680D01*
X142456426Y-90914853D01*
X142733665Y-90970000D01*
X143016335Y-90970000D01*
X143293574Y-90914853D01*
X143554727Y-90806680D01*
X143789759Y-90649637D01*
X143989637Y-90449759D01*
X144146680Y-90214727D01*
X144254853Y-89953574D01*
X144310000Y-89676335D01*
X144310000Y-89393665D01*
X144254853Y-89116426D01*
X144146680Y-88855273D01*
X143989637Y-88620241D01*
X143789759Y-88420363D01*
X143554727Y-88263320D01*
X143293574Y-88155147D01*
X143016335Y-88100000D01*
X142733665Y-88100000D01*
X142456426Y-88155147D01*
X142195273Y-88263320D01*
X141960241Y-88420363D01*
X141760363Y-88620241D01*
X141603320Y-88855273D01*
X141495147Y-89116426D01*
X141440000Y-89393665D01*
X139011136Y-89393665D01*
X139739802Y-88665000D01*
X139801939Y-88665000D01*
X140001898Y-88625226D01*
X140190256Y-88547205D01*
X140359774Y-88433937D01*
X140503937Y-88289774D01*
X140617205Y-88120256D01*
X140695226Y-87931898D01*
X140735000Y-87731939D01*
X140735000Y-87528061D01*
X140695226Y-87328102D01*
X140617205Y-87139744D01*
X140503937Y-86970226D01*
X140359774Y-86826063D01*
X140190256Y-86712795D01*
X140001898Y-86634774D01*
X139801939Y-86595000D01*
X139598061Y-86595000D01*
X139398102Y-86634774D01*
X139209744Y-86712795D01*
X139040226Y-86826063D01*
X138896063Y-86970226D01*
X138782795Y-87139744D01*
X138704774Y-87328102D01*
X138665000Y-87528061D01*
X138665000Y-87590198D01*
X138115199Y-88140000D01*
X134657322Y-88140000D01*
X134619999Y-88136324D01*
X134582676Y-88140000D01*
X134582667Y-88140000D01*
X134471014Y-88150997D01*
X134327753Y-88194454D01*
X134195724Y-88265026D01*
X134195722Y-88265027D01*
X134195723Y-88265027D01*
X134108996Y-88336201D01*
X134108992Y-88336205D01*
X134079999Y-88359999D01*
X134056205Y-88388992D01*
X131568998Y-90876201D01*
X131540000Y-90899999D01*
X131516202Y-90928997D01*
X131516201Y-90928998D01*
X131445026Y-91015724D01*
X131374454Y-91147754D01*
X131344180Y-91247558D01*
X131330998Y-91291014D01*
X131320001Y-91402667D01*
X131316324Y-91440000D01*
X131320001Y-91477332D01*
X131320000Y-92759099D01*
X131278899Y-92781068D01*
X131060392Y-92960392D01*
X130881068Y-93178899D01*
X130810000Y-93311858D01*
X130738932Y-93178899D01*
X130559608Y-92960392D01*
X130341101Y-92781068D01*
X130091808Y-92647818D01*
X129821309Y-92565764D01*
X129610492Y-92545000D01*
X129509802Y-92545000D01*
X130051003Y-92003799D01*
X130080001Y-91980001D01*
X130174974Y-91864276D01*
X130245546Y-91732247D01*
X130289003Y-91588986D01*
X130300000Y-91477333D01*
X130300000Y-91477324D01*
X130303676Y-91440001D01*
X130300000Y-91402678D01*
X130300000Y-87580901D01*
X130341101Y-87558932D01*
X130559608Y-87379608D01*
X130738932Y-87161101D01*
X130810000Y-87028142D01*
X130881068Y-87161101D01*
X131060392Y-87379608D01*
X131278899Y-87558932D01*
X131528192Y-87692182D01*
X131798691Y-87774236D01*
X132009508Y-87795000D01*
X132150492Y-87795000D01*
X132361309Y-87774236D01*
X132631808Y-87692182D01*
X132881101Y-87558932D01*
X133099608Y-87379608D01*
X133278932Y-87161101D01*
X133350000Y-87028142D01*
X133421068Y-87161101D01*
X133600392Y-87379608D01*
X133818899Y-87558932D01*
X134068192Y-87692182D01*
X134338691Y-87774236D01*
X134549508Y-87795000D01*
X134690492Y-87795000D01*
X134901309Y-87774236D01*
X135171808Y-87692182D01*
X135421101Y-87558932D01*
X135639608Y-87379608D01*
X135818932Y-87161101D01*
X135890000Y-87028142D01*
X135961068Y-87161101D01*
X136140392Y-87379608D01*
X136358899Y-87558932D01*
X136608192Y-87692182D01*
X136878691Y-87774236D01*
X137089508Y-87795000D01*
X137230492Y-87795000D01*
X137441309Y-87774236D01*
X137711808Y-87692182D01*
X137961101Y-87558932D01*
X138179608Y-87379608D01*
X138358932Y-87161101D01*
X138492182Y-86911808D01*
X138574236Y-86641309D01*
X138601943Y-86360000D01*
X138574236Y-86078691D01*
X138492182Y-85808192D01*
X138358932Y-85558899D01*
X138228944Y-85400507D01*
X139803669Y-85400507D01*
X139842761Y-85626404D01*
X139925172Y-85840334D01*
X140047736Y-86034076D01*
X140205742Y-86200184D01*
X140393118Y-86332275D01*
X140602663Y-86425272D01*
X140664190Y-86433964D01*
X140843000Y-86308163D01*
X140843000Y-85217000D01*
X139963402Y-85217000D01*
X139803669Y-85400507D01*
X138228944Y-85400507D01*
X138179608Y-85340392D01*
X137961101Y-85161068D01*
X137711808Y-85027818D01*
X137441309Y-84945764D01*
X137230492Y-84925000D01*
X137089508Y-84925000D01*
X136878691Y-84945764D01*
X136608192Y-85027818D01*
X136358899Y-85161068D01*
X136140392Y-85340392D01*
X135961068Y-85558899D01*
X135890000Y-85691858D01*
X135818932Y-85558899D01*
X135639608Y-85340392D01*
X135421101Y-85161068D01*
X135171808Y-85027818D01*
X134901309Y-84945764D01*
X134690492Y-84925000D01*
X134549508Y-84925000D01*
X134338691Y-84945764D01*
X134068192Y-85027818D01*
X133818899Y-85161068D01*
X133600392Y-85340392D01*
X133421068Y-85558899D01*
X133350000Y-85691858D01*
X133278932Y-85558899D01*
X133099608Y-85340392D01*
X132881101Y-85161068D01*
X132631808Y-85027818D01*
X132361309Y-84945764D01*
X132150492Y-84925000D01*
X132009508Y-84925000D01*
X131798691Y-84945764D01*
X131528192Y-85027818D01*
X131278899Y-85161068D01*
X131060392Y-85340392D01*
X130881068Y-85558899D01*
X130810000Y-85691858D01*
X130738932Y-85558899D01*
X130559608Y-85340392D01*
X130341101Y-85161068D01*
X130091808Y-85027818D01*
X129821309Y-84945764D01*
X129610492Y-84925000D01*
X129469508Y-84925000D01*
X129258691Y-84945764D01*
X128988192Y-85027818D01*
X128738899Y-85161068D01*
X128520392Y-85340392D01*
X128341068Y-85558899D01*
X128270000Y-85691858D01*
X128198932Y-85558899D01*
X128019608Y-85340392D01*
X127801101Y-85161068D01*
X127551808Y-85027818D01*
X127281309Y-84945764D01*
X127070492Y-84925000D01*
X126929508Y-84925000D01*
X126718691Y-84945764D01*
X126448192Y-85027818D01*
X126198899Y-85161068D01*
X125980392Y-85340392D01*
X125801068Y-85558899D01*
X125730000Y-85691858D01*
X125658932Y-85558899D01*
X125479608Y-85340392D01*
X125261101Y-85161068D01*
X125011808Y-85027818D01*
X124741309Y-84945764D01*
X124530492Y-84925000D01*
X124389508Y-84925000D01*
X124178691Y-84945764D01*
X123908192Y-85027818D01*
X123658899Y-85161068D01*
X123440392Y-85340392D01*
X123261068Y-85558899D01*
X123187421Y-85696682D01*
X123072385Y-85504869D01*
X122883414Y-85296481D01*
X122657420Y-85128963D01*
X122403087Y-85008754D01*
X122269039Y-84968096D01*
X122047000Y-85090085D01*
X122047000Y-86233000D01*
X122067000Y-86233000D01*
X122067000Y-86487000D01*
X122047000Y-86487000D01*
X122047000Y-87629915D01*
X122269039Y-87751904D01*
X122403087Y-87711246D01*
X122657420Y-87591037D01*
X122883414Y-87423519D01*
X123072385Y-87215131D01*
X123187421Y-87023318D01*
X123261068Y-87161101D01*
X123440392Y-87379608D01*
X123658899Y-87558932D01*
X123908192Y-87692182D01*
X124178691Y-87774236D01*
X124389508Y-87795000D01*
X124530492Y-87795000D01*
X124741309Y-87774236D01*
X125011808Y-87692182D01*
X125261101Y-87558932D01*
X125479608Y-87379608D01*
X125658932Y-87161101D01*
X125730000Y-87028142D01*
X125801068Y-87161101D01*
X125980392Y-87379608D01*
X126198899Y-87558932D01*
X126240000Y-87580901D01*
X126240001Y-92000195D01*
X125369867Y-92870330D01*
X125261101Y-92781068D01*
X125011808Y-92647818D01*
X124741309Y-92565764D01*
X124530492Y-92545000D01*
X124389508Y-92545000D01*
X124178691Y-92565764D01*
X123908192Y-92647818D01*
X123658899Y-92781068D01*
X123440392Y-92960392D01*
X123347581Y-93073482D01*
X123345812Y-93055518D01*
X123309502Y-92935820D01*
X123250537Y-92825506D01*
X123171185Y-92728815D01*
X123074494Y-92649463D01*
X122964180Y-92590498D01*
X122844482Y-92554188D01*
X122720000Y-92541928D01*
X121120000Y-92541928D01*
X120995518Y-92554188D01*
X120875820Y-92590498D01*
X120765506Y-92649463D01*
X120668815Y-92728815D01*
X120589463Y-92825506D01*
X120530498Y-92935820D01*
X120494188Y-93055518D01*
X120481928Y-93180000D01*
X120481928Y-94780000D01*
X120494188Y-94904482D01*
X120530498Y-95024180D01*
X120589463Y-95134494D01*
X120668815Y-95231185D01*
X120765506Y-95310537D01*
X120875820Y-95369502D01*
X120995518Y-95405812D01*
X121120000Y-95418072D01*
X121160000Y-95418072D01*
X121160001Y-97315136D01*
X120931308Y-97245764D01*
X120650000Y-97218057D01*
X120368691Y-97245764D01*
X120098192Y-97327818D01*
X119848899Y-97461068D01*
X119630392Y-97640393D01*
X119451068Y-97858900D01*
X119380000Y-97991858D01*
X119308932Y-97858899D01*
X119129607Y-97640392D01*
X118911100Y-97461068D01*
X118661807Y-97327818D01*
X118391308Y-97245764D01*
X118110000Y-97218057D01*
X117828691Y-97245764D01*
X117558192Y-97327818D01*
X117308899Y-97461068D01*
X117090392Y-97640393D01*
X116911068Y-97858900D01*
X116777818Y-98108193D01*
X116695764Y-98378692D01*
X116675000Y-98589509D01*
X116675000Y-99420198D01*
X113930189Y-102165010D01*
X113896947Y-102165010D01*
X113959530Y-101958703D01*
X113982500Y-101725485D01*
X113982500Y-101474514D01*
X113959530Y-101241296D01*
X113868755Y-100942051D01*
X113721345Y-100666265D01*
X113522963Y-100424537D01*
X113281234Y-100226155D01*
X113005448Y-100078745D01*
X112706203Y-99987970D01*
X112395000Y-99957319D01*
X112083796Y-99987970D01*
X111784551Y-100078745D01*
X111508765Y-100226155D01*
X111267037Y-100424537D01*
X111119838Y-100603900D01*
X110964437Y-100418685D01*
X110721923Y-100224031D01*
X110446094Y-100080429D01*
X110227980Y-100009437D01*
X109982000Y-100129406D01*
X109982000Y-101473000D01*
X110002000Y-101473000D01*
X110002000Y-101727000D01*
X109982000Y-101727000D01*
X109982000Y-101747000D01*
X109728000Y-101747000D01*
X109728000Y-101727000D01*
X109708000Y-101727000D01*
X109708000Y-101473000D01*
X109728000Y-101473000D01*
X109728000Y-100129406D01*
X109482020Y-100009437D01*
X109263906Y-100080429D01*
X108988077Y-100224031D01*
X108847059Y-100337219D01*
X108798037Y-100245506D01*
X108718685Y-100148815D01*
X108621994Y-100069463D01*
X108511680Y-100010498D01*
X108391982Y-99974188D01*
X108267500Y-99961928D01*
X106362500Y-99961928D01*
X106238018Y-99974188D01*
X106118320Y-100010498D01*
X106008006Y-100069463D01*
X105911315Y-100148815D01*
X105831963Y-100245506D01*
X105772998Y-100355820D01*
X105736688Y-100475518D01*
X105724428Y-100600000D01*
X102285000Y-100600000D01*
X102285000Y-91298665D01*
X116675000Y-91298665D01*
X116675000Y-91581335D01*
X116730147Y-91858574D01*
X116838320Y-92119727D01*
X116995363Y-92354759D01*
X117195241Y-92554637D01*
X117430273Y-92711680D01*
X117691426Y-92819853D01*
X117968665Y-92875000D01*
X118251335Y-92875000D01*
X118528574Y-92819853D01*
X118789727Y-92711680D01*
X119024759Y-92554637D01*
X119224637Y-92354759D01*
X119381680Y-92119727D01*
X119489853Y-91858574D01*
X119545000Y-91581335D01*
X119545000Y-91298665D01*
X119489853Y-91021426D01*
X119381680Y-90760273D01*
X119224637Y-90525241D01*
X119024759Y-90325363D01*
X118824131Y-90191308D01*
X118851514Y-90176671D01*
X118923097Y-89932702D01*
X118110000Y-89119605D01*
X117296903Y-89932702D01*
X117368486Y-90176671D01*
X117397341Y-90190324D01*
X117195241Y-90325363D01*
X116995363Y-90525241D01*
X116838320Y-90760273D01*
X116730147Y-91021426D01*
X116675000Y-91298665D01*
X102285000Y-91298665D01*
X102285000Y-89010512D01*
X116669783Y-89010512D01*
X116711213Y-89290130D01*
X116806397Y-89556292D01*
X116873329Y-89681514D01*
X117117298Y-89753097D01*
X117930395Y-88940000D01*
X118289605Y-88940000D01*
X119102702Y-89753097D01*
X119346671Y-89681514D01*
X119467571Y-89426004D01*
X119536300Y-89151816D01*
X119550217Y-88869488D01*
X119508787Y-88589870D01*
X119413603Y-88323708D01*
X119346671Y-88198486D01*
X119102702Y-88126903D01*
X118289605Y-88940000D01*
X117930395Y-88940000D01*
X117117298Y-88126903D01*
X116873329Y-88198486D01*
X116752429Y-88453996D01*
X116683700Y-88728184D01*
X116669783Y-89010512D01*
X102285000Y-89010512D01*
X102285000Y-87947298D01*
X117296903Y-87947298D01*
X118110000Y-88760395D01*
X118923097Y-87947298D01*
X118851514Y-87703329D01*
X118596004Y-87582429D01*
X118321816Y-87513700D01*
X118039488Y-87499783D01*
X117759870Y-87541213D01*
X117493708Y-87636397D01*
X117368486Y-87703329D01*
X117296903Y-87947298D01*
X102285000Y-87947298D01*
X102285000Y-84940000D01*
X107458461Y-84940000D01*
X107504510Y-85407542D01*
X107640887Y-85857116D01*
X107862351Y-86271446D01*
X108160391Y-86634609D01*
X108523554Y-86932649D01*
X108937884Y-87154113D01*
X109387458Y-87290490D01*
X109737843Y-87325000D01*
X109972157Y-87325000D01*
X110322542Y-87290490D01*
X110772116Y-87154113D01*
X111186446Y-86932649D01*
X111458914Y-86709040D01*
X120528091Y-86709040D01*
X120622930Y-86973881D01*
X120767615Y-87215131D01*
X120956586Y-87423519D01*
X121182580Y-87591037D01*
X121436913Y-87711246D01*
X121570961Y-87751904D01*
X121793000Y-87629915D01*
X121793000Y-86487000D01*
X120649376Y-86487000D01*
X120528091Y-86709040D01*
X111458914Y-86709040D01*
X111549609Y-86634609D01*
X111847649Y-86271446D01*
X111986881Y-86010960D01*
X120528091Y-86010960D01*
X120649376Y-86233000D01*
X121793000Y-86233000D01*
X121793000Y-85090085D01*
X121570961Y-84968096D01*
X121436913Y-85008754D01*
X121182580Y-85128963D01*
X120956586Y-85296481D01*
X120767615Y-85504869D01*
X120622930Y-85746119D01*
X120528091Y-86010960D01*
X111986881Y-86010960D01*
X112069113Y-85857116D01*
X112205490Y-85407542D01*
X112251539Y-84940000D01*
X112235731Y-84779493D01*
X139803669Y-84779493D01*
X139963402Y-84963000D01*
X140843000Y-84963000D01*
X140843000Y-83871837D01*
X140664190Y-83746036D01*
X140602663Y-83754728D01*
X140393118Y-83847725D01*
X140205742Y-83979816D01*
X140047736Y-84145924D01*
X139925172Y-84339666D01*
X139842761Y-84553596D01*
X139803669Y-84779493D01*
X112235731Y-84779493D01*
X112205490Y-84472458D01*
X112069113Y-84022884D01*
X111847649Y-83608554D01*
X111549609Y-83245391D01*
X111186446Y-82947351D01*
X110772116Y-82725887D01*
X110322542Y-82589510D01*
X109972157Y-82555000D01*
X109737843Y-82555000D01*
X109387458Y-82589510D01*
X108937884Y-82725887D01*
X108523554Y-82947351D01*
X108160391Y-83245391D01*
X107862351Y-83608554D01*
X107640887Y-84022884D01*
X107504510Y-84472458D01*
X107458461Y-84940000D01*
X102285000Y-84940000D01*
X102285000Y-80369027D01*
X124275037Y-80369027D01*
X124373036Y-80645978D01*
X124523183Y-80898488D01*
X124719707Y-81116854D01*
X124955056Y-81292684D01*
X125220186Y-81419222D01*
X125370974Y-81464958D01*
X125603000Y-81343817D01*
X125603000Y-80137000D01*
X124395536Y-80137000D01*
X124275037Y-80369027D01*
X102285000Y-80369027D01*
X102285000Y-77631668D01*
X102365943Y-77827082D01*
X102741862Y-78389685D01*
X103220315Y-78868138D01*
X103782918Y-79244057D01*
X104408048Y-79502994D01*
X105071682Y-79635000D01*
X105748318Y-79635000D01*
X106411952Y-79502994D01*
X107037082Y-79244057D01*
X107252632Y-79100031D01*
X112608698Y-79100031D01*
X112626412Y-79192502D01*
X112742429Y-79465437D01*
X112909464Y-79710494D01*
X113121097Y-79918256D01*
X113369196Y-80080738D01*
X113644227Y-80191696D01*
X113935620Y-80246866D01*
X114173000Y-80090586D01*
X114173000Y-78867000D01*
X114427000Y-78867000D01*
X114427000Y-80090586D01*
X114664380Y-80246866D01*
X114955773Y-80191696D01*
X115230804Y-80080738D01*
X115478903Y-79918256D01*
X115690536Y-79710494D01*
X115857571Y-79465437D01*
X115973588Y-79192502D01*
X115991302Y-79100031D01*
X115870246Y-78867000D01*
X114427000Y-78867000D01*
X114173000Y-78867000D01*
X112729754Y-78867000D01*
X112608698Y-79100031D01*
X107252632Y-79100031D01*
X107599685Y-78868138D01*
X108078138Y-78389685D01*
X108454057Y-77827082D01*
X108712994Y-77201952D01*
X108845000Y-76538318D01*
X108845000Y-75861682D01*
X108788970Y-75579999D01*
X112561928Y-75579999D01*
X112561928Y-76820001D01*
X112578992Y-76993255D01*
X112629528Y-77159851D01*
X112711595Y-77313387D01*
X112822038Y-77447962D01*
X112956613Y-77558405D01*
X113065314Y-77616507D01*
X112909464Y-77769506D01*
X112742429Y-78014563D01*
X112626412Y-78287498D01*
X112608698Y-78379969D01*
X112729754Y-78613000D01*
X114173000Y-78613000D01*
X114173000Y-78593000D01*
X114427000Y-78593000D01*
X114427000Y-78613000D01*
X115870246Y-78613000D01*
X115991302Y-78379969D01*
X115973588Y-78287498D01*
X115857571Y-78014563D01*
X115690536Y-77769506D01*
X115534686Y-77616507D01*
X115643387Y-77558405D01*
X115751108Y-77470000D01*
X124224149Y-77470000D01*
X124253084Y-77763777D01*
X124338775Y-78046264D01*
X124477931Y-78306606D01*
X124665203Y-78534797D01*
X124893394Y-78722069D01*
X124933433Y-78743470D01*
X124719707Y-78903146D01*
X124523183Y-79121512D01*
X124373036Y-79374022D01*
X124275037Y-79650973D01*
X124395536Y-79883000D01*
X125603000Y-79883000D01*
X125603000Y-79863000D01*
X125857000Y-79863000D01*
X125857000Y-79883000D01*
X125877000Y-79883000D01*
X125877000Y-80137000D01*
X125857000Y-80137000D01*
X125857000Y-81343817D01*
X126089026Y-81464958D01*
X126195414Y-81432689D01*
X126213055Y-81490847D01*
X126283627Y-81622877D01*
X126291767Y-81632795D01*
X126378601Y-81738602D01*
X126407599Y-81762400D01*
X127235000Y-82589802D01*
X127235000Y-82651939D01*
X127274774Y-82851898D01*
X127352795Y-83040256D01*
X127466063Y-83209774D01*
X127610226Y-83353937D01*
X127779744Y-83467205D01*
X127968102Y-83545226D01*
X128168061Y-83585000D01*
X128371939Y-83585000D01*
X128571898Y-83545226D01*
X128760256Y-83467205D01*
X128929774Y-83353937D01*
X129073937Y-83209774D01*
X129187205Y-83040256D01*
X129265226Y-82851898D01*
X129305000Y-82651939D01*
X129305000Y-82448061D01*
X129265226Y-82248102D01*
X129187205Y-82059744D01*
X129073937Y-81890226D01*
X128929774Y-81746063D01*
X128760256Y-81632795D01*
X128571898Y-81554774D01*
X128371939Y-81515000D01*
X128309802Y-81515000D01*
X128303402Y-81508600D01*
X128343619Y-81508600D01*
X128563777Y-81486916D01*
X128846264Y-81401225D01*
X129106606Y-81262069D01*
X129334797Y-81074797D01*
X129522069Y-80846606D01*
X129540000Y-80813060D01*
X129557931Y-80846606D01*
X129745203Y-81074797D01*
X129973394Y-81262069D01*
X130233736Y-81401225D01*
X130516223Y-81486916D01*
X130736381Y-81508600D01*
X130883619Y-81508600D01*
X131103777Y-81486916D01*
X131386264Y-81401225D01*
X131646606Y-81262069D01*
X131874797Y-81074797D01*
X132062069Y-80846606D01*
X132201225Y-80586264D01*
X132286916Y-80303777D01*
X132315851Y-80010000D01*
X132286916Y-79716223D01*
X132201225Y-79433736D01*
X132062069Y-79173394D01*
X131874797Y-78945203D01*
X131866735Y-78938586D01*
X131917780Y-78923102D01*
X132028094Y-78864137D01*
X132124785Y-78784785D01*
X132204137Y-78688094D01*
X132263102Y-78577780D01*
X132299412Y-78458082D01*
X132311672Y-78333600D01*
X132311672Y-77470000D01*
X139829509Y-77470000D01*
X139851423Y-77692499D01*
X139916324Y-77906447D01*
X140021716Y-78103623D01*
X140022846Y-78105000D01*
X140021716Y-78106377D01*
X139916324Y-78303553D01*
X139851423Y-78517501D01*
X139829509Y-78740000D01*
X139851423Y-78962499D01*
X139916324Y-79176447D01*
X140021716Y-79373623D01*
X140022846Y-79375000D01*
X140021716Y-79376377D01*
X139916324Y-79573553D01*
X139851423Y-79787501D01*
X139829509Y-80010000D01*
X139851423Y-80232499D01*
X139916324Y-80446447D01*
X140021716Y-80643623D01*
X140163551Y-80816449D01*
X140336377Y-80958284D01*
X140533553Y-81063676D01*
X140747501Y-81128577D01*
X140914248Y-81145000D01*
X141025752Y-81145000D01*
X141192499Y-81128577D01*
X141406447Y-81063676D01*
X141603623Y-80958284D01*
X141776449Y-80816449D01*
X141918284Y-80643623D01*
X142023676Y-80446447D01*
X142088577Y-80232499D01*
X142110491Y-80010000D01*
X142088577Y-79787501D01*
X142023676Y-79573553D01*
X141918284Y-79376377D01*
X141917154Y-79375000D01*
X141918284Y-79373623D01*
X142023676Y-79176447D01*
X142088577Y-78962499D01*
X142110491Y-78740000D01*
X142088577Y-78517501D01*
X142023676Y-78303553D01*
X141918284Y-78106377D01*
X141917154Y-78105000D01*
X141918284Y-78103623D01*
X142023676Y-77906447D01*
X142088577Y-77692499D01*
X142099546Y-77581125D01*
X142625000Y-78106579D01*
X142625001Y-83769593D01*
X142467400Y-83721785D01*
X142240000Y-83699388D01*
X142012601Y-83721785D01*
X141793941Y-83788115D01*
X141605331Y-83888929D01*
X141546882Y-83847725D01*
X141337337Y-83754728D01*
X141275810Y-83746036D01*
X141097000Y-83871837D01*
X141097000Y-84636891D01*
X141096785Y-84637600D01*
X141080000Y-84808021D01*
X141080000Y-85371978D01*
X141096785Y-85542399D01*
X141097000Y-85543108D01*
X141097000Y-86308163D01*
X141275810Y-86433964D01*
X141337337Y-86425272D01*
X141546882Y-86332275D01*
X141605331Y-86291071D01*
X141793940Y-86391885D01*
X142012600Y-86458215D01*
X142240000Y-86480612D01*
X142467399Y-86458215D01*
X142676098Y-86394907D01*
X142740820Y-86429502D01*
X142860518Y-86465812D01*
X142985000Y-86478072D01*
X143646494Y-86478072D01*
X146435000Y-89266579D01*
X146435001Y-91215747D01*
X146351422Y-91260421D01*
X146087234Y-91477234D01*
X145870421Y-91741422D01*
X145709314Y-92042832D01*
X145610105Y-92369881D01*
X145576606Y-92710000D01*
X145610105Y-93050119D01*
X145709314Y-93377168D01*
X145870421Y-93678578D01*
X146087234Y-93942766D01*
X146351422Y-94159579D01*
X146372772Y-94170991D01*
X146300392Y-94230392D01*
X146121068Y-94448899D01*
X145987818Y-94698192D01*
X145905764Y-94968691D01*
X145878057Y-95250000D01*
X145905764Y-95531309D01*
X145987818Y-95801808D01*
X146121068Y-96051101D01*
X146300392Y-96269608D01*
X146518899Y-96448932D01*
X146768192Y-96582182D01*
X147038691Y-96664236D01*
X147249508Y-96685000D01*
X147390492Y-96685000D01*
X147601309Y-96664236D01*
X147871808Y-96582182D01*
X148121101Y-96448932D01*
X148339608Y-96269608D01*
X148518932Y-96051101D01*
X148652182Y-95801808D01*
X148734236Y-95531309D01*
X148761943Y-95250000D01*
X148734236Y-94968691D01*
X148652182Y-94698192D01*
X148518932Y-94448899D01*
X148339608Y-94230392D01*
X148267228Y-94170991D01*
X148288578Y-94159579D01*
X148552766Y-93942766D01*
X148769579Y-93678578D01*
X148930686Y-93377168D01*
X149029895Y-93050119D01*
X149063394Y-92710000D01*
X149029895Y-92369881D01*
X148930686Y-92042832D01*
X148769579Y-91741422D01*
X148552766Y-91477234D01*
X148288578Y-91260421D01*
X148205000Y-91215748D01*
X148205000Y-88943469D01*
X148209281Y-88900000D01*
X148205000Y-88856531D01*
X148205000Y-88856523D01*
X148192195Y-88726510D01*
X148173536Y-88665000D01*
X148141589Y-88559686D01*
X148059411Y-88405941D01*
X147976532Y-88304953D01*
X147976530Y-88304951D01*
X147948817Y-88271183D01*
X147915050Y-88243471D01*
X144673072Y-85001494D01*
X144673072Y-84340000D01*
X144660812Y-84215518D01*
X144624502Y-84095820D01*
X144565537Y-83985506D01*
X144486185Y-83888815D01*
X144395000Y-83813982D01*
X144395000Y-81450000D01*
X145581928Y-81450000D01*
X145581928Y-83650000D01*
X145594188Y-83774482D01*
X145630498Y-83894180D01*
X145689463Y-84004494D01*
X145768815Y-84101185D01*
X145865506Y-84180537D01*
X145975820Y-84239502D01*
X146095518Y-84275812D01*
X146220000Y-84288072D01*
X148420000Y-84288072D01*
X148544482Y-84275812D01*
X148664180Y-84239502D01*
X148774494Y-84180537D01*
X148871185Y-84101185D01*
X148950537Y-84004494D01*
X149009502Y-83894180D01*
X149045812Y-83774482D01*
X149058072Y-83650000D01*
X149058072Y-81450000D01*
X149045812Y-81325518D01*
X149009502Y-81205820D01*
X148950537Y-81095506D01*
X148871185Y-80998815D01*
X148774494Y-80919463D01*
X148664180Y-80860498D01*
X148544482Y-80824188D01*
X148420000Y-80811928D01*
X146220000Y-80811928D01*
X146095518Y-80824188D01*
X145975820Y-80860498D01*
X145865506Y-80919463D01*
X145768815Y-80998815D01*
X145689463Y-81095506D01*
X145630498Y-81205820D01*
X145594188Y-81325518D01*
X145581928Y-81450000D01*
X144395000Y-81450000D01*
X144395000Y-77783469D01*
X144399281Y-77740000D01*
X144395000Y-77696531D01*
X144395000Y-77696523D01*
X144382195Y-77566510D01*
X144331589Y-77399687D01*
X144249411Y-77245941D01*
X144166532Y-77144953D01*
X144166530Y-77144951D01*
X144138817Y-77111183D01*
X144105050Y-77083471D01*
X142626534Y-75604956D01*
X142598817Y-75571183D01*
X142464059Y-75460589D01*
X142310313Y-75378411D01*
X142143490Y-75327805D01*
X142013477Y-75315000D01*
X142013469Y-75315000D01*
X141972163Y-75310932D01*
X141921185Y-75248815D01*
X141824494Y-75169463D01*
X141714180Y-75110498D01*
X141594482Y-75074188D01*
X141470000Y-75061928D01*
X140470000Y-75061928D01*
X140345518Y-75074188D01*
X140225820Y-75110498D01*
X140115506Y-75169463D01*
X140018815Y-75248815D01*
X139939463Y-75345506D01*
X139880498Y-75455820D01*
X139844188Y-75575518D01*
X139831928Y-75700000D01*
X139831928Y-76700000D01*
X139844188Y-76824482D01*
X139880498Y-76944180D01*
X139922297Y-77022379D01*
X139916324Y-77033553D01*
X139851423Y-77247501D01*
X139829509Y-77470000D01*
X132311672Y-77470000D01*
X132311672Y-76606400D01*
X132299412Y-76481918D01*
X132263102Y-76362220D01*
X132204137Y-76251906D01*
X132124785Y-76155215D01*
X132028094Y-76075863D01*
X131917780Y-76016898D01*
X131798082Y-75980588D01*
X131673600Y-75968328D01*
X129946400Y-75968328D01*
X129821918Y-75980588D01*
X129702220Y-76016898D01*
X129591906Y-76075863D01*
X129495215Y-76155215D01*
X129415863Y-76251906D01*
X129356898Y-76362220D01*
X129341414Y-76413265D01*
X129334797Y-76405203D01*
X129106606Y-76217931D01*
X128846264Y-76078775D01*
X128563777Y-75993084D01*
X128343619Y-75971400D01*
X128196381Y-75971400D01*
X127976223Y-75993084D01*
X127693736Y-76078775D01*
X127433394Y-76217931D01*
X127205203Y-76405203D01*
X127017931Y-76633394D01*
X127000000Y-76666940D01*
X126982069Y-76633394D01*
X126794797Y-76405203D01*
X126566606Y-76217931D01*
X126306264Y-76078775D01*
X126023777Y-75993084D01*
X125803619Y-75971400D01*
X125656381Y-75971400D01*
X125436223Y-75993084D01*
X125153736Y-76078775D01*
X124893394Y-76217931D01*
X124665203Y-76405203D01*
X124477931Y-76633394D01*
X124338775Y-76893736D01*
X124253084Y-77176223D01*
X124224149Y-77470000D01*
X115751108Y-77470000D01*
X115777962Y-77447962D01*
X115888405Y-77313387D01*
X115970472Y-77159851D01*
X116021008Y-76993255D01*
X116038072Y-76820001D01*
X116038072Y-75579999D01*
X116021008Y-75406745D01*
X115970472Y-75240149D01*
X115888405Y-75086613D01*
X115777962Y-74952038D01*
X115643387Y-74841595D01*
X115489851Y-74759528D01*
X115323255Y-74708992D01*
X115150001Y-74691928D01*
X113449999Y-74691928D01*
X113276745Y-74708992D01*
X113110149Y-74759528D01*
X112956613Y-74841595D01*
X112822038Y-74952038D01*
X112711595Y-75086613D01*
X112629528Y-75240149D01*
X112578992Y-75406745D01*
X112561928Y-75579999D01*
X108788970Y-75579999D01*
X108712994Y-75198048D01*
X108454057Y-74572918D01*
X108078138Y-74010315D01*
X107599685Y-73531862D01*
X107037082Y-73155943D01*
X106841668Y-73075000D01*
X147158332Y-73075000D01*
X146962918Y-73155943D01*
X146962918Y-73155943D01*
G37*
X146962918Y-73155943D02*
X146400315Y-73531862D01*
X145921862Y-74010315D01*
X145545943Y-74572918D01*
X145287006Y-75198048D01*
X145155000Y-75861682D01*
X145155000Y-76538318D01*
X145287006Y-77201952D01*
X145545943Y-77827082D01*
X145921862Y-78389685D01*
X146400315Y-78868138D01*
X146962918Y-79244057D01*
X147588048Y-79502994D01*
X148251682Y-79635000D01*
X148928318Y-79635000D01*
X149591952Y-79502994D01*
X150217082Y-79244057D01*
X150779685Y-78868138D01*
X151258138Y-78389685D01*
X151634057Y-77827082D01*
X151715000Y-77631668D01*
X151715001Y-134458334D01*
X151634057Y-134262918D01*
X151258138Y-133700315D01*
X150779685Y-133221862D01*
X150217082Y-132845943D01*
X149591952Y-132587006D01*
X148928318Y-132455000D01*
X148251682Y-132455000D01*
X147588048Y-132587006D01*
X146962918Y-132845943D01*
X146400315Y-133221862D01*
X145921862Y-133700315D01*
X145545943Y-134262918D01*
X145287006Y-134888048D01*
X145155000Y-135551682D01*
X145155000Y-136228318D01*
X145287006Y-136891952D01*
X145545943Y-137517082D01*
X145921862Y-138079685D01*
X146400315Y-138558138D01*
X146962918Y-138934057D01*
X147158332Y-139015000D01*
X106841668Y-139015000D01*
X107037082Y-138934057D01*
X107599685Y-138558138D01*
X108078138Y-138079685D01*
X108454057Y-137517082D01*
X108712994Y-136891952D01*
X108845000Y-136228318D01*
X108845000Y-135728967D01*
X122825000Y-135728967D01*
X122825000Y-136051033D01*
X122887832Y-136366912D01*
X123011082Y-136664463D01*
X123190013Y-136932252D01*
X123417748Y-137159987D01*
X123685537Y-137338918D01*
X123983088Y-137462168D01*
X124298967Y-137525000D01*
X124621033Y-137525000D01*
X124936912Y-137462168D01*
X125234463Y-137338918D01*
X125502252Y-137159987D01*
X125729987Y-136932252D01*
X125908918Y-136664463D01*
X126032168Y-136366912D01*
X126095000Y-136051033D01*
X126095000Y-135728967D01*
X129325000Y-135728967D01*
X129325000Y-136051033D01*
X129387832Y-136366912D01*
X129511082Y-136664463D01*
X129690013Y-136932252D01*
X129917748Y-137159987D01*
X130185537Y-137338918D01*
X130483088Y-137462168D01*
X130798967Y-137525000D01*
X131121033Y-137525000D01*
X131436912Y-137462168D01*
X131734463Y-137338918D01*
X132002252Y-137159987D01*
X132229987Y-136932252D01*
X132408918Y-136664463D01*
X132532168Y-136366912D01*
X132595000Y-136051033D01*
X132595000Y-135728967D01*
X132532168Y-135413088D01*
X132408918Y-135115537D01*
X132229987Y-134847748D01*
X132002252Y-134620013D01*
X131734463Y-134441082D01*
X131436912Y-134317832D01*
X131121033Y-134255000D01*
X130798967Y-134255000D01*
X130483088Y-134317832D01*
X130185537Y-134441082D01*
X129917748Y-134620013D01*
X129690013Y-134847748D01*
X129511082Y-135115537D01*
X129387832Y-135413088D01*
X129325000Y-135728967D01*
X126095000Y-135728967D01*
X126032168Y-135413088D01*
X125908918Y-135115537D01*
X125729987Y-134847748D01*
X125502252Y-134620013D01*
X125234463Y-134441082D01*
X124936912Y-134317832D01*
X124621033Y-134255000D01*
X124298967Y-134255000D01*
X123983088Y-134317832D01*
X123685537Y-134441082D01*
X123417748Y-134620013D01*
X123190013Y-134847748D01*
X123011082Y-135115537D01*
X122887832Y-135413088D01*
X122825000Y-135728967D01*
X108845000Y-135728967D01*
X108845000Y-135551682D01*
X108712994Y-134888048D01*
X108454057Y-134262918D01*
X108078138Y-133700315D01*
X107599685Y-133221862D01*
X107037082Y-132845943D01*
X106411952Y-132587006D01*
X106102306Y-132525413D01*
X123504192Y-132525413D01*
X123599956Y-132789814D01*
X123889571Y-132930704D01*
X124201108Y-133012384D01*
X124522595Y-133031718D01*
X124841675Y-132987961D01*
X125146088Y-132882795D01*
X125320044Y-132789814D01*
X125415808Y-132525413D01*
X130004192Y-132525413D01*
X130099956Y-132789814D01*
X130389571Y-132930704D01*
X130701108Y-133012384D01*
X131022595Y-133031718D01*
X131341675Y-132987961D01*
X131646088Y-132882795D01*
X131820044Y-132789814D01*
X131915808Y-132525413D01*
X130960000Y-131569605D01*
X130004192Y-132525413D01*
X125415808Y-132525413D01*
X124460000Y-131569605D01*
X123504192Y-132525413D01*
X106102306Y-132525413D01*
X105748318Y-132455000D01*
X105071682Y-132455000D01*
X104408048Y-132587006D01*
X103782918Y-132845943D01*
X103220315Y-133221862D01*
X102741862Y-133700315D01*
X102365943Y-134262918D01*
X102285000Y-134458332D01*
X102285000Y-131452595D01*
X122818282Y-131452595D01*
X122862039Y-131771675D01*
X122967205Y-132076088D01*
X123060186Y-132250044D01*
X123324587Y-132345808D01*
X124280395Y-131390000D01*
X124639605Y-131390000D01*
X125595413Y-132345808D01*
X125859814Y-132250044D01*
X126000704Y-131960429D01*
X126082384Y-131648892D01*
X126094189Y-131452595D01*
X129318282Y-131452595D01*
X129362039Y-131771675D01*
X129467205Y-132076088D01*
X129560186Y-132250044D01*
X129824587Y-132345808D01*
X130780395Y-131390000D01*
X131139605Y-131390000D01*
X132095413Y-132345808D01*
X132359814Y-132250044D01*
X132500704Y-131960429D01*
X132582384Y-131648892D01*
X132601718Y-131327405D01*
X132557961Y-131008325D01*
X132452795Y-130703912D01*
X132359814Y-130529956D01*
X132095413Y-130434192D01*
X131139605Y-131390000D01*
X130780395Y-131390000D01*
X129824587Y-130434192D01*
X129560186Y-130529956D01*
X129419296Y-130819571D01*
X129337616Y-131131108D01*
X129318282Y-131452595D01*
X126094189Y-131452595D01*
X126101718Y-131327405D01*
X126057961Y-131008325D01*
X125952795Y-130703912D01*
X125859814Y-130529956D01*
X125595413Y-130434192D01*
X124639605Y-131390000D01*
X124280395Y-131390000D01*
X123324587Y-130434192D01*
X123060186Y-130529956D01*
X122919296Y-130819571D01*
X122837616Y-131131108D01*
X122818282Y-131452595D01*
X102285000Y-131452595D01*
X102285000Y-130254587D01*
X123504192Y-130254587D01*
X124460000Y-131210395D01*
X125415808Y-130254587D01*
X130004192Y-130254587D01*
X130960000Y-131210395D01*
X131915808Y-130254587D01*
X131820044Y-129990186D01*
X131530429Y-129849296D01*
X131218892Y-129767616D01*
X130897405Y-129748282D01*
X130578325Y-129792039D01*
X130273912Y-129897205D01*
X130099956Y-129990186D01*
X130004192Y-130254587D01*
X125415808Y-130254587D01*
X125320044Y-129990186D01*
X125030429Y-129849296D01*
X124718892Y-129767616D01*
X124397405Y-129748282D01*
X124078325Y-129792039D01*
X123773912Y-129897205D01*
X123599956Y-129990186D01*
X123504192Y-130254587D01*
X102285000Y-130254587D01*
X102285000Y-112984998D01*
X108456324Y-112984998D01*
X108460000Y-113022321D01*
X108460001Y-119977668D01*
X108456324Y-120015000D01*
X108470998Y-120163985D01*
X108514454Y-120307246D01*
X108585026Y-120439276D01*
X108639592Y-120505764D01*
X108680000Y-120555001D01*
X108708998Y-120578799D01*
X109724292Y-121594094D01*
X109710764Y-121638691D01*
X109683057Y-121920000D01*
X109710764Y-122201309D01*
X109792818Y-122471808D01*
X109926068Y-122721101D01*
X110105392Y-122939608D01*
X110323899Y-123118932D01*
X110573192Y-123252182D01*
X110843691Y-123334236D01*
X111054508Y-123355000D01*
X111195492Y-123355000D01*
X111406309Y-123334236D01*
X111676808Y-123252182D01*
X111926101Y-123118932D01*
X112144608Y-122939608D01*
X112323932Y-122721101D01*
X112457182Y-122471808D01*
X112539236Y-122201309D01*
X112566943Y-121920000D01*
X112539236Y-121638691D01*
X112457182Y-121368192D01*
X112323932Y-121118899D01*
X112144608Y-120900392D01*
X111926101Y-120721068D01*
X111676808Y-120587818D01*
X111406309Y-120505764D01*
X111195492Y-120485000D01*
X111054508Y-120485000D01*
X110843691Y-120505764D01*
X110799094Y-120519292D01*
X109980000Y-119700199D01*
X109980000Y-117706817D01*
X110105392Y-117859608D01*
X110323899Y-118038932D01*
X110573192Y-118172182D01*
X110843691Y-118254236D01*
X111054508Y-118275000D01*
X111195492Y-118275000D01*
X111406309Y-118254236D01*
X111676808Y-118172182D01*
X111926101Y-118038932D01*
X112144608Y-117859608D01*
X112323932Y-117641101D01*
X112345901Y-117600000D01*
X113392678Y-117600000D01*
X113430000Y-117603676D01*
X113467322Y-117600000D01*
X113467333Y-117600000D01*
X113578986Y-117589003D01*
X113722247Y-117545546D01*
X113854276Y-117474974D01*
X113970001Y-117380001D01*
X113993804Y-117350997D01*
X122864094Y-108480708D01*
X122908692Y-108494236D01*
X123190000Y-108521943D01*
X123471309Y-108494236D01*
X123741808Y-108412182D01*
X123991101Y-108278932D01*
X124209608Y-108099608D01*
X124388932Y-107881101D01*
X124460000Y-107748142D01*
X124531068Y-107881101D01*
X124710393Y-108099608D01*
X124928900Y-108278932D01*
X125178193Y-108412182D01*
X125448692Y-108494236D01*
X125730000Y-108521943D01*
X125872134Y-108507944D01*
X122390928Y-112106532D01*
X122199759Y-111915363D01*
X121964727Y-111758320D01*
X121703574Y-111650147D01*
X121426335Y-111595000D01*
X121143665Y-111595000D01*
X120866426Y-111650147D01*
X120605273Y-111758320D01*
X120370241Y-111915363D01*
X120170363Y-112115241D01*
X120013320Y-112350273D01*
X119905147Y-112611426D01*
X119850000Y-112888665D01*
X119850000Y-113171335D01*
X119905147Y-113448574D01*
X120013320Y-113709727D01*
X120170363Y-113944759D01*
X120370241Y-114144637D01*
X120605273Y-114301680D01*
X120866426Y-114409853D01*
X121143665Y-114465000D01*
X121426335Y-114465000D01*
X121703574Y-114409853D01*
X121774143Y-114380623D01*
X121757202Y-115482360D01*
X121703574Y-115460147D01*
X121426335Y-115405000D01*
X121143665Y-115405000D01*
X120866426Y-115460147D01*
X120605273Y-115568320D01*
X120370241Y-115725363D01*
X120170363Y-115925241D01*
X120013320Y-116160273D01*
X119905147Y-116421426D01*
X119850000Y-116698665D01*
X119850000Y-116981335D01*
X119905147Y-117258574D01*
X120013320Y-117519727D01*
X120170363Y-117754759D01*
X120370241Y-117954637D01*
X120605273Y-118111680D01*
X120866426Y-118219853D01*
X121143665Y-118275000D01*
X121426335Y-118275000D01*
X121703574Y-118219853D01*
X121715183Y-118215044D01*
X121679505Y-120535359D01*
X121426335Y-120485000D01*
X121143665Y-120485000D01*
X120866426Y-120540147D01*
X120605273Y-120648320D01*
X120370241Y-120805363D01*
X120170363Y-121005241D01*
X120013320Y-121240273D01*
X119905147Y-121501426D01*
X119850000Y-121778665D01*
X119850000Y-122061335D01*
X119905147Y-122338574D01*
X120013320Y-122599727D01*
X120170363Y-122834759D01*
X120370241Y-123034637D01*
X120604222Y-123190978D01*
X118825201Y-124970000D01*
X112345901Y-124970000D01*
X112323932Y-124928899D01*
X112144608Y-124710392D01*
X111926101Y-124531068D01*
X111676808Y-124397818D01*
X111406309Y-124315764D01*
X111195492Y-124295000D01*
X111054508Y-124295000D01*
X110843691Y-124315764D01*
X110573192Y-124397818D01*
X110323899Y-124531068D01*
X110105392Y-124710392D01*
X109926068Y-124928899D01*
X109792818Y-125178192D01*
X109710764Y-125448691D01*
X109683057Y-125730000D01*
X109710764Y-126011309D01*
X109792818Y-126281808D01*
X109926068Y-126531101D01*
X110105392Y-126749608D01*
X110323899Y-126928932D01*
X110573192Y-127062182D01*
X110843691Y-127144236D01*
X111054508Y-127165000D01*
X111195492Y-127165000D01*
X111406309Y-127144236D01*
X111676808Y-127062182D01*
X111926101Y-126928932D01*
X112144608Y-126749608D01*
X112323932Y-126531101D01*
X112345901Y-126490000D01*
X119102680Y-126490000D01*
X119140002Y-126493676D01*
X119177324Y-126490000D01*
X119177335Y-126490000D01*
X119288988Y-126479003D01*
X119432249Y-126435546D01*
X119564278Y-126364974D01*
X119680003Y-126270001D01*
X119703806Y-126240997D01*
X119887076Y-126057727D01*
X119905147Y-126148574D01*
X120013320Y-126409727D01*
X120170363Y-126644759D01*
X120370241Y-126844637D01*
X120605273Y-127001680D01*
X120866426Y-127109853D01*
X121143665Y-127165000D01*
X121426335Y-127165000D01*
X121703574Y-127109853D01*
X121964727Y-127001680D01*
X122199759Y-126844637D01*
X122399637Y-126644759D01*
X122556680Y-126409727D01*
X122664853Y-126148574D01*
X122720000Y-125871335D01*
X122720000Y-125588665D01*
X132550000Y-125588665D01*
X132550000Y-125871335D01*
X132605147Y-126148574D01*
X132713320Y-126409727D01*
X132870363Y-126644759D01*
X133070241Y-126844637D01*
X133305273Y-127001680D01*
X133566426Y-127109853D01*
X133843665Y-127165000D01*
X134126335Y-127165000D01*
X134403574Y-127109853D01*
X134664727Y-127001680D01*
X134899759Y-126844637D01*
X135099637Y-126644759D01*
X135256680Y-126409727D01*
X135364853Y-126148574D01*
X135420000Y-125871335D01*
X135420000Y-125730000D01*
X142703057Y-125730000D01*
X142730764Y-126011309D01*
X142812818Y-126281808D01*
X142946068Y-126531101D01*
X143125392Y-126749608D01*
X143343899Y-126928932D01*
X143593192Y-127062182D01*
X143863691Y-127144236D01*
X144074508Y-127165000D01*
X144215492Y-127165000D01*
X144426309Y-127144236D01*
X144696808Y-127062182D01*
X144946101Y-126928932D01*
X145164608Y-126749608D01*
X145343932Y-126531101D01*
X145477182Y-126281808D01*
X145559236Y-126011309D01*
X145586943Y-125730000D01*
X145559236Y-125448691D01*
X145477182Y-125178192D01*
X145343932Y-124928899D01*
X145164608Y-124710392D01*
X144946101Y-124531068D01*
X144696808Y-124397818D01*
X144426309Y-124315764D01*
X144215492Y-124295000D01*
X144074508Y-124295000D01*
X143863691Y-124315764D01*
X143593192Y-124397818D01*
X143343899Y-124531068D01*
X143125392Y-124710392D01*
X142946068Y-124928899D01*
X142812818Y-125178192D01*
X142730764Y-125448691D01*
X142703057Y-125730000D01*
X135420000Y-125730000D01*
X135420000Y-125588665D01*
X135364853Y-125311426D01*
X135256680Y-125050273D01*
X135099637Y-124815241D01*
X134899759Y-124615363D01*
X134664727Y-124458320D01*
X134403574Y-124350147D01*
X134126335Y-124295000D01*
X133843665Y-124295000D01*
X133566426Y-124350147D01*
X133305273Y-124458320D01*
X133070241Y-124615363D01*
X132870363Y-124815241D01*
X132713320Y-125050273D01*
X132605147Y-125311426D01*
X132550000Y-125588665D01*
X122720000Y-125588665D01*
X122664853Y-125311426D01*
X122556680Y-125050273D01*
X122399637Y-124815241D01*
X122199759Y-124615363D01*
X121964727Y-124458320D01*
X121703574Y-124350147D01*
X121612727Y-124332076D01*
X122916866Y-123027938D01*
X122941635Y-123008240D01*
X122969652Y-122975152D01*
X122973800Y-122971004D01*
X122993827Y-122946601D01*
X123038376Y-122893989D01*
X123041231Y-122888841D01*
X123044975Y-122884278D01*
X123077539Y-122823355D01*
X123110970Y-122763060D01*
X123112766Y-122757450D01*
X123115547Y-122752248D01*
X123135589Y-122686174D01*
X123156624Y-122620484D01*
X123157292Y-122614628D01*
X123159003Y-122608987D01*
X123165764Y-122540346D01*
X123169337Y-122509014D01*
X123169427Y-122503150D01*
X123173677Y-122460001D01*
X123170575Y-122428505D01*
X123310287Y-113342317D01*
X123660000Y-112980812D01*
X123660000Y-113171335D01*
X123715147Y-113448574D01*
X123823320Y-113709727D01*
X123980363Y-113944759D01*
X124180241Y-114144637D01*
X124412759Y-114300000D01*
X124180241Y-114455363D01*
X123980363Y-114655241D01*
X123823320Y-114890273D01*
X123715147Y-115151426D01*
X123660000Y-115428665D01*
X123660000Y-115711335D01*
X123715147Y-115988574D01*
X123823320Y-116249727D01*
X123980363Y-116484759D01*
X124180241Y-116684637D01*
X124412759Y-116840000D01*
X124180241Y-116995363D01*
X123980363Y-117195241D01*
X123823320Y-117430273D01*
X123715147Y-117691426D01*
X123660000Y-117968665D01*
X123660000Y-118251335D01*
X123715147Y-118528574D01*
X123823320Y-118789727D01*
X123980363Y-119024759D01*
X124180241Y-119224637D01*
X124412759Y-119380000D01*
X124180241Y-119535363D01*
X123980363Y-119735241D01*
X123823320Y-119970273D01*
X123715147Y-120231426D01*
X123660000Y-120508665D01*
X123660000Y-120791335D01*
X123715147Y-121068574D01*
X123823320Y-121329727D01*
X123980363Y-121564759D01*
X124180241Y-121764637D01*
X124412759Y-121920000D01*
X124180241Y-122075363D01*
X123980363Y-122275241D01*
X123823320Y-122510273D01*
X123715147Y-122771426D01*
X123660000Y-123048665D01*
X123660000Y-123331335D01*
X123715147Y-123608574D01*
X123823320Y-123869727D01*
X123980363Y-124104759D01*
X124180241Y-124304637D01*
X124415273Y-124461680D01*
X124676426Y-124569853D01*
X124953665Y-124625000D01*
X125236335Y-124625000D01*
X125513574Y-124569853D01*
X125774727Y-124461680D01*
X126009759Y-124304637D01*
X126209637Y-124104759D01*
X126366680Y-123869727D01*
X126474853Y-123608574D01*
X126530000Y-123331335D01*
X126530000Y-123048665D01*
X126474853Y-122771426D01*
X126366680Y-122510273D01*
X126209637Y-122275241D01*
X126009759Y-122075363D01*
X125777241Y-121920000D01*
X126009759Y-121764637D01*
X126209637Y-121564759D01*
X126366680Y-121329727D01*
X126474853Y-121068574D01*
X126530000Y-120791335D01*
X126530000Y-120508665D01*
X126474853Y-120231426D01*
X126366680Y-119970273D01*
X126209637Y-119735241D01*
X126009759Y-119535363D01*
X125777241Y-119380000D01*
X126009759Y-119224637D01*
X126209637Y-119024759D01*
X126366680Y-118789727D01*
X126474853Y-118528574D01*
X126530000Y-118251335D01*
X126530000Y-117968665D01*
X126474853Y-117691426D01*
X126366680Y-117430273D01*
X126209637Y-117195241D01*
X126009759Y-116995363D01*
X125777241Y-116840000D01*
X126009759Y-116684637D01*
X126209637Y-116484759D01*
X126366680Y-116249727D01*
X126474853Y-115988574D01*
X126530000Y-115711335D01*
X126530000Y-115428665D01*
X126493688Y-115246114D01*
X126679802Y-115060000D01*
X128833017Y-115060000D01*
X128795147Y-115151426D01*
X128740000Y-115428665D01*
X128740000Y-115711335D01*
X128795147Y-115988574D01*
X128903320Y-116249727D01*
X129060363Y-116484759D01*
X129260241Y-116684637D01*
X129492759Y-116840000D01*
X129260241Y-116995363D01*
X129060363Y-117195241D01*
X128903320Y-117430273D01*
X128795147Y-117691426D01*
X128740000Y-117968665D01*
X128740000Y-118251335D01*
X128795147Y-118528574D01*
X128903320Y-118789727D01*
X129060363Y-119024759D01*
X129260241Y-119224637D01*
X129492759Y-119380000D01*
X129260241Y-119535363D01*
X129060363Y-119735241D01*
X128903320Y-119970273D01*
X128795147Y-120231426D01*
X128740000Y-120508665D01*
X128740000Y-120791335D01*
X128795147Y-121068574D01*
X128903320Y-121329727D01*
X129060363Y-121564759D01*
X129260241Y-121764637D01*
X129492759Y-121920000D01*
X129260241Y-122075363D01*
X129060363Y-122275241D01*
X128903320Y-122510273D01*
X128795147Y-122771426D01*
X128740000Y-123048665D01*
X128740000Y-123331335D01*
X128795147Y-123608574D01*
X128903320Y-123869727D01*
X129060363Y-124104759D01*
X129260241Y-124304637D01*
X129495273Y-124461680D01*
X129756426Y-124569853D01*
X130033665Y-124625000D01*
X130316335Y-124625000D01*
X130593574Y-124569853D01*
X130854727Y-124461680D01*
X131089759Y-124304637D01*
X131289637Y-124104759D01*
X131446680Y-123869727D01*
X131554853Y-123608574D01*
X131610000Y-123331335D01*
X131610000Y-123048665D01*
X131554853Y-122771426D01*
X131446680Y-122510273D01*
X131289637Y-122275241D01*
X131089759Y-122075363D01*
X130857241Y-121920000D01*
X131068764Y-121778665D01*
X132550000Y-121778665D01*
X132550000Y-122061335D01*
X132605147Y-122338574D01*
X132713320Y-122599727D01*
X132870363Y-122834759D01*
X133070241Y-123034637D01*
X133305273Y-123191680D01*
X133566426Y-123299853D01*
X133843665Y-123355000D01*
X134126335Y-123355000D01*
X134403574Y-123299853D01*
X134664727Y-123191680D01*
X134899759Y-123034637D01*
X135099637Y-122834759D01*
X135256680Y-122599727D01*
X135364853Y-122338574D01*
X135420000Y-122061335D01*
X135420000Y-121920000D01*
X142703057Y-121920000D01*
X142730764Y-122201309D01*
X142812818Y-122471808D01*
X142946068Y-122721101D01*
X143125392Y-122939608D01*
X143343899Y-123118932D01*
X143593192Y-123252182D01*
X143863691Y-123334236D01*
X144074508Y-123355000D01*
X144215492Y-123355000D01*
X144426309Y-123334236D01*
X144696808Y-123252182D01*
X144946101Y-123118932D01*
X145164608Y-122939608D01*
X145343932Y-122721101D01*
X145477182Y-122471808D01*
X145559236Y-122201309D01*
X145586943Y-121920000D01*
X145559236Y-121638691D01*
X145477182Y-121368192D01*
X145343932Y-121118899D01*
X145164608Y-120900392D01*
X144946101Y-120721068D01*
X144696808Y-120587818D01*
X144426309Y-120505764D01*
X144215492Y-120485000D01*
X144074508Y-120485000D01*
X143863691Y-120505764D01*
X143593192Y-120587818D01*
X143343899Y-120721068D01*
X143125392Y-120900392D01*
X142946068Y-121118899D01*
X142812818Y-121368192D01*
X142730764Y-121638691D01*
X142703057Y-121920000D01*
X135420000Y-121920000D01*
X135420000Y-121778665D01*
X135364853Y-121501426D01*
X135256680Y-121240273D01*
X135099637Y-121005241D01*
X134899759Y-120805363D01*
X134664727Y-120648320D01*
X134403574Y-120540147D01*
X134126335Y-120485000D01*
X133843665Y-120485000D01*
X133566426Y-120540147D01*
X133305273Y-120648320D01*
X133070241Y-120805363D01*
X132870363Y-121005241D01*
X132713320Y-121240273D01*
X132605147Y-121501426D01*
X132550000Y-121778665D01*
X131068764Y-121778665D01*
X131089759Y-121764637D01*
X131289637Y-121564759D01*
X131446680Y-121329727D01*
X131554853Y-121068574D01*
X131610000Y-120791335D01*
X131610000Y-120508665D01*
X131554853Y-120231426D01*
X131446680Y-119970273D01*
X131289637Y-119735241D01*
X131089759Y-119535363D01*
X130857241Y-119380000D01*
X131089759Y-119224637D01*
X131289637Y-119024759D01*
X131393043Y-118870000D01*
X144502680Y-118870000D01*
X144540002Y-118873676D01*
X144577324Y-118870000D01*
X144577335Y-118870000D01*
X144688988Y-118859003D01*
X144832249Y-118815546D01*
X144964278Y-118744974D01*
X145080003Y-118650001D01*
X145103806Y-118620997D01*
X147831004Y-115893800D01*
X147860001Y-115870003D01*
X147900716Y-115820392D01*
X147954974Y-115754279D01*
X148025546Y-115622249D01*
X148041905Y-115568320D01*
X148069003Y-115478988D01*
X148080000Y-115367335D01*
X148080000Y-115367325D01*
X148083676Y-115330002D01*
X148080000Y-115292679D01*
X148080000Y-106628043D01*
X148234759Y-106524637D01*
X148434637Y-106324759D01*
X148591680Y-106089727D01*
X148699853Y-105828574D01*
X148755000Y-105551335D01*
X148755000Y-105268665D01*
X148699853Y-104991426D01*
X148591680Y-104730273D01*
X148434637Y-104495241D01*
X148234759Y-104295363D01*
X147999727Y-104138320D01*
X147738574Y-104030147D01*
X147461335Y-103975000D01*
X147178665Y-103975000D01*
X146901426Y-104030147D01*
X146640273Y-104138320D01*
X146405241Y-104295363D01*
X146205363Y-104495241D01*
X146048320Y-104730273D01*
X145940147Y-104991426D01*
X145885000Y-105268665D01*
X145885000Y-105551335D01*
X145940147Y-105828574D01*
X146048320Y-106089727D01*
X146205363Y-106324759D01*
X146405241Y-106524637D01*
X146560001Y-106628044D01*
X146560000Y-115015200D01*
X145410939Y-116164261D01*
X145343932Y-116038899D01*
X145164608Y-115820392D01*
X144946101Y-115641068D01*
X144696808Y-115507818D01*
X144426309Y-115425764D01*
X144215492Y-115405000D01*
X144074508Y-115405000D01*
X143863691Y-115425764D01*
X143593192Y-115507818D01*
X143343899Y-115641068D01*
X143125392Y-115820392D01*
X142946068Y-116038899D01*
X142812818Y-116288192D01*
X142730764Y-116558691D01*
X142703057Y-116840000D01*
X142730764Y-117121309D01*
X142800136Y-117350000D01*
X135326983Y-117350000D01*
X135364853Y-117258574D01*
X135420000Y-116981335D01*
X135420000Y-116698665D01*
X135364853Y-116421426D01*
X135256680Y-116160273D01*
X135099637Y-115925241D01*
X134899759Y-115725363D01*
X134664727Y-115568320D01*
X134403574Y-115460147D01*
X134126335Y-115405000D01*
X133843665Y-115405000D01*
X133566426Y-115460147D01*
X133305273Y-115568320D01*
X133070241Y-115725363D01*
X132870363Y-115925241D01*
X132713320Y-116160273D01*
X132605147Y-116421426D01*
X132550000Y-116698665D01*
X132550000Y-116981335D01*
X132605147Y-117258574D01*
X132643017Y-117350000D01*
X131393043Y-117350000D01*
X131289637Y-117195241D01*
X131089759Y-116995363D01*
X130857241Y-116840000D01*
X131089759Y-116684637D01*
X131289637Y-116484759D01*
X131446680Y-116249727D01*
X131554853Y-115988574D01*
X131610000Y-115711335D01*
X131610000Y-115428665D01*
X131589678Y-115326499D01*
X131746898Y-115295226D01*
X131935256Y-115217205D01*
X132104774Y-115103937D01*
X132248937Y-114959774D01*
X132362205Y-114790256D01*
X132440226Y-114601898D01*
X132480000Y-114401939D01*
X132480000Y-114198061D01*
X132440226Y-113998102D01*
X132362205Y-113809744D01*
X132248937Y-113640226D01*
X132104774Y-113496063D01*
X131935256Y-113382795D01*
X131746898Y-113304774D01*
X131613072Y-113278155D01*
X131613072Y-112230000D01*
X131600812Y-112105518D01*
X131564502Y-111985820D01*
X131505537Y-111875506D01*
X131426185Y-111778815D01*
X131329494Y-111699463D01*
X131219180Y-111640498D01*
X131099482Y-111604188D01*
X130975000Y-111591928D01*
X129375000Y-111591928D01*
X129250518Y-111604188D01*
X129130820Y-111640498D01*
X129020506Y-111699463D01*
X128923815Y-111778815D01*
X128844463Y-111875506D01*
X128785498Y-111985820D01*
X128749188Y-112105518D01*
X128736928Y-112230000D01*
X128736928Y-113540000D01*
X126436983Y-113540000D01*
X126474853Y-113448574D01*
X126530000Y-113171335D01*
X126530000Y-112888665D01*
X126493688Y-112706114D01*
X127949803Y-111250000D01*
X131130199Y-111250000D01*
X132586312Y-112706114D01*
X132550000Y-112888665D01*
X132550000Y-113171335D01*
X132605147Y-113448574D01*
X132713320Y-113709727D01*
X132870363Y-113944759D01*
X133070241Y-114144637D01*
X133305273Y-114301680D01*
X133566426Y-114409853D01*
X133843665Y-114465000D01*
X134126335Y-114465000D01*
X134403574Y-114409853D01*
X134664727Y-114301680D01*
X134899759Y-114144637D01*
X135099637Y-113944759D01*
X135256680Y-113709727D01*
X135364853Y-113448574D01*
X135420000Y-113171335D01*
X135420000Y-112888665D01*
X135364853Y-112611426D01*
X135256680Y-112350273D01*
X135099637Y-112115241D01*
X134899759Y-111915363D01*
X134664727Y-111758320D01*
X134403574Y-111650147D01*
X134126335Y-111595000D01*
X133843665Y-111595000D01*
X133661114Y-111631312D01*
X132734803Y-110705001D01*
X137570200Y-110705001D01*
X141205000Y-114339802D01*
X141205000Y-114401939D01*
X141244774Y-114601898D01*
X141322795Y-114790256D01*
X141436063Y-114959774D01*
X141580226Y-115103937D01*
X141749744Y-115217205D01*
X141938102Y-115295226D01*
X142138061Y-115335000D01*
X142341939Y-115335000D01*
X142541898Y-115295226D01*
X142730256Y-115217205D01*
X142899774Y-115103937D01*
X143043937Y-114959774D01*
X143157205Y-114790256D01*
X143235226Y-114601898D01*
X143275000Y-114401939D01*
X143275000Y-114198061D01*
X143268897Y-114167380D01*
X143343899Y-114228932D01*
X143593192Y-114362182D01*
X143863691Y-114444236D01*
X144074508Y-114465000D01*
X144215492Y-114465000D01*
X144426309Y-114444236D01*
X144696808Y-114362182D01*
X144946101Y-114228932D01*
X145164608Y-114049608D01*
X145343932Y-113831101D01*
X145477182Y-113581808D01*
X145559236Y-113311309D01*
X145586943Y-113030000D01*
X145559236Y-112748691D01*
X145477182Y-112478192D01*
X145343932Y-112228899D01*
X145164608Y-112010392D01*
X144946101Y-111831068D01*
X144905000Y-111809099D01*
X144905000Y-111162323D01*
X144908676Y-111125000D01*
X144905000Y-111087677D01*
X144905000Y-111087667D01*
X144894003Y-110976014D01*
X144850546Y-110832753D01*
X144779974Y-110700724D01*
X144685001Y-110584999D01*
X144656004Y-110561202D01*
X142803804Y-108709003D01*
X142780001Y-108679999D01*
X142664276Y-108585026D01*
X142532247Y-108514454D01*
X142388986Y-108470997D01*
X142277333Y-108460000D01*
X142277322Y-108460000D01*
X142240000Y-108456324D01*
X142202678Y-108460000D01*
X136295229Y-108460000D01*
X136321818Y-108454367D01*
X136581646Y-108343715D01*
X136814895Y-108184500D01*
X137012601Y-107982839D01*
X137167166Y-107746483D01*
X137272650Y-107484514D01*
X137325000Y-107207000D01*
X137325000Y-106807000D01*
X136017000Y-106807000D01*
X136017000Y-106827000D01*
X135763000Y-106827000D01*
X135763000Y-106807000D01*
X135743000Y-106807000D01*
X135743000Y-106553000D01*
X135763000Y-106553000D01*
X135763000Y-105010085D01*
X136017000Y-105010085D01*
X136017000Y-106553000D01*
X137325000Y-106553000D01*
X137325000Y-106153000D01*
X137272650Y-105875486D01*
X137167166Y-105613517D01*
X137012601Y-105377161D01*
X136814895Y-105175500D01*
X136581646Y-105016285D01*
X136321818Y-104905633D01*
X136239039Y-104888096D01*
X136017000Y-105010085D01*
X135763000Y-105010085D01*
X135540961Y-104888096D01*
X135458182Y-104905633D01*
X135198354Y-105016285D01*
X134965105Y-105175500D01*
X134767399Y-105377161D01*
X134617265Y-105606741D01*
X134548932Y-105478899D01*
X134369607Y-105260392D01*
X134151100Y-105081068D01*
X133901807Y-104947818D01*
X133631308Y-104865764D01*
X133350000Y-104838057D01*
X133068691Y-104865764D01*
X133024094Y-104879292D01*
X132788793Y-104643992D01*
X132764991Y-104614989D01*
X132649266Y-104520016D01*
X132517237Y-104449444D01*
X132373976Y-104405987D01*
X132262323Y-104394990D01*
X132262312Y-104394990D01*
X132224990Y-104391314D01*
X132187668Y-104394990D01*
X127841328Y-104394990D01*
X127804005Y-104391314D01*
X127766683Y-104394990D01*
X127766673Y-104394990D01*
X127655020Y-104405987D01*
X127511759Y-104449444D01*
X127379729Y-104520016D01*
X127296089Y-104588658D01*
X127264005Y-104614989D01*
X127240207Y-104643987D01*
X126680509Y-105203685D01*
X126531100Y-105081068D01*
X126281807Y-104947818D01*
X126011308Y-104865764D01*
X125730000Y-104838057D01*
X125448691Y-104865764D01*
X125404094Y-104879292D01*
X125168793Y-104643992D01*
X125144991Y-104614989D01*
X125029266Y-104520016D01*
X124897237Y-104449444D01*
X124753976Y-104405987D01*
X124642323Y-104394990D01*
X124642312Y-104394990D01*
X124604990Y-104391314D01*
X124567668Y-104394990D01*
X122761328Y-104394990D01*
X122724005Y-104391314D01*
X122686683Y-104394990D01*
X122686673Y-104394990D01*
X122575020Y-104405987D01*
X122431759Y-104449444D01*
X122299729Y-104520016D01*
X122216089Y-104588658D01*
X122184005Y-104614989D01*
X122160207Y-104643987D01*
X121600509Y-105203685D01*
X121451100Y-105081068D01*
X121201807Y-104947818D01*
X120931308Y-104865764D01*
X120650000Y-104838057D01*
X120368691Y-104865764D01*
X120324094Y-104879292D01*
X120088803Y-104644001D01*
X120065000Y-104614998D01*
X119949275Y-104520025D01*
X119817246Y-104449453D01*
X119673985Y-104405996D01*
X119562332Y-104394999D01*
X119562321Y-104394999D01*
X119524999Y-104391323D01*
X119487677Y-104394999D01*
X117087324Y-104394999D01*
X117049999Y-104391323D01*
X117012674Y-104394999D01*
X117012666Y-104394999D01*
X116901013Y-104405996D01*
X116757752Y-104449453D01*
X116625723Y-104520025D01*
X116509998Y-104614998D01*
X116486200Y-104643996D01*
X115735000Y-105395196D01*
X115735000Y-105268665D01*
X115679853Y-104991426D01*
X115571680Y-104730273D01*
X115414637Y-104495241D01*
X115214759Y-104295363D01*
X114979727Y-104138320D01*
X114718574Y-104030147D01*
X114560306Y-103998665D01*
X138265000Y-103998665D01*
X138265000Y-104281335D01*
X138320147Y-104558574D01*
X138428320Y-104819727D01*
X138585363Y-105054759D01*
X138785241Y-105254637D01*
X139020273Y-105411680D01*
X139281426Y-105519853D01*
X139558665Y-105575000D01*
X139841335Y-105575000D01*
X140118574Y-105519853D01*
X140379727Y-105411680D01*
X140614759Y-105254637D01*
X140814637Y-105054759D01*
X140971680Y-104819727D01*
X141079853Y-104558574D01*
X141135000Y-104281335D01*
X141135000Y-103998665D01*
X141079853Y-103721426D01*
X140971680Y-103460273D01*
X140814637Y-103225241D01*
X140614759Y-103025363D01*
X140414131Y-102891308D01*
X140441514Y-102876671D01*
X140513097Y-102632702D01*
X139700000Y-101819605D01*
X138886903Y-102632702D01*
X138958486Y-102876671D01*
X138987341Y-102890324D01*
X138785241Y-103025363D01*
X138585363Y-103225241D01*
X138428320Y-103460273D01*
X138320147Y-103721426D01*
X138265000Y-103998665D01*
X114560306Y-103998665D01*
X114441335Y-103975000D01*
X114158665Y-103975000D01*
X113881426Y-104030147D01*
X113620273Y-104138320D01*
X113385241Y-104295363D01*
X113185363Y-104495241D01*
X113051308Y-104695869D01*
X113036671Y-104668486D01*
X112792702Y-104596903D01*
X111979605Y-105410000D01*
X112792702Y-106223097D01*
X113036671Y-106151514D01*
X113050324Y-106122659D01*
X113185363Y-106324759D01*
X113385241Y-106524637D01*
X113620273Y-106681680D01*
X113881426Y-106789853D01*
X114158665Y-106845000D01*
X114285196Y-106845000D01*
X108709003Y-112421194D01*
X108679999Y-112444997D01*
X108624871Y-112512172D01*
X108585026Y-112560722D01*
X108560972Y-112605724D01*
X108514454Y-112692752D01*
X108470997Y-112836013D01*
X108460000Y-112947666D01*
X108460000Y-112947676D01*
X108456324Y-112984998D01*
X102285000Y-112984998D01*
X102285000Y-105268665D01*
X104610000Y-105268665D01*
X104610000Y-105551335D01*
X104665147Y-105828574D01*
X104773320Y-106089727D01*
X104930363Y-106324759D01*
X105130241Y-106524637D01*
X105365273Y-106681680D01*
X105626426Y-106789853D01*
X105903665Y-106845000D01*
X106186335Y-106845000D01*
X106463574Y-106789853D01*
X106724727Y-106681680D01*
X106959759Y-106524637D01*
X107081694Y-106402702D01*
X107731903Y-106402702D01*
X107803486Y-106646671D01*
X108058996Y-106767571D01*
X108333184Y-106836300D01*
X108615512Y-106850217D01*
X108895130Y-106808787D01*
X109161292Y-106713603D01*
X109286514Y-106646671D01*
X109358097Y-106402702D01*
X110986903Y-106402702D01*
X111058486Y-106646671D01*
X111313996Y-106767571D01*
X111588184Y-106836300D01*
X111870512Y-106850217D01*
X112150130Y-106808787D01*
X112416292Y-106713603D01*
X112541514Y-106646671D01*
X112613097Y-106402702D01*
X111800000Y-105589605D01*
X110986903Y-106402702D01*
X109358097Y-106402702D01*
X108545000Y-105589605D01*
X107731903Y-106402702D01*
X107081694Y-106402702D01*
X107159637Y-106324759D01*
X107293692Y-106124131D01*
X107308329Y-106151514D01*
X107552298Y-106223097D01*
X108365395Y-105410000D01*
X108724605Y-105410000D01*
X109537702Y-106223097D01*
X109781671Y-106151514D01*
X109902571Y-105896004D01*
X109971300Y-105621816D01*
X109978265Y-105480512D01*
X110359783Y-105480512D01*
X110401213Y-105760130D01*
X110496397Y-106026292D01*
X110563329Y-106151514D01*
X110807298Y-106223097D01*
X111620395Y-105410000D01*
X110807298Y-104596903D01*
X110563329Y-104668486D01*
X110442429Y-104923996D01*
X110373700Y-105198184D01*
X110359783Y-105480512D01*
X109978265Y-105480512D01*
X109985217Y-105339488D01*
X109943787Y-105059870D01*
X109848603Y-104793708D01*
X109781671Y-104668486D01*
X109537702Y-104596903D01*
X108724605Y-105410000D01*
X108365395Y-105410000D01*
X107552298Y-104596903D01*
X107308329Y-104668486D01*
X107294676Y-104697341D01*
X107159637Y-104495241D01*
X107081694Y-104417298D01*
X107731903Y-104417298D01*
X108545000Y-105230395D01*
X109358097Y-104417298D01*
X110986903Y-104417298D01*
X111800000Y-105230395D01*
X112613097Y-104417298D01*
X112541514Y-104173329D01*
X112286004Y-104052429D01*
X112011816Y-103983700D01*
X111729488Y-103969783D01*
X111449870Y-104011213D01*
X111183708Y-104106397D01*
X111058486Y-104173329D01*
X110986903Y-104417298D01*
X109358097Y-104417298D01*
X109286514Y-104173329D01*
X109031004Y-104052429D01*
X108756816Y-103983700D01*
X108474488Y-103969783D01*
X108194870Y-104011213D01*
X107928708Y-104106397D01*
X107803486Y-104173329D01*
X107731903Y-104417298D01*
X107081694Y-104417298D01*
X106959759Y-104295363D01*
X106724727Y-104138320D01*
X106463574Y-104030147D01*
X106186335Y-103975000D01*
X105903665Y-103975000D01*
X105626426Y-104030147D01*
X105365273Y-104138320D01*
X105130241Y-104295363D01*
X104930363Y-104495241D01*
X104773320Y-104730273D01*
X104665147Y-104991426D01*
X104610000Y-105268665D01*
X102285000Y-105268665D01*
X102285000Y-100600000D01*
X105724428Y-100600000D01*
X105724428Y-102600000D01*
X105736688Y-102724482D01*
X105772998Y-102844180D01*
X105831963Y-102954494D01*
X105911315Y-103051185D01*
X106008006Y-103130537D01*
X106118320Y-103189502D01*
X106238018Y-103225812D01*
X106362500Y-103238072D01*
X107830770Y-103238072D01*
X108028711Y-103436013D01*
X108052509Y-103465011D01*
X108081507Y-103488809D01*
X108168233Y-103559984D01*
X108300263Y-103630556D01*
X108443524Y-103674013D01*
X108555177Y-103685010D01*
X108555187Y-103685010D01*
X108592510Y-103688686D01*
X108629833Y-103685010D01*
X114207668Y-103685010D01*
X114244990Y-103688686D01*
X114282312Y-103685010D01*
X114282323Y-103685010D01*
X114393976Y-103674013D01*
X114537237Y-103630556D01*
X114669266Y-103559984D01*
X114784991Y-103465011D01*
X114808794Y-103436007D01*
X116534289Y-101710512D01*
X138259783Y-101710512D01*
X138301213Y-101990130D01*
X138396397Y-102256292D01*
X138463329Y-102381514D01*
X138707298Y-102453097D01*
X139520395Y-101640000D01*
X139879605Y-101640000D01*
X140692702Y-102453097D01*
X140936671Y-102381514D01*
X141057571Y-102126004D01*
X141126300Y-101851816D01*
X141140217Y-101569488D01*
X141098787Y-101289870D01*
X141003603Y-101023708D01*
X140936671Y-100898486D01*
X140692702Y-100826903D01*
X139879605Y-101640000D01*
X139520395Y-101640000D01*
X138707298Y-100826903D01*
X138463329Y-100898486D01*
X138342429Y-101153996D01*
X138273700Y-101428184D01*
X138259783Y-101710512D01*
X116534289Y-101710512D01*
X117489394Y-100755408D01*
X117558193Y-100792182D01*
X117828692Y-100874236D01*
X118110000Y-100901943D01*
X118391309Y-100874236D01*
X118661808Y-100792182D01*
X118911101Y-100658932D01*
X119129608Y-100479608D01*
X119308932Y-100261101D01*
X119380000Y-100128142D01*
X119451068Y-100261101D01*
X119630393Y-100479608D01*
X119848900Y-100658932D01*
X120098193Y-100792182D01*
X120368692Y-100874236D01*
X120650000Y-100901943D01*
X120931309Y-100874236D01*
X121201808Y-100792182D01*
X121451101Y-100658932D01*
X121600510Y-100536315D01*
X122160207Y-101096012D01*
X122184005Y-101125011D01*
X122299730Y-101219984D01*
X122431759Y-101290556D01*
X122575020Y-101334013D01*
X122686673Y-101345010D01*
X122686682Y-101345010D01*
X122724005Y-101348686D01*
X122761328Y-101345010D01*
X132187668Y-101345010D01*
X132224990Y-101348686D01*
X132262312Y-101345010D01*
X132262323Y-101345010D01*
X132373976Y-101334013D01*
X132517237Y-101290556D01*
X132649266Y-101219984D01*
X132764991Y-101125011D01*
X132788793Y-101096008D01*
X133024094Y-100860708D01*
X133068692Y-100874236D01*
X133350000Y-100901943D01*
X133631309Y-100874236D01*
X133901808Y-100792182D01*
X134151101Y-100658932D01*
X134369608Y-100479608D01*
X134548932Y-100261101D01*
X134620000Y-100128142D01*
X134691068Y-100261101D01*
X134870393Y-100479608D01*
X135088900Y-100658932D01*
X135338193Y-100792182D01*
X135608692Y-100874236D01*
X135890000Y-100901943D01*
X136171309Y-100874236D01*
X136441808Y-100792182D01*
X136691101Y-100658932D01*
X136705277Y-100647298D01*
X138886903Y-100647298D01*
X139700000Y-101460395D01*
X140513097Y-100647298D01*
X140441514Y-100403329D01*
X140186004Y-100282429D01*
X139911816Y-100213700D01*
X139629488Y-100199783D01*
X139349870Y-100241213D01*
X139083708Y-100336397D01*
X138958486Y-100403329D01*
X138886903Y-100647298D01*
X136705277Y-100647298D01*
X136909608Y-100479608D01*
X137088932Y-100261101D01*
X137222182Y-100011808D01*
X137304236Y-99741309D01*
X137308797Y-99695000D01*
X141433057Y-99695000D01*
X141460764Y-99976309D01*
X141542818Y-100246808D01*
X141676068Y-100496101D01*
X141855392Y-100714608D01*
X142073899Y-100893932D01*
X142323192Y-101027182D01*
X142593691Y-101109236D01*
X142804508Y-101130000D01*
X142945492Y-101130000D01*
X143156309Y-101109236D01*
X143426808Y-101027182D01*
X143676101Y-100893932D01*
X143894608Y-100714608D01*
X144073932Y-100496101D01*
X144207182Y-100246808D01*
X144289236Y-99976309D01*
X144316943Y-99695000D01*
X144289236Y-99413691D01*
X144207182Y-99143192D01*
X144073932Y-98893899D01*
X143894608Y-98675392D01*
X143676101Y-98496068D01*
X143426808Y-98362818D01*
X143156309Y-98280764D01*
X142945492Y-98260000D01*
X142804508Y-98260000D01*
X142593691Y-98280764D01*
X142323192Y-98362818D01*
X142073899Y-98496068D01*
X141855392Y-98675392D01*
X141676068Y-98893899D01*
X141542818Y-99143192D01*
X141460764Y-99413691D01*
X141433057Y-99695000D01*
X137308797Y-99695000D01*
X137325000Y-99530491D01*
X137325000Y-98589508D01*
X137304236Y-98378691D01*
X137222182Y-98108192D01*
X137088932Y-97858899D01*
X136909607Y-97640392D01*
X136691100Y-97461068D01*
X136441807Y-97327818D01*
X136171308Y-97245764D01*
X135890000Y-97218057D01*
X135608691Y-97245764D01*
X135338192Y-97327818D01*
X135088899Y-97461068D01*
X134870392Y-97640393D01*
X134691068Y-97858900D01*
X134620000Y-97991858D01*
X134548932Y-97858899D01*
X134369607Y-97640392D01*
X134151100Y-97461068D01*
X133901807Y-97327818D01*
X133631308Y-97245764D01*
X133350000Y-97218057D01*
X133068691Y-97245764D01*
X132798192Y-97327818D01*
X132548899Y-97461068D01*
X132330392Y-97640393D01*
X132151068Y-97858900D01*
X132080000Y-97991858D01*
X132008932Y-97858899D01*
X131829607Y-97640392D01*
X131611100Y-97461068D01*
X131361807Y-97327818D01*
X131091308Y-97245764D01*
X130810000Y-97218057D01*
X130528691Y-97245764D01*
X130258192Y-97327818D01*
X130008899Y-97461068D01*
X129790392Y-97640393D01*
X129611068Y-97858900D01*
X129540000Y-97991858D01*
X129468932Y-97858899D01*
X129289607Y-97640392D01*
X129071100Y-97461068D01*
X129030000Y-97439100D01*
X129030000Y-95324864D01*
X129258691Y-95394236D01*
X129469508Y-95415000D01*
X129610492Y-95415000D01*
X129821309Y-95394236D01*
X130091808Y-95312182D01*
X130341101Y-95178932D01*
X130559608Y-94999608D01*
X130738932Y-94781101D01*
X130810000Y-94648142D01*
X130881068Y-94781101D01*
X131060392Y-94999608D01*
X131278899Y-95178932D01*
X131528192Y-95312182D01*
X131798691Y-95394236D01*
X132009508Y-95415000D01*
X132150492Y-95415000D01*
X132361309Y-95394236D01*
X132631808Y-95312182D01*
X132881101Y-95178932D01*
X133099608Y-94999608D01*
X133278932Y-94781101D01*
X133350000Y-94648142D01*
X133421068Y-94781101D01*
X133600392Y-94999608D01*
X133818899Y-95178932D01*
X134068192Y-95312182D01*
X134338691Y-95394236D01*
X134549508Y-95415000D01*
X134690492Y-95415000D01*
X134901309Y-95394236D01*
X135171808Y-95312182D01*
X135421101Y-95178932D01*
X135639608Y-94999608D01*
X135818932Y-94781101D01*
X135890000Y-94648142D01*
X135961068Y-94781101D01*
X136140392Y-94999608D01*
X136358899Y-95178932D01*
X136608192Y-95312182D01*
X136878691Y-95394236D01*
X137089508Y-95415000D01*
X137230492Y-95415000D01*
X137441309Y-95394236D01*
X137711808Y-95312182D01*
X137961101Y-95178932D01*
X138179608Y-94999608D01*
X138358932Y-94781101D01*
X138492182Y-94531808D01*
X138574236Y-94261309D01*
X138601943Y-93980000D01*
X138574236Y-93698691D01*
X138492182Y-93428192D01*
X138358932Y-93178899D01*
X138179608Y-92960392D01*
X137961101Y-92781068D01*
X137711808Y-92647818D01*
X137441309Y-92565764D01*
X137230492Y-92545000D01*
X137089508Y-92545000D01*
X136878691Y-92565764D01*
X136608192Y-92647818D01*
X136358899Y-92781068D01*
X136140392Y-92960392D01*
X135961068Y-93178899D01*
X135890000Y-93311858D01*
X135818932Y-93178899D01*
X135639608Y-92960392D01*
X135421101Y-92781068D01*
X135171808Y-92647818D01*
X134901309Y-92565764D01*
X134690492Y-92545000D01*
X134549508Y-92545000D01*
X134338691Y-92565764D01*
X134068192Y-92647818D01*
X133818899Y-92781068D01*
X133600392Y-92960392D01*
X133421068Y-93178899D01*
X133350000Y-93311858D01*
X133278932Y-93178899D01*
X133099608Y-92960392D01*
X132881101Y-92781068D01*
X132840000Y-92759099D01*
X132840000Y-91754801D01*
X134934803Y-89660000D01*
X138392678Y-89660000D01*
X138430000Y-89663676D01*
X138467322Y-89660000D01*
X138467333Y-89660000D01*
X138578986Y-89649003D01*
X138722247Y-89605546D01*
X138854276Y-89534974D01*
X138970001Y-89440001D01*
X138993804Y-89410997D01*
X139011136Y-89393665D01*
X141440000Y-89393665D01*
X141440000Y-89676335D01*
X141495147Y-89953574D01*
X141603320Y-90214727D01*
X141760363Y-90449759D01*
X141960241Y-90649637D01*
X142195273Y-90806680D01*
X142456426Y-90914853D01*
X142733665Y-90970000D01*
X143016335Y-90970000D01*
X143293574Y-90914853D01*
X143554727Y-90806680D01*
X143789759Y-90649637D01*
X143989637Y-90449759D01*
X144146680Y-90214727D01*
X144254853Y-89953574D01*
X144310000Y-89676335D01*
X144310000Y-89393665D01*
X144254853Y-89116426D01*
X144146680Y-88855273D01*
X143989637Y-88620241D01*
X143789759Y-88420363D01*
X143554727Y-88263320D01*
X143293574Y-88155147D01*
X143016335Y-88100000D01*
X142733665Y-88100000D01*
X142456426Y-88155147D01*
X142195273Y-88263320D01*
X141960241Y-88420363D01*
X141760363Y-88620241D01*
X141603320Y-88855273D01*
X141495147Y-89116426D01*
X141440000Y-89393665D01*
X139011136Y-89393665D01*
X139739802Y-88665000D01*
X139801939Y-88665000D01*
X140001898Y-88625226D01*
X140190256Y-88547205D01*
X140359774Y-88433937D01*
X140503937Y-88289774D01*
X140617205Y-88120256D01*
X140695226Y-87931898D01*
X140735000Y-87731939D01*
X140735000Y-87528061D01*
X140695226Y-87328102D01*
X140617205Y-87139744D01*
X140503937Y-86970226D01*
X140359774Y-86826063D01*
X140190256Y-86712795D01*
X140001898Y-86634774D01*
X139801939Y-86595000D01*
X139598061Y-86595000D01*
X139398102Y-86634774D01*
X139209744Y-86712795D01*
X139040226Y-86826063D01*
X138896063Y-86970226D01*
X138782795Y-87139744D01*
X138704774Y-87328102D01*
X138665000Y-87528061D01*
X138665000Y-87590198D01*
X138115199Y-88140000D01*
X134657322Y-88140000D01*
X134619999Y-88136324D01*
X134582676Y-88140000D01*
X134582667Y-88140000D01*
X134471014Y-88150997D01*
X134327753Y-88194454D01*
X134195724Y-88265026D01*
X134195722Y-88265027D01*
X134195723Y-88265027D01*
X134108996Y-88336201D01*
X134108992Y-88336205D01*
X134079999Y-88359999D01*
X134056205Y-88388992D01*
X131568998Y-90876201D01*
X131540000Y-90899999D01*
X131516202Y-90928997D01*
X131516201Y-90928998D01*
X131445026Y-91015724D01*
X131374454Y-91147754D01*
X131344180Y-91247558D01*
X131330998Y-91291014D01*
X131320001Y-91402667D01*
X131316324Y-91440000D01*
X131320001Y-91477332D01*
X131320000Y-92759099D01*
X131278899Y-92781068D01*
X131060392Y-92960392D01*
X130881068Y-93178899D01*
X130810000Y-93311858D01*
X130738932Y-93178899D01*
X130559608Y-92960392D01*
X130341101Y-92781068D01*
X130091808Y-92647818D01*
X129821309Y-92565764D01*
X129610492Y-92545000D01*
X129509802Y-92545000D01*
X130051003Y-92003799D01*
X130080001Y-91980001D01*
X130174974Y-91864276D01*
X130245546Y-91732247D01*
X130289003Y-91588986D01*
X130300000Y-91477333D01*
X130300000Y-91477324D01*
X130303676Y-91440001D01*
X130300000Y-91402678D01*
X130300000Y-87580901D01*
X130341101Y-87558932D01*
X130559608Y-87379608D01*
X130738932Y-87161101D01*
X130810000Y-87028142D01*
X130881068Y-87161101D01*
X131060392Y-87379608D01*
X131278899Y-87558932D01*
X131528192Y-87692182D01*
X131798691Y-87774236D01*
X132009508Y-87795000D01*
X132150492Y-87795000D01*
X132361309Y-87774236D01*
X132631808Y-87692182D01*
X132881101Y-87558932D01*
X133099608Y-87379608D01*
X133278932Y-87161101D01*
X133350000Y-87028142D01*
X133421068Y-87161101D01*
X133600392Y-87379608D01*
X133818899Y-87558932D01*
X134068192Y-87692182D01*
X134338691Y-87774236D01*
X134549508Y-87795000D01*
X134690492Y-87795000D01*
X134901309Y-87774236D01*
X135171808Y-87692182D01*
X135421101Y-87558932D01*
X135639608Y-87379608D01*
X135818932Y-87161101D01*
X135890000Y-87028142D01*
X135961068Y-87161101D01*
X136140392Y-87379608D01*
X136358899Y-87558932D01*
X136608192Y-87692182D01*
X136878691Y-87774236D01*
X137089508Y-87795000D01*
X137230492Y-87795000D01*
X137441309Y-87774236D01*
X137711808Y-87692182D01*
X137961101Y-87558932D01*
X138179608Y-87379608D01*
X138358932Y-87161101D01*
X138492182Y-86911808D01*
X138574236Y-86641309D01*
X138601943Y-86360000D01*
X138574236Y-86078691D01*
X138492182Y-85808192D01*
X138358932Y-85558899D01*
X138228944Y-85400507D01*
X139803669Y-85400507D01*
X139842761Y-85626404D01*
X139925172Y-85840334D01*
X140047736Y-86034076D01*
X140205742Y-86200184D01*
X140393118Y-86332275D01*
X140602663Y-86425272D01*
X140664190Y-86433964D01*
X140843000Y-86308163D01*
X140843000Y-85217000D01*
X139963402Y-85217000D01*
X139803669Y-85400507D01*
X138228944Y-85400507D01*
X138179608Y-85340392D01*
X137961101Y-85161068D01*
X137711808Y-85027818D01*
X137441309Y-84945764D01*
X137230492Y-84925000D01*
X137089508Y-84925000D01*
X136878691Y-84945764D01*
X136608192Y-85027818D01*
X136358899Y-85161068D01*
X136140392Y-85340392D01*
X135961068Y-85558899D01*
X135890000Y-85691858D01*
X135818932Y-85558899D01*
X135639608Y-85340392D01*
X135421101Y-85161068D01*
X135171808Y-85027818D01*
X134901309Y-84945764D01*
X134690492Y-84925000D01*
X134549508Y-84925000D01*
X134338691Y-84945764D01*
X134068192Y-85027818D01*
X133818899Y-85161068D01*
X133600392Y-85340392D01*
X133421068Y-85558899D01*
X133350000Y-85691858D01*
X133278932Y-85558899D01*
X133099608Y-85340392D01*
X132881101Y-85161068D01*
X132631808Y-85027818D01*
X132361309Y-84945764D01*
X132150492Y-84925000D01*
X132009508Y-84925000D01*
X131798691Y-84945764D01*
X131528192Y-85027818D01*
X131278899Y-85161068D01*
X131060392Y-85340392D01*
X130881068Y-85558899D01*
X130810000Y-85691858D01*
X130738932Y-85558899D01*
X130559608Y-85340392D01*
X130341101Y-85161068D01*
X130091808Y-85027818D01*
X129821309Y-84945764D01*
X129610492Y-84925000D01*
X129469508Y-84925000D01*
X129258691Y-84945764D01*
X128988192Y-85027818D01*
X128738899Y-85161068D01*
X128520392Y-85340392D01*
X128341068Y-85558899D01*
X128270000Y-85691858D01*
X128198932Y-85558899D01*
X128019608Y-85340392D01*
X127801101Y-85161068D01*
X127551808Y-85027818D01*
X127281309Y-84945764D01*
X127070492Y-84925000D01*
X126929508Y-84925000D01*
X126718691Y-84945764D01*
X126448192Y-85027818D01*
X126198899Y-85161068D01*
X125980392Y-85340392D01*
X125801068Y-85558899D01*
X125730000Y-85691858D01*
X125658932Y-85558899D01*
X125479608Y-85340392D01*
X125261101Y-85161068D01*
X125011808Y-85027818D01*
X124741309Y-84945764D01*
X124530492Y-84925000D01*
X124389508Y-84925000D01*
X124178691Y-84945764D01*
X123908192Y-85027818D01*
X123658899Y-85161068D01*
X123440392Y-85340392D01*
X123261068Y-85558899D01*
X123187421Y-85696682D01*
X123072385Y-85504869D01*
X122883414Y-85296481D01*
X122657420Y-85128963D01*
X122403087Y-85008754D01*
X122269039Y-84968096D01*
X122047000Y-85090085D01*
X122047000Y-86233000D01*
X122067000Y-86233000D01*
X122067000Y-86487000D01*
X122047000Y-86487000D01*
X122047000Y-87629915D01*
X122269039Y-87751904D01*
X122403087Y-87711246D01*
X122657420Y-87591037D01*
X122883414Y-87423519D01*
X123072385Y-87215131D01*
X123187421Y-87023318D01*
X123261068Y-87161101D01*
X123440392Y-87379608D01*
X123658899Y-87558932D01*
X123908192Y-87692182D01*
X124178691Y-87774236D01*
X124389508Y-87795000D01*
X124530492Y-87795000D01*
X124741309Y-87774236D01*
X125011808Y-87692182D01*
X125261101Y-87558932D01*
X125479608Y-87379608D01*
X125658932Y-87161101D01*
X125730000Y-87028142D01*
X125801068Y-87161101D01*
X125980392Y-87379608D01*
X126198899Y-87558932D01*
X126240000Y-87580901D01*
X126240001Y-92000195D01*
X125369867Y-92870330D01*
X125261101Y-92781068D01*
X125011808Y-92647818D01*
X124741309Y-92565764D01*
X124530492Y-92545000D01*
X124389508Y-92545000D01*
X124178691Y-92565764D01*
X123908192Y-92647818D01*
X123658899Y-92781068D01*
X123440392Y-92960392D01*
X123347581Y-93073482D01*
X123345812Y-93055518D01*
X123309502Y-92935820D01*
X123250537Y-92825506D01*
X123171185Y-92728815D01*
X123074494Y-92649463D01*
X122964180Y-92590498D01*
X122844482Y-92554188D01*
X122720000Y-92541928D01*
X121120000Y-92541928D01*
X120995518Y-92554188D01*
X120875820Y-92590498D01*
X120765506Y-92649463D01*
X120668815Y-92728815D01*
X120589463Y-92825506D01*
X120530498Y-92935820D01*
X120494188Y-93055518D01*
X120481928Y-93180000D01*
X120481928Y-94780000D01*
X120494188Y-94904482D01*
X120530498Y-95024180D01*
X120589463Y-95134494D01*
X120668815Y-95231185D01*
X120765506Y-95310537D01*
X120875820Y-95369502D01*
X120995518Y-95405812D01*
X121120000Y-95418072D01*
X121160000Y-95418072D01*
X121160001Y-97315136D01*
X120931308Y-97245764D01*
X120650000Y-97218057D01*
X120368691Y-97245764D01*
X120098192Y-97327818D01*
X119848899Y-97461068D01*
X119630392Y-97640393D01*
X119451068Y-97858900D01*
X119380000Y-97991858D01*
X119308932Y-97858899D01*
X119129607Y-97640392D01*
X118911100Y-97461068D01*
X118661807Y-97327818D01*
X118391308Y-97245764D01*
X118110000Y-97218057D01*
X117828691Y-97245764D01*
X117558192Y-97327818D01*
X117308899Y-97461068D01*
X117090392Y-97640393D01*
X116911068Y-97858900D01*
X116777818Y-98108193D01*
X116695764Y-98378692D01*
X116675000Y-98589509D01*
X116675000Y-99420198D01*
X113930189Y-102165010D01*
X113896947Y-102165010D01*
X113959530Y-101958703D01*
X113982500Y-101725485D01*
X113982500Y-101474514D01*
X113959530Y-101241296D01*
X113868755Y-100942051D01*
X113721345Y-100666265D01*
X113522963Y-100424537D01*
X113281234Y-100226155D01*
X113005448Y-100078745D01*
X112706203Y-99987970D01*
X112395000Y-99957319D01*
X112083796Y-99987970D01*
X111784551Y-100078745D01*
X111508765Y-100226155D01*
X111267037Y-100424537D01*
X111119838Y-100603900D01*
X110964437Y-100418685D01*
X110721923Y-100224031D01*
X110446094Y-100080429D01*
X110227980Y-100009437D01*
X109982000Y-100129406D01*
X109982000Y-101473000D01*
X110002000Y-101473000D01*
X110002000Y-101727000D01*
X109982000Y-101727000D01*
X109982000Y-101747000D01*
X109728000Y-101747000D01*
X109728000Y-101727000D01*
X109708000Y-101727000D01*
X109708000Y-101473000D01*
X109728000Y-101473000D01*
X109728000Y-100129406D01*
X109482020Y-100009437D01*
X109263906Y-100080429D01*
X108988077Y-100224031D01*
X108847059Y-100337219D01*
X108798037Y-100245506D01*
X108718685Y-100148815D01*
X108621994Y-100069463D01*
X108511680Y-100010498D01*
X108391982Y-99974188D01*
X108267500Y-99961928D01*
X106362500Y-99961928D01*
X106238018Y-99974188D01*
X106118320Y-100010498D01*
X106008006Y-100069463D01*
X105911315Y-100148815D01*
X105831963Y-100245506D01*
X105772998Y-100355820D01*
X105736688Y-100475518D01*
X105724428Y-100600000D01*
X102285000Y-100600000D01*
X102285000Y-91298665D01*
X116675000Y-91298665D01*
X116675000Y-91581335D01*
X116730147Y-91858574D01*
X116838320Y-92119727D01*
X116995363Y-92354759D01*
X117195241Y-92554637D01*
X117430273Y-92711680D01*
X117691426Y-92819853D01*
X117968665Y-92875000D01*
X118251335Y-92875000D01*
X118528574Y-92819853D01*
X118789727Y-92711680D01*
X119024759Y-92554637D01*
X119224637Y-92354759D01*
X119381680Y-92119727D01*
X119489853Y-91858574D01*
X119545000Y-91581335D01*
X119545000Y-91298665D01*
X119489853Y-91021426D01*
X119381680Y-90760273D01*
X119224637Y-90525241D01*
X119024759Y-90325363D01*
X118824131Y-90191308D01*
X118851514Y-90176671D01*
X118923097Y-89932702D01*
X118110000Y-89119605D01*
X117296903Y-89932702D01*
X117368486Y-90176671D01*
X117397341Y-90190324D01*
X117195241Y-90325363D01*
X116995363Y-90525241D01*
X116838320Y-90760273D01*
X116730147Y-91021426D01*
X116675000Y-91298665D01*
X102285000Y-91298665D01*
X102285000Y-89010512D01*
X116669783Y-89010512D01*
X116711213Y-89290130D01*
X116806397Y-89556292D01*
X116873329Y-89681514D01*
X117117298Y-89753097D01*
X117930395Y-88940000D01*
X118289605Y-88940000D01*
X119102702Y-89753097D01*
X119346671Y-89681514D01*
X119467571Y-89426004D01*
X119536300Y-89151816D01*
X119550217Y-88869488D01*
X119508787Y-88589870D01*
X119413603Y-88323708D01*
X119346671Y-88198486D01*
X119102702Y-88126903D01*
X118289605Y-88940000D01*
X117930395Y-88940000D01*
X117117298Y-88126903D01*
X116873329Y-88198486D01*
X116752429Y-88453996D01*
X116683700Y-88728184D01*
X116669783Y-89010512D01*
X102285000Y-89010512D01*
X102285000Y-87947298D01*
X117296903Y-87947298D01*
X118110000Y-88760395D01*
X118923097Y-87947298D01*
X118851514Y-87703329D01*
X118596004Y-87582429D01*
X118321816Y-87513700D01*
X118039488Y-87499783D01*
X117759870Y-87541213D01*
X117493708Y-87636397D01*
X117368486Y-87703329D01*
X117296903Y-87947298D01*
X102285000Y-87947298D01*
X102285000Y-84940000D01*
X107458461Y-84940000D01*
X107504510Y-85407542D01*
X107640887Y-85857116D01*
X107862351Y-86271446D01*
X108160391Y-86634609D01*
X108523554Y-86932649D01*
X108937884Y-87154113D01*
X109387458Y-87290490D01*
X109737843Y-87325000D01*
X109972157Y-87325000D01*
X110322542Y-87290490D01*
X110772116Y-87154113D01*
X111186446Y-86932649D01*
X111458914Y-86709040D01*
X120528091Y-86709040D01*
X120622930Y-86973881D01*
X120767615Y-87215131D01*
X120956586Y-87423519D01*
X121182580Y-87591037D01*
X121436913Y-87711246D01*
X121570961Y-87751904D01*
X121793000Y-87629915D01*
X121793000Y-86487000D01*
X120649376Y-86487000D01*
X120528091Y-86709040D01*
X111458914Y-86709040D01*
X111549609Y-86634609D01*
X111847649Y-86271446D01*
X111986881Y-86010960D01*
X120528091Y-86010960D01*
X120649376Y-86233000D01*
X121793000Y-86233000D01*
X121793000Y-85090085D01*
X121570961Y-84968096D01*
X121436913Y-85008754D01*
X121182580Y-85128963D01*
X120956586Y-85296481D01*
X120767615Y-85504869D01*
X120622930Y-85746119D01*
X120528091Y-86010960D01*
X111986881Y-86010960D01*
X112069113Y-85857116D01*
X112205490Y-85407542D01*
X112251539Y-84940000D01*
X112235731Y-84779493D01*
X139803669Y-84779493D01*
X139963402Y-84963000D01*
X140843000Y-84963000D01*
X140843000Y-83871837D01*
X140664190Y-83746036D01*
X140602663Y-83754728D01*
X140393118Y-83847725D01*
X140205742Y-83979816D01*
X140047736Y-84145924D01*
X139925172Y-84339666D01*
X139842761Y-84553596D01*
X139803669Y-84779493D01*
X112235731Y-84779493D01*
X112205490Y-84472458D01*
X112069113Y-84022884D01*
X111847649Y-83608554D01*
X111549609Y-83245391D01*
X111186446Y-82947351D01*
X110772116Y-82725887D01*
X110322542Y-82589510D01*
X109972157Y-82555000D01*
X109737843Y-82555000D01*
X109387458Y-82589510D01*
X108937884Y-82725887D01*
X108523554Y-82947351D01*
X108160391Y-83245391D01*
X107862351Y-83608554D01*
X107640887Y-84022884D01*
X107504510Y-84472458D01*
X107458461Y-84940000D01*
X102285000Y-84940000D01*
X102285000Y-80369027D01*
X124275037Y-80369027D01*
X124373036Y-80645978D01*
X124523183Y-80898488D01*
X124719707Y-81116854D01*
X124955056Y-81292684D01*
X125220186Y-81419222D01*
X125370974Y-81464958D01*
X125603000Y-81343817D01*
X125603000Y-80137000D01*
X124395536Y-80137000D01*
X124275037Y-80369027D01*
X102285000Y-80369027D01*
X102285000Y-77631668D01*
X102365943Y-77827082D01*
X102741862Y-78389685D01*
X103220315Y-78868138D01*
X103782918Y-79244057D01*
X104408048Y-79502994D01*
X105071682Y-79635000D01*
X105748318Y-79635000D01*
X106411952Y-79502994D01*
X107037082Y-79244057D01*
X107252632Y-79100031D01*
X112608698Y-79100031D01*
X112626412Y-79192502D01*
X112742429Y-79465437D01*
X112909464Y-79710494D01*
X113121097Y-79918256D01*
X113369196Y-80080738D01*
X113644227Y-80191696D01*
X113935620Y-80246866D01*
X114173000Y-80090586D01*
X114173000Y-78867000D01*
X114427000Y-78867000D01*
X114427000Y-80090586D01*
X114664380Y-80246866D01*
X114955773Y-80191696D01*
X115230804Y-80080738D01*
X115478903Y-79918256D01*
X115690536Y-79710494D01*
X115857571Y-79465437D01*
X115973588Y-79192502D01*
X115991302Y-79100031D01*
X115870246Y-78867000D01*
X114427000Y-78867000D01*
X114173000Y-78867000D01*
X112729754Y-78867000D01*
X112608698Y-79100031D01*
X107252632Y-79100031D01*
X107599685Y-78868138D01*
X108078138Y-78389685D01*
X108454057Y-77827082D01*
X108712994Y-77201952D01*
X108845000Y-76538318D01*
X108845000Y-75861682D01*
X108788970Y-75579999D01*
X112561928Y-75579999D01*
X112561928Y-76820001D01*
X112578992Y-76993255D01*
X112629528Y-77159851D01*
X112711595Y-77313387D01*
X112822038Y-77447962D01*
X112956613Y-77558405D01*
X113065314Y-77616507D01*
X112909464Y-77769506D01*
X112742429Y-78014563D01*
X112626412Y-78287498D01*
X112608698Y-78379969D01*
X112729754Y-78613000D01*
X114173000Y-78613000D01*
X114173000Y-78593000D01*
X114427000Y-78593000D01*
X114427000Y-78613000D01*
X115870246Y-78613000D01*
X115991302Y-78379969D01*
X115973588Y-78287498D01*
X115857571Y-78014563D01*
X115690536Y-77769506D01*
X115534686Y-77616507D01*
X115643387Y-77558405D01*
X115751108Y-77470000D01*
X124224149Y-77470000D01*
X124253084Y-77763777D01*
X124338775Y-78046264D01*
X124477931Y-78306606D01*
X124665203Y-78534797D01*
X124893394Y-78722069D01*
X124933433Y-78743470D01*
X124719707Y-78903146D01*
X124523183Y-79121512D01*
X124373036Y-79374022D01*
X124275037Y-79650973D01*
X124395536Y-79883000D01*
X125603000Y-79883000D01*
X125603000Y-79863000D01*
X125857000Y-79863000D01*
X125857000Y-79883000D01*
X125877000Y-79883000D01*
X125877000Y-80137000D01*
X125857000Y-80137000D01*
X125857000Y-81343817D01*
X126089026Y-81464958D01*
X126195414Y-81432689D01*
X126213055Y-81490847D01*
X126283627Y-81622877D01*
X126291767Y-81632795D01*
X126378601Y-81738602D01*
X126407599Y-81762400D01*
X127235000Y-82589802D01*
X127235000Y-82651939D01*
X127274774Y-82851898D01*
X127352795Y-83040256D01*
X127466063Y-83209774D01*
X127610226Y-83353937D01*
X127779744Y-83467205D01*
X127968102Y-83545226D01*
X128168061Y-83585000D01*
X128371939Y-83585000D01*
X128571898Y-83545226D01*
X128760256Y-83467205D01*
X128929774Y-83353937D01*
X129073937Y-83209774D01*
X129187205Y-83040256D01*
X129265226Y-82851898D01*
X129305000Y-82651939D01*
X129305000Y-82448061D01*
X129265226Y-82248102D01*
X129187205Y-82059744D01*
X129073937Y-81890226D01*
X128929774Y-81746063D01*
X128760256Y-81632795D01*
X128571898Y-81554774D01*
X128371939Y-81515000D01*
X128309802Y-81515000D01*
X128303402Y-81508600D01*
X128343619Y-81508600D01*
X128563777Y-81486916D01*
X128846264Y-81401225D01*
X129106606Y-81262069D01*
X129334797Y-81074797D01*
X129522069Y-80846606D01*
X129540000Y-80813060D01*
X129557931Y-80846606D01*
X129745203Y-81074797D01*
X129973394Y-81262069D01*
X130233736Y-81401225D01*
X130516223Y-81486916D01*
X130736381Y-81508600D01*
X130883619Y-81508600D01*
X131103777Y-81486916D01*
X131386264Y-81401225D01*
X131646606Y-81262069D01*
X131874797Y-81074797D01*
X132062069Y-80846606D01*
X132201225Y-80586264D01*
X132286916Y-80303777D01*
X132315851Y-80010000D01*
X132286916Y-79716223D01*
X132201225Y-79433736D01*
X132062069Y-79173394D01*
X131874797Y-78945203D01*
X131866735Y-78938586D01*
X131917780Y-78923102D01*
X132028094Y-78864137D01*
X132124785Y-78784785D01*
X132204137Y-78688094D01*
X132263102Y-78577780D01*
X132299412Y-78458082D01*
X132311672Y-78333600D01*
X132311672Y-77470000D01*
X139829509Y-77470000D01*
X139851423Y-77692499D01*
X139916324Y-77906447D01*
X140021716Y-78103623D01*
X140022846Y-78105000D01*
X140021716Y-78106377D01*
X139916324Y-78303553D01*
X139851423Y-78517501D01*
X139829509Y-78740000D01*
X139851423Y-78962499D01*
X139916324Y-79176447D01*
X140021716Y-79373623D01*
X140022846Y-79375000D01*
X140021716Y-79376377D01*
X139916324Y-79573553D01*
X139851423Y-79787501D01*
X139829509Y-80010000D01*
X139851423Y-80232499D01*
X139916324Y-80446447D01*
X140021716Y-80643623D01*
X140163551Y-80816449D01*
X140336377Y-80958284D01*
X140533553Y-81063676D01*
X140747501Y-81128577D01*
X140914248Y-81145000D01*
X141025752Y-81145000D01*
X141192499Y-81128577D01*
X141406447Y-81063676D01*
X141603623Y-80958284D01*
X141776449Y-80816449D01*
X141918284Y-80643623D01*
X142023676Y-80446447D01*
X142088577Y-80232499D01*
X142110491Y-80010000D01*
X142088577Y-79787501D01*
X142023676Y-79573553D01*
X141918284Y-79376377D01*
X141917154Y-79375000D01*
X141918284Y-79373623D01*
X142023676Y-79176447D01*
X142088577Y-78962499D01*
X142110491Y-78740000D01*
X142088577Y-78517501D01*
X142023676Y-78303553D01*
X141918284Y-78106377D01*
X141917154Y-78105000D01*
X141918284Y-78103623D01*
X142023676Y-77906447D01*
X142088577Y-77692499D01*
X142099546Y-77581125D01*
X142625000Y-78106579D01*
X142625001Y-83769593D01*
X142467400Y-83721785D01*
X142240000Y-83699388D01*
X142012601Y-83721785D01*
X141793941Y-83788115D01*
X141605331Y-83888929D01*
X141546882Y-83847725D01*
X141337337Y-83754728D01*
X141275810Y-83746036D01*
X141097000Y-83871837D01*
X141097000Y-84636891D01*
X141096785Y-84637600D01*
X141080000Y-84808021D01*
X141080000Y-85371978D01*
X141096785Y-85542399D01*
X141097000Y-85543108D01*
X141097000Y-86308163D01*
X141275810Y-86433964D01*
X141337337Y-86425272D01*
X141546882Y-86332275D01*
X141605331Y-86291071D01*
X141793940Y-86391885D01*
X142012600Y-86458215D01*
X142240000Y-86480612D01*
X142467399Y-86458215D01*
X142676098Y-86394907D01*
X142740820Y-86429502D01*
X142860518Y-86465812D01*
X142985000Y-86478072D01*
X143646494Y-86478072D01*
X146435000Y-89266579D01*
X146435001Y-91215747D01*
X146351422Y-91260421D01*
X146087234Y-91477234D01*
X145870421Y-91741422D01*
X145709314Y-92042832D01*
X145610105Y-92369881D01*
X145576606Y-92710000D01*
X145610105Y-93050119D01*
X145709314Y-93377168D01*
X145870421Y-93678578D01*
X146087234Y-93942766D01*
X146351422Y-94159579D01*
X146372772Y-94170991D01*
X146300392Y-94230392D01*
X146121068Y-94448899D01*
X145987818Y-94698192D01*
X145905764Y-94968691D01*
X145878057Y-95250000D01*
X145905764Y-95531309D01*
X145987818Y-95801808D01*
X146121068Y-96051101D01*
X146300392Y-96269608D01*
X146518899Y-96448932D01*
X146768192Y-96582182D01*
X147038691Y-96664236D01*
X147249508Y-96685000D01*
X147390492Y-96685000D01*
X147601309Y-96664236D01*
X147871808Y-96582182D01*
X148121101Y-96448932D01*
X148339608Y-96269608D01*
X148518932Y-96051101D01*
X148652182Y-95801808D01*
X148734236Y-95531309D01*
X148761943Y-95250000D01*
X148734236Y-94968691D01*
X148652182Y-94698192D01*
X148518932Y-94448899D01*
X148339608Y-94230392D01*
X148267228Y-94170991D01*
X148288578Y-94159579D01*
X148552766Y-93942766D01*
X148769579Y-93678578D01*
X148930686Y-93377168D01*
X149029895Y-93050119D01*
X149063394Y-92710000D01*
X149029895Y-92369881D01*
X148930686Y-92042832D01*
X148769579Y-91741422D01*
X148552766Y-91477234D01*
X148288578Y-91260421D01*
X148205000Y-91215748D01*
X148205000Y-88943469D01*
X148209281Y-88900000D01*
X148205000Y-88856531D01*
X148205000Y-88856523D01*
X148192195Y-88726510D01*
X148173536Y-88665000D01*
X148141589Y-88559686D01*
X148059411Y-88405941D01*
X147976532Y-88304953D01*
X147976530Y-88304951D01*
X147948817Y-88271183D01*
X147915050Y-88243471D01*
X144673072Y-85001494D01*
X144673072Y-84340000D01*
X144660812Y-84215518D01*
X144624502Y-84095820D01*
X144565537Y-83985506D01*
X144486185Y-83888815D01*
X144395000Y-83813982D01*
X144395000Y-81450000D01*
X145581928Y-81450000D01*
X145581928Y-83650000D01*
X145594188Y-83774482D01*
X145630498Y-83894180D01*
X145689463Y-84004494D01*
X145768815Y-84101185D01*
X145865506Y-84180537D01*
X145975820Y-84239502D01*
X146095518Y-84275812D01*
X146220000Y-84288072D01*
X148420000Y-84288072D01*
X148544482Y-84275812D01*
X148664180Y-84239502D01*
X148774494Y-84180537D01*
X148871185Y-84101185D01*
X148950537Y-84004494D01*
X149009502Y-83894180D01*
X149045812Y-83774482D01*
X149058072Y-83650000D01*
X149058072Y-81450000D01*
X149045812Y-81325518D01*
X149009502Y-81205820D01*
X148950537Y-81095506D01*
X148871185Y-80998815D01*
X148774494Y-80919463D01*
X148664180Y-80860498D01*
X148544482Y-80824188D01*
X148420000Y-80811928D01*
X146220000Y-80811928D01*
X146095518Y-80824188D01*
X145975820Y-80860498D01*
X145865506Y-80919463D01*
X145768815Y-80998815D01*
X145689463Y-81095506D01*
X145630498Y-81205820D01*
X145594188Y-81325518D01*
X145581928Y-81450000D01*
X144395000Y-81450000D01*
X144395000Y-77783469D01*
X144399281Y-77740000D01*
X144395000Y-77696531D01*
X144395000Y-77696523D01*
X144382195Y-77566510D01*
X144331589Y-77399687D01*
X144249411Y-77245941D01*
X144166532Y-77144953D01*
X144166530Y-77144951D01*
X144138817Y-77111183D01*
X144105050Y-77083471D01*
X142626534Y-75604956D01*
X142598817Y-75571183D01*
X142464059Y-75460589D01*
X142310313Y-75378411D01*
X142143490Y-75327805D01*
X142013477Y-75315000D01*
X142013469Y-75315000D01*
X141972163Y-75310932D01*
X141921185Y-75248815D01*
X141824494Y-75169463D01*
X141714180Y-75110498D01*
X141594482Y-75074188D01*
X141470000Y-75061928D01*
X140470000Y-75061928D01*
X140345518Y-75074188D01*
X140225820Y-75110498D01*
X140115506Y-75169463D01*
X140018815Y-75248815D01*
X139939463Y-75345506D01*
X139880498Y-75455820D01*
X139844188Y-75575518D01*
X139831928Y-75700000D01*
X139831928Y-76700000D01*
X139844188Y-76824482D01*
X139880498Y-76944180D01*
X139922297Y-77022379D01*
X139916324Y-77033553D01*
X139851423Y-77247501D01*
X139829509Y-77470000D01*
X132311672Y-77470000D01*
X132311672Y-76606400D01*
X132299412Y-76481918D01*
X132263102Y-76362220D01*
X132204137Y-76251906D01*
X132124785Y-76155215D01*
X132028094Y-76075863D01*
X131917780Y-76016898D01*
X131798082Y-75980588D01*
X131673600Y-75968328D01*
X129946400Y-75968328D01*
X129821918Y-75980588D01*
X129702220Y-76016898D01*
X129591906Y-76075863D01*
X129495215Y-76155215D01*
X129415863Y-76251906D01*
X129356898Y-76362220D01*
X129341414Y-76413265D01*
X129334797Y-76405203D01*
X129106606Y-76217931D01*
X128846264Y-76078775D01*
X128563777Y-75993084D01*
X128343619Y-75971400D01*
X128196381Y-75971400D01*
X127976223Y-75993084D01*
X127693736Y-76078775D01*
X127433394Y-76217931D01*
X127205203Y-76405203D01*
X127017931Y-76633394D01*
X127000000Y-76666940D01*
X126982069Y-76633394D01*
X126794797Y-76405203D01*
X126566606Y-76217931D01*
X126306264Y-76078775D01*
X126023777Y-75993084D01*
X125803619Y-75971400D01*
X125656381Y-75971400D01*
X125436223Y-75993084D01*
X125153736Y-76078775D01*
X124893394Y-76217931D01*
X124665203Y-76405203D01*
X124477931Y-76633394D01*
X124338775Y-76893736D01*
X124253084Y-77176223D01*
X124224149Y-77470000D01*
X115751108Y-77470000D01*
X115777962Y-77447962D01*
X115888405Y-77313387D01*
X115970472Y-77159851D01*
X116021008Y-76993255D01*
X116038072Y-76820001D01*
X116038072Y-75579999D01*
X116021008Y-75406745D01*
X115970472Y-75240149D01*
X115888405Y-75086613D01*
X115777962Y-74952038D01*
X115643387Y-74841595D01*
X115489851Y-74759528D01*
X115323255Y-74708992D01*
X115150001Y-74691928D01*
X113449999Y-74691928D01*
X113276745Y-74708992D01*
X113110149Y-74759528D01*
X112956613Y-74841595D01*
X112822038Y-74952038D01*
X112711595Y-75086613D01*
X112629528Y-75240149D01*
X112578992Y-75406745D01*
X112561928Y-75579999D01*
X108788970Y-75579999D01*
X108712994Y-75198048D01*
X108454057Y-74572918D01*
X108078138Y-74010315D01*
X107599685Y-73531862D01*
X107037082Y-73155943D01*
X106841668Y-73075000D01*
X147158332Y-73075000D01*
X146962918Y-73155943D01*
G36*
X123440392Y-94999608D02*
G01*
X123658899Y-95178932D01*
X123908192Y-95312182D01*
X124178691Y-95394236D01*
X124389508Y-95415000D01*
X124530492Y-95415000D01*
X124741309Y-95394236D01*
X125011808Y-95312182D01*
X125115000Y-95257025D01*
X125115000Y-95357667D01*
X125111323Y-95394999D01*
X125125997Y-95543984D01*
X125169453Y-95687245D01*
X125240025Y-95819275D01*
X125311200Y-95906001D01*
X125334999Y-95935000D01*
X125363997Y-95958798D01*
X125965000Y-96559802D01*
X125965000Y-96621939D01*
X126004774Y-96821898D01*
X126082795Y-97010256D01*
X126196063Y-97179774D01*
X126340226Y-97323937D01*
X126509744Y-97437205D01*
X126698102Y-97515226D01*
X126898061Y-97555000D01*
X127101939Y-97555000D01*
X127301898Y-97515226D01*
X127490256Y-97437205D01*
X127510001Y-97424012D01*
X127510001Y-97439099D01*
X127468899Y-97461068D01*
X127250392Y-97640393D01*
X127071068Y-97858900D01*
X127002735Y-97986742D01*
X126852601Y-97757161D01*
X126654895Y-97555500D01*
X126421646Y-97396285D01*
X126161818Y-97285633D01*
X126079039Y-97268096D01*
X125857000Y-97390085D01*
X125857000Y-98933000D01*
X125877000Y-98933000D01*
X125877000Y-99187000D01*
X125857000Y-99187000D01*
X125857000Y-99207000D01*
X125603000Y-99207000D01*
X125603000Y-99187000D01*
X125583000Y-99187000D01*
X125583000Y-98933000D01*
X125603000Y-98933000D01*
X125603000Y-97390085D01*
X125380961Y-97268096D01*
X125298182Y-97285633D01*
X125038354Y-97396285D01*
X124805105Y-97555500D01*
X124607399Y-97757161D01*
X124457265Y-97986741D01*
X124388932Y-97858899D01*
X124209607Y-97640392D01*
X123991100Y-97461068D01*
X123741807Y-97327818D01*
X123471308Y-97245764D01*
X123190000Y-97218057D01*
X122908691Y-97245764D01*
X122680000Y-97315136D01*
X122680000Y-95418072D01*
X122720000Y-95418072D01*
X122844482Y-95405812D01*
X122964180Y-95369502D01*
X123074494Y-95310537D01*
X123171185Y-95231185D01*
X123250537Y-95134494D01*
X123309502Y-95024180D01*
X123345812Y-94904482D01*
X123347581Y-94886518D01*
X123440392Y-94999608D01*
X123440392Y-94999608D01*
G37*
X123440392Y-94999608D02*
X123658899Y-95178932D01*
X123908192Y-95312182D01*
X124178691Y-95394236D01*
X124389508Y-95415000D01*
X124530492Y-95415000D01*
X124741309Y-95394236D01*
X125011808Y-95312182D01*
X125115000Y-95257025D01*
X125115000Y-95357667D01*
X125111323Y-95394999D01*
X125125997Y-95543984D01*
X125169453Y-95687245D01*
X125240025Y-95819275D01*
X125311200Y-95906001D01*
X125334999Y-95935000D01*
X125363997Y-95958798D01*
X125965000Y-96559802D01*
X125965000Y-96621939D01*
X126004774Y-96821898D01*
X126082795Y-97010256D01*
X126196063Y-97179774D01*
X126340226Y-97323937D01*
X126509744Y-97437205D01*
X126698102Y-97515226D01*
X126898061Y-97555000D01*
X127101939Y-97555000D01*
X127301898Y-97515226D01*
X127490256Y-97437205D01*
X127510001Y-97424012D01*
X127510001Y-97439099D01*
X127468899Y-97461068D01*
X127250392Y-97640393D01*
X127071068Y-97858900D01*
X127002735Y-97986742D01*
X126852601Y-97757161D01*
X126654895Y-97555500D01*
X126421646Y-97396285D01*
X126161818Y-97285633D01*
X126079039Y-97268096D01*
X125857000Y-97390085D01*
X125857000Y-98933000D01*
X125877000Y-98933000D01*
X125877000Y-99187000D01*
X125857000Y-99187000D01*
X125857000Y-99207000D01*
X125603000Y-99207000D01*
X125603000Y-99187000D01*
X125583000Y-99187000D01*
X125583000Y-98933000D01*
X125603000Y-98933000D01*
X125603000Y-97390085D01*
X125380961Y-97268096D01*
X125298182Y-97285633D01*
X125038354Y-97396285D01*
X124805105Y-97555500D01*
X124607399Y-97757161D01*
X124457265Y-97986741D01*
X124388932Y-97858899D01*
X124209607Y-97640392D01*
X123991100Y-97461068D01*
X123741807Y-97327818D01*
X123471308Y-97245764D01*
X123190000Y-97218057D01*
X122908691Y-97245764D01*
X122680000Y-97315136D01*
X122680000Y-95418072D01*
X122720000Y-95418072D01*
X122844482Y-95405812D01*
X122964180Y-95369502D01*
X123074494Y-95310537D01*
X123171185Y-95231185D01*
X123250537Y-95134494D01*
X123309502Y-95024180D01*
X123345812Y-94904482D01*
X123347581Y-94886518D01*
X123440392Y-94999608D01*
M02*
