G04 #@! TF.GenerationSoftware,KiCad,Pcbnew,5.1.2-f72e74a~84~ubuntu18.04.1*
G04 #@! TF.CreationDate,2019-06-13T20:11:50+02:00*
G04 #@! TF.ProjectId,cpu_luefter_ansteuerung,6370755f-6c75-4656-9674-65725f616e73,rev?*
G04 #@! TF.SameCoordinates,Original*
G04 #@! TF.FileFunction,Copper,L2,Bot*
G04 #@! TF.FilePolarity,Positive*
%FSLAX46Y46*%
G04 Gerber Fmt 4.6, Leading zero omitted, Abs format (unit mm)*
G04 Created by KiCad (PCBNEW 5.1.2-f72e74a~84~ubuntu18.04.1) date 2019-06-13 20:11:50*
%MOMM*%
%LPD*%
G04 APERTURE LIST*
%ADD10R,1.600000X1.600000*%
%ADD11C,1.600000*%
%ADD12C,2.000000*%
%ADD13C,5.600000*%
%ADD14R,2.200000X2.200000*%
%ADD15O,2.200000X2.200000*%
%ADD16C,0.100000*%
%ADD17C,1.740000*%
%ADD18O,2.200000X1.740000*%
%ADD19R,1.727200X1.727200*%
%ADD20O,1.727200X1.727200*%
%ADD21R,1.000000X1.000000*%
%ADD22O,1.000000X1.000000*%
%ADD23O,1.050000X1.500000*%
%ADD24R,1.050000X1.500000*%
%ADD25O,1.600000X1.600000*%
%ADD26R,1.905000X2.000000*%
%ADD27O,1.905000X2.000000*%
%ADD28R,1.600000X2.400000*%
%ADD29O,1.600000X2.400000*%
%ADD30C,0.800000*%
%ADD31C,0.250000*%
%ADD32C,0.500000*%
%ADD33C,0.254000*%
G04 APERTURE END LIST*
D10*
X130175000Y-113030000D03*
D11*
X130175000Y-115570000D03*
X130175000Y-118110000D03*
X130175000Y-120650000D03*
X130175000Y-123190000D03*
X125095000Y-123190000D03*
X125095000Y-120650000D03*
X125095000Y-118110000D03*
X125095000Y-115570000D03*
X125095000Y-113030000D03*
D12*
X124460000Y-131390000D03*
X124460000Y-135890000D03*
X130960000Y-131390000D03*
X130960000Y-135890000D03*
D13*
X148590000Y-135890000D03*
X105410000Y-135890000D03*
X148590000Y-76200000D03*
X105410000Y-76200000D03*
D11*
X118110000Y-91440000D03*
X118110000Y-88940000D03*
X139700000Y-101640000D03*
X139700000Y-104140000D03*
X111800000Y-105410000D03*
X114300000Y-105410000D03*
X106045000Y-105410000D03*
X108545000Y-105410000D03*
D14*
X147320000Y-82550000D03*
D15*
X147320000Y-92710000D03*
D16*
G36*
X115174505Y-75331204D02*
G01*
X115198773Y-75334804D01*
X115222572Y-75340765D01*
X115245671Y-75349030D01*
X115267850Y-75359520D01*
X115288893Y-75372132D01*
X115308599Y-75386747D01*
X115326777Y-75403223D01*
X115343253Y-75421401D01*
X115357868Y-75441107D01*
X115370480Y-75462150D01*
X115380970Y-75484329D01*
X115389235Y-75507428D01*
X115395196Y-75531227D01*
X115398796Y-75555495D01*
X115400000Y-75579999D01*
X115400000Y-76820001D01*
X115398796Y-76844505D01*
X115395196Y-76868773D01*
X115389235Y-76892572D01*
X115380970Y-76915671D01*
X115370480Y-76937850D01*
X115357868Y-76958893D01*
X115343253Y-76978599D01*
X115326777Y-76996777D01*
X115308599Y-77013253D01*
X115288893Y-77027868D01*
X115267850Y-77040480D01*
X115245671Y-77050970D01*
X115222572Y-77059235D01*
X115198773Y-77065196D01*
X115174505Y-77068796D01*
X115150001Y-77070000D01*
X113449999Y-77070000D01*
X113425495Y-77068796D01*
X113401227Y-77065196D01*
X113377428Y-77059235D01*
X113354329Y-77050970D01*
X113332150Y-77040480D01*
X113311107Y-77027868D01*
X113291401Y-77013253D01*
X113273223Y-76996777D01*
X113256747Y-76978599D01*
X113242132Y-76958893D01*
X113229520Y-76937850D01*
X113219030Y-76915671D01*
X113210765Y-76892572D01*
X113204804Y-76868773D01*
X113201204Y-76844505D01*
X113200000Y-76820001D01*
X113200000Y-75579999D01*
X113201204Y-75555495D01*
X113204804Y-75531227D01*
X113210765Y-75507428D01*
X113219030Y-75484329D01*
X113229520Y-75462150D01*
X113242132Y-75441107D01*
X113256747Y-75421401D01*
X113273223Y-75403223D01*
X113291401Y-75386747D01*
X113311107Y-75372132D01*
X113332150Y-75359520D01*
X113354329Y-75349030D01*
X113377428Y-75340765D01*
X113401227Y-75334804D01*
X113425495Y-75331204D01*
X113449999Y-75330000D01*
X115150001Y-75330000D01*
X115174505Y-75331204D01*
X115174505Y-75331204D01*
G37*
D17*
X114300000Y-76200000D03*
D18*
X114300000Y-78740000D03*
D19*
X130810000Y-77470000D03*
D20*
X130810000Y-80010000D03*
X128270000Y-77470000D03*
X128270000Y-80010000D03*
X125730000Y-77470000D03*
X125730000Y-80010000D03*
D21*
X140970000Y-76200000D03*
D22*
X140970000Y-77470000D03*
X140970000Y-78740000D03*
X140970000Y-80010000D03*
D23*
X142240000Y-85090000D03*
X140970000Y-85090000D03*
D24*
X143510000Y-85090000D03*
D11*
X147320000Y-105410000D03*
D25*
X147320000Y-95250000D03*
X142875000Y-99695000D03*
D11*
X142875000Y-89535000D03*
D25*
X144145000Y-121920000D03*
D11*
X133985000Y-121920000D03*
X133985000Y-125730000D03*
D25*
X144145000Y-125730000D03*
X111125000Y-121920000D03*
D11*
X121285000Y-121920000D03*
X121285000Y-116840000D03*
D25*
X111125000Y-116840000D03*
D11*
X121285000Y-113030000D03*
D25*
X111125000Y-113030000D03*
X144145000Y-116840000D03*
D11*
X133985000Y-116840000D03*
X133985000Y-113030000D03*
D25*
X144145000Y-113030000D03*
X111125000Y-125730000D03*
D11*
X121285000Y-125730000D03*
D26*
X107315000Y-101600000D03*
D27*
X109855000Y-101600000D03*
X112395000Y-101600000D03*
D10*
X121920000Y-93980000D03*
D25*
X137160000Y-86360000D03*
X124460000Y-93980000D03*
X134620000Y-86360000D03*
X127000000Y-93980000D03*
X132080000Y-86360000D03*
X129540000Y-93980000D03*
X129540000Y-86360000D03*
X132080000Y-93980000D03*
X127000000Y-86360000D03*
X134620000Y-93980000D03*
X124460000Y-86360000D03*
X137160000Y-93980000D03*
X121920000Y-86360000D03*
D28*
X118110000Y-106680000D03*
D29*
X135890000Y-99060000D03*
X120650000Y-106680000D03*
X133350000Y-99060000D03*
X123190000Y-106680000D03*
X130810000Y-99060000D03*
X125730000Y-106680000D03*
X128270000Y-99060000D03*
X128270000Y-106680000D03*
X125730000Y-99060000D03*
X130810000Y-106680000D03*
X123190000Y-99060000D03*
X133350000Y-106680000D03*
X120650000Y-99060000D03*
X135890000Y-106680000D03*
X118110000Y-99060000D03*
D30*
X125730000Y-87630000D03*
X121920000Y-87630000D03*
X128270000Y-82550000D03*
X139700000Y-87630000D03*
X142240000Y-114300000D03*
X131445000Y-114300000D03*
X134620000Y-109220000D03*
X127000000Y-96520000D03*
D31*
X107315000Y-104140000D02*
X106045000Y-105410000D01*
X107315000Y-101600000D02*
X107315000Y-104140000D01*
X146050000Y-104140000D02*
X147320000Y-105410000D01*
X139700000Y-104140000D02*
X146050000Y-104140000D01*
X135039990Y-96970010D02*
X137610010Y-96970010D01*
X133350000Y-99060000D02*
X133350000Y-98660000D01*
X133350000Y-98660000D02*
X135039990Y-96970010D01*
X137610010Y-96970010D02*
X140970000Y-100330000D01*
X140970000Y-102870000D02*
X139700000Y-104140000D01*
X140970000Y-100330000D02*
X140970000Y-102870000D01*
X121920000Y-92930000D02*
X121920000Y-93980000D01*
X123045001Y-91804999D02*
X121920000Y-92930000D01*
X123045001Y-80935869D02*
X123045001Y-91804999D01*
X125159471Y-78821399D02*
X123045001Y-80935869D01*
X128840529Y-78821399D02*
X125159471Y-78821399D01*
X129209140Y-79190010D02*
X128840529Y-78821399D01*
X129990010Y-79190010D02*
X129209140Y-79190010D01*
X130810000Y-80010000D02*
X129990010Y-79190010D01*
X121920000Y-93980000D02*
X119380000Y-93980000D01*
X118110000Y-95250000D02*
X118110000Y-99060000D01*
X119380000Y-93980000D02*
X118110000Y-95250000D01*
X118110000Y-92710000D02*
X119380000Y-93980000D01*
X118110000Y-91440000D02*
X118110000Y-92710000D01*
X130175000Y-118110000D02*
X125095000Y-118110000D01*
X109855000Y-104100000D02*
X108545000Y-105410000D01*
X109855000Y-101600000D02*
X109855000Y-104100000D01*
X108545000Y-105410000D02*
X111800000Y-105410000D01*
X121920000Y-86360000D02*
X121920000Y-87630000D01*
X120610000Y-88940000D02*
X118110000Y-88940000D01*
X121920000Y-87630000D02*
X120610000Y-88940000D01*
X139700000Y-101640000D02*
X137120000Y-101640000D01*
X135890000Y-102870000D02*
X135890000Y-106680000D01*
X137120000Y-101640000D02*
X135890000Y-102870000D01*
X129140000Y-102870000D02*
X135890000Y-102870000D01*
X125730000Y-99460000D02*
X129140000Y-102870000D01*
X125730000Y-99060000D02*
X125730000Y-99460000D01*
X125730000Y-99060000D02*
X125730000Y-87630000D01*
X124460000Y-131390000D02*
X130960000Y-131390000D01*
D32*
X114300000Y-76200000D02*
X114300000Y-74930000D01*
X114300000Y-74930000D02*
X115570000Y-73660000D01*
X115570000Y-73660000D02*
X134620000Y-73660000D01*
X138430000Y-77470000D02*
X140970000Y-77470000D01*
X134620000Y-73660000D02*
X138430000Y-77470000D01*
X140970000Y-77470000D02*
X144780000Y-77470000D01*
X147320000Y-80010000D02*
X147320000Y-82550000D01*
X144780000Y-77470000D02*
X147320000Y-80010000D01*
X112395000Y-78105000D02*
X112395000Y-101600000D01*
X114300000Y-76200000D02*
X112395000Y-78105000D01*
D31*
X112395000Y-103505000D02*
X114300000Y-105410000D01*
X112395000Y-101600000D02*
X112395000Y-103505000D01*
X142240000Y-88900000D02*
X142875000Y-89535000D01*
X142240000Y-85090000D02*
X142240000Y-88900000D01*
X120650000Y-100510000D02*
X120650000Y-99060000D01*
X121775010Y-101635010D02*
X120650000Y-100510000D01*
X121775010Y-107256014D02*
X121775010Y-101635010D01*
X122724006Y-108205010D02*
X121775010Y-107256014D01*
X127535012Y-108205010D02*
X122724006Y-108205010D01*
X141250002Y-121920000D02*
X127535012Y-108205010D01*
X144145000Y-121920000D02*
X141250002Y-121920000D01*
X137160000Y-85228630D02*
X137160000Y-86360000D01*
X137160000Y-82706400D02*
X137160000Y-85228630D01*
X131923600Y-77470000D02*
X137160000Y-82706400D01*
X130810000Y-77470000D02*
X131923600Y-77470000D01*
X134620000Y-81280000D02*
X134620000Y-86360000D01*
X132080000Y-78740000D02*
X134620000Y-81280000D01*
X128270000Y-77470000D02*
X129540000Y-78740000D01*
X129540000Y-78740000D02*
X132080000Y-78740000D01*
X128270000Y-80010000D02*
X133350000Y-85090000D01*
X133350000Y-85090000D02*
X133350000Y-87630000D01*
X137160000Y-91440000D02*
X137160000Y-93980000D01*
X133350000Y-87630000D02*
X137160000Y-91440000D01*
X131629990Y-96069990D02*
X143960010Y-96069990D01*
X129540000Y-93980000D02*
X131629990Y-96069990D01*
X144780000Y-95250000D02*
X147320000Y-95250000D01*
X143960010Y-96069990D02*
X144780000Y-95250000D01*
X128270000Y-92710000D02*
X129540000Y-93980000D01*
X128270000Y-82550000D02*
X128270000Y-92710000D01*
X139700000Y-81280000D02*
X140970000Y-80010000D01*
X139700000Y-87630000D02*
X139700000Y-81280000D01*
X142875000Y-98425000D02*
X142875000Y-99695000D01*
X140970000Y-96520000D02*
X142875000Y-98425000D01*
X127000000Y-93980000D02*
X129540000Y-96520000D01*
X129540000Y-96520000D02*
X140970000Y-96520000D01*
X125894999Y-119850001D02*
X125095000Y-120650000D01*
X126220001Y-119524999D02*
X125894999Y-119850001D01*
X131589999Y-119524999D02*
X126220001Y-119524999D01*
X133985000Y-121920000D02*
X131589999Y-119524999D01*
X125894999Y-122390001D02*
X125095000Y-123190000D01*
X126220001Y-122064999D02*
X125894999Y-122390001D01*
X131451369Y-122064999D02*
X126220001Y-122064999D01*
X133985000Y-124598630D02*
X131451369Y-122064999D01*
X133985000Y-125730000D02*
X133985000Y-124598630D01*
X144145000Y-131445000D02*
X144145000Y-125730000D01*
X138319999Y-137270001D02*
X144145000Y-131445000D01*
X123823999Y-137270001D02*
X138319999Y-137270001D01*
X118110000Y-106680000D02*
X118110000Y-131556002D01*
X118110000Y-131556002D02*
X123823999Y-137270001D01*
X129043630Y-120650000D02*
X130175000Y-120650000D01*
X126998590Y-120650000D02*
X129043630Y-120650000D01*
X125728590Y-121920000D02*
X126998590Y-120650000D01*
X121285000Y-121920000D02*
X125728590Y-121920000D01*
X128905000Y-116840000D02*
X130175000Y-115570000D01*
X121285000Y-116840000D02*
X128905000Y-116840000D01*
X130175000Y-111760000D02*
X130175000Y-113030000D01*
X129540000Y-111125000D02*
X130175000Y-111760000D01*
X121285000Y-113030000D02*
X123190000Y-111125000D01*
X123190000Y-111125000D02*
X129540000Y-111125000D01*
X144145000Y-116205000D02*
X144145000Y-116840000D01*
X142240000Y-114300000D02*
X144145000Y-116205000D01*
X133985000Y-116840000D02*
X131445000Y-114300000D01*
X132950000Y-109220000D02*
X134620000Y-109220000D01*
X130810000Y-106680000D02*
X130810000Y-107080000D01*
X130810000Y-107080000D02*
X132950000Y-109220000D01*
X127635000Y-125730000D02*
X130175000Y-123190000D01*
X121285000Y-125730000D02*
X127635000Y-125730000D01*
X125874213Y-135890000D02*
X130960000Y-135890000D01*
X124460000Y-135890000D02*
X125874213Y-135890000D01*
X124460000Y-95111370D02*
X124460000Y-93980000D01*
X124460000Y-99781004D02*
X124460000Y-95111370D01*
X123655994Y-100585010D02*
X124460000Y-99781004D01*
X122724006Y-100585010D02*
X123655994Y-100585010D01*
X122064990Y-99925994D02*
X122724006Y-100585010D01*
X122064990Y-98425000D02*
X122064990Y-99925994D01*
X121174980Y-97534990D02*
X122064990Y-98425000D01*
X120184006Y-97534990D02*
X121174980Y-97534990D01*
X119524990Y-98194006D02*
X120184006Y-97534990D01*
X119524990Y-99636014D02*
X119524990Y-98194006D01*
X116984999Y-102176005D02*
X119524990Y-99636014D01*
X116984999Y-131067411D02*
X116984999Y-102176005D01*
X123637599Y-137720011D02*
X116984999Y-131067411D01*
X138506399Y-137720011D02*
X123637599Y-137720011D01*
X145270001Y-130956409D02*
X138506399Y-137720011D01*
X145270001Y-125189999D02*
X145270001Y-130956409D01*
X144685001Y-124604999D02*
X145270001Y-125189999D01*
X143604999Y-124604999D02*
X144685001Y-124604999D01*
X132319998Y-135890000D02*
X143604999Y-124604999D01*
X124460000Y-135890000D02*
X132319998Y-135890000D01*
X130810000Y-98660000D02*
X130810000Y-99060000D01*
X127000000Y-96520000D02*
X128670000Y-96520000D01*
X128670000Y-96520000D02*
X130810000Y-98660000D01*
X123190000Y-97610000D02*
X123190000Y-99060000D01*
X123190000Y-93584998D02*
X123190000Y-97610000D01*
X124460000Y-92314998D02*
X123190000Y-93584998D01*
X124460000Y-86360000D02*
X124460000Y-92314998D01*
D33*
G36*
X113704951Y-74273471D02*
G01*
X113671184Y-74301183D01*
X113643471Y-74334951D01*
X113643468Y-74334954D01*
X113560590Y-74435941D01*
X113478412Y-74589687D01*
X113447316Y-74692192D01*
X113276745Y-74708992D01*
X113110149Y-74759528D01*
X112956613Y-74841595D01*
X112822038Y-74952038D01*
X112711595Y-75086613D01*
X112629528Y-75240149D01*
X112578992Y-75406745D01*
X112561928Y-75579999D01*
X112561928Y-76686494D01*
X111799956Y-77448466D01*
X111766183Y-77476183D01*
X111655589Y-77610942D01*
X111573411Y-77764688D01*
X111522805Y-77931511D01*
X111510000Y-78061524D01*
X111510000Y-78061531D01*
X111505719Y-78105000D01*
X111510000Y-78148469D01*
X111510000Y-83212885D01*
X111186446Y-82947351D01*
X110772116Y-82725887D01*
X110322542Y-82589510D01*
X109972157Y-82555000D01*
X109737843Y-82555000D01*
X109387458Y-82589510D01*
X108937884Y-82725887D01*
X108523554Y-82947351D01*
X108160391Y-83245391D01*
X107862351Y-83608554D01*
X107640887Y-84022884D01*
X107504510Y-84472458D01*
X107458461Y-84940000D01*
X107504510Y-85407542D01*
X107640887Y-85857116D01*
X107862351Y-86271446D01*
X108160391Y-86634609D01*
X108523554Y-86932649D01*
X108937884Y-87154113D01*
X109387458Y-87290490D01*
X109737843Y-87325000D01*
X109972157Y-87325000D01*
X110322542Y-87290490D01*
X110772116Y-87154113D01*
X111186446Y-86932649D01*
X111510000Y-86667115D01*
X111510001Y-100225494D01*
X111508765Y-100226155D01*
X111267037Y-100424537D01*
X111119838Y-100603900D01*
X110964437Y-100418685D01*
X110721923Y-100224031D01*
X110446094Y-100080429D01*
X110227980Y-100009437D01*
X109982000Y-100129406D01*
X109982000Y-101473000D01*
X110002000Y-101473000D01*
X110002000Y-101727000D01*
X109982000Y-101727000D01*
X109982000Y-103070594D01*
X110227980Y-103190563D01*
X110446094Y-103119571D01*
X110721923Y-102975969D01*
X110964437Y-102781315D01*
X111119837Y-102596101D01*
X111267037Y-102775463D01*
X111508766Y-102973845D01*
X111635001Y-103041319D01*
X111635001Y-103467668D01*
X111631324Y-103505000D01*
X111635001Y-103542333D01*
X111642553Y-103619003D01*
X111645998Y-103653985D01*
X111689454Y-103797246D01*
X111760026Y-103929276D01*
X111795959Y-103973060D01*
X111729488Y-103969783D01*
X111449870Y-104011213D01*
X111183708Y-104106397D01*
X111058486Y-104173329D01*
X110986903Y-104417298D01*
X111800000Y-105230395D01*
X111814143Y-105216253D01*
X111993748Y-105395858D01*
X111979605Y-105410000D01*
X112792702Y-106223097D01*
X113036671Y-106151514D01*
X113050324Y-106122659D01*
X113185363Y-106324759D01*
X113385241Y-106524637D01*
X113620273Y-106681680D01*
X113881426Y-106789853D01*
X114158665Y-106845000D01*
X114441335Y-106845000D01*
X114718574Y-106789853D01*
X114979727Y-106681680D01*
X115214759Y-106524637D01*
X115414637Y-106324759D01*
X115571680Y-106089727D01*
X115679853Y-105828574D01*
X115735000Y-105551335D01*
X115735000Y-105268665D01*
X115679853Y-104991426D01*
X115571680Y-104730273D01*
X115414637Y-104495241D01*
X115214759Y-104295363D01*
X114979727Y-104138320D01*
X114718574Y-104030147D01*
X114441335Y-103975000D01*
X114158665Y-103975000D01*
X113976114Y-104011312D01*
X113155000Y-103190199D01*
X113155000Y-103041319D01*
X113281235Y-102973845D01*
X113522963Y-102775463D01*
X113721345Y-102533734D01*
X113868755Y-102257948D01*
X113893612Y-102176005D01*
X116221323Y-102176005D01*
X116225000Y-102213338D01*
X116224999Y-131030089D01*
X116221323Y-131067411D01*
X116224999Y-131104733D01*
X116224999Y-131104743D01*
X116235996Y-131216396D01*
X116260148Y-131296015D01*
X116279453Y-131359657D01*
X116350025Y-131491687D01*
X116389870Y-131540237D01*
X116444998Y-131607412D01*
X116474002Y-131631215D01*
X123073800Y-138231014D01*
X123097598Y-138260012D01*
X123126596Y-138283810D01*
X123213322Y-138354985D01*
X123345352Y-138425557D01*
X123488613Y-138469014D01*
X123600266Y-138480011D01*
X123600275Y-138480011D01*
X123637598Y-138483687D01*
X123674921Y-138480011D01*
X138469077Y-138480011D01*
X138506399Y-138483687D01*
X138543721Y-138480011D01*
X138543732Y-138480011D01*
X138655385Y-138469014D01*
X138798646Y-138425557D01*
X138930675Y-138354985D01*
X139046400Y-138260012D01*
X139070203Y-138231008D01*
X145781004Y-131520208D01*
X145810002Y-131496410D01*
X145904975Y-131380685D01*
X145975547Y-131248656D01*
X146019004Y-131105395D01*
X146030001Y-130993742D01*
X146030001Y-130993734D01*
X146033677Y-130956409D01*
X146030001Y-130919084D01*
X146030001Y-125227322D01*
X146033677Y-125189999D01*
X146030001Y-125152676D01*
X146030001Y-125152666D01*
X146019004Y-125041013D01*
X145975547Y-124897752D01*
X145971872Y-124890876D01*
X145904975Y-124765722D01*
X145833800Y-124678996D01*
X145810002Y-124649998D01*
X145781005Y-124626201D01*
X145248804Y-124094001D01*
X145225002Y-124064998D01*
X145109277Y-123970025D01*
X144977248Y-123899453D01*
X144833987Y-123855996D01*
X144722334Y-123844999D01*
X144722323Y-123844999D01*
X144685001Y-123841323D01*
X144647679Y-123844999D01*
X143642321Y-123844999D01*
X143604998Y-123841323D01*
X143567675Y-123844999D01*
X143567666Y-123844999D01*
X143456013Y-123855996D01*
X143312752Y-123899453D01*
X143180723Y-123970025D01*
X143180721Y-123970026D01*
X143180722Y-123970026D01*
X143093995Y-124041200D01*
X143093991Y-124041204D01*
X143064998Y-124064998D01*
X143041204Y-124093991D01*
X132253003Y-134882194D01*
X132229987Y-134847748D01*
X132002252Y-134620013D01*
X131734463Y-134441082D01*
X131436912Y-134317832D01*
X131121033Y-134255000D01*
X130798967Y-134255000D01*
X130483088Y-134317832D01*
X130185537Y-134441082D01*
X129917748Y-134620013D01*
X129690013Y-134847748D01*
X129511082Y-135115537D01*
X129505091Y-135130000D01*
X125914909Y-135130000D01*
X125908918Y-135115537D01*
X125729987Y-134847748D01*
X125502252Y-134620013D01*
X125234463Y-134441082D01*
X124936912Y-134317832D01*
X124621033Y-134255000D01*
X124298967Y-134255000D01*
X123983088Y-134317832D01*
X123685537Y-134441082D01*
X123417748Y-134620013D01*
X123190013Y-134847748D01*
X123011082Y-135115537D01*
X122932954Y-135304154D01*
X120154213Y-132525413D01*
X123504192Y-132525413D01*
X123599956Y-132789814D01*
X123889571Y-132930704D01*
X124201108Y-133012384D01*
X124522595Y-133031718D01*
X124841675Y-132987961D01*
X125146088Y-132882795D01*
X125320044Y-132789814D01*
X125415808Y-132525413D01*
X130004192Y-132525413D01*
X130099956Y-132789814D01*
X130389571Y-132930704D01*
X130701108Y-133012384D01*
X131022595Y-133031718D01*
X131341675Y-132987961D01*
X131646088Y-132882795D01*
X131820044Y-132789814D01*
X131915808Y-132525413D01*
X130960000Y-131569605D01*
X130004192Y-132525413D01*
X125415808Y-132525413D01*
X124460000Y-131569605D01*
X123504192Y-132525413D01*
X120154213Y-132525413D01*
X119081395Y-131452595D01*
X122818282Y-131452595D01*
X122862039Y-131771675D01*
X122967205Y-132076088D01*
X123060186Y-132250044D01*
X123324587Y-132345808D01*
X124280395Y-131390000D01*
X124639605Y-131390000D01*
X125595413Y-132345808D01*
X125859814Y-132250044D01*
X126000704Y-131960429D01*
X126082384Y-131648892D01*
X126094189Y-131452595D01*
X129318282Y-131452595D01*
X129362039Y-131771675D01*
X129467205Y-132076088D01*
X129560186Y-132250044D01*
X129824587Y-132345808D01*
X130780395Y-131390000D01*
X131139605Y-131390000D01*
X132095413Y-132345808D01*
X132359814Y-132250044D01*
X132500704Y-131960429D01*
X132582384Y-131648892D01*
X132601718Y-131327405D01*
X132557961Y-131008325D01*
X132452795Y-130703912D01*
X132359814Y-130529956D01*
X132095413Y-130434192D01*
X131139605Y-131390000D01*
X130780395Y-131390000D01*
X129824587Y-130434192D01*
X129560186Y-130529956D01*
X129419296Y-130819571D01*
X129337616Y-131131108D01*
X129318282Y-131452595D01*
X126094189Y-131452595D01*
X126101718Y-131327405D01*
X126057961Y-131008325D01*
X125952795Y-130703912D01*
X125859814Y-130529956D01*
X125595413Y-130434192D01*
X124639605Y-131390000D01*
X124280395Y-131390000D01*
X123324587Y-130434192D01*
X123060186Y-130529956D01*
X122919296Y-130819571D01*
X122837616Y-131131108D01*
X122818282Y-131452595D01*
X119081395Y-131452595D01*
X118870000Y-131241201D01*
X118870000Y-130254587D01*
X123504192Y-130254587D01*
X124460000Y-131210395D01*
X125415808Y-130254587D01*
X130004192Y-130254587D01*
X130960000Y-131210395D01*
X131915808Y-130254587D01*
X131820044Y-129990186D01*
X131530429Y-129849296D01*
X131218892Y-129767616D01*
X130897405Y-129748282D01*
X130578325Y-129792039D01*
X130273912Y-129897205D01*
X130099956Y-129990186D01*
X130004192Y-130254587D01*
X125415808Y-130254587D01*
X125320044Y-129990186D01*
X125030429Y-129849296D01*
X124718892Y-129767616D01*
X124397405Y-129748282D01*
X124078325Y-129792039D01*
X123773912Y-129897205D01*
X123599956Y-129990186D01*
X123504192Y-130254587D01*
X118870000Y-130254587D01*
X118870000Y-108518072D01*
X118910000Y-108518072D01*
X119034482Y-108505812D01*
X119154180Y-108469502D01*
X119264494Y-108410537D01*
X119361185Y-108331185D01*
X119440537Y-108234494D01*
X119499502Y-108124180D01*
X119535812Y-108004482D01*
X119537581Y-107986517D01*
X119630393Y-108099608D01*
X119848900Y-108278932D01*
X120098193Y-108412182D01*
X120368692Y-108494236D01*
X120650000Y-108521943D01*
X120931309Y-108494236D01*
X121201808Y-108412182D01*
X121451101Y-108278932D01*
X121600510Y-108156315D01*
X122160206Y-108716012D01*
X122184005Y-108745011D01*
X122213003Y-108768809D01*
X122299729Y-108839984D01*
X122431759Y-108910556D01*
X122575020Y-108954013D01*
X122686673Y-108965010D01*
X122686683Y-108965010D01*
X122724005Y-108968686D01*
X122761328Y-108965010D01*
X127220211Y-108965010D01*
X128620201Y-110365000D01*
X123227323Y-110365000D01*
X123190000Y-110361324D01*
X123152677Y-110365000D01*
X123152667Y-110365000D01*
X123041014Y-110375997D01*
X122897753Y-110419454D01*
X122765724Y-110490026D01*
X122649999Y-110584999D01*
X122626201Y-110613997D01*
X121608886Y-111631312D01*
X121426335Y-111595000D01*
X121143665Y-111595000D01*
X120866426Y-111650147D01*
X120605273Y-111758320D01*
X120370241Y-111915363D01*
X120170363Y-112115241D01*
X120013320Y-112350273D01*
X119905147Y-112611426D01*
X119850000Y-112888665D01*
X119850000Y-113171335D01*
X119905147Y-113448574D01*
X120013320Y-113709727D01*
X120170363Y-113944759D01*
X120370241Y-114144637D01*
X120605273Y-114301680D01*
X120866426Y-114409853D01*
X121143665Y-114465000D01*
X121426335Y-114465000D01*
X121703574Y-114409853D01*
X121964727Y-114301680D01*
X122199759Y-114144637D01*
X122399637Y-113944759D01*
X122556680Y-113709727D01*
X122664853Y-113448574D01*
X122720000Y-113171335D01*
X122720000Y-112888665D01*
X122683688Y-112706114D01*
X123504802Y-111885000D01*
X124225683Y-111885000D01*
X124180241Y-111915363D01*
X123980363Y-112115241D01*
X123823320Y-112350273D01*
X123715147Y-112611426D01*
X123660000Y-112888665D01*
X123660000Y-113171335D01*
X123715147Y-113448574D01*
X123823320Y-113709727D01*
X123980363Y-113944759D01*
X124180241Y-114144637D01*
X124412759Y-114300000D01*
X124180241Y-114455363D01*
X123980363Y-114655241D01*
X123823320Y-114890273D01*
X123715147Y-115151426D01*
X123660000Y-115428665D01*
X123660000Y-115711335D01*
X123715147Y-115988574D01*
X123753017Y-116080000D01*
X122503043Y-116080000D01*
X122399637Y-115925241D01*
X122199759Y-115725363D01*
X121964727Y-115568320D01*
X121703574Y-115460147D01*
X121426335Y-115405000D01*
X121143665Y-115405000D01*
X120866426Y-115460147D01*
X120605273Y-115568320D01*
X120370241Y-115725363D01*
X120170363Y-115925241D01*
X120013320Y-116160273D01*
X119905147Y-116421426D01*
X119850000Y-116698665D01*
X119850000Y-116981335D01*
X119905147Y-117258574D01*
X120013320Y-117519727D01*
X120170363Y-117754759D01*
X120370241Y-117954637D01*
X120605273Y-118111680D01*
X120866426Y-118219853D01*
X121143665Y-118275000D01*
X121426335Y-118275000D01*
X121703574Y-118219853D01*
X121964727Y-118111680D01*
X122199759Y-117954637D01*
X122399637Y-117754759D01*
X122503043Y-117600000D01*
X123753017Y-117600000D01*
X123715147Y-117691426D01*
X123660000Y-117968665D01*
X123660000Y-118251335D01*
X123715147Y-118528574D01*
X123823320Y-118789727D01*
X123980363Y-119024759D01*
X124180241Y-119224637D01*
X124412759Y-119380000D01*
X124180241Y-119535363D01*
X123980363Y-119735241D01*
X123823320Y-119970273D01*
X123715147Y-120231426D01*
X123660000Y-120508665D01*
X123660000Y-120791335D01*
X123715147Y-121068574D01*
X123753017Y-121160000D01*
X122503043Y-121160000D01*
X122399637Y-121005241D01*
X122199759Y-120805363D01*
X121964727Y-120648320D01*
X121703574Y-120540147D01*
X121426335Y-120485000D01*
X121143665Y-120485000D01*
X120866426Y-120540147D01*
X120605273Y-120648320D01*
X120370241Y-120805363D01*
X120170363Y-121005241D01*
X120013320Y-121240273D01*
X119905147Y-121501426D01*
X119850000Y-121778665D01*
X119850000Y-122061335D01*
X119905147Y-122338574D01*
X120013320Y-122599727D01*
X120170363Y-122834759D01*
X120370241Y-123034637D01*
X120605273Y-123191680D01*
X120866426Y-123299853D01*
X121143665Y-123355000D01*
X121426335Y-123355000D01*
X121703574Y-123299853D01*
X121964727Y-123191680D01*
X122199759Y-123034637D01*
X122399637Y-122834759D01*
X122503043Y-122680000D01*
X123753017Y-122680000D01*
X123715147Y-122771426D01*
X123660000Y-123048665D01*
X123660000Y-123331335D01*
X123715147Y-123608574D01*
X123823320Y-123869727D01*
X123980363Y-124104759D01*
X124180241Y-124304637D01*
X124415273Y-124461680D01*
X124676426Y-124569853D01*
X124953665Y-124625000D01*
X125236335Y-124625000D01*
X125513574Y-124569853D01*
X125774727Y-124461680D01*
X126009759Y-124304637D01*
X126209637Y-124104759D01*
X126366680Y-123869727D01*
X126474853Y-123608574D01*
X126530000Y-123331335D01*
X126530000Y-123048665D01*
X126493688Y-122866113D01*
X126534802Y-122824999D01*
X128784491Y-122824999D01*
X128740000Y-123048665D01*
X128740000Y-123331335D01*
X128776312Y-123513886D01*
X127320199Y-124970000D01*
X122503043Y-124970000D01*
X122399637Y-124815241D01*
X122199759Y-124615363D01*
X121964727Y-124458320D01*
X121703574Y-124350147D01*
X121426335Y-124295000D01*
X121143665Y-124295000D01*
X120866426Y-124350147D01*
X120605273Y-124458320D01*
X120370241Y-124615363D01*
X120170363Y-124815241D01*
X120013320Y-125050273D01*
X119905147Y-125311426D01*
X119850000Y-125588665D01*
X119850000Y-125871335D01*
X119905147Y-126148574D01*
X120013320Y-126409727D01*
X120170363Y-126644759D01*
X120370241Y-126844637D01*
X120605273Y-127001680D01*
X120866426Y-127109853D01*
X121143665Y-127165000D01*
X121426335Y-127165000D01*
X121703574Y-127109853D01*
X121964727Y-127001680D01*
X122199759Y-126844637D01*
X122399637Y-126644759D01*
X122503043Y-126490000D01*
X127597678Y-126490000D01*
X127635000Y-126493676D01*
X127672322Y-126490000D01*
X127672333Y-126490000D01*
X127783986Y-126479003D01*
X127927247Y-126435546D01*
X128059276Y-126364974D01*
X128175001Y-126270001D01*
X128198804Y-126240997D01*
X129851114Y-124588688D01*
X130033665Y-124625000D01*
X130316335Y-124625000D01*
X130593574Y-124569853D01*
X130854727Y-124461680D01*
X131089759Y-124304637D01*
X131289637Y-124104759D01*
X131446680Y-123869727D01*
X131554853Y-123608574D01*
X131610000Y-123331335D01*
X131610000Y-123298431D01*
X132998586Y-124687018D01*
X132870363Y-124815241D01*
X132713320Y-125050273D01*
X132605147Y-125311426D01*
X132550000Y-125588665D01*
X132550000Y-125871335D01*
X132605147Y-126148574D01*
X132713320Y-126409727D01*
X132870363Y-126644759D01*
X133070241Y-126844637D01*
X133305273Y-127001680D01*
X133566426Y-127109853D01*
X133843665Y-127165000D01*
X134126335Y-127165000D01*
X134403574Y-127109853D01*
X134664727Y-127001680D01*
X134899759Y-126844637D01*
X135099637Y-126644759D01*
X135256680Y-126409727D01*
X135364853Y-126148574D01*
X135420000Y-125871335D01*
X135420000Y-125588665D01*
X135364853Y-125311426D01*
X135256680Y-125050273D01*
X135099637Y-124815241D01*
X134899759Y-124615363D01*
X134739798Y-124508481D01*
X134734003Y-124449644D01*
X134690546Y-124306383D01*
X134619974Y-124174354D01*
X134525001Y-124058629D01*
X134496003Y-124034831D01*
X133809345Y-123348173D01*
X133843665Y-123355000D01*
X134126335Y-123355000D01*
X134403574Y-123299853D01*
X134664727Y-123191680D01*
X134899759Y-123034637D01*
X135099637Y-122834759D01*
X135256680Y-122599727D01*
X135364853Y-122338574D01*
X135420000Y-122061335D01*
X135420000Y-121778665D01*
X135364853Y-121501426D01*
X135256680Y-121240273D01*
X135099637Y-121005241D01*
X134899759Y-120805363D01*
X134664727Y-120648320D01*
X134403574Y-120540147D01*
X134126335Y-120485000D01*
X133843665Y-120485000D01*
X133661114Y-120521312D01*
X132153803Y-119014002D01*
X132130000Y-118984998D01*
X132014275Y-118890025D01*
X131882246Y-118819453D01*
X131738985Y-118775996D01*
X131627332Y-118764999D01*
X131627321Y-118764999D01*
X131589999Y-118761323D01*
X131552677Y-118764999D01*
X131456923Y-118764999D01*
X131554853Y-118528574D01*
X131610000Y-118251335D01*
X131610000Y-117968665D01*
X131554853Y-117691426D01*
X131446680Y-117430273D01*
X131289637Y-117195241D01*
X131089759Y-116995363D01*
X130857241Y-116840000D01*
X131089759Y-116684637D01*
X131289637Y-116484759D01*
X131446680Y-116249727D01*
X131554853Y-115988574D01*
X131610000Y-115711335D01*
X131610000Y-115539802D01*
X132586312Y-116516114D01*
X132550000Y-116698665D01*
X132550000Y-116981335D01*
X132605147Y-117258574D01*
X132713320Y-117519727D01*
X132870363Y-117754759D01*
X133070241Y-117954637D01*
X133305273Y-118111680D01*
X133566426Y-118219853D01*
X133843665Y-118275000D01*
X134126335Y-118275000D01*
X134403574Y-118219853D01*
X134664727Y-118111680D01*
X134899759Y-117954637D01*
X135099637Y-117754759D01*
X135256680Y-117519727D01*
X135364853Y-117258574D01*
X135389561Y-117134361D01*
X140686203Y-122431003D01*
X140710001Y-122460001D01*
X140825726Y-122554974D01*
X140957755Y-122625546D01*
X141101016Y-122669003D01*
X141212669Y-122680000D01*
X141212679Y-122680000D01*
X141250002Y-122683676D01*
X141287325Y-122680000D01*
X142924099Y-122680000D01*
X142946068Y-122721101D01*
X143125392Y-122939608D01*
X143343899Y-123118932D01*
X143593192Y-123252182D01*
X143863691Y-123334236D01*
X144074508Y-123355000D01*
X144215492Y-123355000D01*
X144426309Y-123334236D01*
X144696808Y-123252182D01*
X144946101Y-123118932D01*
X145164608Y-122939608D01*
X145343932Y-122721101D01*
X145477182Y-122471808D01*
X145559236Y-122201309D01*
X145586943Y-121920000D01*
X145559236Y-121638691D01*
X145477182Y-121368192D01*
X145343932Y-121118899D01*
X145164608Y-120900392D01*
X144946101Y-120721068D01*
X144696808Y-120587818D01*
X144426309Y-120505764D01*
X144215492Y-120485000D01*
X144074508Y-120485000D01*
X143863691Y-120505764D01*
X143593192Y-120587818D01*
X143343899Y-120721068D01*
X143125392Y-120900392D01*
X142946068Y-121118899D01*
X142924099Y-121160000D01*
X141564804Y-121160000D01*
X134689758Y-114284955D01*
X134819804Y-114198061D01*
X141205000Y-114198061D01*
X141205000Y-114401939D01*
X141244774Y-114601898D01*
X141322795Y-114790256D01*
X141436063Y-114959774D01*
X141580226Y-115103937D01*
X141749744Y-115217205D01*
X141938102Y-115295226D01*
X142138061Y-115335000D01*
X142200199Y-115335000D01*
X142931448Y-116066250D01*
X142812818Y-116288192D01*
X142730764Y-116558691D01*
X142703057Y-116840000D01*
X142730764Y-117121309D01*
X142812818Y-117391808D01*
X142946068Y-117641101D01*
X143125392Y-117859608D01*
X143343899Y-118038932D01*
X143593192Y-118172182D01*
X143863691Y-118254236D01*
X144074508Y-118275000D01*
X144215492Y-118275000D01*
X144426309Y-118254236D01*
X144696808Y-118172182D01*
X144946101Y-118038932D01*
X145164608Y-117859608D01*
X145343932Y-117641101D01*
X145477182Y-117391808D01*
X145559236Y-117121309D01*
X145586943Y-116840000D01*
X145559236Y-116558691D01*
X145477182Y-116288192D01*
X145343932Y-116038899D01*
X145164608Y-115820392D01*
X144946101Y-115641068D01*
X144696808Y-115507818D01*
X144446774Y-115431972D01*
X143275000Y-114260199D01*
X143275000Y-114198061D01*
X143268897Y-114167380D01*
X143343899Y-114228932D01*
X143593192Y-114362182D01*
X143863691Y-114444236D01*
X144074508Y-114465000D01*
X144215492Y-114465000D01*
X144426309Y-114444236D01*
X144696808Y-114362182D01*
X144946101Y-114228932D01*
X145164608Y-114049608D01*
X145343932Y-113831101D01*
X145477182Y-113581808D01*
X145559236Y-113311309D01*
X145586943Y-113030000D01*
X145559236Y-112748691D01*
X145477182Y-112478192D01*
X145343932Y-112228899D01*
X145164608Y-112010392D01*
X144946101Y-111831068D01*
X144696808Y-111697818D01*
X144426309Y-111615764D01*
X144215492Y-111595000D01*
X144074508Y-111595000D01*
X143863691Y-111615764D01*
X143593192Y-111697818D01*
X143343899Y-111831068D01*
X143125392Y-112010392D01*
X142946068Y-112228899D01*
X142812818Y-112478192D01*
X142730764Y-112748691D01*
X142703057Y-113030000D01*
X142730764Y-113311309D01*
X142758090Y-113401393D01*
X142730256Y-113382795D01*
X142541898Y-113304774D01*
X142341939Y-113265000D01*
X142138061Y-113265000D01*
X141938102Y-113304774D01*
X141749744Y-113382795D01*
X141580226Y-113496063D01*
X141436063Y-113640226D01*
X141322795Y-113809744D01*
X141244774Y-113998102D01*
X141205000Y-114198061D01*
X134819804Y-114198061D01*
X134899759Y-114144637D01*
X135099637Y-113944759D01*
X135256680Y-113709727D01*
X135364853Y-113448574D01*
X135420000Y-113171335D01*
X135420000Y-112888665D01*
X135364853Y-112611426D01*
X135256680Y-112350273D01*
X135099637Y-112115241D01*
X134899759Y-111915363D01*
X134664727Y-111758320D01*
X134403574Y-111650147D01*
X134126335Y-111595000D01*
X133843665Y-111595000D01*
X133566426Y-111650147D01*
X133305273Y-111758320D01*
X133070241Y-111915363D01*
X132870363Y-112115241D01*
X132730045Y-112325242D01*
X128818108Y-108413305D01*
X128821808Y-108412182D01*
X129071101Y-108278932D01*
X129289608Y-108099608D01*
X129468932Y-107881101D01*
X129540000Y-107748142D01*
X129611068Y-107881101D01*
X129790393Y-108099608D01*
X130008900Y-108278932D01*
X130258193Y-108412182D01*
X130528692Y-108494236D01*
X130810000Y-108521943D01*
X131091309Y-108494236D01*
X131135906Y-108480708D01*
X132386201Y-109731003D01*
X132409999Y-109760001D01*
X132438997Y-109783799D01*
X132525723Y-109854974D01*
X132657753Y-109925546D01*
X132801014Y-109969003D01*
X132912667Y-109980000D01*
X132912676Y-109980000D01*
X132949999Y-109983676D01*
X132987322Y-109980000D01*
X133916289Y-109980000D01*
X133960226Y-110023937D01*
X134129744Y-110137205D01*
X134318102Y-110215226D01*
X134518061Y-110255000D01*
X134721939Y-110255000D01*
X134921898Y-110215226D01*
X135110256Y-110137205D01*
X135279774Y-110023937D01*
X135423937Y-109879774D01*
X135537205Y-109710256D01*
X135615226Y-109521898D01*
X135655000Y-109321939D01*
X135655000Y-109118061D01*
X135615226Y-108918102D01*
X135537205Y-108729744D01*
X135423937Y-108560226D01*
X135279774Y-108416063D01*
X135110256Y-108302795D01*
X134921898Y-108224774D01*
X134721939Y-108185000D01*
X134518061Y-108185000D01*
X134318102Y-108224774D01*
X134129744Y-108302795D01*
X133960226Y-108416063D01*
X133916289Y-108460000D01*
X133744171Y-108460000D01*
X133901808Y-108412182D01*
X134151101Y-108278932D01*
X134369608Y-108099608D01*
X134548932Y-107881101D01*
X134617265Y-107753259D01*
X134767399Y-107982839D01*
X134965105Y-108184500D01*
X135198354Y-108343715D01*
X135458182Y-108454367D01*
X135540961Y-108471904D01*
X135763000Y-108349915D01*
X135763000Y-106807000D01*
X136017000Y-106807000D01*
X136017000Y-108349915D01*
X136239039Y-108471904D01*
X136321818Y-108454367D01*
X136581646Y-108343715D01*
X136814895Y-108184500D01*
X137012601Y-107982839D01*
X137167166Y-107746483D01*
X137272650Y-107484514D01*
X137325000Y-107207000D01*
X137325000Y-106807000D01*
X136017000Y-106807000D01*
X135763000Y-106807000D01*
X135743000Y-106807000D01*
X135743000Y-106553000D01*
X135763000Y-106553000D01*
X135763000Y-105010085D01*
X136017000Y-105010085D01*
X136017000Y-106553000D01*
X137325000Y-106553000D01*
X137325000Y-106153000D01*
X137272650Y-105875486D01*
X137167166Y-105613517D01*
X137012601Y-105377161D01*
X136814895Y-105175500D01*
X136581646Y-105016285D01*
X136321818Y-104905633D01*
X136239039Y-104888096D01*
X136017000Y-105010085D01*
X135763000Y-105010085D01*
X135540961Y-104888096D01*
X135458182Y-104905633D01*
X135198354Y-105016285D01*
X134965105Y-105175500D01*
X134767399Y-105377161D01*
X134617265Y-105606741D01*
X134548932Y-105478899D01*
X134369607Y-105260392D01*
X134151100Y-105081068D01*
X133901807Y-104947818D01*
X133631308Y-104865764D01*
X133350000Y-104838057D01*
X133068691Y-104865764D01*
X132798192Y-104947818D01*
X132548899Y-105081068D01*
X132330392Y-105260393D01*
X132151068Y-105478900D01*
X132080000Y-105611858D01*
X132008932Y-105478899D01*
X131829607Y-105260392D01*
X131611100Y-105081068D01*
X131361807Y-104947818D01*
X131091308Y-104865764D01*
X130810000Y-104838057D01*
X130528691Y-104865764D01*
X130258192Y-104947818D01*
X130008899Y-105081068D01*
X129790392Y-105260393D01*
X129611068Y-105478900D01*
X129540000Y-105611858D01*
X129468932Y-105478899D01*
X129289607Y-105260392D01*
X129071100Y-105081068D01*
X128821807Y-104947818D01*
X128551308Y-104865764D01*
X128270000Y-104838057D01*
X127988691Y-104865764D01*
X127718192Y-104947818D01*
X127468899Y-105081068D01*
X127250392Y-105260393D01*
X127071068Y-105478900D01*
X127000000Y-105611858D01*
X126928932Y-105478899D01*
X126749607Y-105260392D01*
X126531100Y-105081068D01*
X126281807Y-104947818D01*
X126011308Y-104865764D01*
X125730000Y-104838057D01*
X125448691Y-104865764D01*
X125178192Y-104947818D01*
X124928899Y-105081068D01*
X124710392Y-105260393D01*
X124531068Y-105478900D01*
X124460000Y-105611858D01*
X124388932Y-105478899D01*
X124209607Y-105260392D01*
X123991100Y-105081068D01*
X123741807Y-104947818D01*
X123471308Y-104865764D01*
X123190000Y-104838057D01*
X122908691Y-104865764D01*
X122638192Y-104947818D01*
X122535010Y-105002970D01*
X122535010Y-101710512D01*
X138259783Y-101710512D01*
X138301213Y-101990130D01*
X138396397Y-102256292D01*
X138463329Y-102381514D01*
X138707298Y-102453097D01*
X139520395Y-101640000D01*
X138707298Y-100826903D01*
X138463329Y-100898486D01*
X138342429Y-101153996D01*
X138273700Y-101428184D01*
X138259783Y-101710512D01*
X122535010Y-101710512D01*
X122535010Y-101672332D01*
X122538686Y-101635009D01*
X122535010Y-101597686D01*
X122535010Y-101597677D01*
X122524013Y-101486024D01*
X122480556Y-101342763D01*
X122456693Y-101298120D01*
X122575020Y-101334013D01*
X122686673Y-101345010D01*
X122686682Y-101345010D01*
X122724005Y-101348686D01*
X122761328Y-101345010D01*
X123618672Y-101345010D01*
X123655994Y-101348686D01*
X123693316Y-101345010D01*
X123693327Y-101345010D01*
X123804980Y-101334013D01*
X123948241Y-101290556D01*
X124080270Y-101219984D01*
X124195995Y-101125011D01*
X124219797Y-101096008D01*
X124778472Y-100537334D01*
X124805105Y-100564500D01*
X125038354Y-100723715D01*
X125298182Y-100834367D01*
X125380961Y-100851904D01*
X125603000Y-100729915D01*
X125603000Y-99187000D01*
X125583000Y-99187000D01*
X125583000Y-98933000D01*
X125603000Y-98933000D01*
X125603000Y-97390085D01*
X125380961Y-97268096D01*
X125298182Y-97285633D01*
X125220000Y-97318928D01*
X125220000Y-95200901D01*
X125261101Y-95178932D01*
X125479608Y-94999608D01*
X125658932Y-94781101D01*
X125730000Y-94648142D01*
X125801068Y-94781101D01*
X125980392Y-94999608D01*
X126198899Y-95178932D01*
X126448192Y-95312182D01*
X126718691Y-95394236D01*
X126929508Y-95415000D01*
X127070492Y-95415000D01*
X127281309Y-95394236D01*
X127325906Y-95380708D01*
X127705198Y-95760000D01*
X127703711Y-95760000D01*
X127659774Y-95716063D01*
X127490256Y-95602795D01*
X127301898Y-95524774D01*
X127101939Y-95485000D01*
X126898061Y-95485000D01*
X126698102Y-95524774D01*
X126509744Y-95602795D01*
X126340226Y-95716063D01*
X126196063Y-95860226D01*
X126082795Y-96029744D01*
X126004774Y-96218102D01*
X125965000Y-96418061D01*
X125965000Y-96621939D01*
X126004774Y-96821898D01*
X126082795Y-97010256D01*
X126196063Y-97179774D01*
X126340226Y-97323937D01*
X126509744Y-97437205D01*
X126698102Y-97515226D01*
X126898061Y-97555000D01*
X127101939Y-97555000D01*
X127301898Y-97515226D01*
X127490256Y-97437205D01*
X127659774Y-97323937D01*
X127703711Y-97280000D01*
X127875829Y-97280000D01*
X127718192Y-97327818D01*
X127468899Y-97461068D01*
X127250392Y-97640393D01*
X127071068Y-97858900D01*
X127002735Y-97986742D01*
X126852601Y-97757161D01*
X126654895Y-97555500D01*
X126421646Y-97396285D01*
X126161818Y-97285633D01*
X126079039Y-97268096D01*
X125857000Y-97390085D01*
X125857000Y-98933000D01*
X125877000Y-98933000D01*
X125877000Y-99187000D01*
X125857000Y-99187000D01*
X125857000Y-100729915D01*
X126079039Y-100851904D01*
X126161818Y-100834367D01*
X126421646Y-100723715D01*
X126654895Y-100564500D01*
X126852601Y-100362839D01*
X127002735Y-100133259D01*
X127071068Y-100261101D01*
X127250393Y-100479608D01*
X127468900Y-100658932D01*
X127718193Y-100792182D01*
X127988692Y-100874236D01*
X128270000Y-100901943D01*
X128551309Y-100874236D01*
X128821808Y-100792182D01*
X129071101Y-100658932D01*
X129289608Y-100479608D01*
X129468932Y-100261101D01*
X129540000Y-100128142D01*
X129611068Y-100261101D01*
X129790393Y-100479608D01*
X130008900Y-100658932D01*
X130258193Y-100792182D01*
X130528692Y-100874236D01*
X130810000Y-100901943D01*
X131091309Y-100874236D01*
X131361808Y-100792182D01*
X131611101Y-100658932D01*
X131829608Y-100479608D01*
X132008932Y-100261101D01*
X132080000Y-100128142D01*
X132151068Y-100261101D01*
X132330393Y-100479608D01*
X132548900Y-100658932D01*
X132798193Y-100792182D01*
X133068692Y-100874236D01*
X133350000Y-100901943D01*
X133631309Y-100874236D01*
X133901808Y-100792182D01*
X134151101Y-100658932D01*
X134369608Y-100479608D01*
X134548932Y-100261101D01*
X134620000Y-100128142D01*
X134691068Y-100261101D01*
X134870393Y-100479608D01*
X135088900Y-100658932D01*
X135338193Y-100792182D01*
X135608692Y-100874236D01*
X135890000Y-100901943D01*
X136171309Y-100874236D01*
X136441808Y-100792182D01*
X136691101Y-100658932D01*
X136909608Y-100479608D01*
X137088932Y-100261101D01*
X137222182Y-100011808D01*
X137304236Y-99741309D01*
X137325000Y-99530491D01*
X137325000Y-98589508D01*
X137304236Y-98378691D01*
X137222182Y-98108192D01*
X137088932Y-97858899D01*
X136983155Y-97730010D01*
X137295209Y-97730010D01*
X139772006Y-100206808D01*
X139629488Y-100199783D01*
X139349870Y-100241213D01*
X139083708Y-100336397D01*
X138958486Y-100403329D01*
X138886903Y-100647298D01*
X139700000Y-101460395D01*
X139714143Y-101446253D01*
X139893748Y-101625858D01*
X139879605Y-101640000D01*
X139893748Y-101654143D01*
X139714143Y-101833748D01*
X139700000Y-101819605D01*
X138886903Y-102632702D01*
X138958486Y-102876671D01*
X138987341Y-102890324D01*
X138785241Y-103025363D01*
X138585363Y-103225241D01*
X138428320Y-103460273D01*
X138320147Y-103721426D01*
X138265000Y-103998665D01*
X138265000Y-104281335D01*
X138320147Y-104558574D01*
X138428320Y-104819727D01*
X138585363Y-105054759D01*
X138785241Y-105254637D01*
X139020273Y-105411680D01*
X139281426Y-105519853D01*
X139558665Y-105575000D01*
X139841335Y-105575000D01*
X140118574Y-105519853D01*
X140379727Y-105411680D01*
X140614759Y-105254637D01*
X140814637Y-105054759D01*
X140918043Y-104900000D01*
X145735199Y-104900000D01*
X145921312Y-105086114D01*
X145885000Y-105268665D01*
X145885000Y-105551335D01*
X145940147Y-105828574D01*
X146048320Y-106089727D01*
X146205363Y-106324759D01*
X146405241Y-106524637D01*
X146640273Y-106681680D01*
X146901426Y-106789853D01*
X147178665Y-106845000D01*
X147461335Y-106845000D01*
X147738574Y-106789853D01*
X147999727Y-106681680D01*
X148234759Y-106524637D01*
X148434637Y-106324759D01*
X148591680Y-106089727D01*
X148699853Y-105828574D01*
X148755000Y-105551335D01*
X148755000Y-105268665D01*
X148699853Y-104991426D01*
X148591680Y-104730273D01*
X148434637Y-104495241D01*
X148234759Y-104295363D01*
X147999727Y-104138320D01*
X147738574Y-104030147D01*
X147461335Y-103975000D01*
X147178665Y-103975000D01*
X146996114Y-104011312D01*
X146613804Y-103629003D01*
X146590001Y-103599999D01*
X146474276Y-103505026D01*
X146342247Y-103434454D01*
X146198986Y-103390997D01*
X146087333Y-103380000D01*
X146087322Y-103380000D01*
X146050000Y-103376324D01*
X146012678Y-103380000D01*
X141534622Y-103380000D01*
X141604974Y-103294276D01*
X141675546Y-103162247D01*
X141719003Y-103018986D01*
X141730000Y-102907333D01*
X141730000Y-102907324D01*
X141733676Y-102870001D01*
X141730000Y-102832678D01*
X141730000Y-100561817D01*
X141855392Y-100714608D01*
X142073899Y-100893932D01*
X142323192Y-101027182D01*
X142593691Y-101109236D01*
X142804508Y-101130000D01*
X142945492Y-101130000D01*
X143156309Y-101109236D01*
X143426808Y-101027182D01*
X143676101Y-100893932D01*
X143894608Y-100714608D01*
X144073932Y-100496101D01*
X144207182Y-100246808D01*
X144289236Y-99976309D01*
X144316943Y-99695000D01*
X144289236Y-99413691D01*
X144207182Y-99143192D01*
X144073932Y-98893899D01*
X143894608Y-98675392D01*
X143676101Y-98496068D01*
X143635000Y-98474099D01*
X143635000Y-98462323D01*
X143638676Y-98425000D01*
X143635000Y-98387677D01*
X143635000Y-98387667D01*
X143624003Y-98276014D01*
X143580546Y-98132753D01*
X143509974Y-98000724D01*
X143415001Y-97884999D01*
X143386004Y-97861202D01*
X142354791Y-96829990D01*
X143922688Y-96829990D01*
X143960010Y-96833666D01*
X143997332Y-96829990D01*
X143997343Y-96829990D01*
X144108996Y-96818993D01*
X144252257Y-96775536D01*
X144384286Y-96704964D01*
X144500011Y-96609991D01*
X144523813Y-96580988D01*
X145094802Y-96010000D01*
X146099099Y-96010000D01*
X146121068Y-96051101D01*
X146300392Y-96269608D01*
X146518899Y-96448932D01*
X146768192Y-96582182D01*
X147038691Y-96664236D01*
X147249508Y-96685000D01*
X147390492Y-96685000D01*
X147601309Y-96664236D01*
X147871808Y-96582182D01*
X148121101Y-96448932D01*
X148339608Y-96269608D01*
X148518932Y-96051101D01*
X148652182Y-95801808D01*
X148734236Y-95531309D01*
X148761943Y-95250000D01*
X148734236Y-94968691D01*
X148652182Y-94698192D01*
X148518932Y-94448899D01*
X148339608Y-94230392D01*
X148267228Y-94170991D01*
X148288578Y-94159579D01*
X148552766Y-93942766D01*
X148769579Y-93678578D01*
X148930686Y-93377168D01*
X149029895Y-93050119D01*
X149063394Y-92710000D01*
X149029895Y-92369881D01*
X148930686Y-92042832D01*
X148769579Y-91741422D01*
X148552766Y-91477234D01*
X148288578Y-91260421D01*
X147987168Y-91099314D01*
X147660119Y-91000105D01*
X147405225Y-90975000D01*
X147234775Y-90975000D01*
X146979881Y-91000105D01*
X146652832Y-91099314D01*
X146351422Y-91260421D01*
X146087234Y-91477234D01*
X145870421Y-91741422D01*
X145709314Y-92042832D01*
X145610105Y-92369881D01*
X145576606Y-92710000D01*
X145610105Y-93050119D01*
X145709314Y-93377168D01*
X145870421Y-93678578D01*
X146087234Y-93942766D01*
X146351422Y-94159579D01*
X146372772Y-94170991D01*
X146300392Y-94230392D01*
X146121068Y-94448899D01*
X146099099Y-94490000D01*
X144817322Y-94490000D01*
X144780000Y-94486324D01*
X144742677Y-94490000D01*
X144742667Y-94490000D01*
X144631014Y-94500997D01*
X144489912Y-94543799D01*
X144487753Y-94544454D01*
X144355723Y-94615026D01*
X144272083Y-94683668D01*
X144239999Y-94709999D01*
X144216201Y-94738998D01*
X143645209Y-95309990D01*
X137715909Y-95309990D01*
X137961101Y-95178932D01*
X138179608Y-94999608D01*
X138358932Y-94781101D01*
X138492182Y-94531808D01*
X138574236Y-94261309D01*
X138601943Y-93980000D01*
X138574236Y-93698691D01*
X138492182Y-93428192D01*
X138358932Y-93178899D01*
X138179608Y-92960392D01*
X137961101Y-92781068D01*
X137920000Y-92759099D01*
X137920000Y-91477325D01*
X137923676Y-91440000D01*
X137920000Y-91402675D01*
X137920000Y-91402667D01*
X137909003Y-91291014D01*
X137865546Y-91147753D01*
X137794974Y-91015724D01*
X137700001Y-90899999D01*
X137671004Y-90876202D01*
X134589801Y-87795000D01*
X134690492Y-87795000D01*
X134901309Y-87774236D01*
X135171808Y-87692182D01*
X135421101Y-87558932D01*
X135639608Y-87379608D01*
X135818932Y-87161101D01*
X135890000Y-87028142D01*
X135961068Y-87161101D01*
X136140392Y-87379608D01*
X136358899Y-87558932D01*
X136608192Y-87692182D01*
X136878691Y-87774236D01*
X137089508Y-87795000D01*
X137230492Y-87795000D01*
X137441309Y-87774236D01*
X137711808Y-87692182D01*
X137961101Y-87558932D01*
X138179608Y-87379608D01*
X138358932Y-87161101D01*
X138492182Y-86911808D01*
X138574236Y-86641309D01*
X138601943Y-86360000D01*
X138574236Y-86078691D01*
X138492182Y-85808192D01*
X138358932Y-85558899D01*
X138179608Y-85340392D01*
X137961101Y-85161068D01*
X137920000Y-85139099D01*
X137920000Y-82743723D01*
X137923676Y-82706400D01*
X137920000Y-82669077D01*
X137920000Y-82669067D01*
X137909003Y-82557414D01*
X137865546Y-82414153D01*
X137794974Y-82282123D01*
X137723799Y-82195397D01*
X137700001Y-82166399D01*
X137671004Y-82142602D01*
X132487404Y-76959003D01*
X132463601Y-76929999D01*
X132347876Y-76835026D01*
X132311672Y-76815674D01*
X132311672Y-76606400D01*
X132299412Y-76481918D01*
X132263102Y-76362220D01*
X132204137Y-76251906D01*
X132124785Y-76155215D01*
X132028094Y-76075863D01*
X131917780Y-76016898D01*
X131798082Y-75980588D01*
X131673600Y-75968328D01*
X129946400Y-75968328D01*
X129821918Y-75980588D01*
X129702220Y-76016898D01*
X129591906Y-76075863D01*
X129495215Y-76155215D01*
X129415863Y-76251906D01*
X129356898Y-76362220D01*
X129341414Y-76413265D01*
X129334797Y-76405203D01*
X129106606Y-76217931D01*
X128846264Y-76078775D01*
X128563777Y-75993084D01*
X128343619Y-75971400D01*
X128196381Y-75971400D01*
X127976223Y-75993084D01*
X127693736Y-76078775D01*
X127433394Y-76217931D01*
X127205203Y-76405203D01*
X127017931Y-76633394D01*
X127000000Y-76666940D01*
X126982069Y-76633394D01*
X126794797Y-76405203D01*
X126566606Y-76217931D01*
X126306264Y-76078775D01*
X126023777Y-75993084D01*
X125803619Y-75971400D01*
X125656381Y-75971400D01*
X125436223Y-75993084D01*
X125153736Y-76078775D01*
X124893394Y-76217931D01*
X124665203Y-76405203D01*
X124477931Y-76633394D01*
X124338775Y-76893736D01*
X124253084Y-77176223D01*
X124224149Y-77470000D01*
X124253084Y-77763777D01*
X124338775Y-78046264D01*
X124477931Y-78306606D01*
X124532712Y-78373356D01*
X122534004Y-80372065D01*
X122505000Y-80395868D01*
X122449872Y-80463043D01*
X122410027Y-80511593D01*
X122376777Y-80573799D01*
X122339455Y-80643623D01*
X122295998Y-80786884D01*
X122285001Y-80898537D01*
X122285001Y-80898547D01*
X122281325Y-80935869D01*
X122285001Y-80973191D01*
X122285001Y-84972938D01*
X122269039Y-84968096D01*
X122047000Y-85090085D01*
X122047000Y-86233000D01*
X122067000Y-86233000D01*
X122067000Y-86487000D01*
X122047000Y-86487000D01*
X122047000Y-87629915D01*
X122269039Y-87751904D01*
X122285002Y-87747062D01*
X122285002Y-91490196D01*
X121409002Y-92366196D01*
X121379999Y-92389999D01*
X121338987Y-92439973D01*
X121285026Y-92505724D01*
X121265674Y-92541928D01*
X121120000Y-92541928D01*
X120995518Y-92554188D01*
X120875820Y-92590498D01*
X120765506Y-92649463D01*
X120668815Y-92728815D01*
X120589463Y-92825506D01*
X120530498Y-92935820D01*
X120494188Y-93055518D01*
X120481928Y-93180000D01*
X120481928Y-93220000D01*
X119694802Y-93220000D01*
X119027099Y-92552297D01*
X119224637Y-92354759D01*
X119381680Y-92119727D01*
X119489853Y-91858574D01*
X119545000Y-91581335D01*
X119545000Y-91298665D01*
X119489853Y-91021426D01*
X119381680Y-90760273D01*
X119224637Y-90525241D01*
X119024759Y-90325363D01*
X118824131Y-90191308D01*
X118851514Y-90176671D01*
X118923097Y-89932702D01*
X118110000Y-89119605D01*
X117296903Y-89932702D01*
X117368486Y-90176671D01*
X117397341Y-90190324D01*
X117195241Y-90325363D01*
X116995363Y-90525241D01*
X116838320Y-90760273D01*
X116730147Y-91021426D01*
X116675000Y-91298665D01*
X116675000Y-91581335D01*
X116730147Y-91858574D01*
X116838320Y-92119727D01*
X116995363Y-92354759D01*
X117195241Y-92554637D01*
X117350001Y-92658044D01*
X117350001Y-92672668D01*
X117346324Y-92710000D01*
X117350001Y-92747333D01*
X117357701Y-92825506D01*
X117360998Y-92858985D01*
X117404454Y-93002246D01*
X117475026Y-93134276D01*
X117542361Y-93216323D01*
X117570000Y-93250001D01*
X117598998Y-93273799D01*
X118305198Y-93980000D01*
X117599003Y-94686196D01*
X117569999Y-94709999D01*
X117514871Y-94777174D01*
X117475026Y-94825724D01*
X117432929Y-94904482D01*
X117404454Y-94957754D01*
X117360997Y-95101015D01*
X117350000Y-95212668D01*
X117350000Y-95212678D01*
X117346324Y-95250000D01*
X117350000Y-95287323D01*
X117350001Y-97439099D01*
X117308899Y-97461068D01*
X117090392Y-97640393D01*
X116911068Y-97858900D01*
X116777818Y-98108193D01*
X116695764Y-98378692D01*
X116675000Y-98589509D01*
X116675000Y-99530492D01*
X116695764Y-99741309D01*
X116777818Y-100011808D01*
X116911068Y-100261101D01*
X117090393Y-100479608D01*
X117308900Y-100658932D01*
X117386039Y-100700164D01*
X116473997Y-101612206D01*
X116444999Y-101636004D01*
X116421201Y-101665002D01*
X116421200Y-101665003D01*
X116350025Y-101751729D01*
X116279453Y-101883759D01*
X116235997Y-102027020D01*
X116221323Y-102176005D01*
X113893612Y-102176005D01*
X113959530Y-101958703D01*
X113982500Y-101725485D01*
X113982500Y-101474514D01*
X113959530Y-101241296D01*
X113868755Y-100942051D01*
X113721345Y-100666265D01*
X113522963Y-100424537D01*
X113281234Y-100226155D01*
X113280000Y-100225495D01*
X113280000Y-89010512D01*
X116669783Y-89010512D01*
X116711213Y-89290130D01*
X116806397Y-89556292D01*
X116873329Y-89681514D01*
X117117298Y-89753097D01*
X117930395Y-88940000D01*
X118289605Y-88940000D01*
X119102702Y-89753097D01*
X119346671Y-89681514D01*
X119467571Y-89426004D01*
X119536300Y-89151816D01*
X119550217Y-88869488D01*
X119508787Y-88589870D01*
X119413603Y-88323708D01*
X119346671Y-88198486D01*
X119102702Y-88126903D01*
X118289605Y-88940000D01*
X117930395Y-88940000D01*
X117117298Y-88126903D01*
X116873329Y-88198486D01*
X116752429Y-88453996D01*
X116683700Y-88728184D01*
X116669783Y-89010512D01*
X113280000Y-89010512D01*
X113280000Y-87947298D01*
X117296903Y-87947298D01*
X118110000Y-88760395D01*
X118923097Y-87947298D01*
X118851514Y-87703329D01*
X118596004Y-87582429D01*
X118321816Y-87513700D01*
X118039488Y-87499783D01*
X117759870Y-87541213D01*
X117493708Y-87636397D01*
X117368486Y-87703329D01*
X117296903Y-87947298D01*
X113280000Y-87947298D01*
X113280000Y-86709040D01*
X120528091Y-86709040D01*
X120622930Y-86973881D01*
X120767615Y-87215131D01*
X120956586Y-87423519D01*
X121182580Y-87591037D01*
X121436913Y-87711246D01*
X121570961Y-87751904D01*
X121793000Y-87629915D01*
X121793000Y-86487000D01*
X120649376Y-86487000D01*
X120528091Y-86709040D01*
X113280000Y-86709040D01*
X113280000Y-86010960D01*
X120528091Y-86010960D01*
X120649376Y-86233000D01*
X121793000Y-86233000D01*
X121793000Y-85090085D01*
X121570961Y-84968096D01*
X121436913Y-85008754D01*
X121182580Y-85128963D01*
X120956586Y-85296481D01*
X120767615Y-85504869D01*
X120622930Y-85746119D01*
X120528091Y-86010960D01*
X113280000Y-86010960D01*
X113280000Y-80022323D01*
X113369196Y-80080738D01*
X113644227Y-80191696D01*
X113935620Y-80246866D01*
X114173000Y-80090586D01*
X114173000Y-78867000D01*
X114427000Y-78867000D01*
X114427000Y-80090586D01*
X114664380Y-80246866D01*
X114955773Y-80191696D01*
X115230804Y-80080738D01*
X115478903Y-79918256D01*
X115690536Y-79710494D01*
X115857571Y-79465437D01*
X115973588Y-79192502D01*
X115991302Y-79100031D01*
X115870246Y-78867000D01*
X114427000Y-78867000D01*
X114173000Y-78867000D01*
X114153000Y-78867000D01*
X114153000Y-78613000D01*
X114173000Y-78613000D01*
X114173000Y-78593000D01*
X114427000Y-78593000D01*
X114427000Y-78613000D01*
X115870246Y-78613000D01*
X115991302Y-78379969D01*
X115973588Y-78287498D01*
X115857571Y-78014563D01*
X115690536Y-77769506D01*
X115534686Y-77616507D01*
X115643387Y-77558405D01*
X115777962Y-77447962D01*
X115888405Y-77313387D01*
X115970472Y-77159851D01*
X116021008Y-76993255D01*
X116038072Y-76820001D01*
X116038072Y-75579999D01*
X116021008Y-75406745D01*
X115970472Y-75240149D01*
X115888405Y-75086613D01*
X115777962Y-74952038D01*
X115643387Y-74841595D01*
X115641169Y-74840409D01*
X115936579Y-74545000D01*
X134253422Y-74545000D01*
X137773470Y-78065049D01*
X137801183Y-78098817D01*
X137834951Y-78126530D01*
X137834953Y-78126532D01*
X137935941Y-78209411D01*
X138089686Y-78291589D01*
X138256510Y-78342195D01*
X138386523Y-78355000D01*
X138386531Y-78355000D01*
X138430000Y-78359281D01*
X138473469Y-78355000D01*
X139900718Y-78355000D01*
X139851423Y-78517501D01*
X139829509Y-78740000D01*
X139851423Y-78962499D01*
X139916324Y-79176447D01*
X140021716Y-79373623D01*
X140022846Y-79375000D01*
X140021716Y-79376377D01*
X139916324Y-79573553D01*
X139851423Y-79787501D01*
X139829509Y-80010000D01*
X139835399Y-80069800D01*
X139188998Y-80716201D01*
X139160000Y-80739999D01*
X139136203Y-80768996D01*
X139136201Y-80768998D01*
X139065026Y-80855724D01*
X138994454Y-80987754D01*
X138991099Y-80998815D01*
X138950998Y-81131014D01*
X138943630Y-81205820D01*
X138936324Y-81280000D01*
X138940001Y-81317332D01*
X138940000Y-86926289D01*
X138896063Y-86970226D01*
X138782795Y-87139744D01*
X138704774Y-87328102D01*
X138665000Y-87528061D01*
X138665000Y-87731939D01*
X138704774Y-87931898D01*
X138782795Y-88120256D01*
X138896063Y-88289774D01*
X139040226Y-88433937D01*
X139209744Y-88547205D01*
X139398102Y-88625226D01*
X139598061Y-88665000D01*
X139801939Y-88665000D01*
X140001898Y-88625226D01*
X140190256Y-88547205D01*
X140359774Y-88433937D01*
X140503937Y-88289774D01*
X140617205Y-88120256D01*
X140695226Y-87931898D01*
X140735000Y-87731939D01*
X140735000Y-87528061D01*
X140695226Y-87328102D01*
X140617205Y-87139744D01*
X140503937Y-86970226D01*
X140460000Y-86926289D01*
X140460000Y-86361958D01*
X140602663Y-86425272D01*
X140664190Y-86433964D01*
X140843000Y-86308163D01*
X140843000Y-85217000D01*
X140823000Y-85217000D01*
X140823000Y-84963000D01*
X140843000Y-84963000D01*
X140843000Y-84808021D01*
X141080000Y-84808021D01*
X141080000Y-85371978D01*
X141096785Y-85542399D01*
X141097000Y-85543108D01*
X141097000Y-86308163D01*
X141275810Y-86433964D01*
X141337337Y-86425272D01*
X141480000Y-86361957D01*
X141480001Y-88862668D01*
X141476324Y-88900000D01*
X141490998Y-89048985D01*
X141504561Y-89093698D01*
X141495147Y-89116426D01*
X141440000Y-89393665D01*
X141440000Y-89676335D01*
X141495147Y-89953574D01*
X141603320Y-90214727D01*
X141760363Y-90449759D01*
X141960241Y-90649637D01*
X142195273Y-90806680D01*
X142456426Y-90914853D01*
X142733665Y-90970000D01*
X143016335Y-90970000D01*
X143293574Y-90914853D01*
X143554727Y-90806680D01*
X143789759Y-90649637D01*
X143989637Y-90449759D01*
X144146680Y-90214727D01*
X144254853Y-89953574D01*
X144310000Y-89676335D01*
X144310000Y-89393665D01*
X144254853Y-89116426D01*
X144146680Y-88855273D01*
X143989637Y-88620241D01*
X143789759Y-88420363D01*
X143554727Y-88263320D01*
X143293574Y-88155147D01*
X143016335Y-88100000D01*
X143000000Y-88100000D01*
X143000000Y-86478072D01*
X144035000Y-86478072D01*
X144159482Y-86465812D01*
X144279180Y-86429502D01*
X144389494Y-86370537D01*
X144486185Y-86291185D01*
X144565537Y-86194494D01*
X144624502Y-86084180D01*
X144660812Y-85964482D01*
X144673072Y-85840000D01*
X144673072Y-84340000D01*
X144660812Y-84215518D01*
X144624502Y-84095820D01*
X144565537Y-83985506D01*
X144486185Y-83888815D01*
X144389494Y-83809463D01*
X144279180Y-83750498D01*
X144159482Y-83714188D01*
X144035000Y-83701928D01*
X142985000Y-83701928D01*
X142860518Y-83714188D01*
X142740820Y-83750498D01*
X142676098Y-83785093D01*
X142467400Y-83721785D01*
X142240000Y-83699388D01*
X142012601Y-83721785D01*
X141793941Y-83788115D01*
X141605331Y-83888929D01*
X141546882Y-83847725D01*
X141337337Y-83754728D01*
X141275810Y-83746036D01*
X141097000Y-83871837D01*
X141097000Y-84636891D01*
X141096785Y-84637600D01*
X141080000Y-84808021D01*
X140843000Y-84808021D01*
X140843000Y-83871837D01*
X140664190Y-83746036D01*
X140602663Y-83754728D01*
X140460000Y-83818042D01*
X140460000Y-81594801D01*
X140910200Y-81144601D01*
X140914248Y-81145000D01*
X141025752Y-81145000D01*
X141192499Y-81128577D01*
X141406447Y-81063676D01*
X141603623Y-80958284D01*
X141776449Y-80816449D01*
X141918284Y-80643623D01*
X142023676Y-80446447D01*
X142088577Y-80232499D01*
X142110491Y-80010000D01*
X142088577Y-79787501D01*
X142023676Y-79573553D01*
X141918284Y-79376377D01*
X141917154Y-79375000D01*
X141918284Y-79373623D01*
X142023676Y-79176447D01*
X142088577Y-78962499D01*
X142110491Y-78740000D01*
X142088577Y-78517501D01*
X142039282Y-78355000D01*
X144413422Y-78355000D01*
X146435000Y-80376579D01*
X146435000Y-80811928D01*
X146220000Y-80811928D01*
X146095518Y-80824188D01*
X145975820Y-80860498D01*
X145865506Y-80919463D01*
X145768815Y-80998815D01*
X145689463Y-81095506D01*
X145630498Y-81205820D01*
X145594188Y-81325518D01*
X145581928Y-81450000D01*
X145581928Y-83650000D01*
X145594188Y-83774482D01*
X145630498Y-83894180D01*
X145689463Y-84004494D01*
X145768815Y-84101185D01*
X145865506Y-84180537D01*
X145975820Y-84239502D01*
X146095518Y-84275812D01*
X146220000Y-84288072D01*
X148420000Y-84288072D01*
X148544482Y-84275812D01*
X148664180Y-84239502D01*
X148774494Y-84180537D01*
X148871185Y-84101185D01*
X148950537Y-84004494D01*
X149009502Y-83894180D01*
X149045812Y-83774482D01*
X149058072Y-83650000D01*
X149058072Y-81450000D01*
X149045812Y-81325518D01*
X149009502Y-81205820D01*
X148950537Y-81095506D01*
X148871185Y-80998815D01*
X148774494Y-80919463D01*
X148664180Y-80860498D01*
X148544482Y-80824188D01*
X148420000Y-80811928D01*
X148205000Y-80811928D01*
X148205000Y-80053465D01*
X148209281Y-80009999D01*
X148205000Y-79966533D01*
X148205000Y-79966523D01*
X148192195Y-79836510D01*
X148141589Y-79669687D01*
X148107745Y-79606369D01*
X148251682Y-79635000D01*
X148928318Y-79635000D01*
X149591952Y-79502994D01*
X150217082Y-79244057D01*
X150779685Y-78868138D01*
X151258138Y-78389685D01*
X151634057Y-77827082D01*
X151715000Y-77631668D01*
X151715001Y-134458334D01*
X151634057Y-134262918D01*
X151258138Y-133700315D01*
X150779685Y-133221862D01*
X150217082Y-132845943D01*
X149591952Y-132587006D01*
X148928318Y-132455000D01*
X148251682Y-132455000D01*
X147588048Y-132587006D01*
X146962918Y-132845943D01*
X146400315Y-133221862D01*
X145921862Y-133700315D01*
X145545943Y-134262918D01*
X145287006Y-134888048D01*
X145155000Y-135551682D01*
X145155000Y-136228318D01*
X145287006Y-136891952D01*
X145545943Y-137517082D01*
X145921862Y-138079685D01*
X146400315Y-138558138D01*
X146962918Y-138934057D01*
X147158332Y-139015000D01*
X106841668Y-139015000D01*
X107037082Y-138934057D01*
X107599685Y-138558138D01*
X108078138Y-138079685D01*
X108454057Y-137517082D01*
X108712994Y-136891952D01*
X108845000Y-136228318D01*
X108845000Y-135551682D01*
X108712994Y-134888048D01*
X108454057Y-134262918D01*
X108078138Y-133700315D01*
X107599685Y-133221862D01*
X107037082Y-132845943D01*
X106411952Y-132587006D01*
X105748318Y-132455000D01*
X105071682Y-132455000D01*
X104408048Y-132587006D01*
X103782918Y-132845943D01*
X103220315Y-133221862D01*
X102741862Y-133700315D01*
X102365943Y-134262918D01*
X102285000Y-134458332D01*
X102285000Y-125730000D01*
X109683057Y-125730000D01*
X109710764Y-126011309D01*
X109792818Y-126281808D01*
X109926068Y-126531101D01*
X110105392Y-126749608D01*
X110323899Y-126928932D01*
X110573192Y-127062182D01*
X110843691Y-127144236D01*
X111054508Y-127165000D01*
X111195492Y-127165000D01*
X111406309Y-127144236D01*
X111676808Y-127062182D01*
X111926101Y-126928932D01*
X112144608Y-126749608D01*
X112323932Y-126531101D01*
X112457182Y-126281808D01*
X112539236Y-126011309D01*
X112566943Y-125730000D01*
X112539236Y-125448691D01*
X112457182Y-125178192D01*
X112323932Y-124928899D01*
X112144608Y-124710392D01*
X111926101Y-124531068D01*
X111676808Y-124397818D01*
X111406309Y-124315764D01*
X111195492Y-124295000D01*
X111054508Y-124295000D01*
X110843691Y-124315764D01*
X110573192Y-124397818D01*
X110323899Y-124531068D01*
X110105392Y-124710392D01*
X109926068Y-124928899D01*
X109792818Y-125178192D01*
X109710764Y-125448691D01*
X109683057Y-125730000D01*
X102285000Y-125730000D01*
X102285000Y-121920000D01*
X109683057Y-121920000D01*
X109710764Y-122201309D01*
X109792818Y-122471808D01*
X109926068Y-122721101D01*
X110105392Y-122939608D01*
X110323899Y-123118932D01*
X110573192Y-123252182D01*
X110843691Y-123334236D01*
X111054508Y-123355000D01*
X111195492Y-123355000D01*
X111406309Y-123334236D01*
X111676808Y-123252182D01*
X111926101Y-123118932D01*
X112144608Y-122939608D01*
X112323932Y-122721101D01*
X112457182Y-122471808D01*
X112539236Y-122201309D01*
X112566943Y-121920000D01*
X112539236Y-121638691D01*
X112457182Y-121368192D01*
X112323932Y-121118899D01*
X112144608Y-120900392D01*
X111926101Y-120721068D01*
X111676808Y-120587818D01*
X111406309Y-120505764D01*
X111195492Y-120485000D01*
X111054508Y-120485000D01*
X110843691Y-120505764D01*
X110573192Y-120587818D01*
X110323899Y-120721068D01*
X110105392Y-120900392D01*
X109926068Y-121118899D01*
X109792818Y-121368192D01*
X109710764Y-121638691D01*
X109683057Y-121920000D01*
X102285000Y-121920000D01*
X102285000Y-116840000D01*
X109683057Y-116840000D01*
X109710764Y-117121309D01*
X109792818Y-117391808D01*
X109926068Y-117641101D01*
X110105392Y-117859608D01*
X110323899Y-118038932D01*
X110573192Y-118172182D01*
X110843691Y-118254236D01*
X111054508Y-118275000D01*
X111195492Y-118275000D01*
X111406309Y-118254236D01*
X111676808Y-118172182D01*
X111926101Y-118038932D01*
X112144608Y-117859608D01*
X112323932Y-117641101D01*
X112457182Y-117391808D01*
X112539236Y-117121309D01*
X112566943Y-116840000D01*
X112539236Y-116558691D01*
X112457182Y-116288192D01*
X112323932Y-116038899D01*
X112144608Y-115820392D01*
X111926101Y-115641068D01*
X111676808Y-115507818D01*
X111406309Y-115425764D01*
X111195492Y-115405000D01*
X111054508Y-115405000D01*
X110843691Y-115425764D01*
X110573192Y-115507818D01*
X110323899Y-115641068D01*
X110105392Y-115820392D01*
X109926068Y-116038899D01*
X109792818Y-116288192D01*
X109710764Y-116558691D01*
X109683057Y-116840000D01*
X102285000Y-116840000D01*
X102285000Y-113030000D01*
X109683057Y-113030000D01*
X109710764Y-113311309D01*
X109792818Y-113581808D01*
X109926068Y-113831101D01*
X110105392Y-114049608D01*
X110323899Y-114228932D01*
X110573192Y-114362182D01*
X110843691Y-114444236D01*
X111054508Y-114465000D01*
X111195492Y-114465000D01*
X111406309Y-114444236D01*
X111676808Y-114362182D01*
X111926101Y-114228932D01*
X112144608Y-114049608D01*
X112323932Y-113831101D01*
X112457182Y-113581808D01*
X112539236Y-113311309D01*
X112566943Y-113030000D01*
X112539236Y-112748691D01*
X112457182Y-112478192D01*
X112323932Y-112228899D01*
X112144608Y-112010392D01*
X111926101Y-111831068D01*
X111676808Y-111697818D01*
X111406309Y-111615764D01*
X111195492Y-111595000D01*
X111054508Y-111595000D01*
X110843691Y-111615764D01*
X110573192Y-111697818D01*
X110323899Y-111831068D01*
X110105392Y-112010392D01*
X109926068Y-112228899D01*
X109792818Y-112478192D01*
X109710764Y-112748691D01*
X109683057Y-113030000D01*
X102285000Y-113030000D01*
X102285000Y-105268665D01*
X104610000Y-105268665D01*
X104610000Y-105551335D01*
X104665147Y-105828574D01*
X104773320Y-106089727D01*
X104930363Y-106324759D01*
X105130241Y-106524637D01*
X105365273Y-106681680D01*
X105626426Y-106789853D01*
X105903665Y-106845000D01*
X106186335Y-106845000D01*
X106463574Y-106789853D01*
X106724727Y-106681680D01*
X106959759Y-106524637D01*
X107081694Y-106402702D01*
X107731903Y-106402702D01*
X107803486Y-106646671D01*
X108058996Y-106767571D01*
X108333184Y-106836300D01*
X108615512Y-106850217D01*
X108895130Y-106808787D01*
X109161292Y-106713603D01*
X109286514Y-106646671D01*
X109358097Y-106402702D01*
X110986903Y-106402702D01*
X111058486Y-106646671D01*
X111313996Y-106767571D01*
X111588184Y-106836300D01*
X111870512Y-106850217D01*
X112150130Y-106808787D01*
X112416292Y-106713603D01*
X112541514Y-106646671D01*
X112613097Y-106402702D01*
X111800000Y-105589605D01*
X110986903Y-106402702D01*
X109358097Y-106402702D01*
X108545000Y-105589605D01*
X107731903Y-106402702D01*
X107081694Y-106402702D01*
X107159637Y-106324759D01*
X107293692Y-106124131D01*
X107308329Y-106151514D01*
X107552298Y-106223097D01*
X108365395Y-105410000D01*
X108724605Y-105410000D01*
X109537702Y-106223097D01*
X109781671Y-106151514D01*
X109902571Y-105896004D01*
X109971300Y-105621816D01*
X109978265Y-105480512D01*
X110359783Y-105480512D01*
X110401213Y-105760130D01*
X110496397Y-106026292D01*
X110563329Y-106151514D01*
X110807298Y-106223097D01*
X111620395Y-105410000D01*
X110807298Y-104596903D01*
X110563329Y-104668486D01*
X110442429Y-104923996D01*
X110373700Y-105198184D01*
X110359783Y-105480512D01*
X109978265Y-105480512D01*
X109985217Y-105339488D01*
X109943787Y-105059870D01*
X109848603Y-104793708D01*
X109781671Y-104668486D01*
X109537702Y-104596903D01*
X108724605Y-105410000D01*
X108365395Y-105410000D01*
X108351253Y-105395858D01*
X108530858Y-105216253D01*
X108545000Y-105230395D01*
X109358097Y-104417298D01*
X109286514Y-104173329D01*
X109031004Y-104052429D01*
X108756816Y-103983700D01*
X108474488Y-103969783D01*
X108194870Y-104011213D01*
X108075000Y-104054081D01*
X108075000Y-103238072D01*
X108267500Y-103238072D01*
X108391982Y-103225812D01*
X108511680Y-103189502D01*
X108621994Y-103130537D01*
X108718685Y-103051185D01*
X108798037Y-102954494D01*
X108847059Y-102862781D01*
X108988077Y-102975969D01*
X109263906Y-103119571D01*
X109482020Y-103190563D01*
X109728000Y-103070594D01*
X109728000Y-101727000D01*
X109708000Y-101727000D01*
X109708000Y-101473000D01*
X109728000Y-101473000D01*
X109728000Y-100129406D01*
X109482020Y-100009437D01*
X109263906Y-100080429D01*
X108988077Y-100224031D01*
X108847059Y-100337219D01*
X108798037Y-100245506D01*
X108718685Y-100148815D01*
X108621994Y-100069463D01*
X108511680Y-100010498D01*
X108391982Y-99974188D01*
X108267500Y-99961928D01*
X106362500Y-99961928D01*
X106238018Y-99974188D01*
X106118320Y-100010498D01*
X106008006Y-100069463D01*
X105911315Y-100148815D01*
X105831963Y-100245506D01*
X105772998Y-100355820D01*
X105736688Y-100475518D01*
X105724428Y-100600000D01*
X105724428Y-102600000D01*
X105736688Y-102724482D01*
X105772998Y-102844180D01*
X105831963Y-102954494D01*
X105911315Y-103051185D01*
X106008006Y-103130537D01*
X106118320Y-103189502D01*
X106238018Y-103225812D01*
X106362500Y-103238072D01*
X106555001Y-103238072D01*
X106555001Y-103825197D01*
X106368886Y-104011312D01*
X106186335Y-103975000D01*
X105903665Y-103975000D01*
X105626426Y-104030147D01*
X105365273Y-104138320D01*
X105130241Y-104295363D01*
X104930363Y-104495241D01*
X104773320Y-104730273D01*
X104665147Y-104991426D01*
X104610000Y-105268665D01*
X102285000Y-105268665D01*
X102285000Y-77631668D01*
X102365943Y-77827082D01*
X102741862Y-78389685D01*
X103220315Y-78868138D01*
X103782918Y-79244057D01*
X104408048Y-79502994D01*
X105071682Y-79635000D01*
X105748318Y-79635000D01*
X106411952Y-79502994D01*
X107037082Y-79244057D01*
X107599685Y-78868138D01*
X108078138Y-78389685D01*
X108454057Y-77827082D01*
X108712994Y-77201952D01*
X108845000Y-76538318D01*
X108845000Y-75861682D01*
X108712994Y-75198048D01*
X108454057Y-74572918D01*
X108078138Y-74010315D01*
X107599685Y-73531862D01*
X107037082Y-73155943D01*
X106841668Y-73075000D01*
X114903421Y-73075000D01*
X113704951Y-74273471D01*
X113704951Y-74273471D01*
G37*
X113704951Y-74273471D02*
X113671184Y-74301183D01*
X113643471Y-74334951D01*
X113643468Y-74334954D01*
X113560590Y-74435941D01*
X113478412Y-74589687D01*
X113447316Y-74692192D01*
X113276745Y-74708992D01*
X113110149Y-74759528D01*
X112956613Y-74841595D01*
X112822038Y-74952038D01*
X112711595Y-75086613D01*
X112629528Y-75240149D01*
X112578992Y-75406745D01*
X112561928Y-75579999D01*
X112561928Y-76686494D01*
X111799956Y-77448466D01*
X111766183Y-77476183D01*
X111655589Y-77610942D01*
X111573411Y-77764688D01*
X111522805Y-77931511D01*
X111510000Y-78061524D01*
X111510000Y-78061531D01*
X111505719Y-78105000D01*
X111510000Y-78148469D01*
X111510000Y-83212885D01*
X111186446Y-82947351D01*
X110772116Y-82725887D01*
X110322542Y-82589510D01*
X109972157Y-82555000D01*
X109737843Y-82555000D01*
X109387458Y-82589510D01*
X108937884Y-82725887D01*
X108523554Y-82947351D01*
X108160391Y-83245391D01*
X107862351Y-83608554D01*
X107640887Y-84022884D01*
X107504510Y-84472458D01*
X107458461Y-84940000D01*
X107504510Y-85407542D01*
X107640887Y-85857116D01*
X107862351Y-86271446D01*
X108160391Y-86634609D01*
X108523554Y-86932649D01*
X108937884Y-87154113D01*
X109387458Y-87290490D01*
X109737843Y-87325000D01*
X109972157Y-87325000D01*
X110322542Y-87290490D01*
X110772116Y-87154113D01*
X111186446Y-86932649D01*
X111510000Y-86667115D01*
X111510001Y-100225494D01*
X111508765Y-100226155D01*
X111267037Y-100424537D01*
X111119838Y-100603900D01*
X110964437Y-100418685D01*
X110721923Y-100224031D01*
X110446094Y-100080429D01*
X110227980Y-100009437D01*
X109982000Y-100129406D01*
X109982000Y-101473000D01*
X110002000Y-101473000D01*
X110002000Y-101727000D01*
X109982000Y-101727000D01*
X109982000Y-103070594D01*
X110227980Y-103190563D01*
X110446094Y-103119571D01*
X110721923Y-102975969D01*
X110964437Y-102781315D01*
X111119837Y-102596101D01*
X111267037Y-102775463D01*
X111508766Y-102973845D01*
X111635001Y-103041319D01*
X111635001Y-103467668D01*
X111631324Y-103505000D01*
X111635001Y-103542333D01*
X111642553Y-103619003D01*
X111645998Y-103653985D01*
X111689454Y-103797246D01*
X111760026Y-103929276D01*
X111795959Y-103973060D01*
X111729488Y-103969783D01*
X111449870Y-104011213D01*
X111183708Y-104106397D01*
X111058486Y-104173329D01*
X110986903Y-104417298D01*
X111800000Y-105230395D01*
X111814143Y-105216253D01*
X111993748Y-105395858D01*
X111979605Y-105410000D01*
X112792702Y-106223097D01*
X113036671Y-106151514D01*
X113050324Y-106122659D01*
X113185363Y-106324759D01*
X113385241Y-106524637D01*
X113620273Y-106681680D01*
X113881426Y-106789853D01*
X114158665Y-106845000D01*
X114441335Y-106845000D01*
X114718574Y-106789853D01*
X114979727Y-106681680D01*
X115214759Y-106524637D01*
X115414637Y-106324759D01*
X115571680Y-106089727D01*
X115679853Y-105828574D01*
X115735000Y-105551335D01*
X115735000Y-105268665D01*
X115679853Y-104991426D01*
X115571680Y-104730273D01*
X115414637Y-104495241D01*
X115214759Y-104295363D01*
X114979727Y-104138320D01*
X114718574Y-104030147D01*
X114441335Y-103975000D01*
X114158665Y-103975000D01*
X113976114Y-104011312D01*
X113155000Y-103190199D01*
X113155000Y-103041319D01*
X113281235Y-102973845D01*
X113522963Y-102775463D01*
X113721345Y-102533734D01*
X113868755Y-102257948D01*
X113893612Y-102176005D01*
X116221323Y-102176005D01*
X116225000Y-102213338D01*
X116224999Y-131030089D01*
X116221323Y-131067411D01*
X116224999Y-131104733D01*
X116224999Y-131104743D01*
X116235996Y-131216396D01*
X116260148Y-131296015D01*
X116279453Y-131359657D01*
X116350025Y-131491687D01*
X116389870Y-131540237D01*
X116444998Y-131607412D01*
X116474002Y-131631215D01*
X123073800Y-138231014D01*
X123097598Y-138260012D01*
X123126596Y-138283810D01*
X123213322Y-138354985D01*
X123345352Y-138425557D01*
X123488613Y-138469014D01*
X123600266Y-138480011D01*
X123600275Y-138480011D01*
X123637598Y-138483687D01*
X123674921Y-138480011D01*
X138469077Y-138480011D01*
X138506399Y-138483687D01*
X138543721Y-138480011D01*
X138543732Y-138480011D01*
X138655385Y-138469014D01*
X138798646Y-138425557D01*
X138930675Y-138354985D01*
X139046400Y-138260012D01*
X139070203Y-138231008D01*
X145781004Y-131520208D01*
X145810002Y-131496410D01*
X145904975Y-131380685D01*
X145975547Y-131248656D01*
X146019004Y-131105395D01*
X146030001Y-130993742D01*
X146030001Y-130993734D01*
X146033677Y-130956409D01*
X146030001Y-130919084D01*
X146030001Y-125227322D01*
X146033677Y-125189999D01*
X146030001Y-125152676D01*
X146030001Y-125152666D01*
X146019004Y-125041013D01*
X145975547Y-124897752D01*
X145971872Y-124890876D01*
X145904975Y-124765722D01*
X145833800Y-124678996D01*
X145810002Y-124649998D01*
X145781005Y-124626201D01*
X145248804Y-124094001D01*
X145225002Y-124064998D01*
X145109277Y-123970025D01*
X144977248Y-123899453D01*
X144833987Y-123855996D01*
X144722334Y-123844999D01*
X144722323Y-123844999D01*
X144685001Y-123841323D01*
X144647679Y-123844999D01*
X143642321Y-123844999D01*
X143604998Y-123841323D01*
X143567675Y-123844999D01*
X143567666Y-123844999D01*
X143456013Y-123855996D01*
X143312752Y-123899453D01*
X143180723Y-123970025D01*
X143180721Y-123970026D01*
X143180722Y-123970026D01*
X143093995Y-124041200D01*
X143093991Y-124041204D01*
X143064998Y-124064998D01*
X143041204Y-124093991D01*
X132253003Y-134882194D01*
X132229987Y-134847748D01*
X132002252Y-134620013D01*
X131734463Y-134441082D01*
X131436912Y-134317832D01*
X131121033Y-134255000D01*
X130798967Y-134255000D01*
X130483088Y-134317832D01*
X130185537Y-134441082D01*
X129917748Y-134620013D01*
X129690013Y-134847748D01*
X129511082Y-135115537D01*
X129505091Y-135130000D01*
X125914909Y-135130000D01*
X125908918Y-135115537D01*
X125729987Y-134847748D01*
X125502252Y-134620013D01*
X125234463Y-134441082D01*
X124936912Y-134317832D01*
X124621033Y-134255000D01*
X124298967Y-134255000D01*
X123983088Y-134317832D01*
X123685537Y-134441082D01*
X123417748Y-134620013D01*
X123190013Y-134847748D01*
X123011082Y-135115537D01*
X122932954Y-135304154D01*
X120154213Y-132525413D01*
X123504192Y-132525413D01*
X123599956Y-132789814D01*
X123889571Y-132930704D01*
X124201108Y-133012384D01*
X124522595Y-133031718D01*
X124841675Y-132987961D01*
X125146088Y-132882795D01*
X125320044Y-132789814D01*
X125415808Y-132525413D01*
X130004192Y-132525413D01*
X130099956Y-132789814D01*
X130389571Y-132930704D01*
X130701108Y-133012384D01*
X131022595Y-133031718D01*
X131341675Y-132987961D01*
X131646088Y-132882795D01*
X131820044Y-132789814D01*
X131915808Y-132525413D01*
X130960000Y-131569605D01*
X130004192Y-132525413D01*
X125415808Y-132525413D01*
X124460000Y-131569605D01*
X123504192Y-132525413D01*
X120154213Y-132525413D01*
X119081395Y-131452595D01*
X122818282Y-131452595D01*
X122862039Y-131771675D01*
X122967205Y-132076088D01*
X123060186Y-132250044D01*
X123324587Y-132345808D01*
X124280395Y-131390000D01*
X124639605Y-131390000D01*
X125595413Y-132345808D01*
X125859814Y-132250044D01*
X126000704Y-131960429D01*
X126082384Y-131648892D01*
X126094189Y-131452595D01*
X129318282Y-131452595D01*
X129362039Y-131771675D01*
X129467205Y-132076088D01*
X129560186Y-132250044D01*
X129824587Y-132345808D01*
X130780395Y-131390000D01*
X131139605Y-131390000D01*
X132095413Y-132345808D01*
X132359814Y-132250044D01*
X132500704Y-131960429D01*
X132582384Y-131648892D01*
X132601718Y-131327405D01*
X132557961Y-131008325D01*
X132452795Y-130703912D01*
X132359814Y-130529956D01*
X132095413Y-130434192D01*
X131139605Y-131390000D01*
X130780395Y-131390000D01*
X129824587Y-130434192D01*
X129560186Y-130529956D01*
X129419296Y-130819571D01*
X129337616Y-131131108D01*
X129318282Y-131452595D01*
X126094189Y-131452595D01*
X126101718Y-131327405D01*
X126057961Y-131008325D01*
X125952795Y-130703912D01*
X125859814Y-130529956D01*
X125595413Y-130434192D01*
X124639605Y-131390000D01*
X124280395Y-131390000D01*
X123324587Y-130434192D01*
X123060186Y-130529956D01*
X122919296Y-130819571D01*
X122837616Y-131131108D01*
X122818282Y-131452595D01*
X119081395Y-131452595D01*
X118870000Y-131241201D01*
X118870000Y-130254587D01*
X123504192Y-130254587D01*
X124460000Y-131210395D01*
X125415808Y-130254587D01*
X130004192Y-130254587D01*
X130960000Y-131210395D01*
X131915808Y-130254587D01*
X131820044Y-129990186D01*
X131530429Y-129849296D01*
X131218892Y-129767616D01*
X130897405Y-129748282D01*
X130578325Y-129792039D01*
X130273912Y-129897205D01*
X130099956Y-129990186D01*
X130004192Y-130254587D01*
X125415808Y-130254587D01*
X125320044Y-129990186D01*
X125030429Y-129849296D01*
X124718892Y-129767616D01*
X124397405Y-129748282D01*
X124078325Y-129792039D01*
X123773912Y-129897205D01*
X123599956Y-129990186D01*
X123504192Y-130254587D01*
X118870000Y-130254587D01*
X118870000Y-108518072D01*
X118910000Y-108518072D01*
X119034482Y-108505812D01*
X119154180Y-108469502D01*
X119264494Y-108410537D01*
X119361185Y-108331185D01*
X119440537Y-108234494D01*
X119499502Y-108124180D01*
X119535812Y-108004482D01*
X119537581Y-107986517D01*
X119630393Y-108099608D01*
X119848900Y-108278932D01*
X120098193Y-108412182D01*
X120368692Y-108494236D01*
X120650000Y-108521943D01*
X120931309Y-108494236D01*
X121201808Y-108412182D01*
X121451101Y-108278932D01*
X121600510Y-108156315D01*
X122160206Y-108716012D01*
X122184005Y-108745011D01*
X122213003Y-108768809D01*
X122299729Y-108839984D01*
X122431759Y-108910556D01*
X122575020Y-108954013D01*
X122686673Y-108965010D01*
X122686683Y-108965010D01*
X122724005Y-108968686D01*
X122761328Y-108965010D01*
X127220211Y-108965010D01*
X128620201Y-110365000D01*
X123227323Y-110365000D01*
X123190000Y-110361324D01*
X123152677Y-110365000D01*
X123152667Y-110365000D01*
X123041014Y-110375997D01*
X122897753Y-110419454D01*
X122765724Y-110490026D01*
X122649999Y-110584999D01*
X122626201Y-110613997D01*
X121608886Y-111631312D01*
X121426335Y-111595000D01*
X121143665Y-111595000D01*
X120866426Y-111650147D01*
X120605273Y-111758320D01*
X120370241Y-111915363D01*
X120170363Y-112115241D01*
X120013320Y-112350273D01*
X119905147Y-112611426D01*
X119850000Y-112888665D01*
X119850000Y-113171335D01*
X119905147Y-113448574D01*
X120013320Y-113709727D01*
X120170363Y-113944759D01*
X120370241Y-114144637D01*
X120605273Y-114301680D01*
X120866426Y-114409853D01*
X121143665Y-114465000D01*
X121426335Y-114465000D01*
X121703574Y-114409853D01*
X121964727Y-114301680D01*
X122199759Y-114144637D01*
X122399637Y-113944759D01*
X122556680Y-113709727D01*
X122664853Y-113448574D01*
X122720000Y-113171335D01*
X122720000Y-112888665D01*
X122683688Y-112706114D01*
X123504802Y-111885000D01*
X124225683Y-111885000D01*
X124180241Y-111915363D01*
X123980363Y-112115241D01*
X123823320Y-112350273D01*
X123715147Y-112611426D01*
X123660000Y-112888665D01*
X123660000Y-113171335D01*
X123715147Y-113448574D01*
X123823320Y-113709727D01*
X123980363Y-113944759D01*
X124180241Y-114144637D01*
X124412759Y-114300000D01*
X124180241Y-114455363D01*
X123980363Y-114655241D01*
X123823320Y-114890273D01*
X123715147Y-115151426D01*
X123660000Y-115428665D01*
X123660000Y-115711335D01*
X123715147Y-115988574D01*
X123753017Y-116080000D01*
X122503043Y-116080000D01*
X122399637Y-115925241D01*
X122199759Y-115725363D01*
X121964727Y-115568320D01*
X121703574Y-115460147D01*
X121426335Y-115405000D01*
X121143665Y-115405000D01*
X120866426Y-115460147D01*
X120605273Y-115568320D01*
X120370241Y-115725363D01*
X120170363Y-115925241D01*
X120013320Y-116160273D01*
X119905147Y-116421426D01*
X119850000Y-116698665D01*
X119850000Y-116981335D01*
X119905147Y-117258574D01*
X120013320Y-117519727D01*
X120170363Y-117754759D01*
X120370241Y-117954637D01*
X120605273Y-118111680D01*
X120866426Y-118219853D01*
X121143665Y-118275000D01*
X121426335Y-118275000D01*
X121703574Y-118219853D01*
X121964727Y-118111680D01*
X122199759Y-117954637D01*
X122399637Y-117754759D01*
X122503043Y-117600000D01*
X123753017Y-117600000D01*
X123715147Y-117691426D01*
X123660000Y-117968665D01*
X123660000Y-118251335D01*
X123715147Y-118528574D01*
X123823320Y-118789727D01*
X123980363Y-119024759D01*
X124180241Y-119224637D01*
X124412759Y-119380000D01*
X124180241Y-119535363D01*
X123980363Y-119735241D01*
X123823320Y-119970273D01*
X123715147Y-120231426D01*
X123660000Y-120508665D01*
X123660000Y-120791335D01*
X123715147Y-121068574D01*
X123753017Y-121160000D01*
X122503043Y-121160000D01*
X122399637Y-121005241D01*
X122199759Y-120805363D01*
X121964727Y-120648320D01*
X121703574Y-120540147D01*
X121426335Y-120485000D01*
X121143665Y-120485000D01*
X120866426Y-120540147D01*
X120605273Y-120648320D01*
X120370241Y-120805363D01*
X120170363Y-121005241D01*
X120013320Y-121240273D01*
X119905147Y-121501426D01*
X119850000Y-121778665D01*
X119850000Y-122061335D01*
X119905147Y-122338574D01*
X120013320Y-122599727D01*
X120170363Y-122834759D01*
X120370241Y-123034637D01*
X120605273Y-123191680D01*
X120866426Y-123299853D01*
X121143665Y-123355000D01*
X121426335Y-123355000D01*
X121703574Y-123299853D01*
X121964727Y-123191680D01*
X122199759Y-123034637D01*
X122399637Y-122834759D01*
X122503043Y-122680000D01*
X123753017Y-122680000D01*
X123715147Y-122771426D01*
X123660000Y-123048665D01*
X123660000Y-123331335D01*
X123715147Y-123608574D01*
X123823320Y-123869727D01*
X123980363Y-124104759D01*
X124180241Y-124304637D01*
X124415273Y-124461680D01*
X124676426Y-124569853D01*
X124953665Y-124625000D01*
X125236335Y-124625000D01*
X125513574Y-124569853D01*
X125774727Y-124461680D01*
X126009759Y-124304637D01*
X126209637Y-124104759D01*
X126366680Y-123869727D01*
X126474853Y-123608574D01*
X126530000Y-123331335D01*
X126530000Y-123048665D01*
X126493688Y-122866113D01*
X126534802Y-122824999D01*
X128784491Y-122824999D01*
X128740000Y-123048665D01*
X128740000Y-123331335D01*
X128776312Y-123513886D01*
X127320199Y-124970000D01*
X122503043Y-124970000D01*
X122399637Y-124815241D01*
X122199759Y-124615363D01*
X121964727Y-124458320D01*
X121703574Y-124350147D01*
X121426335Y-124295000D01*
X121143665Y-124295000D01*
X120866426Y-124350147D01*
X120605273Y-124458320D01*
X120370241Y-124615363D01*
X120170363Y-124815241D01*
X120013320Y-125050273D01*
X119905147Y-125311426D01*
X119850000Y-125588665D01*
X119850000Y-125871335D01*
X119905147Y-126148574D01*
X120013320Y-126409727D01*
X120170363Y-126644759D01*
X120370241Y-126844637D01*
X120605273Y-127001680D01*
X120866426Y-127109853D01*
X121143665Y-127165000D01*
X121426335Y-127165000D01*
X121703574Y-127109853D01*
X121964727Y-127001680D01*
X122199759Y-126844637D01*
X122399637Y-126644759D01*
X122503043Y-126490000D01*
X127597678Y-126490000D01*
X127635000Y-126493676D01*
X127672322Y-126490000D01*
X127672333Y-126490000D01*
X127783986Y-126479003D01*
X127927247Y-126435546D01*
X128059276Y-126364974D01*
X128175001Y-126270001D01*
X128198804Y-126240997D01*
X129851114Y-124588688D01*
X130033665Y-124625000D01*
X130316335Y-124625000D01*
X130593574Y-124569853D01*
X130854727Y-124461680D01*
X131089759Y-124304637D01*
X131289637Y-124104759D01*
X131446680Y-123869727D01*
X131554853Y-123608574D01*
X131610000Y-123331335D01*
X131610000Y-123298431D01*
X132998586Y-124687018D01*
X132870363Y-124815241D01*
X132713320Y-125050273D01*
X132605147Y-125311426D01*
X132550000Y-125588665D01*
X132550000Y-125871335D01*
X132605147Y-126148574D01*
X132713320Y-126409727D01*
X132870363Y-126644759D01*
X133070241Y-126844637D01*
X133305273Y-127001680D01*
X133566426Y-127109853D01*
X133843665Y-127165000D01*
X134126335Y-127165000D01*
X134403574Y-127109853D01*
X134664727Y-127001680D01*
X134899759Y-126844637D01*
X135099637Y-126644759D01*
X135256680Y-126409727D01*
X135364853Y-126148574D01*
X135420000Y-125871335D01*
X135420000Y-125588665D01*
X135364853Y-125311426D01*
X135256680Y-125050273D01*
X135099637Y-124815241D01*
X134899759Y-124615363D01*
X134739798Y-124508481D01*
X134734003Y-124449644D01*
X134690546Y-124306383D01*
X134619974Y-124174354D01*
X134525001Y-124058629D01*
X134496003Y-124034831D01*
X133809345Y-123348173D01*
X133843665Y-123355000D01*
X134126335Y-123355000D01*
X134403574Y-123299853D01*
X134664727Y-123191680D01*
X134899759Y-123034637D01*
X135099637Y-122834759D01*
X135256680Y-122599727D01*
X135364853Y-122338574D01*
X135420000Y-122061335D01*
X135420000Y-121778665D01*
X135364853Y-121501426D01*
X135256680Y-121240273D01*
X135099637Y-121005241D01*
X134899759Y-120805363D01*
X134664727Y-120648320D01*
X134403574Y-120540147D01*
X134126335Y-120485000D01*
X133843665Y-120485000D01*
X133661114Y-120521312D01*
X132153803Y-119014002D01*
X132130000Y-118984998D01*
X132014275Y-118890025D01*
X131882246Y-118819453D01*
X131738985Y-118775996D01*
X131627332Y-118764999D01*
X131627321Y-118764999D01*
X131589999Y-118761323D01*
X131552677Y-118764999D01*
X131456923Y-118764999D01*
X131554853Y-118528574D01*
X131610000Y-118251335D01*
X131610000Y-117968665D01*
X131554853Y-117691426D01*
X131446680Y-117430273D01*
X131289637Y-117195241D01*
X131089759Y-116995363D01*
X130857241Y-116840000D01*
X131089759Y-116684637D01*
X131289637Y-116484759D01*
X131446680Y-116249727D01*
X131554853Y-115988574D01*
X131610000Y-115711335D01*
X131610000Y-115539802D01*
X132586312Y-116516114D01*
X132550000Y-116698665D01*
X132550000Y-116981335D01*
X132605147Y-117258574D01*
X132713320Y-117519727D01*
X132870363Y-117754759D01*
X133070241Y-117954637D01*
X133305273Y-118111680D01*
X133566426Y-118219853D01*
X133843665Y-118275000D01*
X134126335Y-118275000D01*
X134403574Y-118219853D01*
X134664727Y-118111680D01*
X134899759Y-117954637D01*
X135099637Y-117754759D01*
X135256680Y-117519727D01*
X135364853Y-117258574D01*
X135389561Y-117134361D01*
X140686203Y-122431003D01*
X140710001Y-122460001D01*
X140825726Y-122554974D01*
X140957755Y-122625546D01*
X141101016Y-122669003D01*
X141212669Y-122680000D01*
X141212679Y-122680000D01*
X141250002Y-122683676D01*
X141287325Y-122680000D01*
X142924099Y-122680000D01*
X142946068Y-122721101D01*
X143125392Y-122939608D01*
X143343899Y-123118932D01*
X143593192Y-123252182D01*
X143863691Y-123334236D01*
X144074508Y-123355000D01*
X144215492Y-123355000D01*
X144426309Y-123334236D01*
X144696808Y-123252182D01*
X144946101Y-123118932D01*
X145164608Y-122939608D01*
X145343932Y-122721101D01*
X145477182Y-122471808D01*
X145559236Y-122201309D01*
X145586943Y-121920000D01*
X145559236Y-121638691D01*
X145477182Y-121368192D01*
X145343932Y-121118899D01*
X145164608Y-120900392D01*
X144946101Y-120721068D01*
X144696808Y-120587818D01*
X144426309Y-120505764D01*
X144215492Y-120485000D01*
X144074508Y-120485000D01*
X143863691Y-120505764D01*
X143593192Y-120587818D01*
X143343899Y-120721068D01*
X143125392Y-120900392D01*
X142946068Y-121118899D01*
X142924099Y-121160000D01*
X141564804Y-121160000D01*
X134689758Y-114284955D01*
X134819804Y-114198061D01*
X141205000Y-114198061D01*
X141205000Y-114401939D01*
X141244774Y-114601898D01*
X141322795Y-114790256D01*
X141436063Y-114959774D01*
X141580226Y-115103937D01*
X141749744Y-115217205D01*
X141938102Y-115295226D01*
X142138061Y-115335000D01*
X142200199Y-115335000D01*
X142931448Y-116066250D01*
X142812818Y-116288192D01*
X142730764Y-116558691D01*
X142703057Y-116840000D01*
X142730764Y-117121309D01*
X142812818Y-117391808D01*
X142946068Y-117641101D01*
X143125392Y-117859608D01*
X143343899Y-118038932D01*
X143593192Y-118172182D01*
X143863691Y-118254236D01*
X144074508Y-118275000D01*
X144215492Y-118275000D01*
X144426309Y-118254236D01*
X144696808Y-118172182D01*
X144946101Y-118038932D01*
X145164608Y-117859608D01*
X145343932Y-117641101D01*
X145477182Y-117391808D01*
X145559236Y-117121309D01*
X145586943Y-116840000D01*
X145559236Y-116558691D01*
X145477182Y-116288192D01*
X145343932Y-116038899D01*
X145164608Y-115820392D01*
X144946101Y-115641068D01*
X144696808Y-115507818D01*
X144446774Y-115431972D01*
X143275000Y-114260199D01*
X143275000Y-114198061D01*
X143268897Y-114167380D01*
X143343899Y-114228932D01*
X143593192Y-114362182D01*
X143863691Y-114444236D01*
X144074508Y-114465000D01*
X144215492Y-114465000D01*
X144426309Y-114444236D01*
X144696808Y-114362182D01*
X144946101Y-114228932D01*
X145164608Y-114049608D01*
X145343932Y-113831101D01*
X145477182Y-113581808D01*
X145559236Y-113311309D01*
X145586943Y-113030000D01*
X145559236Y-112748691D01*
X145477182Y-112478192D01*
X145343932Y-112228899D01*
X145164608Y-112010392D01*
X144946101Y-111831068D01*
X144696808Y-111697818D01*
X144426309Y-111615764D01*
X144215492Y-111595000D01*
X144074508Y-111595000D01*
X143863691Y-111615764D01*
X143593192Y-111697818D01*
X143343899Y-111831068D01*
X143125392Y-112010392D01*
X142946068Y-112228899D01*
X142812818Y-112478192D01*
X142730764Y-112748691D01*
X142703057Y-113030000D01*
X142730764Y-113311309D01*
X142758090Y-113401393D01*
X142730256Y-113382795D01*
X142541898Y-113304774D01*
X142341939Y-113265000D01*
X142138061Y-113265000D01*
X141938102Y-113304774D01*
X141749744Y-113382795D01*
X141580226Y-113496063D01*
X141436063Y-113640226D01*
X141322795Y-113809744D01*
X141244774Y-113998102D01*
X141205000Y-114198061D01*
X134819804Y-114198061D01*
X134899759Y-114144637D01*
X135099637Y-113944759D01*
X135256680Y-113709727D01*
X135364853Y-113448574D01*
X135420000Y-113171335D01*
X135420000Y-112888665D01*
X135364853Y-112611426D01*
X135256680Y-112350273D01*
X135099637Y-112115241D01*
X134899759Y-111915363D01*
X134664727Y-111758320D01*
X134403574Y-111650147D01*
X134126335Y-111595000D01*
X133843665Y-111595000D01*
X133566426Y-111650147D01*
X133305273Y-111758320D01*
X133070241Y-111915363D01*
X132870363Y-112115241D01*
X132730045Y-112325242D01*
X128818108Y-108413305D01*
X128821808Y-108412182D01*
X129071101Y-108278932D01*
X129289608Y-108099608D01*
X129468932Y-107881101D01*
X129540000Y-107748142D01*
X129611068Y-107881101D01*
X129790393Y-108099608D01*
X130008900Y-108278932D01*
X130258193Y-108412182D01*
X130528692Y-108494236D01*
X130810000Y-108521943D01*
X131091309Y-108494236D01*
X131135906Y-108480708D01*
X132386201Y-109731003D01*
X132409999Y-109760001D01*
X132438997Y-109783799D01*
X132525723Y-109854974D01*
X132657753Y-109925546D01*
X132801014Y-109969003D01*
X132912667Y-109980000D01*
X132912676Y-109980000D01*
X132949999Y-109983676D01*
X132987322Y-109980000D01*
X133916289Y-109980000D01*
X133960226Y-110023937D01*
X134129744Y-110137205D01*
X134318102Y-110215226D01*
X134518061Y-110255000D01*
X134721939Y-110255000D01*
X134921898Y-110215226D01*
X135110256Y-110137205D01*
X135279774Y-110023937D01*
X135423937Y-109879774D01*
X135537205Y-109710256D01*
X135615226Y-109521898D01*
X135655000Y-109321939D01*
X135655000Y-109118061D01*
X135615226Y-108918102D01*
X135537205Y-108729744D01*
X135423937Y-108560226D01*
X135279774Y-108416063D01*
X135110256Y-108302795D01*
X134921898Y-108224774D01*
X134721939Y-108185000D01*
X134518061Y-108185000D01*
X134318102Y-108224774D01*
X134129744Y-108302795D01*
X133960226Y-108416063D01*
X133916289Y-108460000D01*
X133744171Y-108460000D01*
X133901808Y-108412182D01*
X134151101Y-108278932D01*
X134369608Y-108099608D01*
X134548932Y-107881101D01*
X134617265Y-107753259D01*
X134767399Y-107982839D01*
X134965105Y-108184500D01*
X135198354Y-108343715D01*
X135458182Y-108454367D01*
X135540961Y-108471904D01*
X135763000Y-108349915D01*
X135763000Y-106807000D01*
X136017000Y-106807000D01*
X136017000Y-108349915D01*
X136239039Y-108471904D01*
X136321818Y-108454367D01*
X136581646Y-108343715D01*
X136814895Y-108184500D01*
X137012601Y-107982839D01*
X137167166Y-107746483D01*
X137272650Y-107484514D01*
X137325000Y-107207000D01*
X137325000Y-106807000D01*
X136017000Y-106807000D01*
X135763000Y-106807000D01*
X135743000Y-106807000D01*
X135743000Y-106553000D01*
X135763000Y-106553000D01*
X135763000Y-105010085D01*
X136017000Y-105010085D01*
X136017000Y-106553000D01*
X137325000Y-106553000D01*
X137325000Y-106153000D01*
X137272650Y-105875486D01*
X137167166Y-105613517D01*
X137012601Y-105377161D01*
X136814895Y-105175500D01*
X136581646Y-105016285D01*
X136321818Y-104905633D01*
X136239039Y-104888096D01*
X136017000Y-105010085D01*
X135763000Y-105010085D01*
X135540961Y-104888096D01*
X135458182Y-104905633D01*
X135198354Y-105016285D01*
X134965105Y-105175500D01*
X134767399Y-105377161D01*
X134617265Y-105606741D01*
X134548932Y-105478899D01*
X134369607Y-105260392D01*
X134151100Y-105081068D01*
X133901807Y-104947818D01*
X133631308Y-104865764D01*
X133350000Y-104838057D01*
X133068691Y-104865764D01*
X132798192Y-104947818D01*
X132548899Y-105081068D01*
X132330392Y-105260393D01*
X132151068Y-105478900D01*
X132080000Y-105611858D01*
X132008932Y-105478899D01*
X131829607Y-105260392D01*
X131611100Y-105081068D01*
X131361807Y-104947818D01*
X131091308Y-104865764D01*
X130810000Y-104838057D01*
X130528691Y-104865764D01*
X130258192Y-104947818D01*
X130008899Y-105081068D01*
X129790392Y-105260393D01*
X129611068Y-105478900D01*
X129540000Y-105611858D01*
X129468932Y-105478899D01*
X129289607Y-105260392D01*
X129071100Y-105081068D01*
X128821807Y-104947818D01*
X128551308Y-104865764D01*
X128270000Y-104838057D01*
X127988691Y-104865764D01*
X127718192Y-104947818D01*
X127468899Y-105081068D01*
X127250392Y-105260393D01*
X127071068Y-105478900D01*
X127000000Y-105611858D01*
X126928932Y-105478899D01*
X126749607Y-105260392D01*
X126531100Y-105081068D01*
X126281807Y-104947818D01*
X126011308Y-104865764D01*
X125730000Y-104838057D01*
X125448691Y-104865764D01*
X125178192Y-104947818D01*
X124928899Y-105081068D01*
X124710392Y-105260393D01*
X124531068Y-105478900D01*
X124460000Y-105611858D01*
X124388932Y-105478899D01*
X124209607Y-105260392D01*
X123991100Y-105081068D01*
X123741807Y-104947818D01*
X123471308Y-104865764D01*
X123190000Y-104838057D01*
X122908691Y-104865764D01*
X122638192Y-104947818D01*
X122535010Y-105002970D01*
X122535010Y-101710512D01*
X138259783Y-101710512D01*
X138301213Y-101990130D01*
X138396397Y-102256292D01*
X138463329Y-102381514D01*
X138707298Y-102453097D01*
X139520395Y-101640000D01*
X138707298Y-100826903D01*
X138463329Y-100898486D01*
X138342429Y-101153996D01*
X138273700Y-101428184D01*
X138259783Y-101710512D01*
X122535010Y-101710512D01*
X122535010Y-101672332D01*
X122538686Y-101635009D01*
X122535010Y-101597686D01*
X122535010Y-101597677D01*
X122524013Y-101486024D01*
X122480556Y-101342763D01*
X122456693Y-101298120D01*
X122575020Y-101334013D01*
X122686673Y-101345010D01*
X122686682Y-101345010D01*
X122724005Y-101348686D01*
X122761328Y-101345010D01*
X123618672Y-101345010D01*
X123655994Y-101348686D01*
X123693316Y-101345010D01*
X123693327Y-101345010D01*
X123804980Y-101334013D01*
X123948241Y-101290556D01*
X124080270Y-101219984D01*
X124195995Y-101125011D01*
X124219797Y-101096008D01*
X124778472Y-100537334D01*
X124805105Y-100564500D01*
X125038354Y-100723715D01*
X125298182Y-100834367D01*
X125380961Y-100851904D01*
X125603000Y-100729915D01*
X125603000Y-99187000D01*
X125583000Y-99187000D01*
X125583000Y-98933000D01*
X125603000Y-98933000D01*
X125603000Y-97390085D01*
X125380961Y-97268096D01*
X125298182Y-97285633D01*
X125220000Y-97318928D01*
X125220000Y-95200901D01*
X125261101Y-95178932D01*
X125479608Y-94999608D01*
X125658932Y-94781101D01*
X125730000Y-94648142D01*
X125801068Y-94781101D01*
X125980392Y-94999608D01*
X126198899Y-95178932D01*
X126448192Y-95312182D01*
X126718691Y-95394236D01*
X126929508Y-95415000D01*
X127070492Y-95415000D01*
X127281309Y-95394236D01*
X127325906Y-95380708D01*
X127705198Y-95760000D01*
X127703711Y-95760000D01*
X127659774Y-95716063D01*
X127490256Y-95602795D01*
X127301898Y-95524774D01*
X127101939Y-95485000D01*
X126898061Y-95485000D01*
X126698102Y-95524774D01*
X126509744Y-95602795D01*
X126340226Y-95716063D01*
X126196063Y-95860226D01*
X126082795Y-96029744D01*
X126004774Y-96218102D01*
X125965000Y-96418061D01*
X125965000Y-96621939D01*
X126004774Y-96821898D01*
X126082795Y-97010256D01*
X126196063Y-97179774D01*
X126340226Y-97323937D01*
X126509744Y-97437205D01*
X126698102Y-97515226D01*
X126898061Y-97555000D01*
X127101939Y-97555000D01*
X127301898Y-97515226D01*
X127490256Y-97437205D01*
X127659774Y-97323937D01*
X127703711Y-97280000D01*
X127875829Y-97280000D01*
X127718192Y-97327818D01*
X127468899Y-97461068D01*
X127250392Y-97640393D01*
X127071068Y-97858900D01*
X127002735Y-97986742D01*
X126852601Y-97757161D01*
X126654895Y-97555500D01*
X126421646Y-97396285D01*
X126161818Y-97285633D01*
X126079039Y-97268096D01*
X125857000Y-97390085D01*
X125857000Y-98933000D01*
X125877000Y-98933000D01*
X125877000Y-99187000D01*
X125857000Y-99187000D01*
X125857000Y-100729915D01*
X126079039Y-100851904D01*
X126161818Y-100834367D01*
X126421646Y-100723715D01*
X126654895Y-100564500D01*
X126852601Y-100362839D01*
X127002735Y-100133259D01*
X127071068Y-100261101D01*
X127250393Y-100479608D01*
X127468900Y-100658932D01*
X127718193Y-100792182D01*
X127988692Y-100874236D01*
X128270000Y-100901943D01*
X128551309Y-100874236D01*
X128821808Y-100792182D01*
X129071101Y-100658932D01*
X129289608Y-100479608D01*
X129468932Y-100261101D01*
X129540000Y-100128142D01*
X129611068Y-100261101D01*
X129790393Y-100479608D01*
X130008900Y-100658932D01*
X130258193Y-100792182D01*
X130528692Y-100874236D01*
X130810000Y-100901943D01*
X131091309Y-100874236D01*
X131361808Y-100792182D01*
X131611101Y-100658932D01*
X131829608Y-100479608D01*
X132008932Y-100261101D01*
X132080000Y-100128142D01*
X132151068Y-100261101D01*
X132330393Y-100479608D01*
X132548900Y-100658932D01*
X132798193Y-100792182D01*
X133068692Y-100874236D01*
X133350000Y-100901943D01*
X133631309Y-100874236D01*
X133901808Y-100792182D01*
X134151101Y-100658932D01*
X134369608Y-100479608D01*
X134548932Y-100261101D01*
X134620000Y-100128142D01*
X134691068Y-100261101D01*
X134870393Y-100479608D01*
X135088900Y-100658932D01*
X135338193Y-100792182D01*
X135608692Y-100874236D01*
X135890000Y-100901943D01*
X136171309Y-100874236D01*
X136441808Y-100792182D01*
X136691101Y-100658932D01*
X136909608Y-100479608D01*
X137088932Y-100261101D01*
X137222182Y-100011808D01*
X137304236Y-99741309D01*
X137325000Y-99530491D01*
X137325000Y-98589508D01*
X137304236Y-98378691D01*
X137222182Y-98108192D01*
X137088932Y-97858899D01*
X136983155Y-97730010D01*
X137295209Y-97730010D01*
X139772006Y-100206808D01*
X139629488Y-100199783D01*
X139349870Y-100241213D01*
X139083708Y-100336397D01*
X138958486Y-100403329D01*
X138886903Y-100647298D01*
X139700000Y-101460395D01*
X139714143Y-101446253D01*
X139893748Y-101625858D01*
X139879605Y-101640000D01*
X139893748Y-101654143D01*
X139714143Y-101833748D01*
X139700000Y-101819605D01*
X138886903Y-102632702D01*
X138958486Y-102876671D01*
X138987341Y-102890324D01*
X138785241Y-103025363D01*
X138585363Y-103225241D01*
X138428320Y-103460273D01*
X138320147Y-103721426D01*
X138265000Y-103998665D01*
X138265000Y-104281335D01*
X138320147Y-104558574D01*
X138428320Y-104819727D01*
X138585363Y-105054759D01*
X138785241Y-105254637D01*
X139020273Y-105411680D01*
X139281426Y-105519853D01*
X139558665Y-105575000D01*
X139841335Y-105575000D01*
X140118574Y-105519853D01*
X140379727Y-105411680D01*
X140614759Y-105254637D01*
X140814637Y-105054759D01*
X140918043Y-104900000D01*
X145735199Y-104900000D01*
X145921312Y-105086114D01*
X145885000Y-105268665D01*
X145885000Y-105551335D01*
X145940147Y-105828574D01*
X146048320Y-106089727D01*
X146205363Y-106324759D01*
X146405241Y-106524637D01*
X146640273Y-106681680D01*
X146901426Y-106789853D01*
X147178665Y-106845000D01*
X147461335Y-106845000D01*
X147738574Y-106789853D01*
X147999727Y-106681680D01*
X148234759Y-106524637D01*
X148434637Y-106324759D01*
X148591680Y-106089727D01*
X148699853Y-105828574D01*
X148755000Y-105551335D01*
X148755000Y-105268665D01*
X148699853Y-104991426D01*
X148591680Y-104730273D01*
X148434637Y-104495241D01*
X148234759Y-104295363D01*
X147999727Y-104138320D01*
X147738574Y-104030147D01*
X147461335Y-103975000D01*
X147178665Y-103975000D01*
X146996114Y-104011312D01*
X146613804Y-103629003D01*
X146590001Y-103599999D01*
X146474276Y-103505026D01*
X146342247Y-103434454D01*
X146198986Y-103390997D01*
X146087333Y-103380000D01*
X146087322Y-103380000D01*
X146050000Y-103376324D01*
X146012678Y-103380000D01*
X141534622Y-103380000D01*
X141604974Y-103294276D01*
X141675546Y-103162247D01*
X141719003Y-103018986D01*
X141730000Y-102907333D01*
X141730000Y-102907324D01*
X141733676Y-102870001D01*
X141730000Y-102832678D01*
X141730000Y-100561817D01*
X141855392Y-100714608D01*
X142073899Y-100893932D01*
X142323192Y-101027182D01*
X142593691Y-101109236D01*
X142804508Y-101130000D01*
X142945492Y-101130000D01*
X143156309Y-101109236D01*
X143426808Y-101027182D01*
X143676101Y-100893932D01*
X143894608Y-100714608D01*
X144073932Y-100496101D01*
X144207182Y-100246808D01*
X144289236Y-99976309D01*
X144316943Y-99695000D01*
X144289236Y-99413691D01*
X144207182Y-99143192D01*
X144073932Y-98893899D01*
X143894608Y-98675392D01*
X143676101Y-98496068D01*
X143635000Y-98474099D01*
X143635000Y-98462323D01*
X143638676Y-98425000D01*
X143635000Y-98387677D01*
X143635000Y-98387667D01*
X143624003Y-98276014D01*
X143580546Y-98132753D01*
X143509974Y-98000724D01*
X143415001Y-97884999D01*
X143386004Y-97861202D01*
X142354791Y-96829990D01*
X143922688Y-96829990D01*
X143960010Y-96833666D01*
X143997332Y-96829990D01*
X143997343Y-96829990D01*
X144108996Y-96818993D01*
X144252257Y-96775536D01*
X144384286Y-96704964D01*
X144500011Y-96609991D01*
X144523813Y-96580988D01*
X145094802Y-96010000D01*
X146099099Y-96010000D01*
X146121068Y-96051101D01*
X146300392Y-96269608D01*
X146518899Y-96448932D01*
X146768192Y-96582182D01*
X147038691Y-96664236D01*
X147249508Y-96685000D01*
X147390492Y-96685000D01*
X147601309Y-96664236D01*
X147871808Y-96582182D01*
X148121101Y-96448932D01*
X148339608Y-96269608D01*
X148518932Y-96051101D01*
X148652182Y-95801808D01*
X148734236Y-95531309D01*
X148761943Y-95250000D01*
X148734236Y-94968691D01*
X148652182Y-94698192D01*
X148518932Y-94448899D01*
X148339608Y-94230392D01*
X148267228Y-94170991D01*
X148288578Y-94159579D01*
X148552766Y-93942766D01*
X148769579Y-93678578D01*
X148930686Y-93377168D01*
X149029895Y-93050119D01*
X149063394Y-92710000D01*
X149029895Y-92369881D01*
X148930686Y-92042832D01*
X148769579Y-91741422D01*
X148552766Y-91477234D01*
X148288578Y-91260421D01*
X147987168Y-91099314D01*
X147660119Y-91000105D01*
X147405225Y-90975000D01*
X147234775Y-90975000D01*
X146979881Y-91000105D01*
X146652832Y-91099314D01*
X146351422Y-91260421D01*
X146087234Y-91477234D01*
X145870421Y-91741422D01*
X145709314Y-92042832D01*
X145610105Y-92369881D01*
X145576606Y-92710000D01*
X145610105Y-93050119D01*
X145709314Y-93377168D01*
X145870421Y-93678578D01*
X146087234Y-93942766D01*
X146351422Y-94159579D01*
X146372772Y-94170991D01*
X146300392Y-94230392D01*
X146121068Y-94448899D01*
X146099099Y-94490000D01*
X144817322Y-94490000D01*
X144780000Y-94486324D01*
X144742677Y-94490000D01*
X144742667Y-94490000D01*
X144631014Y-94500997D01*
X144489912Y-94543799D01*
X144487753Y-94544454D01*
X144355723Y-94615026D01*
X144272083Y-94683668D01*
X144239999Y-94709999D01*
X144216201Y-94738998D01*
X143645209Y-95309990D01*
X137715909Y-95309990D01*
X137961101Y-95178932D01*
X138179608Y-94999608D01*
X138358932Y-94781101D01*
X138492182Y-94531808D01*
X138574236Y-94261309D01*
X138601943Y-93980000D01*
X138574236Y-93698691D01*
X138492182Y-93428192D01*
X138358932Y-93178899D01*
X138179608Y-92960392D01*
X137961101Y-92781068D01*
X137920000Y-92759099D01*
X137920000Y-91477325D01*
X137923676Y-91440000D01*
X137920000Y-91402675D01*
X137920000Y-91402667D01*
X137909003Y-91291014D01*
X137865546Y-91147753D01*
X137794974Y-91015724D01*
X137700001Y-90899999D01*
X137671004Y-90876202D01*
X134589801Y-87795000D01*
X134690492Y-87795000D01*
X134901309Y-87774236D01*
X135171808Y-87692182D01*
X135421101Y-87558932D01*
X135639608Y-87379608D01*
X135818932Y-87161101D01*
X135890000Y-87028142D01*
X135961068Y-87161101D01*
X136140392Y-87379608D01*
X136358899Y-87558932D01*
X136608192Y-87692182D01*
X136878691Y-87774236D01*
X137089508Y-87795000D01*
X137230492Y-87795000D01*
X137441309Y-87774236D01*
X137711808Y-87692182D01*
X137961101Y-87558932D01*
X138179608Y-87379608D01*
X138358932Y-87161101D01*
X138492182Y-86911808D01*
X138574236Y-86641309D01*
X138601943Y-86360000D01*
X138574236Y-86078691D01*
X138492182Y-85808192D01*
X138358932Y-85558899D01*
X138179608Y-85340392D01*
X137961101Y-85161068D01*
X137920000Y-85139099D01*
X137920000Y-82743723D01*
X137923676Y-82706400D01*
X137920000Y-82669077D01*
X137920000Y-82669067D01*
X137909003Y-82557414D01*
X137865546Y-82414153D01*
X137794974Y-82282123D01*
X137723799Y-82195397D01*
X137700001Y-82166399D01*
X137671004Y-82142602D01*
X132487404Y-76959003D01*
X132463601Y-76929999D01*
X132347876Y-76835026D01*
X132311672Y-76815674D01*
X132311672Y-76606400D01*
X132299412Y-76481918D01*
X132263102Y-76362220D01*
X132204137Y-76251906D01*
X132124785Y-76155215D01*
X132028094Y-76075863D01*
X131917780Y-76016898D01*
X131798082Y-75980588D01*
X131673600Y-75968328D01*
X129946400Y-75968328D01*
X129821918Y-75980588D01*
X129702220Y-76016898D01*
X129591906Y-76075863D01*
X129495215Y-76155215D01*
X129415863Y-76251906D01*
X129356898Y-76362220D01*
X129341414Y-76413265D01*
X129334797Y-76405203D01*
X129106606Y-76217931D01*
X128846264Y-76078775D01*
X128563777Y-75993084D01*
X128343619Y-75971400D01*
X128196381Y-75971400D01*
X127976223Y-75993084D01*
X127693736Y-76078775D01*
X127433394Y-76217931D01*
X127205203Y-76405203D01*
X127017931Y-76633394D01*
X127000000Y-76666940D01*
X126982069Y-76633394D01*
X126794797Y-76405203D01*
X126566606Y-76217931D01*
X126306264Y-76078775D01*
X126023777Y-75993084D01*
X125803619Y-75971400D01*
X125656381Y-75971400D01*
X125436223Y-75993084D01*
X125153736Y-76078775D01*
X124893394Y-76217931D01*
X124665203Y-76405203D01*
X124477931Y-76633394D01*
X124338775Y-76893736D01*
X124253084Y-77176223D01*
X124224149Y-77470000D01*
X124253084Y-77763777D01*
X124338775Y-78046264D01*
X124477931Y-78306606D01*
X124532712Y-78373356D01*
X122534004Y-80372065D01*
X122505000Y-80395868D01*
X122449872Y-80463043D01*
X122410027Y-80511593D01*
X122376777Y-80573799D01*
X122339455Y-80643623D01*
X122295998Y-80786884D01*
X122285001Y-80898537D01*
X122285001Y-80898547D01*
X122281325Y-80935869D01*
X122285001Y-80973191D01*
X122285001Y-84972938D01*
X122269039Y-84968096D01*
X122047000Y-85090085D01*
X122047000Y-86233000D01*
X122067000Y-86233000D01*
X122067000Y-86487000D01*
X122047000Y-86487000D01*
X122047000Y-87629915D01*
X122269039Y-87751904D01*
X122285002Y-87747062D01*
X122285002Y-91490196D01*
X121409002Y-92366196D01*
X121379999Y-92389999D01*
X121338987Y-92439973D01*
X121285026Y-92505724D01*
X121265674Y-92541928D01*
X121120000Y-92541928D01*
X120995518Y-92554188D01*
X120875820Y-92590498D01*
X120765506Y-92649463D01*
X120668815Y-92728815D01*
X120589463Y-92825506D01*
X120530498Y-92935820D01*
X120494188Y-93055518D01*
X120481928Y-93180000D01*
X120481928Y-93220000D01*
X119694802Y-93220000D01*
X119027099Y-92552297D01*
X119224637Y-92354759D01*
X119381680Y-92119727D01*
X119489853Y-91858574D01*
X119545000Y-91581335D01*
X119545000Y-91298665D01*
X119489853Y-91021426D01*
X119381680Y-90760273D01*
X119224637Y-90525241D01*
X119024759Y-90325363D01*
X118824131Y-90191308D01*
X118851514Y-90176671D01*
X118923097Y-89932702D01*
X118110000Y-89119605D01*
X117296903Y-89932702D01*
X117368486Y-90176671D01*
X117397341Y-90190324D01*
X117195241Y-90325363D01*
X116995363Y-90525241D01*
X116838320Y-90760273D01*
X116730147Y-91021426D01*
X116675000Y-91298665D01*
X116675000Y-91581335D01*
X116730147Y-91858574D01*
X116838320Y-92119727D01*
X116995363Y-92354759D01*
X117195241Y-92554637D01*
X117350001Y-92658044D01*
X117350001Y-92672668D01*
X117346324Y-92710000D01*
X117350001Y-92747333D01*
X117357701Y-92825506D01*
X117360998Y-92858985D01*
X117404454Y-93002246D01*
X117475026Y-93134276D01*
X117542361Y-93216323D01*
X117570000Y-93250001D01*
X117598998Y-93273799D01*
X118305198Y-93980000D01*
X117599003Y-94686196D01*
X117569999Y-94709999D01*
X117514871Y-94777174D01*
X117475026Y-94825724D01*
X117432929Y-94904482D01*
X117404454Y-94957754D01*
X117360997Y-95101015D01*
X117350000Y-95212668D01*
X117350000Y-95212678D01*
X117346324Y-95250000D01*
X117350000Y-95287323D01*
X117350001Y-97439099D01*
X117308899Y-97461068D01*
X117090392Y-97640393D01*
X116911068Y-97858900D01*
X116777818Y-98108193D01*
X116695764Y-98378692D01*
X116675000Y-98589509D01*
X116675000Y-99530492D01*
X116695764Y-99741309D01*
X116777818Y-100011808D01*
X116911068Y-100261101D01*
X117090393Y-100479608D01*
X117308900Y-100658932D01*
X117386039Y-100700164D01*
X116473997Y-101612206D01*
X116444999Y-101636004D01*
X116421201Y-101665002D01*
X116421200Y-101665003D01*
X116350025Y-101751729D01*
X116279453Y-101883759D01*
X116235997Y-102027020D01*
X116221323Y-102176005D01*
X113893612Y-102176005D01*
X113959530Y-101958703D01*
X113982500Y-101725485D01*
X113982500Y-101474514D01*
X113959530Y-101241296D01*
X113868755Y-100942051D01*
X113721345Y-100666265D01*
X113522963Y-100424537D01*
X113281234Y-100226155D01*
X113280000Y-100225495D01*
X113280000Y-89010512D01*
X116669783Y-89010512D01*
X116711213Y-89290130D01*
X116806397Y-89556292D01*
X116873329Y-89681514D01*
X117117298Y-89753097D01*
X117930395Y-88940000D01*
X118289605Y-88940000D01*
X119102702Y-89753097D01*
X119346671Y-89681514D01*
X119467571Y-89426004D01*
X119536300Y-89151816D01*
X119550217Y-88869488D01*
X119508787Y-88589870D01*
X119413603Y-88323708D01*
X119346671Y-88198486D01*
X119102702Y-88126903D01*
X118289605Y-88940000D01*
X117930395Y-88940000D01*
X117117298Y-88126903D01*
X116873329Y-88198486D01*
X116752429Y-88453996D01*
X116683700Y-88728184D01*
X116669783Y-89010512D01*
X113280000Y-89010512D01*
X113280000Y-87947298D01*
X117296903Y-87947298D01*
X118110000Y-88760395D01*
X118923097Y-87947298D01*
X118851514Y-87703329D01*
X118596004Y-87582429D01*
X118321816Y-87513700D01*
X118039488Y-87499783D01*
X117759870Y-87541213D01*
X117493708Y-87636397D01*
X117368486Y-87703329D01*
X117296903Y-87947298D01*
X113280000Y-87947298D01*
X113280000Y-86709040D01*
X120528091Y-86709040D01*
X120622930Y-86973881D01*
X120767615Y-87215131D01*
X120956586Y-87423519D01*
X121182580Y-87591037D01*
X121436913Y-87711246D01*
X121570961Y-87751904D01*
X121793000Y-87629915D01*
X121793000Y-86487000D01*
X120649376Y-86487000D01*
X120528091Y-86709040D01*
X113280000Y-86709040D01*
X113280000Y-86010960D01*
X120528091Y-86010960D01*
X120649376Y-86233000D01*
X121793000Y-86233000D01*
X121793000Y-85090085D01*
X121570961Y-84968096D01*
X121436913Y-85008754D01*
X121182580Y-85128963D01*
X120956586Y-85296481D01*
X120767615Y-85504869D01*
X120622930Y-85746119D01*
X120528091Y-86010960D01*
X113280000Y-86010960D01*
X113280000Y-80022323D01*
X113369196Y-80080738D01*
X113644227Y-80191696D01*
X113935620Y-80246866D01*
X114173000Y-80090586D01*
X114173000Y-78867000D01*
X114427000Y-78867000D01*
X114427000Y-80090586D01*
X114664380Y-80246866D01*
X114955773Y-80191696D01*
X115230804Y-80080738D01*
X115478903Y-79918256D01*
X115690536Y-79710494D01*
X115857571Y-79465437D01*
X115973588Y-79192502D01*
X115991302Y-79100031D01*
X115870246Y-78867000D01*
X114427000Y-78867000D01*
X114173000Y-78867000D01*
X114153000Y-78867000D01*
X114153000Y-78613000D01*
X114173000Y-78613000D01*
X114173000Y-78593000D01*
X114427000Y-78593000D01*
X114427000Y-78613000D01*
X115870246Y-78613000D01*
X115991302Y-78379969D01*
X115973588Y-78287498D01*
X115857571Y-78014563D01*
X115690536Y-77769506D01*
X115534686Y-77616507D01*
X115643387Y-77558405D01*
X115777962Y-77447962D01*
X115888405Y-77313387D01*
X115970472Y-77159851D01*
X116021008Y-76993255D01*
X116038072Y-76820001D01*
X116038072Y-75579999D01*
X116021008Y-75406745D01*
X115970472Y-75240149D01*
X115888405Y-75086613D01*
X115777962Y-74952038D01*
X115643387Y-74841595D01*
X115641169Y-74840409D01*
X115936579Y-74545000D01*
X134253422Y-74545000D01*
X137773470Y-78065049D01*
X137801183Y-78098817D01*
X137834951Y-78126530D01*
X137834953Y-78126532D01*
X137935941Y-78209411D01*
X138089686Y-78291589D01*
X138256510Y-78342195D01*
X138386523Y-78355000D01*
X138386531Y-78355000D01*
X138430000Y-78359281D01*
X138473469Y-78355000D01*
X139900718Y-78355000D01*
X139851423Y-78517501D01*
X139829509Y-78740000D01*
X139851423Y-78962499D01*
X139916324Y-79176447D01*
X140021716Y-79373623D01*
X140022846Y-79375000D01*
X140021716Y-79376377D01*
X139916324Y-79573553D01*
X139851423Y-79787501D01*
X139829509Y-80010000D01*
X139835399Y-80069800D01*
X139188998Y-80716201D01*
X139160000Y-80739999D01*
X139136203Y-80768996D01*
X139136201Y-80768998D01*
X139065026Y-80855724D01*
X138994454Y-80987754D01*
X138991099Y-80998815D01*
X138950998Y-81131014D01*
X138943630Y-81205820D01*
X138936324Y-81280000D01*
X138940001Y-81317332D01*
X138940000Y-86926289D01*
X138896063Y-86970226D01*
X138782795Y-87139744D01*
X138704774Y-87328102D01*
X138665000Y-87528061D01*
X138665000Y-87731939D01*
X138704774Y-87931898D01*
X138782795Y-88120256D01*
X138896063Y-88289774D01*
X139040226Y-88433937D01*
X139209744Y-88547205D01*
X139398102Y-88625226D01*
X139598061Y-88665000D01*
X139801939Y-88665000D01*
X140001898Y-88625226D01*
X140190256Y-88547205D01*
X140359774Y-88433937D01*
X140503937Y-88289774D01*
X140617205Y-88120256D01*
X140695226Y-87931898D01*
X140735000Y-87731939D01*
X140735000Y-87528061D01*
X140695226Y-87328102D01*
X140617205Y-87139744D01*
X140503937Y-86970226D01*
X140460000Y-86926289D01*
X140460000Y-86361958D01*
X140602663Y-86425272D01*
X140664190Y-86433964D01*
X140843000Y-86308163D01*
X140843000Y-85217000D01*
X140823000Y-85217000D01*
X140823000Y-84963000D01*
X140843000Y-84963000D01*
X140843000Y-84808021D01*
X141080000Y-84808021D01*
X141080000Y-85371978D01*
X141096785Y-85542399D01*
X141097000Y-85543108D01*
X141097000Y-86308163D01*
X141275810Y-86433964D01*
X141337337Y-86425272D01*
X141480000Y-86361957D01*
X141480001Y-88862668D01*
X141476324Y-88900000D01*
X141490998Y-89048985D01*
X141504561Y-89093698D01*
X141495147Y-89116426D01*
X141440000Y-89393665D01*
X141440000Y-89676335D01*
X141495147Y-89953574D01*
X141603320Y-90214727D01*
X141760363Y-90449759D01*
X141960241Y-90649637D01*
X142195273Y-90806680D01*
X142456426Y-90914853D01*
X142733665Y-90970000D01*
X143016335Y-90970000D01*
X143293574Y-90914853D01*
X143554727Y-90806680D01*
X143789759Y-90649637D01*
X143989637Y-90449759D01*
X144146680Y-90214727D01*
X144254853Y-89953574D01*
X144310000Y-89676335D01*
X144310000Y-89393665D01*
X144254853Y-89116426D01*
X144146680Y-88855273D01*
X143989637Y-88620241D01*
X143789759Y-88420363D01*
X143554727Y-88263320D01*
X143293574Y-88155147D01*
X143016335Y-88100000D01*
X143000000Y-88100000D01*
X143000000Y-86478072D01*
X144035000Y-86478072D01*
X144159482Y-86465812D01*
X144279180Y-86429502D01*
X144389494Y-86370537D01*
X144486185Y-86291185D01*
X144565537Y-86194494D01*
X144624502Y-86084180D01*
X144660812Y-85964482D01*
X144673072Y-85840000D01*
X144673072Y-84340000D01*
X144660812Y-84215518D01*
X144624502Y-84095820D01*
X144565537Y-83985506D01*
X144486185Y-83888815D01*
X144389494Y-83809463D01*
X144279180Y-83750498D01*
X144159482Y-83714188D01*
X144035000Y-83701928D01*
X142985000Y-83701928D01*
X142860518Y-83714188D01*
X142740820Y-83750498D01*
X142676098Y-83785093D01*
X142467400Y-83721785D01*
X142240000Y-83699388D01*
X142012601Y-83721785D01*
X141793941Y-83788115D01*
X141605331Y-83888929D01*
X141546882Y-83847725D01*
X141337337Y-83754728D01*
X141275810Y-83746036D01*
X141097000Y-83871837D01*
X141097000Y-84636891D01*
X141096785Y-84637600D01*
X141080000Y-84808021D01*
X140843000Y-84808021D01*
X140843000Y-83871837D01*
X140664190Y-83746036D01*
X140602663Y-83754728D01*
X140460000Y-83818042D01*
X140460000Y-81594801D01*
X140910200Y-81144601D01*
X140914248Y-81145000D01*
X141025752Y-81145000D01*
X141192499Y-81128577D01*
X141406447Y-81063676D01*
X141603623Y-80958284D01*
X141776449Y-80816449D01*
X141918284Y-80643623D01*
X142023676Y-80446447D01*
X142088577Y-80232499D01*
X142110491Y-80010000D01*
X142088577Y-79787501D01*
X142023676Y-79573553D01*
X141918284Y-79376377D01*
X141917154Y-79375000D01*
X141918284Y-79373623D01*
X142023676Y-79176447D01*
X142088577Y-78962499D01*
X142110491Y-78740000D01*
X142088577Y-78517501D01*
X142039282Y-78355000D01*
X144413422Y-78355000D01*
X146435000Y-80376579D01*
X146435000Y-80811928D01*
X146220000Y-80811928D01*
X146095518Y-80824188D01*
X145975820Y-80860498D01*
X145865506Y-80919463D01*
X145768815Y-80998815D01*
X145689463Y-81095506D01*
X145630498Y-81205820D01*
X145594188Y-81325518D01*
X145581928Y-81450000D01*
X145581928Y-83650000D01*
X145594188Y-83774482D01*
X145630498Y-83894180D01*
X145689463Y-84004494D01*
X145768815Y-84101185D01*
X145865506Y-84180537D01*
X145975820Y-84239502D01*
X146095518Y-84275812D01*
X146220000Y-84288072D01*
X148420000Y-84288072D01*
X148544482Y-84275812D01*
X148664180Y-84239502D01*
X148774494Y-84180537D01*
X148871185Y-84101185D01*
X148950537Y-84004494D01*
X149009502Y-83894180D01*
X149045812Y-83774482D01*
X149058072Y-83650000D01*
X149058072Y-81450000D01*
X149045812Y-81325518D01*
X149009502Y-81205820D01*
X148950537Y-81095506D01*
X148871185Y-80998815D01*
X148774494Y-80919463D01*
X148664180Y-80860498D01*
X148544482Y-80824188D01*
X148420000Y-80811928D01*
X148205000Y-80811928D01*
X148205000Y-80053465D01*
X148209281Y-80009999D01*
X148205000Y-79966533D01*
X148205000Y-79966523D01*
X148192195Y-79836510D01*
X148141589Y-79669687D01*
X148107745Y-79606369D01*
X148251682Y-79635000D01*
X148928318Y-79635000D01*
X149591952Y-79502994D01*
X150217082Y-79244057D01*
X150779685Y-78868138D01*
X151258138Y-78389685D01*
X151634057Y-77827082D01*
X151715000Y-77631668D01*
X151715001Y-134458334D01*
X151634057Y-134262918D01*
X151258138Y-133700315D01*
X150779685Y-133221862D01*
X150217082Y-132845943D01*
X149591952Y-132587006D01*
X148928318Y-132455000D01*
X148251682Y-132455000D01*
X147588048Y-132587006D01*
X146962918Y-132845943D01*
X146400315Y-133221862D01*
X145921862Y-133700315D01*
X145545943Y-134262918D01*
X145287006Y-134888048D01*
X145155000Y-135551682D01*
X145155000Y-136228318D01*
X145287006Y-136891952D01*
X145545943Y-137517082D01*
X145921862Y-138079685D01*
X146400315Y-138558138D01*
X146962918Y-138934057D01*
X147158332Y-139015000D01*
X106841668Y-139015000D01*
X107037082Y-138934057D01*
X107599685Y-138558138D01*
X108078138Y-138079685D01*
X108454057Y-137517082D01*
X108712994Y-136891952D01*
X108845000Y-136228318D01*
X108845000Y-135551682D01*
X108712994Y-134888048D01*
X108454057Y-134262918D01*
X108078138Y-133700315D01*
X107599685Y-133221862D01*
X107037082Y-132845943D01*
X106411952Y-132587006D01*
X105748318Y-132455000D01*
X105071682Y-132455000D01*
X104408048Y-132587006D01*
X103782918Y-132845943D01*
X103220315Y-133221862D01*
X102741862Y-133700315D01*
X102365943Y-134262918D01*
X102285000Y-134458332D01*
X102285000Y-125730000D01*
X109683057Y-125730000D01*
X109710764Y-126011309D01*
X109792818Y-126281808D01*
X109926068Y-126531101D01*
X110105392Y-126749608D01*
X110323899Y-126928932D01*
X110573192Y-127062182D01*
X110843691Y-127144236D01*
X111054508Y-127165000D01*
X111195492Y-127165000D01*
X111406309Y-127144236D01*
X111676808Y-127062182D01*
X111926101Y-126928932D01*
X112144608Y-126749608D01*
X112323932Y-126531101D01*
X112457182Y-126281808D01*
X112539236Y-126011309D01*
X112566943Y-125730000D01*
X112539236Y-125448691D01*
X112457182Y-125178192D01*
X112323932Y-124928899D01*
X112144608Y-124710392D01*
X111926101Y-124531068D01*
X111676808Y-124397818D01*
X111406309Y-124315764D01*
X111195492Y-124295000D01*
X111054508Y-124295000D01*
X110843691Y-124315764D01*
X110573192Y-124397818D01*
X110323899Y-124531068D01*
X110105392Y-124710392D01*
X109926068Y-124928899D01*
X109792818Y-125178192D01*
X109710764Y-125448691D01*
X109683057Y-125730000D01*
X102285000Y-125730000D01*
X102285000Y-121920000D01*
X109683057Y-121920000D01*
X109710764Y-122201309D01*
X109792818Y-122471808D01*
X109926068Y-122721101D01*
X110105392Y-122939608D01*
X110323899Y-123118932D01*
X110573192Y-123252182D01*
X110843691Y-123334236D01*
X111054508Y-123355000D01*
X111195492Y-123355000D01*
X111406309Y-123334236D01*
X111676808Y-123252182D01*
X111926101Y-123118932D01*
X112144608Y-122939608D01*
X112323932Y-122721101D01*
X112457182Y-122471808D01*
X112539236Y-122201309D01*
X112566943Y-121920000D01*
X112539236Y-121638691D01*
X112457182Y-121368192D01*
X112323932Y-121118899D01*
X112144608Y-120900392D01*
X111926101Y-120721068D01*
X111676808Y-120587818D01*
X111406309Y-120505764D01*
X111195492Y-120485000D01*
X111054508Y-120485000D01*
X110843691Y-120505764D01*
X110573192Y-120587818D01*
X110323899Y-120721068D01*
X110105392Y-120900392D01*
X109926068Y-121118899D01*
X109792818Y-121368192D01*
X109710764Y-121638691D01*
X109683057Y-121920000D01*
X102285000Y-121920000D01*
X102285000Y-116840000D01*
X109683057Y-116840000D01*
X109710764Y-117121309D01*
X109792818Y-117391808D01*
X109926068Y-117641101D01*
X110105392Y-117859608D01*
X110323899Y-118038932D01*
X110573192Y-118172182D01*
X110843691Y-118254236D01*
X111054508Y-118275000D01*
X111195492Y-118275000D01*
X111406309Y-118254236D01*
X111676808Y-118172182D01*
X111926101Y-118038932D01*
X112144608Y-117859608D01*
X112323932Y-117641101D01*
X112457182Y-117391808D01*
X112539236Y-117121309D01*
X112566943Y-116840000D01*
X112539236Y-116558691D01*
X112457182Y-116288192D01*
X112323932Y-116038899D01*
X112144608Y-115820392D01*
X111926101Y-115641068D01*
X111676808Y-115507818D01*
X111406309Y-115425764D01*
X111195492Y-115405000D01*
X111054508Y-115405000D01*
X110843691Y-115425764D01*
X110573192Y-115507818D01*
X110323899Y-115641068D01*
X110105392Y-115820392D01*
X109926068Y-116038899D01*
X109792818Y-116288192D01*
X109710764Y-116558691D01*
X109683057Y-116840000D01*
X102285000Y-116840000D01*
X102285000Y-113030000D01*
X109683057Y-113030000D01*
X109710764Y-113311309D01*
X109792818Y-113581808D01*
X109926068Y-113831101D01*
X110105392Y-114049608D01*
X110323899Y-114228932D01*
X110573192Y-114362182D01*
X110843691Y-114444236D01*
X111054508Y-114465000D01*
X111195492Y-114465000D01*
X111406309Y-114444236D01*
X111676808Y-114362182D01*
X111926101Y-114228932D01*
X112144608Y-114049608D01*
X112323932Y-113831101D01*
X112457182Y-113581808D01*
X112539236Y-113311309D01*
X112566943Y-113030000D01*
X112539236Y-112748691D01*
X112457182Y-112478192D01*
X112323932Y-112228899D01*
X112144608Y-112010392D01*
X111926101Y-111831068D01*
X111676808Y-111697818D01*
X111406309Y-111615764D01*
X111195492Y-111595000D01*
X111054508Y-111595000D01*
X110843691Y-111615764D01*
X110573192Y-111697818D01*
X110323899Y-111831068D01*
X110105392Y-112010392D01*
X109926068Y-112228899D01*
X109792818Y-112478192D01*
X109710764Y-112748691D01*
X109683057Y-113030000D01*
X102285000Y-113030000D01*
X102285000Y-105268665D01*
X104610000Y-105268665D01*
X104610000Y-105551335D01*
X104665147Y-105828574D01*
X104773320Y-106089727D01*
X104930363Y-106324759D01*
X105130241Y-106524637D01*
X105365273Y-106681680D01*
X105626426Y-106789853D01*
X105903665Y-106845000D01*
X106186335Y-106845000D01*
X106463574Y-106789853D01*
X106724727Y-106681680D01*
X106959759Y-106524637D01*
X107081694Y-106402702D01*
X107731903Y-106402702D01*
X107803486Y-106646671D01*
X108058996Y-106767571D01*
X108333184Y-106836300D01*
X108615512Y-106850217D01*
X108895130Y-106808787D01*
X109161292Y-106713603D01*
X109286514Y-106646671D01*
X109358097Y-106402702D01*
X110986903Y-106402702D01*
X111058486Y-106646671D01*
X111313996Y-106767571D01*
X111588184Y-106836300D01*
X111870512Y-106850217D01*
X112150130Y-106808787D01*
X112416292Y-106713603D01*
X112541514Y-106646671D01*
X112613097Y-106402702D01*
X111800000Y-105589605D01*
X110986903Y-106402702D01*
X109358097Y-106402702D01*
X108545000Y-105589605D01*
X107731903Y-106402702D01*
X107081694Y-106402702D01*
X107159637Y-106324759D01*
X107293692Y-106124131D01*
X107308329Y-106151514D01*
X107552298Y-106223097D01*
X108365395Y-105410000D01*
X108724605Y-105410000D01*
X109537702Y-106223097D01*
X109781671Y-106151514D01*
X109902571Y-105896004D01*
X109971300Y-105621816D01*
X109978265Y-105480512D01*
X110359783Y-105480512D01*
X110401213Y-105760130D01*
X110496397Y-106026292D01*
X110563329Y-106151514D01*
X110807298Y-106223097D01*
X111620395Y-105410000D01*
X110807298Y-104596903D01*
X110563329Y-104668486D01*
X110442429Y-104923996D01*
X110373700Y-105198184D01*
X110359783Y-105480512D01*
X109978265Y-105480512D01*
X109985217Y-105339488D01*
X109943787Y-105059870D01*
X109848603Y-104793708D01*
X109781671Y-104668486D01*
X109537702Y-104596903D01*
X108724605Y-105410000D01*
X108365395Y-105410000D01*
X108351253Y-105395858D01*
X108530858Y-105216253D01*
X108545000Y-105230395D01*
X109358097Y-104417298D01*
X109286514Y-104173329D01*
X109031004Y-104052429D01*
X108756816Y-103983700D01*
X108474488Y-103969783D01*
X108194870Y-104011213D01*
X108075000Y-104054081D01*
X108075000Y-103238072D01*
X108267500Y-103238072D01*
X108391982Y-103225812D01*
X108511680Y-103189502D01*
X108621994Y-103130537D01*
X108718685Y-103051185D01*
X108798037Y-102954494D01*
X108847059Y-102862781D01*
X108988077Y-102975969D01*
X109263906Y-103119571D01*
X109482020Y-103190563D01*
X109728000Y-103070594D01*
X109728000Y-101727000D01*
X109708000Y-101727000D01*
X109708000Y-101473000D01*
X109728000Y-101473000D01*
X109728000Y-100129406D01*
X109482020Y-100009437D01*
X109263906Y-100080429D01*
X108988077Y-100224031D01*
X108847059Y-100337219D01*
X108798037Y-100245506D01*
X108718685Y-100148815D01*
X108621994Y-100069463D01*
X108511680Y-100010498D01*
X108391982Y-99974188D01*
X108267500Y-99961928D01*
X106362500Y-99961928D01*
X106238018Y-99974188D01*
X106118320Y-100010498D01*
X106008006Y-100069463D01*
X105911315Y-100148815D01*
X105831963Y-100245506D01*
X105772998Y-100355820D01*
X105736688Y-100475518D01*
X105724428Y-100600000D01*
X105724428Y-102600000D01*
X105736688Y-102724482D01*
X105772998Y-102844180D01*
X105831963Y-102954494D01*
X105911315Y-103051185D01*
X106008006Y-103130537D01*
X106118320Y-103189502D01*
X106238018Y-103225812D01*
X106362500Y-103238072D01*
X106555001Y-103238072D01*
X106555001Y-103825197D01*
X106368886Y-104011312D01*
X106186335Y-103975000D01*
X105903665Y-103975000D01*
X105626426Y-104030147D01*
X105365273Y-104138320D01*
X105130241Y-104295363D01*
X104930363Y-104495241D01*
X104773320Y-104730273D01*
X104665147Y-104991426D01*
X104610000Y-105268665D01*
X102285000Y-105268665D01*
X102285000Y-77631668D01*
X102365943Y-77827082D01*
X102741862Y-78389685D01*
X103220315Y-78868138D01*
X103782918Y-79244057D01*
X104408048Y-79502994D01*
X105071682Y-79635000D01*
X105748318Y-79635000D01*
X106411952Y-79502994D01*
X107037082Y-79244057D01*
X107599685Y-78868138D01*
X108078138Y-78389685D01*
X108454057Y-77827082D01*
X108712994Y-77201952D01*
X108845000Y-76538318D01*
X108845000Y-75861682D01*
X108712994Y-75198048D01*
X108454057Y-74572918D01*
X108078138Y-74010315D01*
X107599685Y-73531862D01*
X107037082Y-73155943D01*
X106841668Y-73075000D01*
X114903421Y-73075000D01*
X113704951Y-74273471D01*
G36*
X125801068Y-87161101D02*
G01*
X125980392Y-87379608D01*
X126198899Y-87558932D01*
X126448192Y-87692182D01*
X126718691Y-87774236D01*
X126929508Y-87795000D01*
X127070492Y-87795000D01*
X127281309Y-87774236D01*
X127510001Y-87704864D01*
X127510001Y-92635136D01*
X127281309Y-92565764D01*
X127070492Y-92545000D01*
X126929508Y-92545000D01*
X126718691Y-92565764D01*
X126448192Y-92647818D01*
X126198899Y-92781068D01*
X125980392Y-92960392D01*
X125801068Y-93178899D01*
X125730000Y-93311858D01*
X125658932Y-93178899D01*
X125479608Y-92960392D01*
X125261101Y-92781068D01*
X125114515Y-92702716D01*
X125165546Y-92607245D01*
X125209003Y-92463984D01*
X125220000Y-92352331D01*
X125220000Y-92352322D01*
X125223676Y-92314999D01*
X125220000Y-92277676D01*
X125220000Y-87580901D01*
X125261101Y-87558932D01*
X125479608Y-87379608D01*
X125658932Y-87161101D01*
X125730000Y-87028142D01*
X125801068Y-87161101D01*
X125801068Y-87161101D01*
G37*
X125801068Y-87161101D02*
X125980392Y-87379608D01*
X126198899Y-87558932D01*
X126448192Y-87692182D01*
X126718691Y-87774236D01*
X126929508Y-87795000D01*
X127070492Y-87795000D01*
X127281309Y-87774236D01*
X127510001Y-87704864D01*
X127510001Y-92635136D01*
X127281309Y-92565764D01*
X127070492Y-92545000D01*
X126929508Y-92545000D01*
X126718691Y-92565764D01*
X126448192Y-92647818D01*
X126198899Y-92781068D01*
X125980392Y-92960392D01*
X125801068Y-93178899D01*
X125730000Y-93311858D01*
X125658932Y-93178899D01*
X125479608Y-92960392D01*
X125261101Y-92781068D01*
X125114515Y-92702716D01*
X125165546Y-92607245D01*
X125209003Y-92463984D01*
X125220000Y-92352331D01*
X125220000Y-92352322D01*
X125223676Y-92314999D01*
X125220000Y-92277676D01*
X125220000Y-87580901D01*
X125261101Y-87558932D01*
X125479608Y-87379608D01*
X125658932Y-87161101D01*
X125730000Y-87028142D01*
X125801068Y-87161101D01*
G36*
X125857000Y-79883000D02*
G01*
X125877000Y-79883000D01*
X125877000Y-80137000D01*
X125857000Y-80137000D01*
X125857000Y-81343817D01*
X126089026Y-81464958D01*
X126239814Y-81419222D01*
X126504944Y-81292684D01*
X126740293Y-81116854D01*
X126936817Y-80898488D01*
X126994137Y-80802090D01*
X127017931Y-80846606D01*
X127205203Y-81074797D01*
X127433394Y-81262069D01*
X127693736Y-81401225D01*
X127976223Y-81486916D01*
X128196381Y-81508600D01*
X128343619Y-81508600D01*
X128563777Y-81486916D01*
X128646900Y-81461701D01*
X132110198Y-84925000D01*
X132009508Y-84925000D01*
X131798691Y-84945764D01*
X131528192Y-85027818D01*
X131278899Y-85161068D01*
X131060392Y-85340392D01*
X130881068Y-85558899D01*
X130810000Y-85691858D01*
X130738932Y-85558899D01*
X130559608Y-85340392D01*
X130341101Y-85161068D01*
X130091808Y-85027818D01*
X129821309Y-84945764D01*
X129610492Y-84925000D01*
X129469508Y-84925000D01*
X129258691Y-84945764D01*
X129030000Y-85015136D01*
X129030000Y-83253711D01*
X129073937Y-83209774D01*
X129187205Y-83040256D01*
X129265226Y-82851898D01*
X129305000Y-82651939D01*
X129305000Y-82448061D01*
X129265226Y-82248102D01*
X129187205Y-82059744D01*
X129073937Y-81890226D01*
X128929774Y-81746063D01*
X128760256Y-81632795D01*
X128571898Y-81554774D01*
X128371939Y-81515000D01*
X128168061Y-81515000D01*
X127968102Y-81554774D01*
X127779744Y-81632795D01*
X127610226Y-81746063D01*
X127466063Y-81890226D01*
X127352795Y-82059744D01*
X127274774Y-82248102D01*
X127235000Y-82448061D01*
X127235000Y-82651939D01*
X127274774Y-82851898D01*
X127352795Y-83040256D01*
X127466063Y-83209774D01*
X127510000Y-83253711D01*
X127510000Y-85015136D01*
X127281309Y-84945764D01*
X127070492Y-84925000D01*
X126929508Y-84925000D01*
X126718691Y-84945764D01*
X126448192Y-85027818D01*
X126198899Y-85161068D01*
X125980392Y-85340392D01*
X125801068Y-85558899D01*
X125730000Y-85691858D01*
X125658932Y-85558899D01*
X125479608Y-85340392D01*
X125261101Y-85161068D01*
X125011808Y-85027818D01*
X124741309Y-84945764D01*
X124530492Y-84925000D01*
X124389508Y-84925000D01*
X124178691Y-84945764D01*
X123908192Y-85027818D01*
X123805001Y-85082975D01*
X123805001Y-81250670D01*
X124386705Y-80668966D01*
X124523183Y-80898488D01*
X124719707Y-81116854D01*
X124955056Y-81292684D01*
X125220186Y-81419222D01*
X125370974Y-81464958D01*
X125603000Y-81343817D01*
X125603000Y-80137000D01*
X125583000Y-80137000D01*
X125583000Y-79883000D01*
X125603000Y-79883000D01*
X125603000Y-79863000D01*
X125857000Y-79863000D01*
X125857000Y-79883000D01*
X125857000Y-79883000D01*
G37*
X125857000Y-79883000D02*
X125877000Y-79883000D01*
X125877000Y-80137000D01*
X125857000Y-80137000D01*
X125857000Y-81343817D01*
X126089026Y-81464958D01*
X126239814Y-81419222D01*
X126504944Y-81292684D01*
X126740293Y-81116854D01*
X126936817Y-80898488D01*
X126994137Y-80802090D01*
X127017931Y-80846606D01*
X127205203Y-81074797D01*
X127433394Y-81262069D01*
X127693736Y-81401225D01*
X127976223Y-81486916D01*
X128196381Y-81508600D01*
X128343619Y-81508600D01*
X128563777Y-81486916D01*
X128646900Y-81461701D01*
X132110198Y-84925000D01*
X132009508Y-84925000D01*
X131798691Y-84945764D01*
X131528192Y-85027818D01*
X131278899Y-85161068D01*
X131060392Y-85340392D01*
X130881068Y-85558899D01*
X130810000Y-85691858D01*
X130738932Y-85558899D01*
X130559608Y-85340392D01*
X130341101Y-85161068D01*
X130091808Y-85027818D01*
X129821309Y-84945764D01*
X129610492Y-84925000D01*
X129469508Y-84925000D01*
X129258691Y-84945764D01*
X129030000Y-85015136D01*
X129030000Y-83253711D01*
X129073937Y-83209774D01*
X129187205Y-83040256D01*
X129265226Y-82851898D01*
X129305000Y-82651939D01*
X129305000Y-82448061D01*
X129265226Y-82248102D01*
X129187205Y-82059744D01*
X129073937Y-81890226D01*
X128929774Y-81746063D01*
X128760256Y-81632795D01*
X128571898Y-81554774D01*
X128371939Y-81515000D01*
X128168061Y-81515000D01*
X127968102Y-81554774D01*
X127779744Y-81632795D01*
X127610226Y-81746063D01*
X127466063Y-81890226D01*
X127352795Y-82059744D01*
X127274774Y-82248102D01*
X127235000Y-82448061D01*
X127235000Y-82651939D01*
X127274774Y-82851898D01*
X127352795Y-83040256D01*
X127466063Y-83209774D01*
X127510000Y-83253711D01*
X127510000Y-85015136D01*
X127281309Y-84945764D01*
X127070492Y-84925000D01*
X126929508Y-84925000D01*
X126718691Y-84945764D01*
X126448192Y-85027818D01*
X126198899Y-85161068D01*
X125980392Y-85340392D01*
X125801068Y-85558899D01*
X125730000Y-85691858D01*
X125658932Y-85558899D01*
X125479608Y-85340392D01*
X125261101Y-85161068D01*
X125011808Y-85027818D01*
X124741309Y-84945764D01*
X124530492Y-84925000D01*
X124389508Y-84925000D01*
X124178691Y-84945764D01*
X123908192Y-85027818D01*
X123805001Y-85082975D01*
X123805001Y-81250670D01*
X124386705Y-80668966D01*
X124523183Y-80898488D01*
X124719707Y-81116854D01*
X124955056Y-81292684D01*
X125220186Y-81419222D01*
X125370974Y-81464958D01*
X125603000Y-81343817D01*
X125603000Y-80137000D01*
X125583000Y-80137000D01*
X125583000Y-79883000D01*
X125603000Y-79883000D01*
X125603000Y-79863000D01*
X125857000Y-79863000D01*
X125857000Y-79883000D01*
M02*
