G04 #@! TF.GenerationSoftware,KiCad,Pcbnew,5.1.2-f72e74a~84~ubuntu18.04.1*
G04 #@! TF.CreationDate,2019-06-13T20:11:50+02:00*
G04 #@! TF.ProjectId,cpu_luefter_ansteuerung,6370755f-6c75-4656-9674-65725f616e73,rev?*
G04 #@! TF.SameCoordinates,Original*
G04 #@! TF.FileFunction,Legend,Top*
G04 #@! TF.FilePolarity,Positive*
%FSLAX46Y46*%
G04 Gerber Fmt 4.6, Leading zero omitted, Abs format (unit mm)*
G04 Created by KiCad (PCBNEW 5.1.2-f72e74a~84~ubuntu18.04.1) date 2019-06-13 20:11:50*
%MOMM*%
%LPD*%
G04 APERTURE LIST*
%ADD10C,0.150000*%
%ADD11C,0.300000*%
%ADD12C,0.200000*%
%ADD13C,0.010000*%
%ADD14C,0.120000*%
G04 APERTURE END LIST*
D10*
X136511309Y-129502380D02*
X136511309Y-130216666D01*
X136463690Y-130359523D01*
X136368452Y-130454761D01*
X136225595Y-130502380D01*
X136130357Y-130502380D01*
X136892261Y-129502380D02*
X137511309Y-129502380D01*
X137177976Y-129883333D01*
X137320833Y-129883333D01*
X137416071Y-129930952D01*
X137463690Y-129978571D01*
X137511309Y-130073809D01*
X137511309Y-130311904D01*
X137463690Y-130407142D01*
X137416071Y-130454761D01*
X137320833Y-130502380D01*
X137035119Y-130502380D01*
X136939880Y-130454761D01*
X136892261Y-130407142D01*
X138701785Y-130502380D02*
X138701785Y-129502380D01*
X139082738Y-129502380D01*
X139177976Y-129550000D01*
X139225595Y-129597619D01*
X139273214Y-129692857D01*
X139273214Y-129835714D01*
X139225595Y-129930952D01*
X139177976Y-129978571D01*
X139082738Y-130026190D01*
X138701785Y-130026190D01*
X139701785Y-130502380D02*
X139701785Y-129835714D01*
X139701785Y-129502380D02*
X139654166Y-129550000D01*
X139701785Y-129597619D01*
X139749404Y-129550000D01*
X139701785Y-129502380D01*
X139701785Y-129597619D01*
X140177976Y-129835714D02*
X140177976Y-130502380D01*
X140177976Y-129930952D02*
X140225595Y-129883333D01*
X140320833Y-129835714D01*
X140463690Y-129835714D01*
X140558928Y-129883333D01*
X140606547Y-129978571D01*
X140606547Y-130502380D01*
X141225595Y-130502380D02*
X141130357Y-130454761D01*
X141082738Y-130407142D01*
X141035119Y-130311904D01*
X141035119Y-130026190D01*
X141082738Y-129930952D01*
X141130357Y-129883333D01*
X141225595Y-129835714D01*
X141368452Y-129835714D01*
X141463690Y-129883333D01*
X141511309Y-129930952D01*
X141558928Y-130026190D01*
X141558928Y-130311904D01*
X141511309Y-130407142D01*
X141463690Y-130454761D01*
X141368452Y-130502380D01*
X141225595Y-130502380D01*
X142416071Y-129835714D02*
X142416071Y-130502380D01*
X141987500Y-129835714D02*
X141987500Y-130359523D01*
X142035119Y-130454761D01*
X142130357Y-130502380D01*
X142273214Y-130502380D01*
X142368452Y-130454761D01*
X142416071Y-130407142D01*
X142749404Y-129835714D02*
X143130357Y-129835714D01*
X142892261Y-129502380D02*
X142892261Y-130359523D01*
X142939880Y-130454761D01*
X143035119Y-130502380D01*
X143130357Y-130502380D01*
X136749404Y-132152380D02*
X136177976Y-132152380D01*
X136463690Y-132152380D02*
X136463690Y-131152380D01*
X136368452Y-131295238D01*
X136273214Y-131390476D01*
X136177976Y-131438095D01*
X137939880Y-131771428D02*
X138701785Y-131771428D01*
X140463690Y-131200000D02*
X140368452Y-131152380D01*
X140225595Y-131152380D01*
X140082738Y-131200000D01*
X139987500Y-131295238D01*
X139939880Y-131390476D01*
X139892261Y-131580952D01*
X139892261Y-131723809D01*
X139939880Y-131914285D01*
X139987500Y-132009523D01*
X140082738Y-132104761D01*
X140225595Y-132152380D01*
X140320833Y-132152380D01*
X140463690Y-132104761D01*
X140511309Y-132057142D01*
X140511309Y-131723809D01*
X140320833Y-131723809D01*
X140939880Y-132152380D02*
X140939880Y-131152380D01*
X141511309Y-132152380D01*
X141511309Y-131152380D01*
X141987500Y-132152380D02*
X141987500Y-131152380D01*
X142225595Y-131152380D01*
X142368452Y-131200000D01*
X142463690Y-131295238D01*
X142511309Y-131390476D01*
X142558928Y-131580952D01*
X142558928Y-131723809D01*
X142511309Y-131914285D01*
X142463690Y-132009523D01*
X142368452Y-132104761D01*
X142225595Y-132152380D01*
X141987500Y-132152380D01*
X136177976Y-132897619D02*
X136225595Y-132850000D01*
X136320833Y-132802380D01*
X136558928Y-132802380D01*
X136654166Y-132850000D01*
X136701785Y-132897619D01*
X136749404Y-132992857D01*
X136749404Y-133088095D01*
X136701785Y-133230952D01*
X136130357Y-133802380D01*
X136749404Y-133802380D01*
X137939880Y-133421428D02*
X138701785Y-133421428D01*
X140463690Y-133802380D02*
X139892261Y-133802380D01*
X140177976Y-133802380D02*
X140177976Y-132802380D01*
X140082738Y-132945238D01*
X139987500Y-133040476D01*
X139892261Y-133088095D01*
X140844642Y-132897619D02*
X140892261Y-132850000D01*
X140987500Y-132802380D01*
X141225595Y-132802380D01*
X141320833Y-132850000D01*
X141368452Y-132897619D01*
X141416071Y-132992857D01*
X141416071Y-133088095D01*
X141368452Y-133230952D01*
X140797023Y-133802380D01*
X141416071Y-133802380D01*
X141701785Y-132802380D02*
X142035119Y-133802380D01*
X142368452Y-132802380D01*
X136130357Y-134452380D02*
X136749404Y-134452380D01*
X136416071Y-134833333D01*
X136558928Y-134833333D01*
X136654166Y-134880952D01*
X136701785Y-134928571D01*
X136749404Y-135023809D01*
X136749404Y-135261904D01*
X136701785Y-135357142D01*
X136654166Y-135404761D01*
X136558928Y-135452380D01*
X136273214Y-135452380D01*
X136177976Y-135404761D01*
X136130357Y-135357142D01*
X137939880Y-135071428D02*
X138701785Y-135071428D01*
X139939880Y-135452380D02*
X139939880Y-134452380D01*
X140511309Y-135452380D01*
X140511309Y-134452380D01*
X140987500Y-135357142D02*
X141035119Y-135404761D01*
X140987500Y-135452380D01*
X140939880Y-135404761D01*
X140987500Y-135357142D01*
X140987500Y-135452380D01*
X142035119Y-135357142D02*
X141987500Y-135404761D01*
X141844642Y-135452380D01*
X141749404Y-135452380D01*
X141606547Y-135404761D01*
X141511309Y-135309523D01*
X141463690Y-135214285D01*
X141416071Y-135023809D01*
X141416071Y-134880952D01*
X141463690Y-134690476D01*
X141511309Y-134595238D01*
X141606547Y-134500000D01*
X141749404Y-134452380D01*
X141844642Y-134452380D01*
X141987500Y-134500000D01*
X142035119Y-134547619D01*
X142463690Y-135357142D02*
X142511309Y-135404761D01*
X142463690Y-135452380D01*
X142416071Y-135404761D01*
X142463690Y-135357142D01*
X142463690Y-135452380D01*
X136654166Y-136435714D02*
X136654166Y-137102380D01*
X136416071Y-136054761D02*
X136177976Y-136769047D01*
X136797023Y-136769047D01*
X137939880Y-136721428D02*
X138701785Y-136721428D01*
X139939880Y-137102380D02*
X139939880Y-136102380D01*
X140320833Y-136102380D01*
X140416071Y-136150000D01*
X140463690Y-136197619D01*
X140511309Y-136292857D01*
X140511309Y-136435714D01*
X140463690Y-136530952D01*
X140416071Y-136578571D01*
X140320833Y-136626190D01*
X139939880Y-136626190D01*
X140844642Y-136102380D02*
X141082738Y-137102380D01*
X141273214Y-136388095D01*
X141463690Y-137102380D01*
X141701785Y-136102380D01*
X142082738Y-137102380D02*
X142082738Y-136102380D01*
X142416071Y-136816666D01*
X142749404Y-136102380D01*
X142749404Y-137102380D01*
D11*
X102826428Y-108336428D02*
X104326428Y-108336428D01*
X103755000Y-108336428D02*
X103826428Y-108479285D01*
X103826428Y-108765000D01*
X103755000Y-108907857D01*
X103683571Y-108979285D01*
X103540714Y-109050714D01*
X103112142Y-109050714D01*
X102969285Y-108979285D01*
X102897857Y-108907857D01*
X102826428Y-108765000D01*
X102826428Y-108479285D01*
X102897857Y-108336428D01*
X103826428Y-109550714D02*
X102826428Y-109907857D01*
X103826428Y-110265000D02*
X102826428Y-109907857D01*
X102469285Y-109765000D01*
X102397857Y-109693571D01*
X102326428Y-109550714D01*
X104326428Y-111765000D02*
X104326428Y-112622142D01*
X102826428Y-112193571D02*
X104326428Y-112193571D01*
X102826428Y-113122142D02*
X104326428Y-113122142D01*
X102826428Y-113765000D02*
X103612142Y-113765000D01*
X103755000Y-113693571D01*
X103826428Y-113550714D01*
X103826428Y-113336428D01*
X103755000Y-113193571D01*
X103683571Y-113122142D01*
X102826428Y-114693571D02*
X102897857Y-114550714D01*
X102969285Y-114479285D01*
X103112142Y-114407857D01*
X103540714Y-114407857D01*
X103683571Y-114479285D01*
X103755000Y-114550714D01*
X103826428Y-114693571D01*
X103826428Y-114907857D01*
X103755000Y-115050714D01*
X103683571Y-115122142D01*
X103540714Y-115193571D01*
X103112142Y-115193571D01*
X102969285Y-115122142D01*
X102897857Y-115050714D01*
X102826428Y-114907857D01*
X102826428Y-114693571D01*
X102826428Y-115836428D02*
X103826428Y-115836428D01*
X103540714Y-115836428D02*
X103683571Y-115907857D01*
X103755000Y-115979285D01*
X103826428Y-116122142D01*
X103826428Y-116265000D01*
X102897857Y-116693571D02*
X102826428Y-116836428D01*
X102826428Y-117122142D01*
X102897857Y-117265000D01*
X103040714Y-117336428D01*
X103112142Y-117336428D01*
X103255000Y-117265000D01*
X103326428Y-117122142D01*
X103326428Y-116907857D01*
X103397857Y-116765000D01*
X103540714Y-116693571D01*
X103612142Y-116693571D01*
X103755000Y-116765000D01*
X103826428Y-116907857D01*
X103826428Y-117122142D01*
X103755000Y-117265000D01*
X103826428Y-117765000D02*
X103826428Y-118336428D01*
X104326428Y-117979285D02*
X103040714Y-117979285D01*
X102897857Y-118050714D01*
X102826428Y-118193571D01*
X102826428Y-118336428D01*
X102897857Y-119407857D02*
X102826428Y-119265000D01*
X102826428Y-118979285D01*
X102897857Y-118836428D01*
X103040714Y-118765000D01*
X103612142Y-118765000D01*
X103755000Y-118836428D01*
X103826428Y-118979285D01*
X103826428Y-119265000D01*
X103755000Y-119407857D01*
X103612142Y-119479285D01*
X103469285Y-119479285D01*
X103326428Y-118765000D01*
X103826428Y-120122142D02*
X102826428Y-120122142D01*
X103683571Y-120122142D02*
X103755000Y-120193571D01*
X103826428Y-120336428D01*
X103826428Y-120550714D01*
X103755000Y-120693571D01*
X103612142Y-120765000D01*
X102826428Y-120765000D01*
X102826428Y-122622142D02*
X104326428Y-122622142D01*
X102826428Y-123479285D02*
X103683571Y-122836428D01*
X104326428Y-123479285D02*
X103469285Y-122622142D01*
X102826428Y-124765000D02*
X103612142Y-124765000D01*
X103755000Y-124693571D01*
X103826428Y-124550714D01*
X103826428Y-124265000D01*
X103755000Y-124122142D01*
X102897857Y-124765000D02*
X102826428Y-124622142D01*
X102826428Y-124265000D01*
X102897857Y-124122142D01*
X103040714Y-124050714D01*
X103183571Y-124050714D01*
X103326428Y-124122142D01*
X103397857Y-124265000D01*
X103397857Y-124622142D01*
X103469285Y-124765000D01*
X103826428Y-125265000D02*
X103826428Y-125836428D01*
X104326428Y-125479285D02*
X103040714Y-125479285D01*
X102897857Y-125550714D01*
X102826428Y-125693571D01*
X102826428Y-125836428D01*
X103826428Y-126122142D02*
X103826428Y-126693571D01*
X104326428Y-126336428D02*
X103040714Y-126336428D01*
X102897857Y-126407857D01*
X102826428Y-126550714D01*
X102826428Y-126693571D01*
X102826428Y-127836428D02*
X103612142Y-127836428D01*
X103755000Y-127765000D01*
X103826428Y-127622142D01*
X103826428Y-127336428D01*
X103755000Y-127193571D01*
X102897857Y-127836428D02*
X102826428Y-127693571D01*
X102826428Y-127336428D01*
X102897857Y-127193571D01*
X103040714Y-127122142D01*
X103183571Y-127122142D01*
X103326428Y-127193571D01*
X103397857Y-127336428D01*
X103397857Y-127693571D01*
X103469285Y-127836428D01*
X103826428Y-128550714D02*
X102826428Y-128550714D01*
X103683571Y-128550714D02*
X103755000Y-128622142D01*
X103826428Y-128765000D01*
X103826428Y-128979285D01*
X103755000Y-129122142D01*
X103612142Y-129193571D01*
X102826428Y-129193571D01*
X102897857Y-130479285D02*
X102826428Y-130336428D01*
X102826428Y-130050714D01*
X102897857Y-129907857D01*
X103040714Y-129836428D01*
X103612142Y-129836428D01*
X103755000Y-129907857D01*
X103826428Y-130050714D01*
X103826428Y-130336428D01*
X103755000Y-130479285D01*
X103612142Y-130550714D01*
X103469285Y-130550714D01*
X103326428Y-129836428D01*
X102826428Y-131193571D02*
X104326428Y-131193571D01*
X103397857Y-131336428D02*
X102826428Y-131765000D01*
X103826428Y-131765000D02*
X103255000Y-131193571D01*
X149816428Y-102919285D02*
X149816428Y-102205000D01*
X151316428Y-102205000D01*
X150816428Y-104062142D02*
X149816428Y-104062142D01*
X150816428Y-103419285D02*
X150030714Y-103419285D01*
X149887857Y-103490714D01*
X149816428Y-103633571D01*
X149816428Y-103847857D01*
X149887857Y-103990714D01*
X149959285Y-104062142D01*
X151316428Y-103490714D02*
X151245000Y-103562142D01*
X151173571Y-103490714D01*
X151245000Y-103419285D01*
X151316428Y-103490714D01*
X151173571Y-103490714D01*
X151316428Y-104062142D02*
X151245000Y-104133571D01*
X151173571Y-104062142D01*
X151245000Y-103990714D01*
X151316428Y-104062142D01*
X151173571Y-104062142D01*
X150816428Y-104562142D02*
X150816428Y-105133571D01*
X149816428Y-104776428D02*
X151102142Y-104776428D01*
X151245000Y-104847857D01*
X151316428Y-104990714D01*
X151316428Y-105133571D01*
X150816428Y-105419285D02*
X150816428Y-105990714D01*
X151316428Y-105633571D02*
X150030714Y-105633571D01*
X149887857Y-105705000D01*
X149816428Y-105847857D01*
X149816428Y-105990714D01*
X149887857Y-107062142D02*
X149816428Y-106919285D01*
X149816428Y-106633571D01*
X149887857Y-106490714D01*
X150030714Y-106419285D01*
X150602142Y-106419285D01*
X150745000Y-106490714D01*
X150816428Y-106633571D01*
X150816428Y-106919285D01*
X150745000Y-107062142D01*
X150602142Y-107133571D01*
X150459285Y-107133571D01*
X150316428Y-106419285D01*
X149816428Y-107776428D02*
X150816428Y-107776428D01*
X150530714Y-107776428D02*
X150673571Y-107847857D01*
X150745000Y-107919285D01*
X150816428Y-108062142D01*
X150816428Y-108205000D01*
X149887857Y-108633571D02*
X149816428Y-108776428D01*
X149816428Y-109062142D01*
X149887857Y-109205000D01*
X150030714Y-109276428D01*
X150102142Y-109276428D01*
X150245000Y-109205000D01*
X150316428Y-109062142D01*
X150316428Y-108847857D01*
X150387857Y-108705000D01*
X150530714Y-108633571D01*
X150602142Y-108633571D01*
X150745000Y-108705000D01*
X150816428Y-108847857D01*
X150816428Y-109062142D01*
X150745000Y-109205000D01*
X150816428Y-109705000D02*
X150816428Y-110276428D01*
X151316428Y-109919285D02*
X150030714Y-109919285D01*
X149887857Y-109990714D01*
X149816428Y-110133571D01*
X149816428Y-110276428D01*
X149887857Y-111347857D02*
X149816428Y-111205000D01*
X149816428Y-110919285D01*
X149887857Y-110776428D01*
X150030714Y-110705000D01*
X150602142Y-110705000D01*
X150745000Y-110776428D01*
X150816428Y-110919285D01*
X150816428Y-111205000D01*
X150745000Y-111347857D01*
X150602142Y-111419285D01*
X150459285Y-111419285D01*
X150316428Y-110705000D01*
X150816428Y-112705000D02*
X149816428Y-112705000D01*
X150816428Y-112062142D02*
X150030714Y-112062142D01*
X149887857Y-112133571D01*
X149816428Y-112276428D01*
X149816428Y-112490714D01*
X149887857Y-112633571D01*
X149959285Y-112705000D01*
X149887857Y-113990714D02*
X149816428Y-113847857D01*
X149816428Y-113562142D01*
X149887857Y-113419285D01*
X150030714Y-113347857D01*
X150602142Y-113347857D01*
X150745000Y-113419285D01*
X150816428Y-113562142D01*
X150816428Y-113847857D01*
X150745000Y-113990714D01*
X150602142Y-114062142D01*
X150459285Y-114062142D01*
X150316428Y-113347857D01*
X149816428Y-114705000D02*
X150816428Y-114705000D01*
X150530714Y-114705000D02*
X150673571Y-114776428D01*
X150745000Y-114847857D01*
X150816428Y-114990714D01*
X150816428Y-115133571D01*
X150816428Y-116276428D02*
X149816428Y-116276428D01*
X150816428Y-115633571D02*
X150030714Y-115633571D01*
X149887857Y-115705000D01*
X149816428Y-115847857D01*
X149816428Y-116062142D01*
X149887857Y-116205000D01*
X149959285Y-116276428D01*
X150816428Y-116990714D02*
X149816428Y-116990714D01*
X150673571Y-116990714D02*
X150745000Y-117062142D01*
X150816428Y-117205000D01*
X150816428Y-117419285D01*
X150745000Y-117562142D01*
X150602142Y-117633571D01*
X149816428Y-117633571D01*
X150816428Y-118990714D02*
X149602142Y-118990714D01*
X149459285Y-118919285D01*
X149387857Y-118847857D01*
X149316428Y-118705000D01*
X149316428Y-118490714D01*
X149387857Y-118347857D01*
X149887857Y-118990714D02*
X149816428Y-118847857D01*
X149816428Y-118562142D01*
X149887857Y-118419285D01*
X149959285Y-118347857D01*
X150102142Y-118276428D01*
X150530714Y-118276428D01*
X150673571Y-118347857D01*
X150745000Y-118419285D01*
X150816428Y-118562142D01*
X150816428Y-118847857D01*
X150745000Y-118990714D01*
X149816428Y-121705000D02*
X150530714Y-121205000D01*
X149816428Y-120847857D02*
X151316428Y-120847857D01*
X151316428Y-121419285D01*
X151245000Y-121562142D01*
X151173571Y-121633571D01*
X151030714Y-121705000D01*
X150816428Y-121705000D01*
X150673571Y-121633571D01*
X150602142Y-121562142D01*
X150530714Y-121419285D01*
X150530714Y-120847857D01*
X149887857Y-122919285D02*
X149816428Y-122776428D01*
X149816428Y-122490714D01*
X149887857Y-122347857D01*
X150030714Y-122276428D01*
X150602142Y-122276428D01*
X150745000Y-122347857D01*
X150816428Y-122490714D01*
X150816428Y-122776428D01*
X150745000Y-122919285D01*
X150602142Y-122990714D01*
X150459285Y-122990714D01*
X150316428Y-122276428D01*
X150816428Y-123490714D02*
X149816428Y-123847857D01*
X150816428Y-124205000D01*
X149959285Y-124776428D02*
X149887857Y-124847857D01*
X149816428Y-124776428D01*
X149887857Y-124705000D01*
X149959285Y-124776428D01*
X149816428Y-124776428D01*
X149959285Y-125490714D02*
X149887857Y-125562142D01*
X149816428Y-125490714D01*
X149887857Y-125419285D01*
X149959285Y-125490714D01*
X149816428Y-125490714D01*
X150745000Y-125490714D02*
X150673571Y-125562142D01*
X150602142Y-125490714D01*
X150673571Y-125419285D01*
X150745000Y-125490714D01*
X150602142Y-125490714D01*
X151173571Y-127276428D02*
X151245000Y-127347857D01*
X151316428Y-127490714D01*
X151316428Y-127847857D01*
X151245000Y-127990714D01*
X151173571Y-128062142D01*
X151030714Y-128133571D01*
X150887857Y-128133571D01*
X150673571Y-128062142D01*
X149816428Y-127204999D01*
X149816428Y-128133571D01*
X149959285Y-128776428D02*
X149887857Y-128847857D01*
X149816428Y-128776428D01*
X149887857Y-128705000D01*
X149959285Y-128776428D01*
X149816428Y-128776428D01*
X150816428Y-130133571D02*
X149816428Y-130133571D01*
X151387857Y-129776428D02*
X150316428Y-129419285D01*
X150316428Y-130347857D01*
D12*
X112185714Y-73745714D02*
X113100000Y-73745714D01*
X112642857Y-74202857D02*
X112642857Y-73288571D01*
X114300000Y-74202857D02*
X113614285Y-74202857D01*
X113957142Y-74202857D02*
X113957142Y-73002857D01*
X113842857Y-73174285D01*
X113728571Y-73288571D01*
X113614285Y-73345714D01*
X114757142Y-73117142D02*
X114814285Y-73060000D01*
X114928571Y-73002857D01*
X115214285Y-73002857D01*
X115328571Y-73060000D01*
X115385714Y-73117142D01*
X115442857Y-73231428D01*
X115442857Y-73345714D01*
X115385714Y-73517142D01*
X114700000Y-74202857D01*
X115442857Y-74202857D01*
X115785714Y-73002857D02*
X116185714Y-74202857D01*
X116585714Y-73002857D01*
D13*
G36*
X117799473Y-134732937D02*
G01*
X117797734Y-134761019D01*
X117796984Y-134768359D01*
X117783533Y-134849582D01*
X117762245Y-134928202D01*
X117733372Y-135003710D01*
X117697168Y-135075597D01*
X117653888Y-135143354D01*
X117603785Y-135206472D01*
X117552166Y-135259739D01*
X117509609Y-135297361D01*
X117467069Y-135329883D01*
X117422115Y-135358950D01*
X117372317Y-135386202D01*
X117345883Y-135399168D01*
X117287041Y-135424723D01*
X117229679Y-135444411D01*
X117171665Y-135458734D01*
X117110863Y-135468193D01*
X117045140Y-135473289D01*
X117027356Y-135473950D01*
X116950129Y-135476257D01*
X116924813Y-135423837D01*
X116893433Y-135351401D01*
X116868205Y-135276410D01*
X116848767Y-135197556D01*
X116834756Y-135113530D01*
X116831630Y-135087784D01*
X116829879Y-135065687D01*
X116828704Y-135037408D01*
X116828104Y-135005211D01*
X116828074Y-134971359D01*
X116828611Y-134938116D01*
X116829714Y-134907748D01*
X116831377Y-134882517D01*
X116831922Y-134876877D01*
X116845804Y-134784761D01*
X116867561Y-134695368D01*
X116896932Y-134609095D01*
X116933658Y-134526340D01*
X116977479Y-134447499D01*
X117028133Y-134372970D01*
X117085363Y-134303151D01*
X117148906Y-134238438D01*
X117218504Y-134179229D01*
X117293896Y-134125921D01*
X117342822Y-134096356D01*
X117361128Y-134086361D01*
X117381924Y-134075646D01*
X117403678Y-134064925D01*
X117424857Y-134054915D01*
X117443929Y-134046333D01*
X117459360Y-134039895D01*
X117469617Y-134036317D01*
X117472371Y-134035824D01*
X117478122Y-134038491D01*
X117488704Y-134045696D01*
X117502676Y-134056291D01*
X117518598Y-134069126D01*
X117535028Y-134083052D01*
X117550525Y-134096920D01*
X117558914Y-134104867D01*
X117613599Y-134163978D01*
X117662278Y-134228647D01*
X117704514Y-134298051D01*
X117739869Y-134371370D01*
X117767905Y-134447783D01*
X117788185Y-134526469D01*
X117790833Y-134540027D01*
X117794245Y-134564004D01*
X117796949Y-134594206D01*
X117798883Y-134628416D01*
X117799988Y-134664419D01*
X117800205Y-134699999D01*
X117799473Y-134732937D01*
X117799473Y-134732937D01*
G37*
X117799473Y-134732937D02*
X117797734Y-134761019D01*
X117796984Y-134768359D01*
X117783533Y-134849582D01*
X117762245Y-134928202D01*
X117733372Y-135003710D01*
X117697168Y-135075597D01*
X117653888Y-135143354D01*
X117603785Y-135206472D01*
X117552166Y-135259739D01*
X117509609Y-135297361D01*
X117467069Y-135329883D01*
X117422115Y-135358950D01*
X117372317Y-135386202D01*
X117345883Y-135399168D01*
X117287041Y-135424723D01*
X117229679Y-135444411D01*
X117171665Y-135458734D01*
X117110863Y-135468193D01*
X117045140Y-135473289D01*
X117027356Y-135473950D01*
X116950129Y-135476257D01*
X116924813Y-135423837D01*
X116893433Y-135351401D01*
X116868205Y-135276410D01*
X116848767Y-135197556D01*
X116834756Y-135113530D01*
X116831630Y-135087784D01*
X116829879Y-135065687D01*
X116828704Y-135037408D01*
X116828104Y-135005211D01*
X116828074Y-134971359D01*
X116828611Y-134938116D01*
X116829714Y-134907748D01*
X116831377Y-134882517D01*
X116831922Y-134876877D01*
X116845804Y-134784761D01*
X116867561Y-134695368D01*
X116896932Y-134609095D01*
X116933658Y-134526340D01*
X116977479Y-134447499D01*
X117028133Y-134372970D01*
X117085363Y-134303151D01*
X117148906Y-134238438D01*
X117218504Y-134179229D01*
X117293896Y-134125921D01*
X117342822Y-134096356D01*
X117361128Y-134086361D01*
X117381924Y-134075646D01*
X117403678Y-134064925D01*
X117424857Y-134054915D01*
X117443929Y-134046333D01*
X117459360Y-134039895D01*
X117469617Y-134036317D01*
X117472371Y-134035824D01*
X117478122Y-134038491D01*
X117488704Y-134045696D01*
X117502676Y-134056291D01*
X117518598Y-134069126D01*
X117535028Y-134083052D01*
X117550525Y-134096920D01*
X117558914Y-134104867D01*
X117613599Y-134163978D01*
X117662278Y-134228647D01*
X117704514Y-134298051D01*
X117739869Y-134371370D01*
X117767905Y-134447783D01*
X117788185Y-134526469D01*
X117790833Y-134540027D01*
X117794245Y-134564004D01*
X117796949Y-134594206D01*
X117798883Y-134628416D01*
X117799988Y-134664419D01*
X117800205Y-134699999D01*
X117799473Y-134732937D01*
G36*
X117798835Y-133347418D02*
G01*
X117795210Y-133386764D01*
X117789083Y-133425625D01*
X117780191Y-133466603D01*
X117777432Y-133477775D01*
X117754203Y-133552802D01*
X117723090Y-133625619D01*
X117684539Y-133695525D01*
X117638999Y-133761820D01*
X117586916Y-133823804D01*
X117528736Y-133880777D01*
X117509711Y-133897162D01*
X117474239Y-133926790D01*
X117429111Y-133906619D01*
X117348233Y-133866013D01*
X117271614Y-133818341D01*
X117198921Y-133763366D01*
X117129823Y-133700851D01*
X117105572Y-133676255D01*
X117044399Y-133606397D01*
X116990548Y-133532314D01*
X116944097Y-133454165D01*
X116905123Y-133372107D01*
X116873703Y-133286296D01*
X116849915Y-133196891D01*
X116837805Y-133131984D01*
X116835583Y-133113232D01*
X116833565Y-133087911D01*
X116831806Y-133057870D01*
X116830363Y-133024956D01*
X116829294Y-132991017D01*
X116828655Y-132957901D01*
X116828503Y-132927456D01*
X116828896Y-132901529D01*
X116829888Y-132881968D01*
X116830054Y-132880100D01*
X116841622Y-132796868D01*
X116860412Y-132712699D01*
X116885803Y-132629851D01*
X116917177Y-132550579D01*
X116925557Y-132532275D01*
X116935242Y-132511987D01*
X116942951Y-132498099D01*
X116950410Y-132489396D01*
X116959343Y-132484663D01*
X116971477Y-132482684D01*
X116988538Y-132482244D01*
X116996633Y-132482228D01*
X117078248Y-132486128D01*
X117157884Y-132497887D01*
X117235072Y-132517167D01*
X117309337Y-132543634D01*
X117380208Y-132576951D01*
X117447213Y-132616782D01*
X117509879Y-132662790D01*
X117567735Y-132714640D01*
X117620307Y-132771996D01*
X117667123Y-132834522D01*
X117707712Y-132901881D01*
X117741601Y-132973738D01*
X117760958Y-133026150D01*
X117774558Y-133070879D01*
X117784758Y-133112974D01*
X117792004Y-133155089D01*
X117796738Y-133199880D01*
X117799408Y-133250000D01*
X117799621Y-133256867D01*
X117800218Y-133304987D01*
X117798835Y-133347418D01*
X117798835Y-133347418D01*
G37*
X117798835Y-133347418D02*
X117795210Y-133386764D01*
X117789083Y-133425625D01*
X117780191Y-133466603D01*
X117777432Y-133477775D01*
X117754203Y-133552802D01*
X117723090Y-133625619D01*
X117684539Y-133695525D01*
X117638999Y-133761820D01*
X117586916Y-133823804D01*
X117528736Y-133880777D01*
X117509711Y-133897162D01*
X117474239Y-133926790D01*
X117429111Y-133906619D01*
X117348233Y-133866013D01*
X117271614Y-133818341D01*
X117198921Y-133763366D01*
X117129823Y-133700851D01*
X117105572Y-133676255D01*
X117044399Y-133606397D01*
X116990548Y-133532314D01*
X116944097Y-133454165D01*
X116905123Y-133372107D01*
X116873703Y-133286296D01*
X116849915Y-133196891D01*
X116837805Y-133131984D01*
X116835583Y-133113232D01*
X116833565Y-133087911D01*
X116831806Y-133057870D01*
X116830363Y-133024956D01*
X116829294Y-132991017D01*
X116828655Y-132957901D01*
X116828503Y-132927456D01*
X116828896Y-132901529D01*
X116829888Y-132881968D01*
X116830054Y-132880100D01*
X116841622Y-132796868D01*
X116860412Y-132712699D01*
X116885803Y-132629851D01*
X116917177Y-132550579D01*
X116925557Y-132532275D01*
X116935242Y-132511987D01*
X116942951Y-132498099D01*
X116950410Y-132489396D01*
X116959343Y-132484663D01*
X116971477Y-132482684D01*
X116988538Y-132482244D01*
X116996633Y-132482228D01*
X117078248Y-132486128D01*
X117157884Y-132497887D01*
X117235072Y-132517167D01*
X117309337Y-132543634D01*
X117380208Y-132576951D01*
X117447213Y-132616782D01*
X117509879Y-132662790D01*
X117567735Y-132714640D01*
X117620307Y-132771996D01*
X117667123Y-132834522D01*
X117707712Y-132901881D01*
X117741601Y-132973738D01*
X117760958Y-133026150D01*
X117774558Y-133070879D01*
X117784758Y-133112974D01*
X117792004Y-133155089D01*
X117796738Y-133199880D01*
X117799408Y-133250000D01*
X117799621Y-133256867D01*
X117800218Y-133304987D01*
X117798835Y-133347418D01*
G36*
X115684457Y-134420449D02*
G01*
X115676389Y-134437067D01*
X115663076Y-134451387D01*
X115647244Y-134460643D01*
X115643729Y-134461717D01*
X115626227Y-134462544D01*
X115607548Y-134457918D01*
X115593579Y-134450143D01*
X115582666Y-134438951D01*
X115570763Y-134422751D01*
X115559748Y-134404500D01*
X115551501Y-134387158D01*
X115549098Y-134380104D01*
X115547596Y-134371656D01*
X115545600Y-134355845D01*
X115543201Y-134333752D01*
X115540487Y-134306461D01*
X115537548Y-134275053D01*
X115534473Y-134240611D01*
X115531352Y-134204218D01*
X115528274Y-134166957D01*
X115525328Y-134129909D01*
X115522603Y-134094158D01*
X115520190Y-134060786D01*
X115518177Y-134030875D01*
X115516654Y-134005509D01*
X115515709Y-133985770D01*
X115515434Y-133972740D01*
X115515439Y-133972300D01*
X115515917Y-133959909D01*
X115517062Y-133940269D01*
X115518786Y-133914563D01*
X115521004Y-133883975D01*
X115523629Y-133849689D01*
X115526576Y-133812888D01*
X115529759Y-133774757D01*
X115530061Y-133771217D01*
X115533329Y-133734107D01*
X115536587Y-133699164D01*
X115539727Y-133667399D01*
X115542640Y-133639826D01*
X115545220Y-133617457D01*
X115547359Y-133601303D01*
X115548948Y-133592378D01*
X115549186Y-133591562D01*
X115555203Y-133577961D01*
X115564263Y-133561739D01*
X115574582Y-133545732D01*
X115584374Y-133532775D01*
X115589601Y-133527341D01*
X115606507Y-133517602D01*
X115625759Y-133513970D01*
X115645153Y-133516117D01*
X115662484Y-133523716D01*
X115675548Y-133536440D01*
X115677930Y-133540462D01*
X115682491Y-133553394D01*
X115684932Y-133568119D01*
X115684990Y-133569256D01*
X115684828Y-133578517D01*
X115683037Y-133587410D01*
X115678854Y-133598096D01*
X115671516Y-133612731D01*
X115665964Y-133623050D01*
X115663957Y-133628548D01*
X115661893Y-133638105D01*
X115659700Y-133652362D01*
X115657307Y-133671958D01*
X115654640Y-133697534D01*
X115651626Y-133729729D01*
X115648194Y-133769183D01*
X115644859Y-133809317D01*
X115630667Y-133982883D01*
X115645893Y-134164966D01*
X115649637Y-134209402D01*
X115652819Y-134246183D01*
X115655535Y-134276096D01*
X115657883Y-134299928D01*
X115659960Y-134318465D01*
X115661864Y-134332493D01*
X115663693Y-134342800D01*
X115665543Y-134350171D01*
X115667512Y-134355393D01*
X115669697Y-134359252D01*
X115670006Y-134359700D01*
X115682407Y-134382991D01*
X115686468Y-134405601D01*
X115684457Y-134420449D01*
X115684457Y-134420449D01*
G37*
X115684457Y-134420449D02*
X115676389Y-134437067D01*
X115663076Y-134451387D01*
X115647244Y-134460643D01*
X115643729Y-134461717D01*
X115626227Y-134462544D01*
X115607548Y-134457918D01*
X115593579Y-134450143D01*
X115582666Y-134438951D01*
X115570763Y-134422751D01*
X115559748Y-134404500D01*
X115551501Y-134387158D01*
X115549098Y-134380104D01*
X115547596Y-134371656D01*
X115545600Y-134355845D01*
X115543201Y-134333752D01*
X115540487Y-134306461D01*
X115537548Y-134275053D01*
X115534473Y-134240611D01*
X115531352Y-134204218D01*
X115528274Y-134166957D01*
X115525328Y-134129909D01*
X115522603Y-134094158D01*
X115520190Y-134060786D01*
X115518177Y-134030875D01*
X115516654Y-134005509D01*
X115515709Y-133985770D01*
X115515434Y-133972740D01*
X115515439Y-133972300D01*
X115515917Y-133959909D01*
X115517062Y-133940269D01*
X115518786Y-133914563D01*
X115521004Y-133883975D01*
X115523629Y-133849689D01*
X115526576Y-133812888D01*
X115529759Y-133774757D01*
X115530061Y-133771217D01*
X115533329Y-133734107D01*
X115536587Y-133699164D01*
X115539727Y-133667399D01*
X115542640Y-133639826D01*
X115545220Y-133617457D01*
X115547359Y-133601303D01*
X115548948Y-133592378D01*
X115549186Y-133591562D01*
X115555203Y-133577961D01*
X115564263Y-133561739D01*
X115574582Y-133545732D01*
X115584374Y-133532775D01*
X115589601Y-133527341D01*
X115606507Y-133517602D01*
X115625759Y-133513970D01*
X115645153Y-133516117D01*
X115662484Y-133523716D01*
X115675548Y-133536440D01*
X115677930Y-133540462D01*
X115682491Y-133553394D01*
X115684932Y-133568119D01*
X115684990Y-133569256D01*
X115684828Y-133578517D01*
X115683037Y-133587410D01*
X115678854Y-133598096D01*
X115671516Y-133612731D01*
X115665964Y-133623050D01*
X115663957Y-133628548D01*
X115661893Y-133638105D01*
X115659700Y-133652362D01*
X115657307Y-133671958D01*
X115654640Y-133697534D01*
X115651626Y-133729729D01*
X115648194Y-133769183D01*
X115644859Y-133809317D01*
X115630667Y-133982883D01*
X115645893Y-134164966D01*
X115649637Y-134209402D01*
X115652819Y-134246183D01*
X115655535Y-134276096D01*
X115657883Y-134299928D01*
X115659960Y-134318465D01*
X115661864Y-134332493D01*
X115663693Y-134342800D01*
X115665543Y-134350171D01*
X115667512Y-134355393D01*
X115669697Y-134359252D01*
X115670006Y-134359700D01*
X115682407Y-134382991D01*
X115686468Y-134405601D01*
X115684457Y-134420449D01*
G36*
X118724055Y-134079318D02*
G01*
X118723626Y-134084483D01*
X118709157Y-134205334D01*
X118686737Y-134324483D01*
X118656603Y-134441508D01*
X118618990Y-134555988D01*
X118574133Y-134667502D01*
X118522269Y-134775630D01*
X118463632Y-134879949D01*
X118398458Y-134980038D01*
X118326983Y-135075477D01*
X118249443Y-135165843D01*
X118166072Y-135250717D01*
X118077107Y-135329676D01*
X117989350Y-135397578D01*
X117897766Y-135459096D01*
X117804145Y-135512877D01*
X117708783Y-135558840D01*
X117611974Y-135596903D01*
X117514015Y-135626984D01*
X117415201Y-135649000D01*
X117315829Y-135662870D01*
X117216193Y-135668511D01*
X117116589Y-135665842D01*
X117047433Y-135659034D01*
X116948516Y-135642519D01*
X116848327Y-135618358D01*
X116748103Y-135586990D01*
X116649078Y-135548856D01*
X116552487Y-135504397D01*
X116459565Y-135454054D01*
X116440050Y-135442422D01*
X116411941Y-135425080D01*
X116385939Y-135408290D01*
X116361266Y-135391401D01*
X116337144Y-135373762D01*
X116312796Y-135354721D01*
X116287443Y-135333627D01*
X116260309Y-135309828D01*
X116230615Y-135282672D01*
X116197584Y-135251509D01*
X116160438Y-135215687D01*
X116118400Y-135174554D01*
X116107633Y-135163954D01*
X116079401Y-135136352D01*
X116051394Y-135109375D01*
X116024556Y-135083902D01*
X115999829Y-135060815D01*
X115978157Y-135040992D01*
X115960483Y-135025313D01*
X115947750Y-135014658D01*
X115946766Y-135013889D01*
X115868406Y-134957785D01*
X115783500Y-134905763D01*
X115707626Y-134865584D01*
X115662013Y-134843648D01*
X115617133Y-134823372D01*
X115571399Y-134804128D01*
X115523224Y-134785289D01*
X115471022Y-134766226D01*
X115413207Y-134746311D01*
X115371033Y-134732341D01*
X115323842Y-134716887D01*
X115283861Y-134703725D01*
X115250242Y-134692552D01*
X115222136Y-134683064D01*
X115198695Y-134674958D01*
X115179070Y-134667929D01*
X115162412Y-134661675D01*
X115147873Y-134655891D01*
X115134604Y-134650274D01*
X115121758Y-134644521D01*
X115109079Y-134638608D01*
X115037702Y-134600504D01*
X114972404Y-134556520D01*
X114913095Y-134506565D01*
X114859682Y-134450550D01*
X114812072Y-134388386D01*
X114770175Y-134319981D01*
X114757207Y-134295271D01*
X114742744Y-134263613D01*
X114728225Y-134226550D01*
X114714621Y-134186982D01*
X114702905Y-134147810D01*
X114694049Y-134111933D01*
X114691550Y-134099300D01*
X114687361Y-134069315D01*
X114684491Y-134034683D01*
X114682992Y-133997963D01*
X114682917Y-133961713D01*
X114684318Y-133928490D01*
X114687245Y-133900852D01*
X114687500Y-133899240D01*
X114704485Y-133820115D01*
X114728936Y-133744547D01*
X114760553Y-133672927D01*
X114799033Y-133605645D01*
X114844078Y-133543093D01*
X114895387Y-133485661D01*
X114952658Y-133433740D01*
X115015591Y-133387721D01*
X115083886Y-133347994D01*
X115127504Y-133327257D01*
X115145496Y-133319868D01*
X115169457Y-133310741D01*
X115197270Y-133300642D01*
X115226816Y-133290341D01*
X115255979Y-133280606D01*
X115257397Y-133280145D01*
X115323449Y-133258556D01*
X115382257Y-133238964D01*
X115434713Y-133221028D01*
X115481710Y-133204404D01*
X115524141Y-133188749D01*
X115562897Y-133173721D01*
X115598871Y-133158977D01*
X115632956Y-133144175D01*
X115666045Y-133128971D01*
X115699029Y-133113022D01*
X115720283Y-133102375D01*
X115761658Y-133080960D01*
X115799093Y-133060507D01*
X115833571Y-133040273D01*
X115866076Y-133019516D01*
X115897590Y-132997493D01*
X115929096Y-132973461D01*
X115961577Y-132946678D01*
X115996017Y-132916402D01*
X116033398Y-132881889D01*
X116074703Y-132842397D01*
X116109795Y-132808134D01*
X116153008Y-132765863D01*
X116191159Y-132729054D01*
X116225032Y-132697047D01*
X116255412Y-132669179D01*
X116283085Y-132644791D01*
X116308834Y-132623221D01*
X116333445Y-132603807D01*
X116357702Y-132585890D01*
X116382391Y-132568806D01*
X116408295Y-132551896D01*
X116430301Y-132538124D01*
X116524878Y-132484315D01*
X116623659Y-132436717D01*
X116725510Y-132395738D01*
X116829295Y-132361783D01*
X116933882Y-132335261D01*
X117038137Y-132316576D01*
X117053783Y-132314461D01*
X117082354Y-132311568D01*
X117116526Y-132309391D01*
X117154292Y-132307945D01*
X117193650Y-132307248D01*
X117203766Y-132307265D01*
X117203766Y-132425152D01*
X117162742Y-132425479D01*
X117123497Y-132426692D01*
X117088060Y-132428790D01*
X117058460Y-132431775D01*
X117051667Y-132432742D01*
X116947796Y-132452741D01*
X116844321Y-132480445D01*
X116742551Y-132515374D01*
X116643799Y-132557046D01*
X116549373Y-132604981D01*
X116493448Y-132637714D01*
X116468131Y-132653636D01*
X116444851Y-132668988D01*
X116422770Y-132684478D01*
X116401049Y-132700811D01*
X116378852Y-132718695D01*
X116355338Y-132738835D01*
X116329669Y-132761939D01*
X116301008Y-132788713D01*
X116268516Y-132819864D01*
X116231353Y-132856097D01*
X116213467Y-132873675D01*
X116177282Y-132909216D01*
X116146272Y-132939456D01*
X116119652Y-132965108D01*
X116096636Y-132986885D01*
X116076439Y-133005498D01*
X116058275Y-133021661D01*
X116041361Y-133036087D01*
X116024909Y-133049487D01*
X116008135Y-133062574D01*
X115991216Y-133075344D01*
X115941648Y-133110751D01*
X115890608Y-133144004D01*
X115837272Y-133175492D01*
X115780818Y-133205604D01*
X115720422Y-133234729D01*
X115655261Y-133263255D01*
X115584512Y-133291573D01*
X115507352Y-133320071D01*
X115422957Y-133349137D01*
X115386322Y-133361228D01*
X115337352Y-133377299D01*
X115295580Y-133391234D01*
X115260111Y-133403376D01*
X115230046Y-133414068D01*
X115204488Y-133423653D01*
X115182542Y-133432472D01*
X115163309Y-133440868D01*
X115145893Y-133449185D01*
X115129396Y-133457764D01*
X115119978Y-133462949D01*
X115074982Y-133490420D01*
X115034301Y-133520384D01*
X114995222Y-133554960D01*
X114971240Y-133578981D01*
X114924462Y-133633745D01*
X114884455Y-133693261D01*
X114851552Y-133756808D01*
X114826087Y-133823666D01*
X114808392Y-133893113D01*
X114800136Y-133949237D01*
X114798491Y-133969616D01*
X114798043Y-133988421D01*
X114798915Y-134007956D01*
X114801233Y-134030525D01*
X114805121Y-134058430D01*
X114806513Y-134067550D01*
X114821194Y-134135125D01*
X114843788Y-134200635D01*
X114873858Y-134263406D01*
X114910964Y-134322764D01*
X114954670Y-134378036D01*
X115004536Y-134428546D01*
X115060124Y-134473621D01*
X115079044Y-134486784D01*
X115095509Y-134497595D01*
X115111270Y-134507373D01*
X115127122Y-134516443D01*
X115143861Y-134525127D01*
X115162285Y-134533751D01*
X115183187Y-134542637D01*
X115207366Y-134552109D01*
X115235616Y-134562492D01*
X115268735Y-134574109D01*
X115307517Y-134587283D01*
X115352759Y-134602338D01*
X115405257Y-134619599D01*
X115407016Y-134620175D01*
X115496534Y-134650535D01*
X115578458Y-134680562D01*
X115653629Y-134710633D01*
X115722890Y-134741124D01*
X115787083Y-134772414D01*
X115847051Y-134804880D01*
X115903635Y-134838898D01*
X115922521Y-134851061D01*
X115948270Y-134868196D01*
X115972070Y-134884691D01*
X115994737Y-134901247D01*
X116017087Y-134918564D01*
X116039933Y-134937341D01*
X116064093Y-134958278D01*
X116090382Y-134982076D01*
X116119616Y-135009434D01*
X116152609Y-135041052D01*
X116190179Y-135077630D01*
X116215583Y-135102572D01*
X116242555Y-135129019D01*
X116268764Y-135154545D01*
X116293332Y-135178304D01*
X116315379Y-135199452D01*
X116334024Y-135217147D01*
X116348390Y-135230543D01*
X116357400Y-135238631D01*
X116418760Y-135286895D01*
X116487181Y-135332879D01*
X116561430Y-135376004D01*
X116640273Y-135415690D01*
X116722478Y-135451360D01*
X116806810Y-135482434D01*
X116892037Y-135508333D01*
X116973350Y-135527749D01*
X117069075Y-135543154D01*
X117165170Y-135550148D01*
X117261344Y-135548763D01*
X117357309Y-135539029D01*
X117452776Y-135520976D01*
X117547455Y-135494637D01*
X117641059Y-135460041D01*
X117651546Y-135455617D01*
X117739223Y-135413983D01*
X117826051Y-135364524D01*
X117911172Y-135307882D01*
X117993726Y-135244700D01*
X118072856Y-135175620D01*
X118147703Y-135101283D01*
X118194314Y-135049684D01*
X118256854Y-134973282D01*
X118313277Y-134895563D01*
X118364913Y-134814512D01*
X118413092Y-134728112D01*
X118435425Y-134684055D01*
X118483754Y-134577627D01*
X118524089Y-134470699D01*
X118556766Y-134362118D01*
X118582125Y-134250735D01*
X118600503Y-134135398D01*
X118603343Y-134112000D01*
X118609271Y-134029555D01*
X118608707Y-133942701D01*
X118601788Y-133852295D01*
X118588652Y-133759192D01*
X118569438Y-133664249D01*
X118544282Y-133568322D01*
X118513322Y-133472269D01*
X118490628Y-133411384D01*
X118478603Y-133382656D01*
X118463149Y-133348602D01*
X118445231Y-133311135D01*
X118425816Y-133272167D01*
X118405868Y-133233610D01*
X118386352Y-133197376D01*
X118368233Y-133165376D01*
X118357072Y-133146800D01*
X118290513Y-133047160D01*
X118218289Y-132953493D01*
X118140621Y-132866013D01*
X118057731Y-132784932D01*
X117969841Y-132710464D01*
X117877173Y-132642821D01*
X117779949Y-132582218D01*
X117754164Y-132567756D01*
X117688179Y-132534861D01*
X117616054Y-132504887D01*
X117539812Y-132478501D01*
X117461474Y-132456372D01*
X117383064Y-132439167D01*
X117345058Y-132432710D01*
X117317214Y-132429490D01*
X117283031Y-132427157D01*
X117244539Y-132425711D01*
X117203766Y-132425152D01*
X117203766Y-132307265D01*
X117232594Y-132307316D01*
X117269119Y-132308164D01*
X117301222Y-132309809D01*
X117326833Y-132312258D01*
X117405943Y-132324231D01*
X117478883Y-132338775D01*
X117547723Y-132356508D01*
X117614532Y-132378046D01*
X117681379Y-132404007D01*
X117750331Y-132435006D01*
X117769216Y-132444143D01*
X117865228Y-132495828D01*
X117958375Y-132555139D01*
X118048203Y-132621583D01*
X118134259Y-132694672D01*
X118216090Y-132773913D01*
X118293240Y-132858815D01*
X118365258Y-132948888D01*
X118431688Y-133043641D01*
X118492077Y-133142583D01*
X118545972Y-133245223D01*
X118581072Y-133322484D01*
X118619053Y-133419022D01*
X118651637Y-133516872D01*
X118678651Y-133615100D01*
X118699919Y-133712776D01*
X118715268Y-133808968D01*
X118724523Y-133902743D01*
X118727511Y-133993171D01*
X118724055Y-134079318D01*
X118724055Y-134079318D01*
G37*
X118724055Y-134079318D02*
X118723626Y-134084483D01*
X118709157Y-134205334D01*
X118686737Y-134324483D01*
X118656603Y-134441508D01*
X118618990Y-134555988D01*
X118574133Y-134667502D01*
X118522269Y-134775630D01*
X118463632Y-134879949D01*
X118398458Y-134980038D01*
X118326983Y-135075477D01*
X118249443Y-135165843D01*
X118166072Y-135250717D01*
X118077107Y-135329676D01*
X117989350Y-135397578D01*
X117897766Y-135459096D01*
X117804145Y-135512877D01*
X117708783Y-135558840D01*
X117611974Y-135596903D01*
X117514015Y-135626984D01*
X117415201Y-135649000D01*
X117315829Y-135662870D01*
X117216193Y-135668511D01*
X117116589Y-135665842D01*
X117047433Y-135659034D01*
X116948516Y-135642519D01*
X116848327Y-135618358D01*
X116748103Y-135586990D01*
X116649078Y-135548856D01*
X116552487Y-135504397D01*
X116459565Y-135454054D01*
X116440050Y-135442422D01*
X116411941Y-135425080D01*
X116385939Y-135408290D01*
X116361266Y-135391401D01*
X116337144Y-135373762D01*
X116312796Y-135354721D01*
X116287443Y-135333627D01*
X116260309Y-135309828D01*
X116230615Y-135282672D01*
X116197584Y-135251509D01*
X116160438Y-135215687D01*
X116118400Y-135174554D01*
X116107633Y-135163954D01*
X116079401Y-135136352D01*
X116051394Y-135109375D01*
X116024556Y-135083902D01*
X115999829Y-135060815D01*
X115978157Y-135040992D01*
X115960483Y-135025313D01*
X115947750Y-135014658D01*
X115946766Y-135013889D01*
X115868406Y-134957785D01*
X115783500Y-134905763D01*
X115707626Y-134865584D01*
X115662013Y-134843648D01*
X115617133Y-134823372D01*
X115571399Y-134804128D01*
X115523224Y-134785289D01*
X115471022Y-134766226D01*
X115413207Y-134746311D01*
X115371033Y-134732341D01*
X115323842Y-134716887D01*
X115283861Y-134703725D01*
X115250242Y-134692552D01*
X115222136Y-134683064D01*
X115198695Y-134674958D01*
X115179070Y-134667929D01*
X115162412Y-134661675D01*
X115147873Y-134655891D01*
X115134604Y-134650274D01*
X115121758Y-134644521D01*
X115109079Y-134638608D01*
X115037702Y-134600504D01*
X114972404Y-134556520D01*
X114913095Y-134506565D01*
X114859682Y-134450550D01*
X114812072Y-134388386D01*
X114770175Y-134319981D01*
X114757207Y-134295271D01*
X114742744Y-134263613D01*
X114728225Y-134226550D01*
X114714621Y-134186982D01*
X114702905Y-134147810D01*
X114694049Y-134111933D01*
X114691550Y-134099300D01*
X114687361Y-134069315D01*
X114684491Y-134034683D01*
X114682992Y-133997963D01*
X114682917Y-133961713D01*
X114684318Y-133928490D01*
X114687245Y-133900852D01*
X114687500Y-133899240D01*
X114704485Y-133820115D01*
X114728936Y-133744547D01*
X114760553Y-133672927D01*
X114799033Y-133605645D01*
X114844078Y-133543093D01*
X114895387Y-133485661D01*
X114952658Y-133433740D01*
X115015591Y-133387721D01*
X115083886Y-133347994D01*
X115127504Y-133327257D01*
X115145496Y-133319868D01*
X115169457Y-133310741D01*
X115197270Y-133300642D01*
X115226816Y-133290341D01*
X115255979Y-133280606D01*
X115257397Y-133280145D01*
X115323449Y-133258556D01*
X115382257Y-133238964D01*
X115434713Y-133221028D01*
X115481710Y-133204404D01*
X115524141Y-133188749D01*
X115562897Y-133173721D01*
X115598871Y-133158977D01*
X115632956Y-133144175D01*
X115666045Y-133128971D01*
X115699029Y-133113022D01*
X115720283Y-133102375D01*
X115761658Y-133080960D01*
X115799093Y-133060507D01*
X115833571Y-133040273D01*
X115866076Y-133019516D01*
X115897590Y-132997493D01*
X115929096Y-132973461D01*
X115961577Y-132946678D01*
X115996017Y-132916402D01*
X116033398Y-132881889D01*
X116074703Y-132842397D01*
X116109795Y-132808134D01*
X116153008Y-132765863D01*
X116191159Y-132729054D01*
X116225032Y-132697047D01*
X116255412Y-132669179D01*
X116283085Y-132644791D01*
X116308834Y-132623221D01*
X116333445Y-132603807D01*
X116357702Y-132585890D01*
X116382391Y-132568806D01*
X116408295Y-132551896D01*
X116430301Y-132538124D01*
X116524878Y-132484315D01*
X116623659Y-132436717D01*
X116725510Y-132395738D01*
X116829295Y-132361783D01*
X116933882Y-132335261D01*
X117038137Y-132316576D01*
X117053783Y-132314461D01*
X117082354Y-132311568D01*
X117116526Y-132309391D01*
X117154292Y-132307945D01*
X117193650Y-132307248D01*
X117203766Y-132307265D01*
X117203766Y-132425152D01*
X117162742Y-132425479D01*
X117123497Y-132426692D01*
X117088060Y-132428790D01*
X117058460Y-132431775D01*
X117051667Y-132432742D01*
X116947796Y-132452741D01*
X116844321Y-132480445D01*
X116742551Y-132515374D01*
X116643799Y-132557046D01*
X116549373Y-132604981D01*
X116493448Y-132637714D01*
X116468131Y-132653636D01*
X116444851Y-132668988D01*
X116422770Y-132684478D01*
X116401049Y-132700811D01*
X116378852Y-132718695D01*
X116355338Y-132738835D01*
X116329669Y-132761939D01*
X116301008Y-132788713D01*
X116268516Y-132819864D01*
X116231353Y-132856097D01*
X116213467Y-132873675D01*
X116177282Y-132909216D01*
X116146272Y-132939456D01*
X116119652Y-132965108D01*
X116096636Y-132986885D01*
X116076439Y-133005498D01*
X116058275Y-133021661D01*
X116041361Y-133036087D01*
X116024909Y-133049487D01*
X116008135Y-133062574D01*
X115991216Y-133075344D01*
X115941648Y-133110751D01*
X115890608Y-133144004D01*
X115837272Y-133175492D01*
X115780818Y-133205604D01*
X115720422Y-133234729D01*
X115655261Y-133263255D01*
X115584512Y-133291573D01*
X115507352Y-133320071D01*
X115422957Y-133349137D01*
X115386322Y-133361228D01*
X115337352Y-133377299D01*
X115295580Y-133391234D01*
X115260111Y-133403376D01*
X115230046Y-133414068D01*
X115204488Y-133423653D01*
X115182542Y-133432472D01*
X115163309Y-133440868D01*
X115145893Y-133449185D01*
X115129396Y-133457764D01*
X115119978Y-133462949D01*
X115074982Y-133490420D01*
X115034301Y-133520384D01*
X114995222Y-133554960D01*
X114971240Y-133578981D01*
X114924462Y-133633745D01*
X114884455Y-133693261D01*
X114851552Y-133756808D01*
X114826087Y-133823666D01*
X114808392Y-133893113D01*
X114800136Y-133949237D01*
X114798491Y-133969616D01*
X114798043Y-133988421D01*
X114798915Y-134007956D01*
X114801233Y-134030525D01*
X114805121Y-134058430D01*
X114806513Y-134067550D01*
X114821194Y-134135125D01*
X114843788Y-134200635D01*
X114873858Y-134263406D01*
X114910964Y-134322764D01*
X114954670Y-134378036D01*
X115004536Y-134428546D01*
X115060124Y-134473621D01*
X115079044Y-134486784D01*
X115095509Y-134497595D01*
X115111270Y-134507373D01*
X115127122Y-134516443D01*
X115143861Y-134525127D01*
X115162285Y-134533751D01*
X115183187Y-134542637D01*
X115207366Y-134552109D01*
X115235616Y-134562492D01*
X115268735Y-134574109D01*
X115307517Y-134587283D01*
X115352759Y-134602338D01*
X115405257Y-134619599D01*
X115407016Y-134620175D01*
X115496534Y-134650535D01*
X115578458Y-134680562D01*
X115653629Y-134710633D01*
X115722890Y-134741124D01*
X115787083Y-134772414D01*
X115847051Y-134804880D01*
X115903635Y-134838898D01*
X115922521Y-134851061D01*
X115948270Y-134868196D01*
X115972070Y-134884691D01*
X115994737Y-134901247D01*
X116017087Y-134918564D01*
X116039933Y-134937341D01*
X116064093Y-134958278D01*
X116090382Y-134982076D01*
X116119616Y-135009434D01*
X116152609Y-135041052D01*
X116190179Y-135077630D01*
X116215583Y-135102572D01*
X116242555Y-135129019D01*
X116268764Y-135154545D01*
X116293332Y-135178304D01*
X116315379Y-135199452D01*
X116334024Y-135217147D01*
X116348390Y-135230543D01*
X116357400Y-135238631D01*
X116418760Y-135286895D01*
X116487181Y-135332879D01*
X116561430Y-135376004D01*
X116640273Y-135415690D01*
X116722478Y-135451360D01*
X116806810Y-135482434D01*
X116892037Y-135508333D01*
X116973350Y-135527749D01*
X117069075Y-135543154D01*
X117165170Y-135550148D01*
X117261344Y-135548763D01*
X117357309Y-135539029D01*
X117452776Y-135520976D01*
X117547455Y-135494637D01*
X117641059Y-135460041D01*
X117651546Y-135455617D01*
X117739223Y-135413983D01*
X117826051Y-135364524D01*
X117911172Y-135307882D01*
X117993726Y-135244700D01*
X118072856Y-135175620D01*
X118147703Y-135101283D01*
X118194314Y-135049684D01*
X118256854Y-134973282D01*
X118313277Y-134895563D01*
X118364913Y-134814512D01*
X118413092Y-134728112D01*
X118435425Y-134684055D01*
X118483754Y-134577627D01*
X118524089Y-134470699D01*
X118556766Y-134362118D01*
X118582125Y-134250735D01*
X118600503Y-134135398D01*
X118603343Y-134112000D01*
X118609271Y-134029555D01*
X118608707Y-133942701D01*
X118601788Y-133852295D01*
X118588652Y-133759192D01*
X118569438Y-133664249D01*
X118544282Y-133568322D01*
X118513322Y-133472269D01*
X118490628Y-133411384D01*
X118478603Y-133382656D01*
X118463149Y-133348602D01*
X118445231Y-133311135D01*
X118425816Y-133272167D01*
X118405868Y-133233610D01*
X118386352Y-133197376D01*
X118368233Y-133165376D01*
X118357072Y-133146800D01*
X118290513Y-133047160D01*
X118218289Y-132953493D01*
X118140621Y-132866013D01*
X118057731Y-132784932D01*
X117969841Y-132710464D01*
X117877173Y-132642821D01*
X117779949Y-132582218D01*
X117754164Y-132567756D01*
X117688179Y-132534861D01*
X117616054Y-132504887D01*
X117539812Y-132478501D01*
X117461474Y-132456372D01*
X117383064Y-132439167D01*
X117345058Y-132432710D01*
X117317214Y-132429490D01*
X117283031Y-132427157D01*
X117244539Y-132425711D01*
X117203766Y-132425152D01*
X117203766Y-132307265D01*
X117232594Y-132307316D01*
X117269119Y-132308164D01*
X117301222Y-132309809D01*
X117326833Y-132312258D01*
X117405943Y-132324231D01*
X117478883Y-132338775D01*
X117547723Y-132356508D01*
X117614532Y-132378046D01*
X117681379Y-132404007D01*
X117750331Y-132435006D01*
X117769216Y-132444143D01*
X117865228Y-132495828D01*
X117958375Y-132555139D01*
X118048203Y-132621583D01*
X118134259Y-132694672D01*
X118216090Y-132773913D01*
X118293240Y-132858815D01*
X118365258Y-132948888D01*
X118431688Y-133043641D01*
X118492077Y-133142583D01*
X118545972Y-133245223D01*
X118581072Y-133322484D01*
X118619053Y-133419022D01*
X118651637Y-133516872D01*
X118678651Y-133615100D01*
X118699919Y-133712776D01*
X118715268Y-133808968D01*
X118724523Y-133902743D01*
X118727511Y-133993171D01*
X118724055Y-134079318D01*
G36*
X120393312Y-134496926D02*
G01*
X120390616Y-134498894D01*
X120387477Y-134500543D01*
X120383172Y-134501902D01*
X120376978Y-134502999D01*
X120368172Y-134503861D01*
X120356030Y-134504517D01*
X120339830Y-134504995D01*
X120318848Y-134505323D01*
X120292361Y-134505530D01*
X120259646Y-134505643D01*
X120219980Y-134505690D01*
X120172639Y-134505700D01*
X119953248Y-134505700D01*
X119939144Y-134580842D01*
X119925765Y-134646794D01*
X119909706Y-134716992D01*
X119891555Y-134789275D01*
X119871895Y-134861478D01*
X119851314Y-134931440D01*
X119830396Y-134996997D01*
X119812532Y-135048351D01*
X119796056Y-135093584D01*
X119974320Y-135196114D01*
X120010185Y-135216821D01*
X120044069Y-135236537D01*
X120075209Y-135254805D01*
X120102841Y-135271172D01*
X120126201Y-135285182D01*
X120144525Y-135296380D01*
X120157050Y-135304311D01*
X120163011Y-135308519D01*
X120163094Y-135308596D01*
X120166359Y-135311641D01*
X120169167Y-135314560D01*
X120171317Y-135317756D01*
X120172603Y-135321635D01*
X120172822Y-135326599D01*
X120171771Y-135333052D01*
X120169246Y-135341397D01*
X120165043Y-135352040D01*
X120158959Y-135365383D01*
X120150789Y-135381829D01*
X120140331Y-135401784D01*
X120127381Y-135425651D01*
X120111734Y-135453832D01*
X120093188Y-135486733D01*
X120071538Y-135524757D01*
X120046581Y-135568307D01*
X120018114Y-135617788D01*
X119985932Y-135673603D01*
X119949832Y-135736155D01*
X119930672Y-135769350D01*
X119898860Y-135824389D01*
X119868076Y-135877489D01*
X119838602Y-135928175D01*
X119810716Y-135975973D01*
X119784700Y-136020407D01*
X119760833Y-136061003D01*
X119739394Y-136097286D01*
X119720665Y-136128781D01*
X119704925Y-136155014D01*
X119692454Y-136175510D01*
X119683533Y-136189795D01*
X119678440Y-136197393D01*
X119677565Y-136198430D01*
X119666619Y-136205542D01*
X119654299Y-136206681D01*
X119651227Y-136206323D01*
X119644118Y-136203813D01*
X119630484Y-136197319D01*
X119610243Y-136186796D01*
X119583313Y-136172200D01*
X119549613Y-136153483D01*
X119509060Y-136130601D01*
X119461573Y-136103507D01*
X119407070Y-136072155D01*
X119345470Y-136036501D01*
X119292677Y-136005811D01*
X119275204Y-135995637D01*
X119227297Y-136051827D01*
X119207714Y-136074029D01*
X119182966Y-136100879D01*
X119154127Y-136131302D01*
X119122274Y-136164223D01*
X119088480Y-136198568D01*
X119053821Y-136233260D01*
X119019371Y-136267226D01*
X118986206Y-136299391D01*
X118955399Y-136328680D01*
X118928027Y-136354017D01*
X118905164Y-136374328D01*
X118902593Y-136376531D01*
X118846403Y-136424438D01*
X118856573Y-136441911D01*
X118894723Y-136507578D01*
X118928599Y-136566156D01*
X118958295Y-136617811D01*
X118983904Y-136662708D01*
X119005519Y-136701013D01*
X119023231Y-136732892D01*
X119037133Y-136758511D01*
X119047319Y-136778034D01*
X119053880Y-136791628D01*
X119056910Y-136799458D01*
X119057117Y-136800460D01*
X119056963Y-136813672D01*
X119051125Y-136824498D01*
X119049196Y-136826756D01*
X119044276Y-136830309D01*
X119032489Y-136837803D01*
X119014312Y-136848956D01*
X118990218Y-136863488D01*
X118960682Y-136881119D01*
X118926178Y-136901570D01*
X118887182Y-136924559D01*
X118844167Y-136949808D01*
X118797607Y-136977034D01*
X118747979Y-137005960D01*
X118695755Y-137036303D01*
X118641411Y-137067785D01*
X118620117Y-137080095D01*
X118554038Y-137118280D01*
X118494896Y-137152444D01*
X118442287Y-137182791D01*
X118395810Y-137209522D01*
X118355062Y-137232838D01*
X118319639Y-137252943D01*
X118289140Y-137270037D01*
X118263161Y-137284322D01*
X118241301Y-137296001D01*
X118223156Y-137305274D01*
X118208324Y-137312345D01*
X118196402Y-137317415D01*
X118186987Y-137320686D01*
X118179678Y-137322359D01*
X118174070Y-137322637D01*
X118169763Y-137321721D01*
X118166352Y-137319813D01*
X118163436Y-137317116D01*
X118160612Y-137313830D01*
X118158629Y-137311469D01*
X118154756Y-137305779D01*
X118147126Y-137293506D01*
X118136190Y-137275412D01*
X118122401Y-137252260D01*
X118106211Y-137224813D01*
X118088072Y-137193835D01*
X118068435Y-137160087D01*
X118047752Y-137124333D01*
X118047036Y-137123091D01*
X117944423Y-136945153D01*
X117905503Y-136959654D01*
X117856428Y-136976973D01*
X117800756Y-136994942D01*
X117740281Y-137013071D01*
X117676796Y-137030874D01*
X117612094Y-137047863D01*
X117547968Y-137063549D01*
X117486212Y-137077447D01*
X117431608Y-137088503D01*
X117356466Y-137102745D01*
X117356466Y-137536152D01*
X117345312Y-137544926D01*
X117343545Y-137546253D01*
X117341497Y-137547439D01*
X117338707Y-137548492D01*
X117334715Y-137549420D01*
X117329060Y-137550230D01*
X117321283Y-137550931D01*
X117310921Y-137551531D01*
X117297516Y-137552037D01*
X117280606Y-137552458D01*
X117259732Y-137552801D01*
X117234431Y-137553074D01*
X117204245Y-137553285D01*
X117168712Y-137553443D01*
X117127373Y-137553554D01*
X117079765Y-137553628D01*
X117025430Y-137553671D01*
X116963907Y-137553692D01*
X116894734Y-137553699D01*
X116835503Y-137553700D01*
X116336848Y-137553700D01*
X116328074Y-137542546D01*
X116326105Y-137539849D01*
X116324456Y-137536709D01*
X116323097Y-137532402D01*
X116322000Y-137526206D01*
X116321138Y-137517397D01*
X116320482Y-137505252D01*
X116320004Y-137489046D01*
X116319676Y-137468058D01*
X116319470Y-137441562D01*
X116319357Y-137408836D01*
X116319310Y-137369156D01*
X116319300Y-137321799D01*
X116319300Y-137102745D01*
X116244158Y-137088503D01*
X116177305Y-137074846D01*
X116106479Y-137058580D01*
X116033808Y-137040281D01*
X115961418Y-137020527D01*
X115891437Y-136999893D01*
X115825994Y-136978957D01*
X115776587Y-136961743D01*
X115731291Y-136945245D01*
X115628704Y-137123137D01*
X115607981Y-137158963D01*
X115588274Y-137192825D01*
X115570036Y-137223957D01*
X115553723Y-137251594D01*
X115539787Y-137274970D01*
X115528683Y-137293319D01*
X115520865Y-137305876D01*
X115516787Y-137311875D01*
X115516727Y-137311946D01*
X115513828Y-137315374D01*
X115511045Y-137318333D01*
X115507978Y-137320621D01*
X115504222Y-137322035D01*
X115499377Y-137322373D01*
X115493039Y-137321433D01*
X115484806Y-137319012D01*
X115474277Y-137314907D01*
X115461048Y-137308916D01*
X115444718Y-137300836D01*
X115424884Y-137290466D01*
X115401144Y-137277602D01*
X115373096Y-137262041D01*
X115340337Y-137243582D01*
X115302465Y-137222022D01*
X115259077Y-137197159D01*
X115209772Y-137168789D01*
X115154148Y-137136711D01*
X115091801Y-137100721D01*
X115055650Y-137079851D01*
X115000612Y-137048033D01*
X114947514Y-137017245D01*
X114896830Y-136987767D01*
X114849034Y-136959879D01*
X114804601Y-136933861D01*
X114764006Y-136909993D01*
X114727723Y-136888555D01*
X114696227Y-136869828D01*
X114669993Y-136854090D01*
X114649496Y-136841622D01*
X114635210Y-136832705D01*
X114627609Y-136827617D01*
X114626570Y-136826744D01*
X114619451Y-136815822D01*
X114618304Y-136803486D01*
X114618652Y-136800460D01*
X114621347Y-136792980D01*
X114628228Y-136778627D01*
X114639093Y-136757771D01*
X114653741Y-136730781D01*
X114671972Y-136698027D01*
X114693584Y-136659878D01*
X114718375Y-136616703D01*
X114724892Y-136605434D01*
X114829071Y-136425517D01*
X114815037Y-136412817D01*
X114807505Y-136406073D01*
X114794869Y-136394841D01*
X114778379Y-136380227D01*
X114759285Y-136363340D01*
X114738837Y-136345286D01*
X114737315Y-136343944D01*
X114708179Y-136317523D01*
X114674918Y-136286135D01*
X114638897Y-136251160D01*
X114601481Y-136213979D01*
X114564034Y-136175971D01*
X114527922Y-136138519D01*
X114494509Y-136103002D01*
X114465161Y-136070800D01*
X114448562Y-136051895D01*
X114400273Y-135995806D01*
X114382945Y-136005896D01*
X114315876Y-136044864D01*
X114255964Y-136079497D01*
X114203122Y-136109844D01*
X114157264Y-136135954D01*
X114118301Y-136157875D01*
X114086148Y-136175657D01*
X114060718Y-136189346D01*
X114041923Y-136198993D01*
X114029677Y-136204645D01*
X114024540Y-136206323D01*
X114011358Y-136206204D01*
X114000562Y-136200421D01*
X113998224Y-136198430D01*
X113994668Y-136193509D01*
X113987173Y-136181722D01*
X113976018Y-136163544D01*
X113961485Y-136139449D01*
X113943853Y-136109912D01*
X113923403Y-136075408D01*
X113900414Y-136036410D01*
X113875167Y-135993393D01*
X113847942Y-135946832D01*
X113819019Y-135897202D01*
X113788678Y-135844977D01*
X113757199Y-135790631D01*
X113744898Y-135769350D01*
X113706775Y-135703369D01*
X113672671Y-135644323D01*
X113642383Y-135591807D01*
X113615707Y-135545419D01*
X113592440Y-135504754D01*
X113572380Y-135469408D01*
X113555323Y-135438977D01*
X113541066Y-135413057D01*
X113529407Y-135391244D01*
X113520141Y-135373134D01*
X113513068Y-135358322D01*
X113507982Y-135346406D01*
X113504681Y-135336980D01*
X113502963Y-135329641D01*
X113502623Y-135323985D01*
X113503460Y-135319608D01*
X113505270Y-135316106D01*
X113507849Y-135313074D01*
X113510996Y-135310109D01*
X113513127Y-135308141D01*
X113518741Y-135304170D01*
X113530948Y-135296456D01*
X113548987Y-135285452D01*
X113572097Y-135271612D01*
X113599516Y-135255387D01*
X113630483Y-135237231D01*
X113664237Y-135217597D01*
X113700017Y-135196937D01*
X113701447Y-135196114D01*
X113879710Y-135093584D01*
X113863275Y-135048351D01*
X113840733Y-134982970D01*
X113818445Y-134911996D01*
X113796971Y-134837562D01*
X113776873Y-134761803D01*
X113758714Y-134686854D01*
X113743055Y-134614847D01*
X113730457Y-134547919D01*
X113728528Y-134536392D01*
X113723502Y-134505700D01*
X113288848Y-134505700D01*
X113280074Y-134494546D01*
X113278747Y-134492779D01*
X113277561Y-134490730D01*
X113276508Y-134487941D01*
X113275580Y-134483949D01*
X113274770Y-134478294D01*
X113274069Y-134470516D01*
X113273469Y-134460155D01*
X113272963Y-134446750D01*
X113272542Y-134429840D01*
X113272199Y-134408965D01*
X113271926Y-134383665D01*
X113271715Y-134353479D01*
X113271557Y-134317946D01*
X113271446Y-134276606D01*
X113271372Y-134228999D01*
X113271329Y-134174664D01*
X113271308Y-134113141D01*
X113271301Y-134043968D01*
X113271300Y-133984737D01*
X113271300Y-133486081D01*
X113282454Y-133477307D01*
X113285147Y-133475342D01*
X113288283Y-133473694D01*
X113292583Y-133472336D01*
X113298769Y-133471240D01*
X113307565Y-133470377D01*
X113319691Y-133469721D01*
X113335872Y-133469242D01*
X113356828Y-133468913D01*
X113383282Y-133468706D01*
X113415956Y-133468592D01*
X113455573Y-133468544D01*
X113502855Y-133468534D01*
X113723502Y-133468534D01*
X113728528Y-133437842D01*
X113740094Y-133374273D01*
X113754716Y-133305277D01*
X113771842Y-133232922D01*
X113790921Y-133159273D01*
X113811402Y-133086397D01*
X113832734Y-133016361D01*
X113854364Y-132951231D01*
X113869627Y-132909031D01*
X113880253Y-132880811D01*
X113702111Y-132778081D01*
X113666261Y-132757344D01*
X113632374Y-132737622D01*
X113601216Y-132719371D01*
X113573552Y-132703042D01*
X113550148Y-132689090D01*
X113531767Y-132677969D01*
X113519176Y-132670131D01*
X113513139Y-132666032D01*
X113513054Y-132665960D01*
X113509625Y-132663061D01*
X113506665Y-132660278D01*
X113504376Y-132657211D01*
X113502960Y-132653456D01*
X113502620Y-132648611D01*
X113503558Y-132642274D01*
X113505977Y-132634043D01*
X113510079Y-132623515D01*
X113516067Y-132610288D01*
X113524143Y-132593960D01*
X113534510Y-132574128D01*
X113547370Y-132550390D01*
X113562926Y-132522344D01*
X113581379Y-132489586D01*
X113602933Y-132451716D01*
X113627790Y-132408331D01*
X113656153Y-132359028D01*
X113688223Y-132303404D01*
X113724204Y-132241059D01*
X113745084Y-132204883D01*
X113776896Y-132149844D01*
X113807680Y-132096744D01*
X113837155Y-132046058D01*
X113865041Y-131998261D01*
X113891058Y-131953827D01*
X113914926Y-131913231D01*
X113936365Y-131876948D01*
X113955094Y-131845453D01*
X113970835Y-131819220D01*
X113983306Y-131798723D01*
X113992229Y-131784439D01*
X113997322Y-131776841D01*
X113998197Y-131775804D01*
X114009148Y-131768691D01*
X114021471Y-131767553D01*
X114024540Y-131767910D01*
X114031638Y-131770416D01*
X114045247Y-131776897D01*
X114065451Y-131787398D01*
X114092333Y-131801967D01*
X114125976Y-131820651D01*
X114166463Y-131843495D01*
X114213878Y-131870547D01*
X114268304Y-131901853D01*
X114329826Y-131937460D01*
X114383045Y-131968396D01*
X114400473Y-131978544D01*
X114452599Y-131918147D01*
X114475699Y-131892170D01*
X114503899Y-131861734D01*
X114536002Y-131828035D01*
X114570810Y-131792273D01*
X114607124Y-131755644D01*
X114643748Y-131719348D01*
X114679481Y-131684581D01*
X114713128Y-131652542D01*
X114743489Y-131624430D01*
X114768913Y-131601832D01*
X114829310Y-131549706D01*
X114819163Y-131532278D01*
X114780153Y-131465140D01*
X114745481Y-131405161D01*
X114715100Y-131352259D01*
X114688963Y-131306350D01*
X114667023Y-131267351D01*
X114649234Y-131235179D01*
X114635549Y-131209749D01*
X114625921Y-131190980D01*
X114620305Y-131178786D01*
X114618677Y-131173773D01*
X114618801Y-131160571D01*
X114624604Y-131149736D01*
X114626570Y-131147422D01*
X114631491Y-131143861D01*
X114643278Y-131136361D01*
X114661456Y-131125202D01*
X114685551Y-131110665D01*
X114715088Y-131093029D01*
X114749593Y-131072575D01*
X114788591Y-131049582D01*
X114831607Y-131024332D01*
X114878168Y-130997104D01*
X114927799Y-130968179D01*
X114980024Y-130937836D01*
X115034370Y-130906357D01*
X115055650Y-130894056D01*
X115121727Y-130855877D01*
X115180868Y-130821717D01*
X115233475Y-130791374D01*
X115279950Y-130764648D01*
X115320697Y-130741335D01*
X115356118Y-130721234D01*
X115386615Y-130704143D01*
X115412592Y-130689860D01*
X115434450Y-130678184D01*
X115452594Y-130668913D01*
X115467424Y-130661844D01*
X115479344Y-130656776D01*
X115488758Y-130653508D01*
X115496066Y-130651836D01*
X115501672Y-130651560D01*
X115505979Y-130652478D01*
X115509389Y-130654388D01*
X115512306Y-130657087D01*
X115515130Y-130660374D01*
X115517120Y-130662745D01*
X115520991Y-130668429D01*
X115528622Y-130680695D01*
X115539562Y-130698781D01*
X115553359Y-130721926D01*
X115569562Y-130749367D01*
X115587718Y-130780343D01*
X115607375Y-130814090D01*
X115628083Y-130849849D01*
X115628917Y-130851293D01*
X115731751Y-131029421D01*
X115757767Y-131019669D01*
X115821928Y-130996904D01*
X115892392Y-130974203D01*
X115967011Y-130952153D01*
X116043638Y-130931342D01*
X116120124Y-130912358D01*
X116194322Y-130895786D01*
X116252907Y-130884236D01*
X116274307Y-130880357D01*
X116292777Y-130877102D01*
X116306695Y-130874750D01*
X116314436Y-130873580D01*
X116315348Y-130873500D01*
X116316227Y-130869350D01*
X116317014Y-130857235D01*
X116317700Y-130837655D01*
X116318276Y-130811110D01*
X116318733Y-130778101D01*
X116319061Y-130739129D01*
X116319252Y-130694694D01*
X116319300Y-130655791D01*
X116319300Y-130438081D01*
X116330454Y-130429307D01*
X116332221Y-130427980D01*
X116334270Y-130426794D01*
X116337059Y-130425741D01*
X116341051Y-130424814D01*
X116346706Y-130424003D01*
X116354484Y-130423302D01*
X116364845Y-130422703D01*
X116378250Y-130422196D01*
X116395160Y-130421776D01*
X116416035Y-130421433D01*
X116441335Y-130421160D01*
X116471521Y-130420948D01*
X116507054Y-130420791D01*
X116548394Y-130420679D01*
X116596001Y-130420606D01*
X116650336Y-130420562D01*
X116711859Y-130420541D01*
X116781032Y-130420534D01*
X116786577Y-130420534D01*
X116786577Y-131513290D01*
X116644201Y-131520255D01*
X116502299Y-131535367D01*
X116361322Y-131558663D01*
X116285433Y-131574727D01*
X116146578Y-131610742D01*
X116010453Y-131654683D01*
X115877381Y-131706358D01*
X115747685Y-131765577D01*
X115621688Y-131832147D01*
X115499711Y-131905878D01*
X115382079Y-131986579D01*
X115269114Y-132074057D01*
X115161138Y-132168123D01*
X115058475Y-132268584D01*
X114990071Y-132342467D01*
X114895860Y-132454680D01*
X114809093Y-132570901D01*
X114729820Y-132691008D01*
X114658094Y-132814882D01*
X114593966Y-132942403D01*
X114537486Y-133073450D01*
X114488707Y-133207902D01*
X114447679Y-133345640D01*
X114414454Y-133486542D01*
X114389084Y-133630490D01*
X114371618Y-133777361D01*
X114369938Y-133796588D01*
X114367525Y-133833122D01*
X114365762Y-133876104D01*
X114364648Y-133923544D01*
X114364186Y-133973447D01*
X114364374Y-134023822D01*
X114365214Y-134072676D01*
X114366707Y-134118016D01*
X114368852Y-134157850D01*
X114369831Y-134171041D01*
X114385909Y-134318718D01*
X114409859Y-134463386D01*
X114441627Y-134604925D01*
X114481157Y-134743212D01*
X114528394Y-134878126D01*
X114583283Y-135009544D01*
X114645769Y-135137346D01*
X114715796Y-135261409D01*
X114793308Y-135381612D01*
X114878251Y-135497833D01*
X114970570Y-135609951D01*
X115070209Y-135717843D01*
X115074413Y-135722137D01*
X115178457Y-135822210D01*
X115287451Y-135915516D01*
X115401094Y-136001927D01*
X115519083Y-136081317D01*
X115641118Y-136153561D01*
X115766895Y-136218531D01*
X115896116Y-136276101D01*
X116028476Y-136326145D01*
X116163676Y-136368536D01*
X116301412Y-136403147D01*
X116441385Y-136429853D01*
X116583292Y-136448527D01*
X116726832Y-136459042D01*
X116837883Y-136461500D01*
X116981693Y-136457363D01*
X117124501Y-136445021D01*
X117265911Y-136424578D01*
X117405525Y-136396141D01*
X117542947Y-136359812D01*
X117677781Y-136315698D01*
X117809629Y-136263902D01*
X117938096Y-136204529D01*
X118061316Y-136138528D01*
X118185297Y-136062573D01*
X118303872Y-135980284D01*
X118416853Y-135891924D01*
X118524054Y-135797758D01*
X118625288Y-135698051D01*
X118720367Y-135593068D01*
X118809104Y-135483072D01*
X118891313Y-135368330D01*
X118966807Y-135249105D01*
X119035397Y-135125662D01*
X119096897Y-134998266D01*
X119151121Y-134867181D01*
X119197880Y-134732672D01*
X119236988Y-134595003D01*
X119268257Y-134454440D01*
X119274067Y-134423150D01*
X119294889Y-134283367D01*
X119307642Y-134142192D01*
X119312358Y-134000284D01*
X119309071Y-133858304D01*
X119297813Y-133716911D01*
X119278617Y-133576767D01*
X119251517Y-133438532D01*
X119218539Y-133309784D01*
X119174797Y-133172301D01*
X119123497Y-133038390D01*
X119064869Y-132908309D01*
X118999148Y-132782315D01*
X118926563Y-132660665D01*
X118847348Y-132543618D01*
X118761735Y-132431431D01*
X118669956Y-132324361D01*
X118572242Y-132222666D01*
X118468826Y-132126603D01*
X118359941Y-132036430D01*
X118245817Y-131952405D01*
X118126688Y-131874785D01*
X118002785Y-131803828D01*
X117874340Y-131739791D01*
X117758633Y-131689729D01*
X117625555Y-131640642D01*
X117489797Y-131599457D01*
X117351809Y-131566209D01*
X117212043Y-131540933D01*
X117070948Y-131523664D01*
X116928976Y-131514438D01*
X116786577Y-131513290D01*
X116786577Y-130420534D01*
X117338919Y-130420534D01*
X117347693Y-130431688D01*
X117349657Y-130434379D01*
X117351304Y-130437511D01*
X117352661Y-130441807D01*
X117353757Y-130447988D01*
X117354619Y-130456775D01*
X117355276Y-130468890D01*
X117355756Y-130485055D01*
X117356085Y-130505991D01*
X117356293Y-130532420D01*
X117356407Y-130565063D01*
X117356456Y-130604641D01*
X117356466Y-130651878D01*
X117356467Y-130658171D01*
X117356543Y-130706297D01*
X117356765Y-130749361D01*
X117357124Y-130786862D01*
X117357611Y-130818293D01*
X117358216Y-130843151D01*
X117358930Y-130860931D01*
X117359744Y-130871130D01*
X117360418Y-130873500D01*
X117365817Y-130874229D01*
X117377917Y-130876230D01*
X117395094Y-130879224D01*
X117415726Y-130882932D01*
X117422860Y-130884236D01*
X117493592Y-130898362D01*
X117568402Y-130915396D01*
X117645140Y-130934750D01*
X117721656Y-130955835D01*
X117795801Y-130978064D01*
X117865425Y-131000848D01*
X117918086Y-131019702D01*
X117944189Y-131029486D01*
X118046919Y-130851345D01*
X118067656Y-130815494D01*
X118087378Y-130781608D01*
X118105629Y-130750450D01*
X118121958Y-130722786D01*
X118135910Y-130699381D01*
X118147031Y-130681001D01*
X118154869Y-130668410D01*
X118158968Y-130662373D01*
X118159040Y-130662288D01*
X118161943Y-130658853D01*
X118164727Y-130655886D01*
X118167793Y-130653589D01*
X118171544Y-130652165D01*
X118176382Y-130651816D01*
X118182710Y-130652745D01*
X118190930Y-130655153D01*
X118201444Y-130659244D01*
X118214655Y-130665219D01*
X118230965Y-130673282D01*
X118250777Y-130683634D01*
X118274493Y-130696478D01*
X118302515Y-130712017D01*
X118335246Y-130730453D01*
X118373087Y-130751987D01*
X118416442Y-130776824D01*
X118465713Y-130805164D01*
X118521302Y-130837212D01*
X118583612Y-130873168D01*
X118620117Y-130894235D01*
X118675157Y-130926045D01*
X118728258Y-130956828D01*
X118778945Y-130986302D01*
X118826743Y-131014188D01*
X118871177Y-131040206D01*
X118911774Y-131064076D01*
X118948057Y-131085518D01*
X118979552Y-131104251D01*
X119005785Y-131119996D01*
X119026280Y-131132472D01*
X119040563Y-131141400D01*
X119048160Y-131146498D01*
X119049196Y-131147376D01*
X119056314Y-131158390D01*
X119057441Y-131170767D01*
X119057090Y-131173773D01*
X119054584Y-131180872D01*
X119048103Y-131194481D01*
X119037602Y-131214685D01*
X119023033Y-131241567D01*
X119004349Y-131275209D01*
X118981505Y-131315697D01*
X118954453Y-131363112D01*
X118923147Y-131417538D01*
X118887540Y-131479059D01*
X118856604Y-131532278D01*
X118846456Y-131549706D01*
X118906853Y-131601832D01*
X118932830Y-131624932D01*
X118963266Y-131653133D01*
X118996965Y-131685236D01*
X119032727Y-131720044D01*
X119069356Y-131756358D01*
X119105652Y-131792981D01*
X119140419Y-131828715D01*
X119172458Y-131862362D01*
X119200570Y-131892723D01*
X119223168Y-131918147D01*
X119275294Y-131978544D01*
X119292722Y-131968396D01*
X119359860Y-131929387D01*
X119419839Y-131894715D01*
X119472741Y-131864334D01*
X119518650Y-131838196D01*
X119557649Y-131816256D01*
X119589821Y-131798467D01*
X119615251Y-131784782D01*
X119634020Y-131775155D01*
X119646214Y-131769539D01*
X119651227Y-131767910D01*
X119664449Y-131768040D01*
X119675325Y-131773863D01*
X119677614Y-131775804D01*
X119681179Y-131780725D01*
X119688683Y-131792513D01*
X119699844Y-131810692D01*
X119714382Y-131834789D01*
X119732019Y-131864328D01*
X119752472Y-131898835D01*
X119775463Y-131937836D01*
X119800710Y-131980856D01*
X119827935Y-132027419D01*
X119856855Y-132077053D01*
X119887192Y-132129281D01*
X119918665Y-132183630D01*
X119930947Y-132204883D01*
X119969118Y-132270966D01*
X120003270Y-132330111D01*
X120033606Y-132382722D01*
X120060327Y-132429201D01*
X120083635Y-132469952D01*
X120103731Y-132505375D01*
X120120818Y-132535875D01*
X120135097Y-132561854D01*
X120146771Y-132583714D01*
X120156041Y-132601859D01*
X120163108Y-132616691D01*
X120168175Y-132628612D01*
X120171443Y-132638026D01*
X120173115Y-132645334D01*
X120173392Y-132650941D01*
X120172476Y-132655248D01*
X120170568Y-132658657D01*
X120167871Y-132661573D01*
X120164586Y-132664397D01*
X120162236Y-132666371D01*
X120156547Y-132670243D01*
X120144274Y-132677873D01*
X120126180Y-132688808D01*
X120103026Y-132702598D01*
X120075576Y-132718790D01*
X120044591Y-132736933D01*
X120010834Y-132756576D01*
X119975067Y-132777266D01*
X119973655Y-132778081D01*
X119795514Y-132880811D01*
X119806169Y-132909031D01*
X119827335Y-132968307D01*
X119848638Y-133033998D01*
X119869538Y-133104079D01*
X119889496Y-133176526D01*
X119907971Y-133249314D01*
X119924423Y-133320417D01*
X119938312Y-133387813D01*
X119947238Y-133437842D01*
X119952265Y-133468534D01*
X120386919Y-133468534D01*
X120395693Y-133479688D01*
X120397020Y-133481455D01*
X120398206Y-133483503D01*
X120399259Y-133486293D01*
X120400186Y-133490285D01*
X120400997Y-133495940D01*
X120401698Y-133503717D01*
X120402297Y-133514079D01*
X120402804Y-133527484D01*
X120403224Y-133544394D01*
X120403567Y-133565268D01*
X120403840Y-133590569D01*
X120404052Y-133620755D01*
X120404209Y-133656288D01*
X120404321Y-133697627D01*
X120404394Y-133745235D01*
X120404438Y-133799570D01*
X120404459Y-133861093D01*
X120404466Y-133930266D01*
X120404466Y-134488152D01*
X120393312Y-134496926D01*
X120393312Y-134496926D01*
G37*
X120393312Y-134496926D02*
X120390616Y-134498894D01*
X120387477Y-134500543D01*
X120383172Y-134501902D01*
X120376978Y-134502999D01*
X120368172Y-134503861D01*
X120356030Y-134504517D01*
X120339830Y-134504995D01*
X120318848Y-134505323D01*
X120292361Y-134505530D01*
X120259646Y-134505643D01*
X120219980Y-134505690D01*
X120172639Y-134505700D01*
X119953248Y-134505700D01*
X119939144Y-134580842D01*
X119925765Y-134646794D01*
X119909706Y-134716992D01*
X119891555Y-134789275D01*
X119871895Y-134861478D01*
X119851314Y-134931440D01*
X119830396Y-134996997D01*
X119812532Y-135048351D01*
X119796056Y-135093584D01*
X119974320Y-135196114D01*
X120010185Y-135216821D01*
X120044069Y-135236537D01*
X120075209Y-135254805D01*
X120102841Y-135271172D01*
X120126201Y-135285182D01*
X120144525Y-135296380D01*
X120157050Y-135304311D01*
X120163011Y-135308519D01*
X120163094Y-135308596D01*
X120166359Y-135311641D01*
X120169167Y-135314560D01*
X120171317Y-135317756D01*
X120172603Y-135321635D01*
X120172822Y-135326599D01*
X120171771Y-135333052D01*
X120169246Y-135341397D01*
X120165043Y-135352040D01*
X120158959Y-135365383D01*
X120150789Y-135381829D01*
X120140331Y-135401784D01*
X120127381Y-135425651D01*
X120111734Y-135453832D01*
X120093188Y-135486733D01*
X120071538Y-135524757D01*
X120046581Y-135568307D01*
X120018114Y-135617788D01*
X119985932Y-135673603D01*
X119949832Y-135736155D01*
X119930672Y-135769350D01*
X119898860Y-135824389D01*
X119868076Y-135877489D01*
X119838602Y-135928175D01*
X119810716Y-135975973D01*
X119784700Y-136020407D01*
X119760833Y-136061003D01*
X119739394Y-136097286D01*
X119720665Y-136128781D01*
X119704925Y-136155014D01*
X119692454Y-136175510D01*
X119683533Y-136189795D01*
X119678440Y-136197393D01*
X119677565Y-136198430D01*
X119666619Y-136205542D01*
X119654299Y-136206681D01*
X119651227Y-136206323D01*
X119644118Y-136203813D01*
X119630484Y-136197319D01*
X119610243Y-136186796D01*
X119583313Y-136172200D01*
X119549613Y-136153483D01*
X119509060Y-136130601D01*
X119461573Y-136103507D01*
X119407070Y-136072155D01*
X119345470Y-136036501D01*
X119292677Y-136005811D01*
X119275204Y-135995637D01*
X119227297Y-136051827D01*
X119207714Y-136074029D01*
X119182966Y-136100879D01*
X119154127Y-136131302D01*
X119122274Y-136164223D01*
X119088480Y-136198568D01*
X119053821Y-136233260D01*
X119019371Y-136267226D01*
X118986206Y-136299391D01*
X118955399Y-136328680D01*
X118928027Y-136354017D01*
X118905164Y-136374328D01*
X118902593Y-136376531D01*
X118846403Y-136424438D01*
X118856573Y-136441911D01*
X118894723Y-136507578D01*
X118928599Y-136566156D01*
X118958295Y-136617811D01*
X118983904Y-136662708D01*
X119005519Y-136701013D01*
X119023231Y-136732892D01*
X119037133Y-136758511D01*
X119047319Y-136778034D01*
X119053880Y-136791628D01*
X119056910Y-136799458D01*
X119057117Y-136800460D01*
X119056963Y-136813672D01*
X119051125Y-136824498D01*
X119049196Y-136826756D01*
X119044276Y-136830309D01*
X119032489Y-136837803D01*
X119014312Y-136848956D01*
X118990218Y-136863488D01*
X118960682Y-136881119D01*
X118926178Y-136901570D01*
X118887182Y-136924559D01*
X118844167Y-136949808D01*
X118797607Y-136977034D01*
X118747979Y-137005960D01*
X118695755Y-137036303D01*
X118641411Y-137067785D01*
X118620117Y-137080095D01*
X118554038Y-137118280D01*
X118494896Y-137152444D01*
X118442287Y-137182791D01*
X118395810Y-137209522D01*
X118355062Y-137232838D01*
X118319639Y-137252943D01*
X118289140Y-137270037D01*
X118263161Y-137284322D01*
X118241301Y-137296001D01*
X118223156Y-137305274D01*
X118208324Y-137312345D01*
X118196402Y-137317415D01*
X118186987Y-137320686D01*
X118179678Y-137322359D01*
X118174070Y-137322637D01*
X118169763Y-137321721D01*
X118166352Y-137319813D01*
X118163436Y-137317116D01*
X118160612Y-137313830D01*
X118158629Y-137311469D01*
X118154756Y-137305779D01*
X118147126Y-137293506D01*
X118136190Y-137275412D01*
X118122401Y-137252260D01*
X118106211Y-137224813D01*
X118088072Y-137193835D01*
X118068435Y-137160087D01*
X118047752Y-137124333D01*
X118047036Y-137123091D01*
X117944423Y-136945153D01*
X117905503Y-136959654D01*
X117856428Y-136976973D01*
X117800756Y-136994942D01*
X117740281Y-137013071D01*
X117676796Y-137030874D01*
X117612094Y-137047863D01*
X117547968Y-137063549D01*
X117486212Y-137077447D01*
X117431608Y-137088503D01*
X117356466Y-137102745D01*
X117356466Y-137536152D01*
X117345312Y-137544926D01*
X117343545Y-137546253D01*
X117341497Y-137547439D01*
X117338707Y-137548492D01*
X117334715Y-137549420D01*
X117329060Y-137550230D01*
X117321283Y-137550931D01*
X117310921Y-137551531D01*
X117297516Y-137552037D01*
X117280606Y-137552458D01*
X117259732Y-137552801D01*
X117234431Y-137553074D01*
X117204245Y-137553285D01*
X117168712Y-137553443D01*
X117127373Y-137553554D01*
X117079765Y-137553628D01*
X117025430Y-137553671D01*
X116963907Y-137553692D01*
X116894734Y-137553699D01*
X116835503Y-137553700D01*
X116336848Y-137553700D01*
X116328074Y-137542546D01*
X116326105Y-137539849D01*
X116324456Y-137536709D01*
X116323097Y-137532402D01*
X116322000Y-137526206D01*
X116321138Y-137517397D01*
X116320482Y-137505252D01*
X116320004Y-137489046D01*
X116319676Y-137468058D01*
X116319470Y-137441562D01*
X116319357Y-137408836D01*
X116319310Y-137369156D01*
X116319300Y-137321799D01*
X116319300Y-137102745D01*
X116244158Y-137088503D01*
X116177305Y-137074846D01*
X116106479Y-137058580D01*
X116033808Y-137040281D01*
X115961418Y-137020527D01*
X115891437Y-136999893D01*
X115825994Y-136978957D01*
X115776587Y-136961743D01*
X115731291Y-136945245D01*
X115628704Y-137123137D01*
X115607981Y-137158963D01*
X115588274Y-137192825D01*
X115570036Y-137223957D01*
X115553723Y-137251594D01*
X115539787Y-137274970D01*
X115528683Y-137293319D01*
X115520865Y-137305876D01*
X115516787Y-137311875D01*
X115516727Y-137311946D01*
X115513828Y-137315374D01*
X115511045Y-137318333D01*
X115507978Y-137320621D01*
X115504222Y-137322035D01*
X115499377Y-137322373D01*
X115493039Y-137321433D01*
X115484806Y-137319012D01*
X115474277Y-137314907D01*
X115461048Y-137308916D01*
X115444718Y-137300836D01*
X115424884Y-137290466D01*
X115401144Y-137277602D01*
X115373096Y-137262041D01*
X115340337Y-137243582D01*
X115302465Y-137222022D01*
X115259077Y-137197159D01*
X115209772Y-137168789D01*
X115154148Y-137136711D01*
X115091801Y-137100721D01*
X115055650Y-137079851D01*
X115000612Y-137048033D01*
X114947514Y-137017245D01*
X114896830Y-136987767D01*
X114849034Y-136959879D01*
X114804601Y-136933861D01*
X114764006Y-136909993D01*
X114727723Y-136888555D01*
X114696227Y-136869828D01*
X114669993Y-136854090D01*
X114649496Y-136841622D01*
X114635210Y-136832705D01*
X114627609Y-136827617D01*
X114626570Y-136826744D01*
X114619451Y-136815822D01*
X114618304Y-136803486D01*
X114618652Y-136800460D01*
X114621347Y-136792980D01*
X114628228Y-136778627D01*
X114639093Y-136757771D01*
X114653741Y-136730781D01*
X114671972Y-136698027D01*
X114693584Y-136659878D01*
X114718375Y-136616703D01*
X114724892Y-136605434D01*
X114829071Y-136425517D01*
X114815037Y-136412817D01*
X114807505Y-136406073D01*
X114794869Y-136394841D01*
X114778379Y-136380227D01*
X114759285Y-136363340D01*
X114738837Y-136345286D01*
X114737315Y-136343944D01*
X114708179Y-136317523D01*
X114674918Y-136286135D01*
X114638897Y-136251160D01*
X114601481Y-136213979D01*
X114564034Y-136175971D01*
X114527922Y-136138519D01*
X114494509Y-136103002D01*
X114465161Y-136070800D01*
X114448562Y-136051895D01*
X114400273Y-135995806D01*
X114382945Y-136005896D01*
X114315876Y-136044864D01*
X114255964Y-136079497D01*
X114203122Y-136109844D01*
X114157264Y-136135954D01*
X114118301Y-136157875D01*
X114086148Y-136175657D01*
X114060718Y-136189346D01*
X114041923Y-136198993D01*
X114029677Y-136204645D01*
X114024540Y-136206323D01*
X114011358Y-136206204D01*
X114000562Y-136200421D01*
X113998224Y-136198430D01*
X113994668Y-136193509D01*
X113987173Y-136181722D01*
X113976018Y-136163544D01*
X113961485Y-136139449D01*
X113943853Y-136109912D01*
X113923403Y-136075408D01*
X113900414Y-136036410D01*
X113875167Y-135993393D01*
X113847942Y-135946832D01*
X113819019Y-135897202D01*
X113788678Y-135844977D01*
X113757199Y-135790631D01*
X113744898Y-135769350D01*
X113706775Y-135703369D01*
X113672671Y-135644323D01*
X113642383Y-135591807D01*
X113615707Y-135545419D01*
X113592440Y-135504754D01*
X113572380Y-135469408D01*
X113555323Y-135438977D01*
X113541066Y-135413057D01*
X113529407Y-135391244D01*
X113520141Y-135373134D01*
X113513068Y-135358322D01*
X113507982Y-135346406D01*
X113504681Y-135336980D01*
X113502963Y-135329641D01*
X113502623Y-135323985D01*
X113503460Y-135319608D01*
X113505270Y-135316106D01*
X113507849Y-135313074D01*
X113510996Y-135310109D01*
X113513127Y-135308141D01*
X113518741Y-135304170D01*
X113530948Y-135296456D01*
X113548987Y-135285452D01*
X113572097Y-135271612D01*
X113599516Y-135255387D01*
X113630483Y-135237231D01*
X113664237Y-135217597D01*
X113700017Y-135196937D01*
X113701447Y-135196114D01*
X113879710Y-135093584D01*
X113863275Y-135048351D01*
X113840733Y-134982970D01*
X113818445Y-134911996D01*
X113796971Y-134837562D01*
X113776873Y-134761803D01*
X113758714Y-134686854D01*
X113743055Y-134614847D01*
X113730457Y-134547919D01*
X113728528Y-134536392D01*
X113723502Y-134505700D01*
X113288848Y-134505700D01*
X113280074Y-134494546D01*
X113278747Y-134492779D01*
X113277561Y-134490730D01*
X113276508Y-134487941D01*
X113275580Y-134483949D01*
X113274770Y-134478294D01*
X113274069Y-134470516D01*
X113273469Y-134460155D01*
X113272963Y-134446750D01*
X113272542Y-134429840D01*
X113272199Y-134408965D01*
X113271926Y-134383665D01*
X113271715Y-134353479D01*
X113271557Y-134317946D01*
X113271446Y-134276606D01*
X113271372Y-134228999D01*
X113271329Y-134174664D01*
X113271308Y-134113141D01*
X113271301Y-134043968D01*
X113271300Y-133984737D01*
X113271300Y-133486081D01*
X113282454Y-133477307D01*
X113285147Y-133475342D01*
X113288283Y-133473694D01*
X113292583Y-133472336D01*
X113298769Y-133471240D01*
X113307565Y-133470377D01*
X113319691Y-133469721D01*
X113335872Y-133469242D01*
X113356828Y-133468913D01*
X113383282Y-133468706D01*
X113415956Y-133468592D01*
X113455573Y-133468544D01*
X113502855Y-133468534D01*
X113723502Y-133468534D01*
X113728528Y-133437842D01*
X113740094Y-133374273D01*
X113754716Y-133305277D01*
X113771842Y-133232922D01*
X113790921Y-133159273D01*
X113811402Y-133086397D01*
X113832734Y-133016361D01*
X113854364Y-132951231D01*
X113869627Y-132909031D01*
X113880253Y-132880811D01*
X113702111Y-132778081D01*
X113666261Y-132757344D01*
X113632374Y-132737622D01*
X113601216Y-132719371D01*
X113573552Y-132703042D01*
X113550148Y-132689090D01*
X113531767Y-132677969D01*
X113519176Y-132670131D01*
X113513139Y-132666032D01*
X113513054Y-132665960D01*
X113509625Y-132663061D01*
X113506665Y-132660278D01*
X113504376Y-132657211D01*
X113502960Y-132653456D01*
X113502620Y-132648611D01*
X113503558Y-132642274D01*
X113505977Y-132634043D01*
X113510079Y-132623515D01*
X113516067Y-132610288D01*
X113524143Y-132593960D01*
X113534510Y-132574128D01*
X113547370Y-132550390D01*
X113562926Y-132522344D01*
X113581379Y-132489586D01*
X113602933Y-132451716D01*
X113627790Y-132408331D01*
X113656153Y-132359028D01*
X113688223Y-132303404D01*
X113724204Y-132241059D01*
X113745084Y-132204883D01*
X113776896Y-132149844D01*
X113807680Y-132096744D01*
X113837155Y-132046058D01*
X113865041Y-131998261D01*
X113891058Y-131953827D01*
X113914926Y-131913231D01*
X113936365Y-131876948D01*
X113955094Y-131845453D01*
X113970835Y-131819220D01*
X113983306Y-131798723D01*
X113992229Y-131784439D01*
X113997322Y-131776841D01*
X113998197Y-131775804D01*
X114009148Y-131768691D01*
X114021471Y-131767553D01*
X114024540Y-131767910D01*
X114031638Y-131770416D01*
X114045247Y-131776897D01*
X114065451Y-131787398D01*
X114092333Y-131801967D01*
X114125976Y-131820651D01*
X114166463Y-131843495D01*
X114213878Y-131870547D01*
X114268304Y-131901853D01*
X114329826Y-131937460D01*
X114383045Y-131968396D01*
X114400473Y-131978544D01*
X114452599Y-131918147D01*
X114475699Y-131892170D01*
X114503899Y-131861734D01*
X114536002Y-131828035D01*
X114570810Y-131792273D01*
X114607124Y-131755644D01*
X114643748Y-131719348D01*
X114679481Y-131684581D01*
X114713128Y-131652542D01*
X114743489Y-131624430D01*
X114768913Y-131601832D01*
X114829310Y-131549706D01*
X114819163Y-131532278D01*
X114780153Y-131465140D01*
X114745481Y-131405161D01*
X114715100Y-131352259D01*
X114688963Y-131306350D01*
X114667023Y-131267351D01*
X114649234Y-131235179D01*
X114635549Y-131209749D01*
X114625921Y-131190980D01*
X114620305Y-131178786D01*
X114618677Y-131173773D01*
X114618801Y-131160571D01*
X114624604Y-131149736D01*
X114626570Y-131147422D01*
X114631491Y-131143861D01*
X114643278Y-131136361D01*
X114661456Y-131125202D01*
X114685551Y-131110665D01*
X114715088Y-131093029D01*
X114749593Y-131072575D01*
X114788591Y-131049582D01*
X114831607Y-131024332D01*
X114878168Y-130997104D01*
X114927799Y-130968179D01*
X114980024Y-130937836D01*
X115034370Y-130906357D01*
X115055650Y-130894056D01*
X115121727Y-130855877D01*
X115180868Y-130821717D01*
X115233475Y-130791374D01*
X115279950Y-130764648D01*
X115320697Y-130741335D01*
X115356118Y-130721234D01*
X115386615Y-130704143D01*
X115412592Y-130689860D01*
X115434450Y-130678184D01*
X115452594Y-130668913D01*
X115467424Y-130661844D01*
X115479344Y-130656776D01*
X115488758Y-130653508D01*
X115496066Y-130651836D01*
X115501672Y-130651560D01*
X115505979Y-130652478D01*
X115509389Y-130654388D01*
X115512306Y-130657087D01*
X115515130Y-130660374D01*
X115517120Y-130662745D01*
X115520991Y-130668429D01*
X115528622Y-130680695D01*
X115539562Y-130698781D01*
X115553359Y-130721926D01*
X115569562Y-130749367D01*
X115587718Y-130780343D01*
X115607375Y-130814090D01*
X115628083Y-130849849D01*
X115628917Y-130851293D01*
X115731751Y-131029421D01*
X115757767Y-131019669D01*
X115821928Y-130996904D01*
X115892392Y-130974203D01*
X115967011Y-130952153D01*
X116043638Y-130931342D01*
X116120124Y-130912358D01*
X116194322Y-130895786D01*
X116252907Y-130884236D01*
X116274307Y-130880357D01*
X116292777Y-130877102D01*
X116306695Y-130874750D01*
X116314436Y-130873580D01*
X116315348Y-130873500D01*
X116316227Y-130869350D01*
X116317014Y-130857235D01*
X116317700Y-130837655D01*
X116318276Y-130811110D01*
X116318733Y-130778101D01*
X116319061Y-130739129D01*
X116319252Y-130694694D01*
X116319300Y-130655791D01*
X116319300Y-130438081D01*
X116330454Y-130429307D01*
X116332221Y-130427980D01*
X116334270Y-130426794D01*
X116337059Y-130425741D01*
X116341051Y-130424814D01*
X116346706Y-130424003D01*
X116354484Y-130423302D01*
X116364845Y-130422703D01*
X116378250Y-130422196D01*
X116395160Y-130421776D01*
X116416035Y-130421433D01*
X116441335Y-130421160D01*
X116471521Y-130420948D01*
X116507054Y-130420791D01*
X116548394Y-130420679D01*
X116596001Y-130420606D01*
X116650336Y-130420562D01*
X116711859Y-130420541D01*
X116781032Y-130420534D01*
X116786577Y-130420534D01*
X116786577Y-131513290D01*
X116644201Y-131520255D01*
X116502299Y-131535367D01*
X116361322Y-131558663D01*
X116285433Y-131574727D01*
X116146578Y-131610742D01*
X116010453Y-131654683D01*
X115877381Y-131706358D01*
X115747685Y-131765577D01*
X115621688Y-131832147D01*
X115499711Y-131905878D01*
X115382079Y-131986579D01*
X115269114Y-132074057D01*
X115161138Y-132168123D01*
X115058475Y-132268584D01*
X114990071Y-132342467D01*
X114895860Y-132454680D01*
X114809093Y-132570901D01*
X114729820Y-132691008D01*
X114658094Y-132814882D01*
X114593966Y-132942403D01*
X114537486Y-133073450D01*
X114488707Y-133207902D01*
X114447679Y-133345640D01*
X114414454Y-133486542D01*
X114389084Y-133630490D01*
X114371618Y-133777361D01*
X114369938Y-133796588D01*
X114367525Y-133833122D01*
X114365762Y-133876104D01*
X114364648Y-133923544D01*
X114364186Y-133973447D01*
X114364374Y-134023822D01*
X114365214Y-134072676D01*
X114366707Y-134118016D01*
X114368852Y-134157850D01*
X114369831Y-134171041D01*
X114385909Y-134318718D01*
X114409859Y-134463386D01*
X114441627Y-134604925D01*
X114481157Y-134743212D01*
X114528394Y-134878126D01*
X114583283Y-135009544D01*
X114645769Y-135137346D01*
X114715796Y-135261409D01*
X114793308Y-135381612D01*
X114878251Y-135497833D01*
X114970570Y-135609951D01*
X115070209Y-135717843D01*
X115074413Y-135722137D01*
X115178457Y-135822210D01*
X115287451Y-135915516D01*
X115401094Y-136001927D01*
X115519083Y-136081317D01*
X115641118Y-136153561D01*
X115766895Y-136218531D01*
X115896116Y-136276101D01*
X116028476Y-136326145D01*
X116163676Y-136368536D01*
X116301412Y-136403147D01*
X116441385Y-136429853D01*
X116583292Y-136448527D01*
X116726832Y-136459042D01*
X116837883Y-136461500D01*
X116981693Y-136457363D01*
X117124501Y-136445021D01*
X117265911Y-136424578D01*
X117405525Y-136396141D01*
X117542947Y-136359812D01*
X117677781Y-136315698D01*
X117809629Y-136263902D01*
X117938096Y-136204529D01*
X118061316Y-136138528D01*
X118185297Y-136062573D01*
X118303872Y-135980284D01*
X118416853Y-135891924D01*
X118524054Y-135797758D01*
X118625288Y-135698051D01*
X118720367Y-135593068D01*
X118809104Y-135483072D01*
X118891313Y-135368330D01*
X118966807Y-135249105D01*
X119035397Y-135125662D01*
X119096897Y-134998266D01*
X119151121Y-134867181D01*
X119197880Y-134732672D01*
X119236988Y-134595003D01*
X119268257Y-134454440D01*
X119274067Y-134423150D01*
X119294889Y-134283367D01*
X119307642Y-134142192D01*
X119312358Y-134000284D01*
X119309071Y-133858304D01*
X119297813Y-133716911D01*
X119278617Y-133576767D01*
X119251517Y-133438532D01*
X119218539Y-133309784D01*
X119174797Y-133172301D01*
X119123497Y-133038390D01*
X119064869Y-132908309D01*
X118999148Y-132782315D01*
X118926563Y-132660665D01*
X118847348Y-132543618D01*
X118761735Y-132431431D01*
X118669956Y-132324361D01*
X118572242Y-132222666D01*
X118468826Y-132126603D01*
X118359941Y-132036430D01*
X118245817Y-131952405D01*
X118126688Y-131874785D01*
X118002785Y-131803828D01*
X117874340Y-131739791D01*
X117758633Y-131689729D01*
X117625555Y-131640642D01*
X117489797Y-131599457D01*
X117351809Y-131566209D01*
X117212043Y-131540933D01*
X117070948Y-131523664D01*
X116928976Y-131514438D01*
X116786577Y-131513290D01*
X116786577Y-130420534D01*
X117338919Y-130420534D01*
X117347693Y-130431688D01*
X117349657Y-130434379D01*
X117351304Y-130437511D01*
X117352661Y-130441807D01*
X117353757Y-130447988D01*
X117354619Y-130456775D01*
X117355276Y-130468890D01*
X117355756Y-130485055D01*
X117356085Y-130505991D01*
X117356293Y-130532420D01*
X117356407Y-130565063D01*
X117356456Y-130604641D01*
X117356466Y-130651878D01*
X117356467Y-130658171D01*
X117356543Y-130706297D01*
X117356765Y-130749361D01*
X117357124Y-130786862D01*
X117357611Y-130818293D01*
X117358216Y-130843151D01*
X117358930Y-130860931D01*
X117359744Y-130871130D01*
X117360418Y-130873500D01*
X117365817Y-130874229D01*
X117377917Y-130876230D01*
X117395094Y-130879224D01*
X117415726Y-130882932D01*
X117422860Y-130884236D01*
X117493592Y-130898362D01*
X117568402Y-130915396D01*
X117645140Y-130934750D01*
X117721656Y-130955835D01*
X117795801Y-130978064D01*
X117865425Y-131000848D01*
X117918086Y-131019702D01*
X117944189Y-131029486D01*
X118046919Y-130851345D01*
X118067656Y-130815494D01*
X118087378Y-130781608D01*
X118105629Y-130750450D01*
X118121958Y-130722786D01*
X118135910Y-130699381D01*
X118147031Y-130681001D01*
X118154869Y-130668410D01*
X118158968Y-130662373D01*
X118159040Y-130662288D01*
X118161943Y-130658853D01*
X118164727Y-130655886D01*
X118167793Y-130653589D01*
X118171544Y-130652165D01*
X118176382Y-130651816D01*
X118182710Y-130652745D01*
X118190930Y-130655153D01*
X118201444Y-130659244D01*
X118214655Y-130665219D01*
X118230965Y-130673282D01*
X118250777Y-130683634D01*
X118274493Y-130696478D01*
X118302515Y-130712017D01*
X118335246Y-130730453D01*
X118373087Y-130751987D01*
X118416442Y-130776824D01*
X118465713Y-130805164D01*
X118521302Y-130837212D01*
X118583612Y-130873168D01*
X118620117Y-130894235D01*
X118675157Y-130926045D01*
X118728258Y-130956828D01*
X118778945Y-130986302D01*
X118826743Y-131014188D01*
X118871177Y-131040206D01*
X118911774Y-131064076D01*
X118948057Y-131085518D01*
X118979552Y-131104251D01*
X119005785Y-131119996D01*
X119026280Y-131132472D01*
X119040563Y-131141400D01*
X119048160Y-131146498D01*
X119049196Y-131147376D01*
X119056314Y-131158390D01*
X119057441Y-131170767D01*
X119057090Y-131173773D01*
X119054584Y-131180872D01*
X119048103Y-131194481D01*
X119037602Y-131214685D01*
X119023033Y-131241567D01*
X119004349Y-131275209D01*
X118981505Y-131315697D01*
X118954453Y-131363112D01*
X118923147Y-131417538D01*
X118887540Y-131479059D01*
X118856604Y-131532278D01*
X118846456Y-131549706D01*
X118906853Y-131601832D01*
X118932830Y-131624932D01*
X118963266Y-131653133D01*
X118996965Y-131685236D01*
X119032727Y-131720044D01*
X119069356Y-131756358D01*
X119105652Y-131792981D01*
X119140419Y-131828715D01*
X119172458Y-131862362D01*
X119200570Y-131892723D01*
X119223168Y-131918147D01*
X119275294Y-131978544D01*
X119292722Y-131968396D01*
X119359860Y-131929387D01*
X119419839Y-131894715D01*
X119472741Y-131864334D01*
X119518650Y-131838196D01*
X119557649Y-131816256D01*
X119589821Y-131798467D01*
X119615251Y-131784782D01*
X119634020Y-131775155D01*
X119646214Y-131769539D01*
X119651227Y-131767910D01*
X119664449Y-131768040D01*
X119675325Y-131773863D01*
X119677614Y-131775804D01*
X119681179Y-131780725D01*
X119688683Y-131792513D01*
X119699844Y-131810692D01*
X119714382Y-131834789D01*
X119732019Y-131864328D01*
X119752472Y-131898835D01*
X119775463Y-131937836D01*
X119800710Y-131980856D01*
X119827935Y-132027419D01*
X119856855Y-132077053D01*
X119887192Y-132129281D01*
X119918665Y-132183630D01*
X119930947Y-132204883D01*
X119969118Y-132270966D01*
X120003270Y-132330111D01*
X120033606Y-132382722D01*
X120060327Y-132429201D01*
X120083635Y-132469952D01*
X120103731Y-132505375D01*
X120120818Y-132535875D01*
X120135097Y-132561854D01*
X120146771Y-132583714D01*
X120156041Y-132601859D01*
X120163108Y-132616691D01*
X120168175Y-132628612D01*
X120171443Y-132638026D01*
X120173115Y-132645334D01*
X120173392Y-132650941D01*
X120172476Y-132655248D01*
X120170568Y-132658657D01*
X120167871Y-132661573D01*
X120164586Y-132664397D01*
X120162236Y-132666371D01*
X120156547Y-132670243D01*
X120144274Y-132677873D01*
X120126180Y-132688808D01*
X120103026Y-132702598D01*
X120075576Y-132718790D01*
X120044591Y-132736933D01*
X120010834Y-132756576D01*
X119975067Y-132777266D01*
X119973655Y-132778081D01*
X119795514Y-132880811D01*
X119806169Y-132909031D01*
X119827335Y-132968307D01*
X119848638Y-133033998D01*
X119869538Y-133104079D01*
X119889496Y-133176526D01*
X119907971Y-133249314D01*
X119924423Y-133320417D01*
X119938312Y-133387813D01*
X119947238Y-133437842D01*
X119952265Y-133468534D01*
X120386919Y-133468534D01*
X120395693Y-133479688D01*
X120397020Y-133481455D01*
X120398206Y-133483503D01*
X120399259Y-133486293D01*
X120400186Y-133490285D01*
X120400997Y-133495940D01*
X120401698Y-133503717D01*
X120402297Y-133514079D01*
X120402804Y-133527484D01*
X120403224Y-133544394D01*
X120403567Y-133565268D01*
X120403840Y-133590569D01*
X120404052Y-133620755D01*
X120404209Y-133656288D01*
X120404321Y-133697627D01*
X120404394Y-133745235D01*
X120404438Y-133799570D01*
X120404459Y-133861093D01*
X120404466Y-133930266D01*
X120404466Y-134488152D01*
X120393312Y-134496926D01*
D14*
X116740000Y-92810000D02*
X116740000Y-87570000D01*
X119480000Y-92810000D02*
X119480000Y-87570000D01*
X116740000Y-92810000D02*
X119480000Y-92810000D01*
X116740000Y-87570000D02*
X119480000Y-87570000D01*
X138330000Y-100270000D02*
X141070000Y-100270000D01*
X138330000Y-105510000D02*
X141070000Y-105510000D01*
X141070000Y-105510000D02*
X141070000Y-100270000D01*
X138330000Y-105510000D02*
X138330000Y-100270000D01*
X110430000Y-106780000D02*
X110430000Y-104040000D01*
X115670000Y-106780000D02*
X115670000Y-104040000D01*
X115670000Y-104040000D02*
X110430000Y-104040000D01*
X115670000Y-106780000D02*
X110430000Y-106780000D01*
X104675000Y-104040000D02*
X109915000Y-104040000D01*
X104675000Y-106780000D02*
X109915000Y-106780000D01*
X104675000Y-104040000D02*
X104675000Y-106780000D01*
X109915000Y-104040000D02*
X109915000Y-106780000D01*
X148790000Y-84910000D02*
X145850000Y-84910000D01*
X145850000Y-84910000D02*
X145850000Y-90350000D01*
X145850000Y-90350000D02*
X148790000Y-90350000D01*
X148790000Y-90350000D02*
X148790000Y-84910000D01*
X147320000Y-83890000D02*
X147320000Y-84910000D01*
X147320000Y-91370000D02*
X147320000Y-90350000D01*
X148790000Y-85810000D02*
X145850000Y-85810000D01*
X148790000Y-85930000D02*
X145850000Y-85930000D01*
X148790000Y-85690000D02*
X145850000Y-85690000D01*
X117330000Y-74820000D02*
X111310000Y-74820000D01*
X111310000Y-74820000D02*
X111310000Y-80120000D01*
X111310000Y-80120000D02*
X117330000Y-80120000D01*
X117330000Y-80120000D02*
X117330000Y-74820000D01*
X116300000Y-74530000D02*
X112300000Y-74530000D01*
X111310000Y-76200000D02*
X112310000Y-76200000D01*
X112310000Y-76200000D02*
X112310000Y-78740000D01*
X112310000Y-78740000D02*
X111310000Y-78740000D01*
X112310000Y-76200000D02*
X112840000Y-76450000D01*
X112840000Y-76450000D02*
X112840000Y-78490000D01*
X112840000Y-78490000D02*
X112310000Y-78740000D01*
X111310000Y-76450000D02*
X112310000Y-76450000D01*
X111310000Y-78490000D02*
X112310000Y-78490000D01*
X117330000Y-75400000D02*
X116730000Y-75400000D01*
X116730000Y-75400000D02*
X116730000Y-77000000D01*
X116730000Y-77000000D02*
X117330000Y-77000000D01*
X117330000Y-77940000D02*
X116730000Y-77940000D01*
X116730000Y-77940000D02*
X116730000Y-79540000D01*
X116730000Y-79540000D02*
X117330000Y-79540000D01*
X136160000Y-83415000D02*
X120380000Y-83415000D01*
X120380000Y-83415000D02*
X120380000Y-74065000D01*
X120380000Y-74065000D02*
X136160000Y-74065000D01*
X136160000Y-74065000D02*
X136160000Y-83415000D01*
X136410000Y-73815000D02*
X133870000Y-73815000D01*
X136410000Y-73815000D02*
X136410000Y-76355000D01*
X139860000Y-80705000D02*
X140662470Y-80705000D01*
X141277530Y-80705000D02*
X142080000Y-80705000D01*
X139860000Y-76960000D02*
X139860000Y-80705000D01*
X142080000Y-76960000D02*
X142080000Y-80705000D01*
X139860000Y-76960000D02*
X140406529Y-76960000D01*
X141533471Y-76960000D02*
X142080000Y-76960000D01*
X139860000Y-76200000D02*
X139860000Y-75440000D01*
X139860000Y-75440000D02*
X140970000Y-75440000D01*
X144040000Y-83240000D02*
X140440000Y-83240000D01*
X144078478Y-83251522D02*
G75*
G02X142240000Y-87690000I-1838478J-1838478D01*
G01*
X140401522Y-83251522D02*
G75*
G03X142240000Y-87690000I1838478J-1838478D01*
G01*
X145950000Y-103600000D02*
X148690000Y-103600000D01*
X148690000Y-103600000D02*
X148690000Y-97060000D01*
X148690000Y-97060000D02*
X145950000Y-97060000D01*
X145950000Y-97060000D02*
X145950000Y-103600000D01*
X147320000Y-104370000D02*
X147320000Y-103600000D01*
X147320000Y-96290000D02*
X147320000Y-97060000D01*
X142875000Y-98655000D02*
X142875000Y-97885000D01*
X142875000Y-90575000D02*
X142875000Y-91345000D01*
X144245000Y-97885000D02*
X144245000Y-91345000D01*
X141505000Y-97885000D02*
X144245000Y-97885000D01*
X141505000Y-91345000D02*
X141505000Y-97885000D01*
X144245000Y-91345000D02*
X141505000Y-91345000D01*
X143105000Y-121920000D02*
X142335000Y-121920000D01*
X135025000Y-121920000D02*
X135795000Y-121920000D01*
X142335000Y-120550000D02*
X135795000Y-120550000D01*
X142335000Y-123290000D02*
X142335000Y-120550000D01*
X135795000Y-123290000D02*
X142335000Y-123290000D01*
X135795000Y-120550000D02*
X135795000Y-123290000D01*
X135795000Y-124360000D02*
X135795000Y-127100000D01*
X135795000Y-127100000D02*
X142335000Y-127100000D01*
X142335000Y-127100000D02*
X142335000Y-124360000D01*
X142335000Y-124360000D02*
X135795000Y-124360000D01*
X135025000Y-125730000D02*
X135795000Y-125730000D01*
X143105000Y-125730000D02*
X142335000Y-125730000D01*
X112165000Y-121920000D02*
X112935000Y-121920000D01*
X120245000Y-121920000D02*
X119475000Y-121920000D01*
X112935000Y-123290000D02*
X119475000Y-123290000D01*
X112935000Y-120550000D02*
X112935000Y-123290000D01*
X119475000Y-120550000D02*
X112935000Y-120550000D01*
X119475000Y-123290000D02*
X119475000Y-120550000D01*
X119475000Y-118210000D02*
X119475000Y-115470000D01*
X119475000Y-115470000D02*
X112935000Y-115470000D01*
X112935000Y-115470000D02*
X112935000Y-118210000D01*
X112935000Y-118210000D02*
X119475000Y-118210000D01*
X120245000Y-116840000D02*
X119475000Y-116840000D01*
X112165000Y-116840000D02*
X112935000Y-116840000D01*
X119475000Y-114400000D02*
X119475000Y-111660000D01*
X119475000Y-111660000D02*
X112935000Y-111660000D01*
X112935000Y-111660000D02*
X112935000Y-114400000D01*
X112935000Y-114400000D02*
X119475000Y-114400000D01*
X120245000Y-113030000D02*
X119475000Y-113030000D01*
X112165000Y-113030000D02*
X112935000Y-113030000D01*
X143105000Y-116840000D02*
X142335000Y-116840000D01*
X135025000Y-116840000D02*
X135795000Y-116840000D01*
X142335000Y-115470000D02*
X135795000Y-115470000D01*
X142335000Y-118210000D02*
X142335000Y-115470000D01*
X135795000Y-118210000D02*
X142335000Y-118210000D01*
X135795000Y-115470000D02*
X135795000Y-118210000D01*
X135795000Y-111660000D02*
X135795000Y-114400000D01*
X135795000Y-114400000D02*
X142335000Y-114400000D01*
X142335000Y-114400000D02*
X142335000Y-111660000D01*
X142335000Y-111660000D02*
X135795000Y-111660000D01*
X135025000Y-113030000D02*
X135795000Y-113030000D01*
X143105000Y-113030000D02*
X142335000Y-113030000D01*
X112165000Y-125730000D02*
X112935000Y-125730000D01*
X120245000Y-125730000D02*
X119475000Y-125730000D01*
X112935000Y-127100000D02*
X119475000Y-127100000D01*
X112935000Y-124360000D02*
X112935000Y-127100000D01*
X119475000Y-124360000D02*
X112935000Y-124360000D01*
X119475000Y-127100000D02*
X119475000Y-124360000D01*
X104735000Y-97910000D02*
X114975000Y-97910000D01*
X104735000Y-82020000D02*
X114975000Y-82020000D01*
X104735000Y-82020000D02*
X104735000Y-97910000D01*
X114975000Y-82020000D02*
X114975000Y-97910000D01*
X107315000Y-97910000D02*
X107315000Y-100450000D01*
X109855000Y-97910000D02*
X109855000Y-100450000D01*
X112395000Y-97910000D02*
X112395000Y-100450000D01*
X120590000Y-89170000D02*
G75*
G02X120590000Y-91170000I0J-1000000D01*
G01*
X120590000Y-91170000D02*
X120590000Y-92820000D01*
X120590000Y-92820000D02*
X138490000Y-92820000D01*
X138490000Y-92820000D02*
X138490000Y-87520000D01*
X138490000Y-87520000D02*
X120590000Y-87520000D01*
X120590000Y-87520000D02*
X120590000Y-89170000D01*
X116780000Y-101870000D02*
G75*
G02X116780000Y-103870000I0J-1000000D01*
G01*
X116780000Y-103870000D02*
X116780000Y-105120000D01*
X116780000Y-105120000D02*
X137220000Y-105120000D01*
X137220000Y-105120000D02*
X137220000Y-100620000D01*
X137220000Y-100620000D02*
X116780000Y-100620000D01*
X116780000Y-100620000D02*
X116780000Y-101870000D01*
D10*
X118467142Y-86526666D02*
X118514761Y-86574285D01*
X118562380Y-86717142D01*
X118562380Y-86812380D01*
X118514761Y-86955238D01*
X118419523Y-87050476D01*
X118324285Y-87098095D01*
X118133809Y-87145714D01*
X117990952Y-87145714D01*
X117800476Y-87098095D01*
X117705238Y-87050476D01*
X117610000Y-86955238D01*
X117562380Y-86812380D01*
X117562380Y-86717142D01*
X117610000Y-86574285D01*
X117657619Y-86526666D01*
X118562380Y-85574285D02*
X118562380Y-86145714D01*
X118562380Y-85860000D02*
X117562380Y-85860000D01*
X117705238Y-85955238D01*
X117800476Y-86050476D01*
X117848095Y-86145714D01*
X140057142Y-99226666D02*
X140104761Y-99274285D01*
X140152380Y-99417142D01*
X140152380Y-99512380D01*
X140104761Y-99655238D01*
X140009523Y-99750476D01*
X139914285Y-99798095D01*
X139723809Y-99845714D01*
X139580952Y-99845714D01*
X139390476Y-99798095D01*
X139295238Y-99750476D01*
X139200000Y-99655238D01*
X139152380Y-99512380D01*
X139152380Y-99417142D01*
X139200000Y-99274285D01*
X139247619Y-99226666D01*
X139247619Y-98845714D02*
X139200000Y-98798095D01*
X139152380Y-98702857D01*
X139152380Y-98464761D01*
X139200000Y-98369523D01*
X139247619Y-98321904D01*
X139342857Y-98274285D01*
X139438095Y-98274285D01*
X139580952Y-98321904D01*
X140152380Y-98893333D01*
X140152380Y-98274285D01*
X112883333Y-108267142D02*
X112835714Y-108314761D01*
X112692857Y-108362380D01*
X112597619Y-108362380D01*
X112454761Y-108314761D01*
X112359523Y-108219523D01*
X112311904Y-108124285D01*
X112264285Y-107933809D01*
X112264285Y-107790952D01*
X112311904Y-107600476D01*
X112359523Y-107505238D01*
X112454761Y-107410000D01*
X112597619Y-107362380D01*
X112692857Y-107362380D01*
X112835714Y-107410000D01*
X112883333Y-107457619D01*
X113216666Y-107362380D02*
X113835714Y-107362380D01*
X113502380Y-107743333D01*
X113645238Y-107743333D01*
X113740476Y-107790952D01*
X113788095Y-107838571D01*
X113835714Y-107933809D01*
X113835714Y-108171904D01*
X113788095Y-108267142D01*
X113740476Y-108314761D01*
X113645238Y-108362380D01*
X113359523Y-108362380D01*
X113264285Y-108314761D01*
X113216666Y-108267142D01*
X107108333Y-108307142D02*
X107060714Y-108354761D01*
X106917857Y-108402380D01*
X106822619Y-108402380D01*
X106679761Y-108354761D01*
X106584523Y-108259523D01*
X106536904Y-108164285D01*
X106489285Y-107973809D01*
X106489285Y-107830952D01*
X106536904Y-107640476D01*
X106584523Y-107545238D01*
X106679761Y-107450000D01*
X106822619Y-107402380D01*
X106917857Y-107402380D01*
X107060714Y-107450000D01*
X107108333Y-107497619D01*
X107965476Y-107735714D02*
X107965476Y-108402380D01*
X107727380Y-107354761D02*
X107489285Y-108069047D01*
X108108333Y-108069047D01*
X150242380Y-88368095D02*
X149242380Y-88368095D01*
X149242380Y-88130000D01*
X149290000Y-87987142D01*
X149385238Y-87891904D01*
X149480476Y-87844285D01*
X149670952Y-87796666D01*
X149813809Y-87796666D01*
X150004285Y-87844285D01*
X150099523Y-87891904D01*
X150194761Y-87987142D01*
X150242380Y-88130000D01*
X150242380Y-88368095D01*
X150242380Y-86844285D02*
X150242380Y-87415714D01*
X150242380Y-87130000D02*
X149242380Y-87130000D01*
X149385238Y-87225238D01*
X149480476Y-87320476D01*
X149528095Y-87415714D01*
X149872380Y-82811904D02*
X148872380Y-82811904D01*
X149872380Y-82240476D02*
X149300952Y-82669047D01*
X148872380Y-82240476D02*
X149443809Y-82811904D01*
X109521666Y-76922380D02*
X109521666Y-77636666D01*
X109474047Y-77779523D01*
X109378809Y-77874761D01*
X109235952Y-77922380D01*
X109140714Y-77922380D01*
X110521666Y-77922380D02*
X109950238Y-77922380D01*
X110235952Y-77922380D02*
X110235952Y-76922380D01*
X110140714Y-77065238D01*
X110045476Y-77160476D01*
X109950238Y-77208095D01*
X127301666Y-72477380D02*
X127301666Y-73191666D01*
X127254047Y-73334523D01*
X127158809Y-73429761D01*
X127015952Y-73477380D01*
X126920714Y-73477380D01*
X127730238Y-72572619D02*
X127777857Y-72525000D01*
X127873095Y-72477380D01*
X128111190Y-72477380D01*
X128206428Y-72525000D01*
X128254047Y-72572619D01*
X128301666Y-72667857D01*
X128301666Y-72763095D01*
X128254047Y-72905952D01*
X127682619Y-73477380D01*
X128301666Y-73477380D01*
X140636666Y-73957380D02*
X140636666Y-74671666D01*
X140589047Y-74814523D01*
X140493809Y-74909761D01*
X140350952Y-74957380D01*
X140255714Y-74957380D01*
X141017619Y-73957380D02*
X141636666Y-73957380D01*
X141303333Y-74338333D01*
X141446190Y-74338333D01*
X141541428Y-74385952D01*
X141589047Y-74433571D01*
X141636666Y-74528809D01*
X141636666Y-74766904D01*
X141589047Y-74862142D01*
X141541428Y-74909761D01*
X141446190Y-74957380D01*
X141160476Y-74957380D01*
X141065238Y-74909761D01*
X141017619Y-74862142D01*
X142247938Y-82766419D02*
X142152700Y-82718800D01*
X142057462Y-82623561D01*
X141914605Y-82480704D01*
X141819367Y-82433085D01*
X141724129Y-82433085D01*
X141771748Y-82671180D02*
X141676510Y-82623561D01*
X141581272Y-82528323D01*
X141533653Y-82337847D01*
X141533653Y-82004514D01*
X141581272Y-81814038D01*
X141676510Y-81718800D01*
X141771748Y-81671180D01*
X141962224Y-81671180D01*
X142057462Y-81718800D01*
X142152700Y-81814038D01*
X142200319Y-82004514D01*
X142200319Y-82337847D01*
X142152700Y-82528323D01*
X142057462Y-82623561D01*
X141962224Y-82671180D01*
X141771748Y-82671180D01*
X143152700Y-82671180D02*
X142581272Y-82671180D01*
X142866986Y-82671180D02*
X142866986Y-81671180D01*
X142771748Y-81814038D01*
X142676510Y-81909276D01*
X142581272Y-81956895D01*
X145402380Y-104941666D02*
X144926190Y-105275000D01*
X145402380Y-105513095D02*
X144402380Y-105513095D01*
X144402380Y-105132142D01*
X144450000Y-105036904D01*
X144497619Y-104989285D01*
X144592857Y-104941666D01*
X144735714Y-104941666D01*
X144830952Y-104989285D01*
X144878571Y-105036904D01*
X144926190Y-105132142D01*
X144926190Y-105513095D01*
X144497619Y-104560714D02*
X144450000Y-104513095D01*
X144402380Y-104417857D01*
X144402380Y-104179761D01*
X144450000Y-104084523D01*
X144497619Y-104036904D01*
X144592857Y-103989285D01*
X144688095Y-103989285D01*
X144830952Y-104036904D01*
X145402380Y-104608333D01*
X145402380Y-103989285D01*
X140787380Y-94146666D02*
X140311190Y-94480000D01*
X140787380Y-94718095D02*
X139787380Y-94718095D01*
X139787380Y-94337142D01*
X139835000Y-94241904D01*
X139882619Y-94194285D01*
X139977857Y-94146666D01*
X140120714Y-94146666D01*
X140215952Y-94194285D01*
X140263571Y-94241904D01*
X140311190Y-94337142D01*
X140311190Y-94718095D01*
X139787380Y-93813333D02*
X139787380Y-93194285D01*
X140168333Y-93527619D01*
X140168333Y-93384761D01*
X140215952Y-93289523D01*
X140263571Y-93241904D01*
X140358809Y-93194285D01*
X140596904Y-93194285D01*
X140692142Y-93241904D01*
X140739761Y-93289523D01*
X140787380Y-93384761D01*
X140787380Y-93670476D01*
X140739761Y-93765714D01*
X140692142Y-93813333D01*
X143343333Y-120467380D02*
X143010000Y-119991190D01*
X142771904Y-120467380D02*
X142771904Y-119467380D01*
X143152857Y-119467380D01*
X143248095Y-119515000D01*
X143295714Y-119562619D01*
X143343333Y-119657857D01*
X143343333Y-119800714D01*
X143295714Y-119895952D01*
X143248095Y-119943571D01*
X143152857Y-119991190D01*
X142771904Y-119991190D01*
X144200476Y-119800714D02*
X144200476Y-120467380D01*
X143962380Y-119419761D02*
X143724285Y-120134047D01*
X144343333Y-120134047D01*
X143343333Y-124277380D02*
X143010000Y-123801190D01*
X142771904Y-124277380D02*
X142771904Y-123277380D01*
X143152857Y-123277380D01*
X143248095Y-123325000D01*
X143295714Y-123372619D01*
X143343333Y-123467857D01*
X143343333Y-123610714D01*
X143295714Y-123705952D01*
X143248095Y-123753571D01*
X143152857Y-123801190D01*
X142771904Y-123801190D01*
X144248095Y-123277380D02*
X143771904Y-123277380D01*
X143724285Y-123753571D01*
X143771904Y-123705952D01*
X143867142Y-123658333D01*
X144105238Y-123658333D01*
X144200476Y-123705952D01*
X144248095Y-123753571D01*
X144295714Y-123848809D01*
X144295714Y-124086904D01*
X144248095Y-124182142D01*
X144200476Y-124229761D01*
X144105238Y-124277380D01*
X143867142Y-124277380D01*
X143771904Y-124229761D01*
X143724285Y-124182142D01*
X110323333Y-120467380D02*
X109990000Y-119991190D01*
X109751904Y-120467380D02*
X109751904Y-119467380D01*
X110132857Y-119467380D01*
X110228095Y-119515000D01*
X110275714Y-119562619D01*
X110323333Y-119657857D01*
X110323333Y-119800714D01*
X110275714Y-119895952D01*
X110228095Y-119943571D01*
X110132857Y-119991190D01*
X109751904Y-119991190D01*
X111180476Y-119467380D02*
X110990000Y-119467380D01*
X110894761Y-119515000D01*
X110847142Y-119562619D01*
X110751904Y-119705476D01*
X110704285Y-119895952D01*
X110704285Y-120276904D01*
X110751904Y-120372142D01*
X110799523Y-120419761D01*
X110894761Y-120467380D01*
X111085238Y-120467380D01*
X111180476Y-120419761D01*
X111228095Y-120372142D01*
X111275714Y-120276904D01*
X111275714Y-120038809D01*
X111228095Y-119943571D01*
X111180476Y-119895952D01*
X111085238Y-119848333D01*
X110894761Y-119848333D01*
X110799523Y-119895952D01*
X110751904Y-119943571D01*
X110704285Y-120038809D01*
X110323333Y-115387380D02*
X109990000Y-114911190D01*
X109751904Y-115387380D02*
X109751904Y-114387380D01*
X110132857Y-114387380D01*
X110228095Y-114435000D01*
X110275714Y-114482619D01*
X110323333Y-114577857D01*
X110323333Y-114720714D01*
X110275714Y-114815952D01*
X110228095Y-114863571D01*
X110132857Y-114911190D01*
X109751904Y-114911190D01*
X110656666Y-114387380D02*
X111323333Y-114387380D01*
X110894761Y-115387380D01*
X110323333Y-111577380D02*
X109990000Y-111101190D01*
X109751904Y-111577380D02*
X109751904Y-110577380D01*
X110132857Y-110577380D01*
X110228095Y-110625000D01*
X110275714Y-110672619D01*
X110323333Y-110767857D01*
X110323333Y-110910714D01*
X110275714Y-111005952D01*
X110228095Y-111053571D01*
X110132857Y-111101190D01*
X109751904Y-111101190D01*
X110894761Y-111005952D02*
X110799523Y-110958333D01*
X110751904Y-110910714D01*
X110704285Y-110815476D01*
X110704285Y-110767857D01*
X110751904Y-110672619D01*
X110799523Y-110625000D01*
X110894761Y-110577380D01*
X111085238Y-110577380D01*
X111180476Y-110625000D01*
X111228095Y-110672619D01*
X111275714Y-110767857D01*
X111275714Y-110815476D01*
X111228095Y-110910714D01*
X111180476Y-110958333D01*
X111085238Y-111005952D01*
X110894761Y-111005952D01*
X110799523Y-111053571D01*
X110751904Y-111101190D01*
X110704285Y-111196428D01*
X110704285Y-111386904D01*
X110751904Y-111482142D01*
X110799523Y-111529761D01*
X110894761Y-111577380D01*
X111085238Y-111577380D01*
X111180476Y-111529761D01*
X111228095Y-111482142D01*
X111275714Y-111386904D01*
X111275714Y-111196428D01*
X111228095Y-111101190D01*
X111180476Y-111053571D01*
X111085238Y-111005952D01*
X143343333Y-115387380D02*
X143010000Y-114911190D01*
X142771904Y-115387380D02*
X142771904Y-114387380D01*
X143152857Y-114387380D01*
X143248095Y-114435000D01*
X143295714Y-114482619D01*
X143343333Y-114577857D01*
X143343333Y-114720714D01*
X143295714Y-114815952D01*
X143248095Y-114863571D01*
X143152857Y-114911190D01*
X142771904Y-114911190D01*
X143819523Y-115387380D02*
X144010000Y-115387380D01*
X144105238Y-115339761D01*
X144152857Y-115292142D01*
X144248095Y-115149285D01*
X144295714Y-114958809D01*
X144295714Y-114577857D01*
X144248095Y-114482619D01*
X144200476Y-114435000D01*
X144105238Y-114387380D01*
X143914761Y-114387380D01*
X143819523Y-114435000D01*
X143771904Y-114482619D01*
X143724285Y-114577857D01*
X143724285Y-114815952D01*
X143771904Y-114911190D01*
X143819523Y-114958809D01*
X143914761Y-115006428D01*
X144105238Y-115006428D01*
X144200476Y-114958809D01*
X144248095Y-114911190D01*
X144295714Y-114815952D01*
X143502142Y-111577380D02*
X143168809Y-111101190D01*
X142930714Y-111577380D02*
X142930714Y-110577380D01*
X143311666Y-110577380D01*
X143406904Y-110625000D01*
X143454523Y-110672619D01*
X143502142Y-110767857D01*
X143502142Y-110910714D01*
X143454523Y-111005952D01*
X143406904Y-111053571D01*
X143311666Y-111101190D01*
X142930714Y-111101190D01*
X144454523Y-111577380D02*
X143883095Y-111577380D01*
X144168809Y-111577380D02*
X144168809Y-110577380D01*
X144073571Y-110720238D01*
X143978333Y-110815476D01*
X143883095Y-110863095D01*
X145073571Y-110577380D02*
X145168809Y-110577380D01*
X145264047Y-110625000D01*
X145311666Y-110672619D01*
X145359285Y-110767857D01*
X145406904Y-110958333D01*
X145406904Y-111196428D01*
X145359285Y-111386904D01*
X145311666Y-111482142D01*
X145264047Y-111529761D01*
X145168809Y-111577380D01*
X145073571Y-111577380D01*
X144978333Y-111529761D01*
X144930714Y-111482142D01*
X144883095Y-111386904D01*
X144835476Y-111196428D01*
X144835476Y-110958333D01*
X144883095Y-110767857D01*
X144930714Y-110672619D01*
X144978333Y-110625000D01*
X145073571Y-110577380D01*
X110482142Y-124277380D02*
X110148809Y-123801190D01*
X109910714Y-124277380D02*
X109910714Y-123277380D01*
X110291666Y-123277380D01*
X110386904Y-123325000D01*
X110434523Y-123372619D01*
X110482142Y-123467857D01*
X110482142Y-123610714D01*
X110434523Y-123705952D01*
X110386904Y-123753571D01*
X110291666Y-123801190D01*
X109910714Y-123801190D01*
X111434523Y-124277380D02*
X110863095Y-124277380D01*
X111148809Y-124277380D02*
X111148809Y-123277380D01*
X111053571Y-123420238D01*
X110958333Y-123515476D01*
X110863095Y-123563095D01*
X112386904Y-124277380D02*
X111815476Y-124277380D01*
X112101190Y-124277380D02*
X112101190Y-123277380D01*
X112005952Y-123420238D01*
X111910714Y-123515476D01*
X111815476Y-123563095D01*
X109093095Y-80472380D02*
X109093095Y-81281904D01*
X109140714Y-81377142D01*
X109188333Y-81424761D01*
X109283571Y-81472380D01*
X109474047Y-81472380D01*
X109569285Y-81424761D01*
X109616904Y-81377142D01*
X109664523Y-81281904D01*
X109664523Y-80472380D01*
X110664523Y-81472380D02*
X110093095Y-81472380D01*
X110378809Y-81472380D02*
X110378809Y-80472380D01*
X110283571Y-80615238D01*
X110188333Y-80710476D01*
X110093095Y-80758095D01*
X139152380Y-90931904D02*
X139961904Y-90931904D01*
X140057142Y-90884285D01*
X140104761Y-90836666D01*
X140152380Y-90741428D01*
X140152380Y-90550952D01*
X140104761Y-90455714D01*
X140057142Y-90408095D01*
X139961904Y-90360476D01*
X139152380Y-90360476D01*
X139247619Y-89931904D02*
X139200000Y-89884285D01*
X139152380Y-89789047D01*
X139152380Y-89550952D01*
X139200000Y-89455714D01*
X139247619Y-89408095D01*
X139342857Y-89360476D01*
X139438095Y-89360476D01*
X139580952Y-89408095D01*
X140152380Y-89979523D01*
X140152380Y-89360476D01*
X115393245Y-103631904D02*
X116202769Y-103631904D01*
X116298007Y-103584285D01*
X116345626Y-103536666D01*
X116393245Y-103441428D01*
X116393245Y-103250952D01*
X116345626Y-103155714D01*
X116298007Y-103108095D01*
X116202769Y-103060476D01*
X115393245Y-103060476D01*
X115393245Y-102679523D02*
X115393245Y-102060476D01*
X115774198Y-102393809D01*
X115774198Y-102250952D01*
X115821817Y-102155714D01*
X115869436Y-102108095D01*
X115964674Y-102060476D01*
X116202769Y-102060476D01*
X116298007Y-102108095D01*
X116345626Y-102155714D01*
X116393245Y-102250952D01*
X116393245Y-102536666D01*
X116345626Y-102631904D01*
X116298007Y-102679523D01*
M02*
