M48
; DRILL file {KiCad 5.1.2-f72e74a~84~ubuntu18.04.1} date Do 13 Jun 2019 20:10:26 CEST
; FORMAT={-:-/ absolute / metric / decimal}
; #@! TF.CreationDate,2019-06-13T20:10:26+02:00
; #@! TF.GenerationSoftware,Kicad,Pcbnew,5.1.2-f72e74a~84~ubuntu18.04.1
FMAT,2
METRIC
T1C0.400
T2C0.650
T3C0.750
T4C0.800
T5C1.016
T6C1.100
T7C1.200
T8C3.200
T9C3.500
%
G90
G05
T1
X121.92Y-87.63
X125.73Y-87.63
X127.0Y-96.52
X128.27Y-82.55
X131.445Y-114.3
X134.62Y-109.22
X139.7Y-87.63
X142.24Y-114.3
T2
X140.97Y-76.2
X140.97Y-77.47
X140.97Y-78.74
X140.97Y-80.01
T3
X140.97Y-85.09
X142.24Y-85.09
X143.51Y-85.09
T4
X111.125Y-121.92
X121.285Y-121.92
X106.045Y-105.41
X108.545Y-105.41
X111.8Y-105.41
X114.3Y-105.41
X121.92Y-86.36
X121.92Y-93.98
X124.46Y-86.36
X124.46Y-93.98
X127.0Y-86.36
X127.0Y-93.98
X129.54Y-86.36
X129.54Y-93.98
X132.08Y-86.36
X132.08Y-93.98
X134.62Y-86.36
X134.62Y-93.98
X137.16Y-86.36
X137.16Y-93.98
X133.985Y-121.92
X144.145Y-121.92
X118.11Y-99.06
X118.11Y-106.68
X120.65Y-99.06
X120.65Y-106.68
X123.19Y-99.06
X123.19Y-106.68
X125.73Y-99.06
X125.73Y-106.68
X128.27Y-99.06
X128.27Y-106.68
X130.81Y-99.06
X130.81Y-106.68
X133.35Y-99.06
X133.35Y-106.68
X135.89Y-99.06
X135.89Y-106.68
X125.095Y-113.03
X125.095Y-115.57
X125.095Y-118.11
X125.095Y-120.65
X125.095Y-123.19
X130.175Y-113.03
X130.175Y-115.57
X130.175Y-118.11
X130.175Y-120.65
X130.175Y-123.19
X142.875Y-89.535
X142.875Y-99.695
X118.11Y-88.94
X118.11Y-91.44
X139.7Y-101.64
X139.7Y-104.14
X147.32Y-95.25
X147.32Y-105.41
X133.985Y-116.84
X144.145Y-116.84
X133.985Y-125.73
X144.145Y-125.73
X111.125Y-116.84
X121.285Y-116.84
X111.125Y-125.73
X121.285Y-125.73
X111.125Y-113.03
X121.285Y-113.03
X133.985Y-113.03
X144.145Y-113.03
T5
X125.73Y-77.47
X125.73Y-80.01
X128.27Y-77.47
X128.27Y-80.01
X130.81Y-77.47
X130.81Y-80.01
T6
X107.315Y-101.6
X109.855Y-101.6
X112.395Y-101.6
X147.32Y-82.55
X147.32Y-92.71
X124.46Y-131.39
X124.46Y-135.89
X130.96Y-131.39
X130.96Y-135.89
T7
X114.3Y-76.2
X114.3Y-78.74
T8
X148.59Y-76.2
X105.41Y-135.89
X148.59Y-135.89
X105.41Y-76.2
T9
X109.855Y-84.94
T0
M30
